<?xml version="1.0" encoding="UTF-8"?>
<svg width="145px" height="147px" viewBox="0 0 145 147" version="1.1" xmlns="http://www.w3.org/2000/svg" xmlns:xlink="http://www.w3.org/1999/xlink">
    <!-- Generator: Sketch 61.2 (89653) - https://sketch.com -->
    <title>Group 8 Copy 4</title>
    <desc>Created with Sketch.</desc>
    <g id="Page-1" stroke="none" stroke-width="1" fill="none" fill-rule="evenodd">
        <g id="Home" transform="translate(-305.000000, -3174.000000)" fill-rule="nonzero">
            <g id="Group-8-Copy-4" transform="translate(305.000000, 3174.000000)">
                <rect id="Rectangle" fill="#1B1E76" x="0" y="0" width="145" height="147" rx="23"></rect>
                <g id="Group-2" transform="translate(46.000000, 30.000000)">
                    <path d="M33.6239953,0 L16.1357561,0 C7.21563744,0.049839391 0,7.2955688 0,16.2023926 L0,18.5671406 C3.65777764,13.2330141 9.67113534,10.0636223 16.1357561,10.0636223 L33.6239953,10.0636223 C46.8523373,10.0636223 58.0777504,20.0767495 58.7288495,32.4047852 C59.0795415,38.9462054 56.7742471,45.185966 52.3145143,49.9154618 C48.2054735,54.242964 42.8941531,56.8090367 37.0309987,57.2621816 C34.1248907,61.0860434 32.5209804,65.6653652 32.5209804,70.3955169 L32.5209804,71.0493312 C32.8220401,69.2387186 34.1248907,67.8294442 35.828719,67.3258039 C44.898388,67.1743186 53.3169579,63.5012867 59.5804368,56.8595316 C65.9947725,50.1167866 69.2019402,41.2106187 68.7506768,31.9011451 C67.7985185,14.3399733 52.0643932,0 33.6239953,0" id="Fill-3" fill="#FFFFFF"></path>
                    <path d="M37.1479664,57.5390998 C34.2326792,61.3624387 32.6237026,65.9411351 32.6237026,70.6706401 L32.6237026,71.3243649 C32.5739134,71.6266389 32.5739134,72.0292338 32.5739134,72.3813405 C32.5739134,81.6383979 25.2345958,88.9841135 16.2869567,88.9841135 C7.28887336,88.9841135 0,81.6383979 0,72.6829586 L0,18.8493462 C3.66933127,13.5159487 9.70168305,10.34699 16.1867233,10.34699 C12.8180924,10.3974783 10.0534829,13.1133539 10.0534829,16.4849214 L10.0534829,72.6829586 C10.0534829,76.1043585 12.8180924,78.921211 16.2869567,78.921211 C19.7047216,78.921211 22.5197754,76.1043585 22.5197754,72.6829586 C22.1181864,65.6395165 27.2451613,59.0485021 34.4338012,57.6394207 L35.3883121,57.588932 C35.9923335,57.588932 36.5950445,57.588932 37.1479664,57.5390998" id="Fill-4" fill="#DBDBDB"></path>
                    <path d="M37.1479664,57.2533445 C35.9709428,60.4759513 35.5435047,63.9000125 35.8642576,67.3234173 C34.0450309,67.8273803 32.6539395,69.2375577 32.3324893,71.0493312 L32.3324893,70.395098 C32.3324893,65.6619145 34.0450309,61.0796572 37.1479664,57.2533445" id="Fill-5" fill="#7C7C7C"></path>
                    <path d="M15.822282,10.34699 C9.48325135,10.34699 3.58671692,13.4321756 0,18.624582 C3.04816506,16.5582161 6.49592152,15.1480827 10.1217011,14.4854668 C10.9067956,12.1056671 13.1730679,10.3865682 15.822282,10.34699" id="Fill-6" fill="#7C7C7C"></path>
                </g>
            </g>
        </g>
    </g>
</svg>