<?xml version="1.0" encoding="UTF-8"?>
<svg width="105px" height="105px" viewBox="0 0 105 105" version="1.1" xmlns="http://www.w3.org/2000/svg" xmlns:xlink="http://www.w3.org/1999/xlink">
    <!-- Generator: Sketch 61.2 (89653) - https://sketch.com -->
    <title>Group 73</title>
    <desc>Created with Sketch.</desc>
    <defs>
        <rect id="path-1" x="0" y="0" width="75" height="75" rx="11"></rect>
        <filter x="-32.7%" y="-27.3%" width="165.3%" height="165.3%" filterUnits="objectBoundingBox" id="filter-2">
            <feOffset dx="0" dy="4" in="SourceAlpha" result="shadowOffsetOuter1"></feOffset>
            <feGaussianBlur stdDeviation="7.5" in="shadowOffsetOuter1" result="shadowBlurOuter1"></feGaussianBlur>
            <feColorMatrix values="0 0 0 0 0.168627451   0 0 0 0 0.4   0 0 0 0 0.929411765  0 0 0 0.598503059 0" type="matrix" in="shadowBlurOuter1"></feColorMatrix>
        </filter>
    </defs>
    <g id="Page-1" stroke="none" stroke-width="1" fill="none" fill-rule="evenodd">
        <g id="Home" transform="translate(-1321.000000, -901.000000)">
            <g id="Group-73" transform="translate(1336.000000, 912.000000)">
                <g id="Rectangle">
                    <use fill="black" fill-opacity="1" filter="url(#filter-2)" xlink:href="#path-1"></use>
                    <use fill="#2B66ED" fill-rule="evenodd" xlink:href="#path-1"></use>
                </g>
                <g id="writing" transform="translate(20.000000, 18.000000)" fill="#FFFFFF" fill-rule="nonzero">
                    <path d="M34.6561282,0.342653489 C34.1995614,-0.114217856 33.4588207,-0.114217856 33.0022539,0.342653489 L23.9881823,9.35672515 L3.54775828,9.35672515 C1.61306043,9.35672515 0.0389863548,10.9307992 0.0389863548,12.8654971 L0.0389863548,29.2394615 C0.0389863548,31.1744639 1.61306043,32.7482335 3.54775828,32.7482335 L4.79532164,32.7482335 L4.79532164,38.7521321 C4.79532164,39.2275828 5.08315057,39.6558236 5.52327002,39.8352218 C5.96978558,40.0173611 6.47325778,39.9049708 6.80098682,39.5702363 L13.4743543,32.7482335 L27.0955166,32.7482335 C29.0302144,32.7482335 30.6042885,31.1744639 30.6042885,29.2394615 L30.6042885,15.9728313 L39.6183602,6.95875977 C40.0749269,6.50188842 40.0749269,5.76145224 39.6183602,5.3045809 L34.6561282,0.342653489 Z M23.9047271,19.3640351 L20.596674,16.055982 L30.5211379,6.13182261 L33.829191,9.43987571 L23.9047271,19.3640351 Z M19.3506335,18.1179946 L21.8427144,20.6100756 L17.5712719,22.3894371 L19.3506335,18.1179946 Z M28.2651072,29.2394615 C28.2651072,29.8845638 27.7403143,30.4090522 27.0955166,30.4090522 L12.9824561,30.4090522 C12.6678241,30.4090522 12.366289,30.5360624 12.1463816,30.760843 L7.13450292,35.8841984 L7.13450292,31.5786428 C7.13450292,30.9329313 6.61092834,30.4090522 5.96491228,30.4090522 L3.54775828,30.4090522 C2.90296055,30.4090522 2.37816764,29.8845638 2.37816764,29.2394615 L2.37816764,12.8654971 C2.37816764,12.2203947 2.90296055,11.6959064 3.54775828,11.6959064 L21.6486964,11.6959064 L18.115558,15.2290448 C18.0180921,15.3265107 17.92154,15.4608309 17.8572734,15.6198221 L14.619883,23.3918129 L8.30409357,23.3918129 C7.6580775,23.3918129 7.13450292,23.9153874 7.13450292,24.5614035 C7.13450292,25.207115 7.6580775,25.7300804 8.30409357,25.7300804 L15.399001,25.7300804 L15.3999147,25.7300804 C15.5503777,25.7300804 15.7118055,25.6993177 15.8595273,25.6359649 L24.3408869,22.1034356 C24.4822125,22.0483065 24.6247563,21.9523635 24.7319688,21.845151 L28.2651072,18.3120126 L28.2651072,29.2394615 Z M35.4830653,7.78569684 L32.1750122,4.47764374 L33.829191,2.82376951 L37.1372441,6.13182261 L35.4830653,7.78569684 Z" id="Shape"></path>
                </g>
            </g>
        </g>
    </g>
</svg>