<?xml version="1.0" encoding="UTF-8"?>
<svg width="86px" height="86px" viewBox="0 0 86 86" version="1.1" xmlns="http://www.w3.org/2000/svg" xmlns:xlink="http://www.w3.org/1999/xlink">
    <!-- Generator: Sketch 61.2 (89653) - https://sketch.com -->
    <title>Group 12</title>
    <desc>Created with Sketch.</desc>
    <g id="Page-1" stroke="none" stroke-width="1" fill="none" fill-rule="evenodd">
        <g id="Home" transform="translate(-1011.000000, -1989.000000)">
            <g id="Group-12" transform="translate(1011.000000, 1989.000000)">
                <rect id="Rectangle-Copy-6" fill="#6DD5FF" x="7.10542736e-15" y="0" width="86" height="86" rx="22"></rect>
                <g id="group" transform="translate(20.724138, 31.459770)" fill="#041E8B" fill-rule="nonzero">
                    <path d="M37.7754732,12.3001186 C39.0545329,11.3941608 39.9014778,9.88713496 39.9014778,8.1884642 C39.9014778,5.40961305 37.6717656,3.16214096 34.9148734,3.16214096 C32.1579812,3.16214096 29.9282689,5.40961305 29.9282689,8.1884642 C29.9282689,9.88713496 30.7665716,11.3941608 32.0542736,12.3001186 C30.9567021,12.6834084 29.9541958,13.2757654 29.1072509,14.042345 C27.940541,13.0405648 26.566416,12.2739852 25.0626566,11.8210063 C26.886181,10.7059814 28.1133869,8.6762876 28.1133869,6.36783758 C28.1133869,2.8485402 25.2873563,0 21.795869,0 C18.3043816,0 15.4783511,2.85725134 15.4783511,6.36783758 C15.4783511,8.6762876 16.6969147,10.7059814 18.5290813,11.8210063 C17.0426065,12.2739852 15.6857661,13.0318537 14.5276986,14.0162116 C13.6807536,13.2670542 12.6955319,12.6834084 11.615245,12.3088297 C12.8943047,11.402872 13.7412497,9.89584609 13.7412497,8.19717533 C13.7412497,5.41832418 11.5115375,3.17085209 8.75464523,3.17085209 C5.997753,3.17085209 3.76804079,5.41832418 3.76804079,8.19717533 C3.76804079,9.89584609 4.60634344,11.402872 5.89404546,12.3088297 C2.46305419,13.5022548 0,16.7863516 0,20.6453831 L0,21.2203179 C0,21.2377401 0.0172845908,21.2551624 0.0345691816,21.2551624 L10.6040964,21.2551624 C10.5436004,21.7342747 10.5090312,22.2308092 10.5090312,22.7273437 L10.5090312,23.3197007 C10.5090312,25.8807735 12.5658975,27.954023 15.1067323,27.954023 L28.5022902,27.954023 C31.0431251,27.954023 33.0999914,25.8807735 33.0999914,23.3197007 L33.0999914,22.7273437 C33.0999914,22.2308092 33.0654222,21.7342747 33.0049261,21.2551624 L43.6435917,21.2551624 C43.6608763,21.2551624 43.6781609,21.2377401 43.6781609,21.2203179 L43.6781609,20.6453831 C43.6608763,16.7776405 41.2064644,13.4935437 37.7754732,12.3001186 Z M31.3110362,8.17975307 C31.3110362,6.17619268 32.9271454,4.54721097 34.9148734,4.54721097 C36.9026013,4.54721097 38.5187106,6.17619268 38.5187106,8.17975307 C38.5187106,10.1571801 36.9371705,11.7687395 34.9840118,11.8122952 C34.9580849,11.8122952 34.9408003,11.8122952 34.9148734,11.8122952 C34.8889465,11.8122952 34.8716619,11.8122952 34.845735,11.8122952 C32.883934,11.7774506 31.3110362,10.1658912 31.3110362,8.17975307 Z M16.8438337,6.36783758 C16.8438337,3.62383096 19.0562613,1.39378114 21.7785844,1.39378114 C24.5009074,1.39378114 26.7133351,3.62383096 26.7133351,6.36783758 C26.7133351,9.01602175 24.6478265,11.1850936 22.0637801,11.3331829 C21.9687149,11.3331829 21.8736496,11.3331829 21.7785844,11.3331829 C21.6835191,11.3331829 21.5884539,11.3331829 21.4933886,11.3331829 C18.9093423,11.1850936 16.8438337,9.01602175 16.8438337,6.36783758 Z M5.12488117,8.17975307 C5.12488117,6.17619268 6.74099041,4.54721097 8.72871835,4.54721097 C10.7164463,4.54721097 12.3325555,6.17619268 12.3325555,8.17975307 C12.3325555,10.1571801 10.7510155,11.7687395 8.79785671,11.8122952 C8.77192982,11.8122952 8.75464523,11.8122952 8.72871835,11.8122952 C8.70279146,11.8122952 8.68550687,11.8122952 8.65957998,11.8122952 C6.70642123,11.7774506 5.12488117,10.1658912 5.12488117,8.17975307 Z M10.8460807,19.8526701 L1.40005185,19.8526701 C1.78895515,16.1417278 4.90018149,13.2322097 8.67686458,13.2060763 C8.69414917,13.2060763 8.71143376,13.2060763 8.72871835,13.2060763 C8.74600294,13.2060763 8.76328753,13.2060763 8.78057212,13.2060763 C10.5781696,13.2147874 12.2202057,13.8855446 13.4906231,14.9744361 C12.2461326,16.3333727 11.321407,18.0059101 10.8460807,19.8526701 Z M31.6999395,23.3197007 C31.6999395,25.1054828 30.2566762,26.5602418 28.4850056,26.5602418 L15.0894478,26.5602418 C13.3177772,26.5602418 11.8745139,25.1054828 11.8745139,23.3197007 L11.8745139,22.7273437 C11.8745139,17.3177307 16.1610924,12.8924755 21.4933886,12.7356752 C21.5884539,12.7443863 21.6921614,12.7443863 21.7872267,12.7443863 C21.8822919,12.7443863 21.9859995,12.7443863 22.0810647,12.7356752 C27.413361,12.8924755 31.6999395,17.3177307 31.6999395,22.7273437 L31.6999395,23.3197007 L31.6999395,23.3197007 Z M32.7283727,19.8526701 C32.2530464,18.0146212 31.3456054,16.3682173 30.1097572,15.0092807 C31.3888169,13.8942557 33.0481376,13.2234986 34.8630196,13.2060763 C34.8803042,13.2060763 34.8975888,13.2060763 34.9148734,13.2060763 C34.932158,13.2060763 34.9494426,13.2060763 34.9667272,13.2060763 C38.7434102,13.2322097 41.8546366,16.1417278 42.2435399,19.8526701 L32.7283727,19.8526701 Z" id="Shape"></path>
                </g>
            </g>
        </g>
    </g>
</svg>