<?xml version="1.0" encoding="UTF-8"?>
<svg width="15px" height="15px" viewBox="0 0 15 15" version="1.1" xmlns="http://www.w3.org/2000/svg" xmlns:xlink="http://www.w3.org/1999/xlink">
    <!-- Generator: Sketch 61.2 (89653) - https://sketch.com -->
    <title>invoice copy</title>
    <desc>Created with Sketch.</desc>
    <g id="Page-1" stroke="none" stroke-width="1" fill="none" fill-rule="evenodd">
        <g id="Document-Upload" transform="translate(-841.000000, -597.000000)" fill-rule="nonzero">
            <g id="invoice-copy" transform="translate(841.000000, 597.000000)">
                <g id="Group" transform="translate(0.234375, 0.234375)">
                    <g transform="translate(7.001953, 0.000000)" fill="#A4C2F7" id="Path">
                        <path d="M7.51373047,8.015625 L7.51373047,14.015625 C7.51291992,14.2914258 7.28953125,14.5148145 7.01373047,14.515625 L3.01373047,14.515625 C2.73793945,14.5148145 2.51455078,14.2914258 2.51373047,14.015625 L2.51373047,8.015625 L7.51373047,8.015625 Z"></path>
                        <path d="M7.51374023,2.47561523 L7.51374023,8.015625 L2.51374023,8.015625 L2.51374023,2.51563477 C2.51323242,1.13510742 1.39423828,0.0161132812 0.0137402344,0.0156145992 L5.05371094,0.0156145992 C5.70629883,0.0151464844 6.33228516,0.274160156 6.79374023,0.735615234 C7.25516602,1.19707031 7.51420898,1.82305664 7.51374023,2.47561523 Z"></path>
                    </g>
                    <g transform="translate(7.001953, 0.000000)" fill="#E3E7F2" id="Path">
                        <path d="M6.76374023,8.015625 L6.76374023,14.015625 C6.76291992,14.2914258 6.53956055,14.5148145 6.26373047,14.515625 L3.01373047,14.515625 C2.73793945,14.5148145 2.51455078,14.2914258 2.51373047,14.015625 L2.51373047,8.015625 L6.76374023,8.015625 Z"></path>
                        <path d="M6.76374087,2.47561523 L6.76374087,8.015625 L2.51374023,8.015625 L2.51374023,2.51563477 C2.51323242,1.13510742 1.39423828,0.0161132812 0.0137402344,0.0156145992 L4.30371094,0.0156145992 C4.95629883,0.0151464844 5.58228516,0.274160156 6.04374023,0.735615234 C6.50516602,1.19707031 6.76420898,1.82305664 6.76374087,2.47561523 Z"></path>
                        <path d="M3.76374023,9.01561523 L6.26373047,9.01561523 C6.40180664,9.01561523 6.5137207,9.12755859 6.5137207,9.26560547 L6.5137207,9.76561523 C6.5137207,9.90369141 6.40177734,10.0156152 6.26373047,10.0156152 L3.76374023,10.0156152 C3.62566406,10.0156152 3.51375,9.90366211 3.51375,9.76561523 L3.51375,9.26560547 C3.51375,9.12755859 3.62566406,9.01561523 3.76374023,9.01561523 Z"></path>
                    </g>
                    <path d="M9.51568359,2.51563477 L9.51568359,12.0156445 C9.51518555,13.3961426 8.39619141,14.5151367 7.01569336,14.5156348 L2.26570312,14.5156348 C3.50830078,14.5156348 4.51558594,13.5082324 4.51570312,12.2656348 L4.51570312,2.26561523 C4.51570312,1.138125 5.44321289,0.213105469 6.62569336,0.043125 C6.75492187,0.025078125 6.88523438,0.0159082031 7.01572266,0.0156152344 C8.39619141,0.0161132812 9.51518555,1.13510742 9.51568359,2.51563477 Z" id="Path" fill="#A4C2F7"></path>
                    <path d="M8.76568359,2.51563477 L8.76568359,12.0156445 C8.76518555,13.3961426 7.64619141,14.5151367 6.26570312,14.5156348 L2.26570312,14.5156348 C3.50830078,14.5156348 4.51558594,13.5082324 4.51570312,12.2656348 L4.51570312,2.26561523 C4.51570312,1.138125 5.44321289,0.213105469 6.62569336,0.043125 C7.85428711,0.221044922 8.76580078,1.27420898 8.76568359,2.51563477 Z" id="Path" fill="#E3E7F2"></path>
                    <path d="M4.51570312,5.26560547 L4.51570312,12.1881152 C4.53076172,13.392334 3.61535156,14.4047168 2.41570312,14.510625 C2.24033203,14.5225195 2.06416992,14.5141113 1.89070312,14.4856348 C0.808037109,14.3017676 0.0158496094,13.3637988 0.015703125,12.2656348 L0.015703125,5.26560547 C0.0165234375,4.98981445 0.239882812,4.76642578 0.515703125,4.76560547 L4.01572266,4.76560547 C4.29149414,4.76642578 4.51488281,4.98981445 4.51570312,5.26560547 Z" id="Path" fill="#A4C2F7"></path>
                    <g transform="translate(0.000000, 4.746094)" fill="#E3E7F2">
                        <path d="M3.76570313,0.519511719 L3.76570313,7.44202148 C3.77557617,8.55946289 2.98746094,9.52520508 1.89070313,9.73951172 C0.808037109,9.55564453 0.0158496094,8.61767578 0.015703125,7.51951172 L0.015703125,0.519511719 C0.0165234375,0.243720703 0.239882813,0.0203320313 0.515703125,0.0195117187 L3.26572266,0.0195117187 C3.54149414,0.0203320312 3.76488281,0.243720703 3.76570313,0.519511719 Z" id="Path"></path>
                        <rect id="Rectangle" x="10.5157031" y="6.26953125" width="1" height="1"></rect>
                    </g>
                </g>
                <path d="M2.58758789,14.7455859 C2.55829102,14.7467285 2.52960938,14.7500098 2.50004883,14.7500098 L3.25004883,14.7500098 C3.27958008,14.7500098 3.30829102,14.7467285 3.33758789,14.7455859 C3.18295898,14.7526172 3.02797852,14.7440332 2.87504883,14.7200098 C1.79238281,14.5361426 1.00019531,13.5981738 1.00004883,12.5000098 L1.00004883,5.49998047 C1.00086914,5.22418945 1.22422852,5.00080078 1.50005859,4.99998047 L0.750048828,4.99998047 C0.474257813,5.00080078 0.250869141,5.22416016 0.250048828,5.49998047 L0.250048828,12.4999805 C0.250195313,13.5981445 1.04238281,14.5361133 2.12504883,14.7199805 C2.27797852,14.7440332 2.43295898,14.7525879 2.58758789,14.7455859 Z" id="Path" fill="#FFFFFF"></path>
                <g id="Group">
                    <polygon id="Path" fill="#FFFFFF" points="0.500068359 5.49999023 0.500068359 8.75000977 0.500068359 12.5000098 5.859375e-05 12.5000098 5.859375e-05 8.75000977 5.859375e-05 5.49999023"></polygon>
                    <g fill="#428DFF">
                        <path d="M11.0000586,10.5 L13.5000586,10.5 C13.7760645,10.4996777 13.9997461,10.2760254 14.0000586,9.99999023 L14.0000586,9.4999707 C13.9997461,9.22397461 13.7760938,9.00029297 13.5000586,8.9999707 L11.0000586,8.9999707 C10.7240625,9.00029297 10.5003809,9.22394531 10.5000586,9.4999707 L10.5000586,9.99999023 C10.5003809,10.2760254 10.7240625,10.4996777 11.0000586,10.5 Z M11.0000684,9.50000977 L13.5000684,9.50000977 L13.5003223,10.0000098 L11.0000684,10.0000098 L11.0000684,9.50000977 L11.0000684,9.50000977 Z" id="Shape"></path>
                        <path d="M13.7500781,11.4999902 L13.5000879,11.4999902 L13.5000879,11.25 C13.5000879,11.1119238 13.3881738,11.0000098 13.2500977,11.0000098 C13.1120215,11.0000098 13.0001074,11.1119531 13.0001074,11.25 L13.0001074,11.4999902 L12.7501172,11.4999902 C12.612041,11.4999902 12.500127,11.6119043 12.500127,11.7499805 C12.500127,11.8880566 12.6120703,11.9999707 12.7501172,11.9999707 L13.0001074,11.9999707 L13.0001074,12.2499609 C13.0001074,12.3880371 13.1120215,12.4999512 13.2500977,12.4999512 C13.3881738,12.4999512 13.5000879,12.3880371 13.5000879,12.2499609 L13.5000879,12.0000098 L13.7500781,12.0000098 C13.8881543,12.0000098 14.0000684,11.8880566 14.0000684,11.7500098 C14.0000684,11.6119629 13.888125,11.4999902 13.7500781,11.4999902 Z" id="Path"></path>
                        <path d="M13.7500781,13.2500098 L12.7500879,13.2500098 C12.6120117,13.2500098 12.5000977,13.3619238 12.5000977,13.5 C12.5000977,13.6380762 12.612041,13.7499902 12.7500879,13.7499902 L13.7500781,13.7499902 C13.8881543,13.7499902 14.0000684,13.6380762 14.0000684,13.5 C14.0000684,13.3619238 13.888125,13.2500098 13.7500781,13.2500098 Z" id="Path"></path>
                        <path d="M0.250078125,7.74999023 C0.316259766,7.74899414 0.379628906,7.7230957 0.427587891,7.67748047 C0.524267578,7.57889648 0.524267578,7.42107422 0.427587891,7.32249023 L0.390117187,7.29246094 C0.376171875,7.28296875 0.361025391,7.27538086 0.345058594,7.26987305 C0.330878906,7.26266602 0.315673828,7.25765625 0.3,7.25496094 C0.283505859,7.25214844 0.266806641,7.25047852 0.250078125,7.24995117 C0.183896484,7.25085938 0.120498047,7.27675781 0.0725683594,7.32246094 C-0.0218261719,7.42198242 -0.0218261719,7.57795898 0.0725683594,7.67745117 C0.0964453125,7.70003906 0.124423828,7.71785156 0.154980469,7.72995117 C0.185039062,7.7428125 0.217353516,7.74960937 0.250078125,7.74999023 Z" id="Path"></path>
                        <path d="M10.7500781,12.5000098 L11.7500684,12.5000098 C11.8163672,12.5000391 11.8799707,12.4737012 11.926875,12.4267969 C11.97375,12.3799219 12.0000879,12.3163184 12.0000879,12.2499902 L12.0000879,11.25 C12.0001172,11.1837012 11.9737793,11.1200977 11.926875,11.0731934 C11.8799707,11.0262891 11.8163965,10.9999804 11.7500684,10.9999804 L10.7500781,10.9999804 C10.6837793,10.9999512 10.6201758,11.0262891 10.5732715,11.0731934 C10.5263965,11.1200684 10.5000586,11.1836719 10.5000586,11.25 L10.5000586,12.2499902 C10.5000293,12.3162891 10.5263672,12.3798926 10.5732715,12.4267969 C10.6201465,12.4736719 10.68375,12.5000098 10.7500781,12.5000098 Z M11.0000684,11.4999902 L11.5000684,11.4999902 L11.5000684,11.9999902 L11.0000684,11.9999902 L11.0000684,11.4999902 Z" id="Shape"></path>
                        <path d="M12.2910937,0 L7.25006836,0 C5.7337207,0 4.50005859,1.12145508 4.50005859,2.5 L4.50005859,4.79604492 C4.41999023,4.76639648 4.33541016,4.75081055 4.25006836,4.74999023 L0.750058594,4.74999023 C0.336035156,4.75042969 0.000498046875,5.0859668 2.9296875e-05,5.5 L2.9296875e-05,6.49998047 C2.9296875e-05,6.63805664 0.112001953,6.7499707 0.250048828,6.7499707 C0.388095703,6.7499707 0.500029297,6.63802734 0.500029297,6.49998047 L0.500029297,5.5 C0.500185547,5.36197266 0.612011719,5.25011719 0.750029297,5.25 L4.25003906,5.25 C4.38805664,5.25014648 4.49991211,5.36197266 4.5000293,5.5 L4.5000293,12.4227246 C4.51063477,13.3408594 3.91473633,14.1561035 3.03670898,14.4246973 C3.01582031,14.4305273 2.99478516,14.4358008 2.97360352,14.440957 C2.93704102,14.450127 2.90009766,14.4583301 2.86277344,14.4653613 C2.82999023,14.4713965 2.79679687,14.4761426 2.76345703,14.4805664 C2.73269531,14.4846973 2.7019043,14.4887109 2.67067383,14.4913184 C2.63613281,14.4942773 2.60112305,14.4954785 2.56608398,14.4966211 C2.02458984,14.5155176 1.49871094,14.3135156 1.1090918,13.9369922 C0.719472656,13.5604688 0.499628906,13.0417676 0.500009766,12.4999805 L0.500009766,8.5 C0.500009766,8.36191406 0.388066406,8.25 0.250019531,8.25 C0.111972656,8.25 2.9296875e-05,8.36194336 2.9296875e-05,8.5 L2.9296875e-05,12.4999805 C0.00125976562,13.1910645 0.287314453,13.8510645 0.790810547,14.3244434 C1.25220703,14.7600879 1.86328125,15.0019629 2.49785156,15.0001277 L2.50160156,15.0001277 L7.25006836,15.0001277 C8.14669922,14.9993555 8.98658203,14.5611914 9.50006836,13.8261914 L9.50006836,14.25 C9.50050781,14.6640234 9.83604492,14.9995605 10.2500684,15.0001277 L14.2500586,15.0001277 C14.664082,14.9995605 14.9996191,14.6640234 15.0000586,14.25 L15.0000586,2.70899414 C14.9983594,1.21356445 13.7864941,0.00169921875 12.2910937,0 Z M7.25006836,14.4999805 L3.99861328,14.4999805 C4.62893555,14.0283691 5.00003906,13.2872168 5.00006836,12.4999805 L5.00006836,2.49998047 C5.00006836,1.39719727 6.0093457,0.499980469 7.25006836,0.499980469 C8.49213867,0.501386719 9.49866211,1.50791016 9.50006836,2.74998047 L9.50006836,12.2499902 C9.49866211,13.4920605 8.49213867,14.4986133 7.25006836,14.4999805 Z M14.5000781,14.25 C14.4999316,14.3880176 14.3881055,14.499873 14.2500879,14.4999902 L10.2500684,14.4999902 C10.1120508,14.4998438 10.0001953,14.3880176 10.0000781,14.25 L10.0000781,8.49999023 L14.5000781,8.49999023 L14.5000781,14.25 L14.5000781,14.25 Z M14.5000781,8.00000977 L10.0000781,8.00000977 L10.0000781,2.75000977 C9.99958008,2.64439453 9.99304687,2.53889648 9.98047852,2.43404297 C9.97669922,2.40117188 9.97048828,2.36917969 9.96556641,2.33666016 C9.95478516,2.26564453 9.94209961,2.19539063 9.92598633,2.12625 C9.91763672,2.09027344 9.90826172,2.05485352 9.89844727,2.01943359 C9.88025391,1.95345703 9.85945312,1.88879883 9.83651367,1.82490234 C9.82476562,1.79214844 9.81360352,1.75927734 9.8006543,1.72710938 C9.77135742,1.65430664 9.73839844,1.58352539 9.70318359,1.51391602 C9.69304687,1.49390625 9.68458008,1.47310547 9.67397461,1.45338867 C9.62680664,1.36567383 9.57489258,1.2805957 9.51852539,1.19850586 C9.50408203,1.1774707 9.48779297,1.15801758 9.47276367,1.13739258 C9.42905273,1.07730469 9.38375977,1.01865234 9.33541992,0.96234375 C9.31265625,0.935771484 9.28869141,0.910458984 9.26493164,0.884794922 C9.22013672,0.836425781 9.17373047,0.789697266 9.12571289,0.744638672 C9.09949219,0.720087891 9.07327148,0.695800781 9.04611328,0.672275391 C8.99373047,0.626923828 8.93923828,0.584238281 8.88351562,0.542900391 C8.86505859,0.529189453 8.84841797,0.51328125 8.82963867,0.500039063 L12.2910645,0.500039063 C13.5104883,0.501445313 14.4986426,1.48959961 14.5000781,2.70902344 L14.5000781,8.00000977 L14.5000781,8.00000977 Z" id="Shape"></path>
                        <path d="M13.7500781,6.75 L10.7500781,6.75 C10.612002,6.75 10.5000879,6.86194336 10.5000879,6.99999023 C10.5000879,7.13806641 10.612002,7.24998047 10.7500781,7.24998047 L13.7500781,7.24998047 C13.8881543,7.24998047 14.0000684,7.13803711 14.0000684,6.99999023 C14.0000684,6.86194336 13.888125,6.75 13.7500781,6.75 Z" id="Path"></path>
                        <path d="M10.7500781,6.24999023 L11.7500684,6.24999023 C11.8881445,6.24999023 12.0000586,6.13804687 12.0000586,6 C12.0000586,5.86192383 11.8881152,5.75000977 11.7500684,5.75000977 L10.7500781,5.75000977 C10.612002,5.75000977 10.5000879,5.86195313 10.5000879,6 C10.5000586,6.13807617 10.612002,6.24999023 10.7500781,6.24999023 Z" id="Path"></path>
                        <path d="M10.7500781,5.25 L12.5000684,5.25 C12.6381445,5.25 12.7500586,5.13805664 12.7500586,5.00000977 C12.7500586,4.86193359 12.6381152,4.75001953 12.5000684,4.75001953 L10.7500781,4.75001953 C10.612002,4.75001953 10.5000879,4.86196289 10.5000879,5.00000977 C10.5000586,5.13808594 10.612002,5.25 10.7500781,5.25 Z" id="Path"></path>
                        <path d="M10.7500781,3.75 C10.612002,3.75 10.5000879,3.86194336 10.5000879,3.99999023 C10.5000879,4.13803711 10.612002,4.24998047 10.7500781,4.24998047 L13.7500781,4.24998047 C13.8881543,4.24998047 14.0000684,4.13803711 14.0000684,3.99999023 C14.0000684,3.86194336 13.8881543,3.75 13.7500781,3.75 L10.7500781,3.75 L10.7500781,3.75 Z" id="Path"></path>
                        <path d="M10.7500781,3.24999023 L12.5000684,3.24999023 C12.6381445,3.24999023 12.7500586,3.13804688 12.7500586,3 C12.7500586,2.86192383 12.6381152,2.75000977 12.5000684,2.75000977 L10.7500781,2.75000977 C10.612002,2.75000977 10.5000879,2.86195313 10.5000879,3 C10.5000586,3.13807617 10.612002,3.24999023 10.7500781,3.24999023 Z" id="Path"></path>
                        <path d="M5.75006836,11.7500098 L7.50005859,11.7500098 C7.63813477,11.7500098 7.75004883,11.6380957 7.75004883,11.5000195 C7.75004883,11.3619434 7.63813477,11.2500293 7.50005859,11.2500293 L5.75006836,11.2500293 C5.61199219,11.2500293 5.50007813,11.3619434 5.50007813,11.5000195 C5.50007813,11.6380957 5.61199219,11.7500098 5.75006836,11.7500098 Z" id="Path"></path>
                        <path d="M8.75006836,12.2499902 L5.75006836,12.2499902 C5.61199219,12.2499902 5.50007812,12.3619043 5.50007812,12.4999805 C5.50007812,12.6380566 5.61202148,12.7499707 5.75006836,12.7499707 L8.75006836,12.7499707 C8.88814453,12.7499707 9.00005859,12.6380566 9.00005859,12.4999805 C9.00005859,12.3619043 8.88814453,12.2499902 8.75006836,12.2499902 Z" id="Path"></path>
                        <path d="M8.75006836,10.2500098 L5.75006836,10.2500098 C5.61199219,10.2500098 5.50007812,10.3619238 5.50007812,10.5 C5.50007812,10.6380762 5.61202148,10.7499902 5.75006836,10.7499902 L8.75006836,10.7499902 C8.88814453,10.7499902 9.00005859,10.6380762 9.00005859,10.5 C9.00005859,10.3619238 8.88814453,10.2500098 8.75006836,10.2500098 Z" id="Path"></path>
                        <path d="M5.75006836,9.75 L7.00007813,9.75 C7.1381543,9.75 7.25006836,9.63808594 7.25006836,9.50000977 C7.25006836,9.36193359 7.138125,9.25001953 7.00007813,9.25001953 L5.75006836,9.25001953 C5.61199219,9.25001953 5.50007813,9.36196289 5.50007813,9.50000977 C5.50007813,9.63805664 5.61199219,9.75 5.75006836,9.75 Z" id="Path"></path>
                        <path d="M5.75006836,4.74999023 L7.50005859,4.74999023 C7.63813477,4.74999023 7.75004883,4.63804688 7.75004883,4.5 C7.75004883,4.36195313 7.63813477,4.25000977 7.50005859,4.25000977 L5.75006836,4.25000977 C5.61199219,4.25000977 5.50007813,4.36192383 5.50007813,4.5 C5.50007813,4.63807617 5.61199219,4.74999023 5.75006836,4.74999023 Z" id="Path"></path>
                        <path d="M5.75006836,2.75000977 L7.00007813,2.75000977 C7.1381543,2.75000977 7.25006836,2.63806641 7.25006836,2.50001953 C7.25006836,2.36197266 7.138125,2.2500293 7.00007813,2.2500293 L5.75006836,2.2500293 C5.61199219,2.2500293 5.50007813,2.36197266 5.50007813,2.50001953 C5.50007813,2.63806641 5.61199219,2.75000977 5.75006836,2.75000977 Z" id="Path"></path>
                        <path d="M8.75006836,8.25 L5.75006836,8.25 C5.61199219,8.25 5.50007812,8.36194336 5.50007812,8.49999023 C5.50007812,8.63806641 5.61202148,8.74998047 5.75006836,8.74998047 L8.75006836,8.74998047 C8.88814453,8.74998047 9.00005859,8.63803711 9.00005859,8.49999023 C9.00005859,8.36194336 8.88814453,8.25 8.75006836,8.25 Z" id="Path"></path>
                        <path d="M8.75006836,3.24999023 L5.75006836,3.24999023 C5.61199219,3.24999023 5.50007812,3.36193359 5.50007812,3.49998047 C5.50007812,3.63805664 5.61202148,3.7499707 5.75006836,3.7499707 L8.75006836,3.7499707 C8.88814453,3.7499707 9.00005859,3.63802734 9.00005859,3.49998047 C9.00005859,3.36193359 8.88814453,3.24999023 8.75006836,3.24999023 Z" id="Path"></path>
                        <path d="M1.25006836,11.75 L3.00005859,11.75 C3.13813477,11.75 3.25004883,11.6380957 3.25004883,11.5000195 C3.25004883,11.3619434 3.13813477,11.25 3.00005859,11.25 L1.25006836,11.25 C1.11199219,11.25 1.00007812,11.3619141 1.00007812,11.4999902 C1.00007812,11.6380664 1.11199219,11.75 1.25006836,11.75 Z" id="Path"></path>
                        <path d="M1.25006836,12.75 L3.75005859,12.75 C3.88813477,12.75 4.00004883,12.6380859 4.00004883,12.5000098 C4.00004883,12.3619336 3.88813477,12.2500195 3.75005859,12.2500195 L1.25006836,12.2500195 C1.11199219,12.2500195 1.00007812,12.3619336 1.00007812,12.5000098 C1.00007812,12.6380859 1.11199219,12.75 1.25006836,12.75 Z" id="Path"></path>
                        <path d="M1.25006836,10.7499902 L2.25005859,10.7499902 C2.38813477,10.7499902 2.50004883,10.6380762 2.50004883,10.5 C2.50004883,10.3619238 2.38813477,10.2500098 2.25005859,10.2500098 L1.25006836,10.2500098 C1.11199219,10.2500098 1.00007812,10.3619238 1.00007812,10.5 C1.00007812,10.6380762 1.11199219,10.7499902 1.25006836,10.7499902 Z" id="Path"></path>
                        <path d="M1.25006836,7.74999023 L3.75005859,7.74999023 C3.88813477,7.74999023 4.00004883,7.63804687 4.00004883,7.5 C4.00004883,7.36192383 3.88813477,7.25000977 3.75005859,7.25000977 L1.25006836,7.25000977 C1.11199219,7.25000977 1.00007812,7.36195313 1.00007812,7.5 C1.00007812,7.63807617 1.11199219,7.74999023 1.25006836,7.74999023 Z" id="Path"></path>
                        <path d="M1.25006836,9.75 L3.75005859,9.75 C3.88813477,9.75 4.00004883,9.63808594 4.00004883,9.50000977 C4.00004883,9.36193359 3.88813477,9.25001953 3.75005859,9.25001953 L1.25006836,9.25001953 C1.11199219,9.25001953 1.00007812,9.36196289 1.00007812,9.50000977 C1.00007812,9.63805664 1.11199219,9.75 1.25006836,9.75 Z" id="Path"></path>
                        <path d="M1.25006836,8.75000977 L2.75006836,8.75000977 C2.88814453,8.75000977 3.00005859,8.63806641 3.00005859,8.50001953 C3.00005859,8.36194336 2.88811523,8.2500293 2.75006836,8.2500293 L1.25006836,8.2500293 C1.11199219,8.2500293 1.00007812,8.36197266 1.00007812,8.50001953 C1.00007812,8.63806641 1.11199219,8.75000977 1.25006836,8.75000977 Z" id="Path"></path>
                        <path d="M5.75006836,7.74999023 L7.50005859,7.74999023 C7.63813477,7.74999023 7.75004883,7.63804687 7.75004883,7.5 C7.75004883,7.36192383 7.63813477,7.25000977 7.50005859,7.25000977 L5.75006836,7.25000977 C5.61199219,7.25000977 5.50007813,7.36195313 5.50007813,7.5 C5.50007813,7.63807617 5.61199219,7.74999023 5.75006836,7.74999023 Z" id="Path"></path>
                        <path d="M5.75006836,6.75 L6.75005859,6.75 C6.88813477,6.75 7.00004883,6.63805664 7.00004883,6.50000977 C7.00004883,6.36193359 6.88810547,6.25001953 6.75005859,6.25001953 L5.75006836,6.25001953 C5.61199219,6.25001953 5.50007813,6.36196289 5.50007813,6.50000977 C5.50007813,6.63805664 5.61199219,6.75 5.75006836,6.75 Z" id="Path"></path>
                        <path d="M5.75006836,5.75000977 L8.50007813,5.75000977 C8.6381543,5.75000977 8.75006836,5.63806641 8.75006836,5.50001953 C8.75006836,5.36194336 8.6381543,5.2500293 8.50007813,5.2500293 L5.75006836,5.2500293 C5.61199219,5.2500293 5.50007813,5.36197266 5.50007813,5.50001953 C5.50007813,5.63806641 5.61199219,5.75000977 5.75006836,5.75000977 Z" id="Path"></path>
                        <path d="M10.7500781,2.25 L13.5000879,2.25 C13.6381641,2.25 13.7500781,2.13808594 13.7500781,2.00000977 C13.7500781,1.86193359 13.6381348,1.75001953 13.5000879,1.75001953 L10.7500781,1.75001953 C10.612002,1.75001953 10.5000879,1.86196289 10.5000879,2.00000977 C10.5000879,2.13808594 10.612002,2.25 10.7500781,2.25 Z" id="Path"></path>
                        <circle id="Oval" cx="10.7500781" cy="13.5" r="1"></circle>
                        <circle id="Oval" cx="11.7500684" cy="13.5" r="1"></circle>
                    </g>
                </g>
            </g>
        </g>
    </g>
</svg>