<?xml version="1.0" encoding="UTF-8"?>
<svg width="15px" height="15px" viewBox="0 0 15 15" version="1.1" xmlns="http://www.w3.org/2000/svg" xmlns:xlink="http://www.w3.org/1999/xlink">
    <!-- Generator: Sketch 61.2 (89653) - https://sketch.com -->
    <title>factoryer</title>
    <desc>Created with Sketch.</desc>
    <g id="Page-1" stroke="none" stroke-width="1" fill="none" fill-rule="evenodd">
        <g id="Your-Income" transform="translate(-1047.000000, -567.000000)" fill-rule="nonzero">
            <g id="factory" transform="translate(1047.000000, 567.000000)">
                <g id="Group" transform="translate(0.234375, 0.234375)">
                    <g transform="translate(0.996094, 1.757812)" fill="#A4C2F7" id="Path">
                        <path d="M2.519541,1.25780273 L2.519541,8.00780273 L0.0195409993,8.00780273 L0.0195409993,1.25780273 C0.019453125,0.711298828 0.373505859,0.227753906 0.894550781,0.0628125 C1.01630859,0.02671875 1.14257812,0.008203125 1.26955078,0.00782226563 C1.95987305,0.00782226563 2.519541,0.567451172 2.519541,1.25780273 Z"></path>
                        <path d="M7.26953123,1.25780273 L7.26953123,8.00780273 L4.76953123,8.00780273 L4.76953123,1.25780273 C4.76944336,0.711298828 5.12349609,0.227753906 5.64454102,0.0628125 C5.76629883,0.02671875 5.89256836,0.008203125 6.01954102,0.00782226563 C6.70989258,0.00782226563 7.26953123,0.567451172 7.26953123,1.25780273 Z"></path>
                    </g>
                    <g transform="translate(0.996094, 1.816406)" fill="#E3E7F2" id="Path">
                        <path d="M1.76953127,1.19920898 L1.76953127,7.94920898 L0.0195409993,7.94920898 L0.0195409993,1.19920898 C0.019453125,0.652705078 0.373505859,0.169160156 0.894550781,0.00421875 C1.41556641,0.169160156 1.76961914,0.652705078 1.76953127,1.19920898 Z"></path>
                        <path d="M6.5195215,1.19920898 L6.5195215,7.94920898 L4.76953123,7.94920898 L4.76953123,1.19920898 C4.76944336,0.652705078 5.12349609,0.169160156 5.64454102,0.00421875 C6.16555664,0.169160156 6.51960937,0.652705078 6.5195215,1.19920898 Z"></path>
                    </g>
                    <path d="M10.515625,9.26563477 L10.515625,13.7656348 L0.515625,13.7656348 L0.515625,9.52813477 C0.515625,9.38317383 0.633164063,9.26563477 0.778125,9.26563477 L10.515625,9.26563477 Z" id="Path" fill="#A4C2F7"></path>
                    <path d="M9.76561523,9.26563477 L9.76561523,13.7656348 L0.515625,13.7656348 L0.515625,9.52813477 C0.515625,9.38317383 0.633164063,9.26563477 0.778125,9.26563477 L9.76561523,9.26563477 Z" id="Path" fill="#E3E7F2"></path>
                    <rect id="Rectangle" fill="#A4C2F7" x="10.5156152" y="0.0156152344" width="3.50000977" height="13.7499902"></rect>
                    <rect id="Rectangle" fill="#D4E1F4" x="10.5156152" y="0.0156152344" width="2.75000977" height="13.7499902"></rect>
                    <g transform="translate(1.757812, 11.250000)" fill="#FFFFFF" id="Path">
                        <path d="M0.00782226562,0.0156152344 L1.50782227,0.0156152344 L1.50782227,1.01561523 C1.50782227,1.15368164 1.39587891,1.2655957 1.25783203,1.2655957 L0.2578125,1.2655957 C0.119736328,1.2655957 0.00782226562,1.15368164 0.00782226562,1.01561523 L0.00782226562,0.0156152344 Z"></path>
                        <path d="M3.00782227,0.0156152344 L4.50782227,0.0156152344 L4.50782227,1.01561523 C4.50782227,1.15368164 4.39587891,1.2655957 4.25783203,1.2655957 L3.2578125,1.2655957 C3.11973633,1.2655957 3.00782227,1.15368164 3.00782227,1.01561523 L3.00782227,0.0156152344 Z"></path>
                        <path d="M6.00782227,0.0156152344 L7.50782227,0.0156152344 L7.50782227,1.01561523 C7.50782227,1.15368164 7.39587891,1.2655957 7.25783203,1.2655957 L6.2578125,1.2655957 C6.11973633,1.2655957 6.00782227,1.15368164 6.00782227,1.01561523 L6.00782227,0.0156152344 Z"></path>
                    </g>
                    <g transform="translate(11.513672, 1.992188)" fill="#E3E7F2" id="Path">
                        <path d="M0.00196289063,0.0234375 L1.50196289,0.0234375 L1.50196289,1.0234375 C1.50196289,1.16150391 1.39001953,1.27341797 1.25197266,1.27341797 L0.251953125,1.27341797 C0.113876953,1.27341797 0.00196289063,1.16147461 0.00196289063,1.0234375 L0.00196289063,0.0234375 Z"></path>
                        <path d="M0.00196289063,2.77344727 L1.50196289,2.77344727 L1.50196289,3.77344727 C1.50196289,3.91151367 1.39001953,4.02342773 1.25197266,4.02342773 L0.251953125,4.02342773 C0.113876953,4.02342773 0.00196289063,3.91148438 0.00196289063,3.77344727 L0.00196289063,2.77344727 Z"></path>
                        <path d="M0.00196289063,5.52342773 L1.50196289,5.52342773 L1.50196289,6.52342773 C1.50196289,6.66149414 1.39001953,6.7734082 1.25197266,6.7734082 L0.251953125,6.7734082 C0.113876953,6.7734082 0.00196289063,6.66149414 0.00196289063,6.52342773 L0.00196289063,5.52342773 Z"></path>
                        <path d="M0.00196289063,8.2734375 L1.50196289,8.2734375 L1.50196289,9.2734375 C1.50196289,9.41150391 1.39001953,9.52341797 1.25197266,9.52341797 L0.251953125,9.52341797 C0.113876953,9.52341797 0.00196289063,9.41150391 0.00196289063,9.2734375 L0.00196289063,8.2734375 Z"></path>
                    </g>
                    <path d="M14.5156445,13.5156152 L14.5156445,14.2656152 C14.5156445,14.4036914 14.4036914,14.5156152 14.2656445,14.5156152 L0.265634766,14.5156152 C0.127558594,14.5156152 0.0156445313,14.4036621 0.0156445313,14.2656152 L0.0156445313,13.5156152 L14.5156445,13.5156152 Z" id="Path" fill="#A4C2F7"></path>
                    <path d="M13.7656348,13.5156152 L13.7656348,14.2656152 C13.7656348,14.4036914 13.6536914,14.5156152 13.5156445,14.5156152 L0.265634766,14.5156152 C0.127558594,14.5156152 0.0156445313,14.4036621 0.0156445313,14.2656152 L0.0156445313,13.5156152 L13.7656348,13.5156152 Z" id="Path" fill="#E3E7F2"></path>
                </g>
                <g id="Group" transform="translate(0.234375, 1.992188)" fill="#FFFFFF">
                    <path d="M6.515625,1.25780273 C6.51583008,0.716367187 6.86384766,0.236367188 7.37838867,0.0677929688 C7.26117187,0.0297070313 7.13888672,0.00946289063 7.01563477,0.00779296875 C6.88866211,0.00817382813 6.76239258,0.0266894531 6.64063477,0.0627832031 C6.11961914,0.227724609 5.76553711,0.711269531 5.76562498,1.25777344 L5.76562498,7.50776367 L6.515625,7.50776367 L6.515625,1.25780273 L6.515625,1.25780273 Z" id="Path"></path>
                    <path d="M0.265634766,12.7578223 L1.01563477,12.7578223 C0.877558594,12.7578223 0.765644531,12.6458789 0.765644531,12.507832 L0.765644531,11.757832 L1.265625,11.757832 L1.265625,7.77032227 C1.265625,7.62536133 1.38316406,7.50782227 1.528125,7.50782227 L1.76563477,7.50782227 L1.76563477,1.25780273 C1.76583984,0.716367188 2.11385742,0.236367188 2.62839844,0.0677929688 C2.51118164,0.0297070313 2.38889648,0.00946289063 2.26564453,0.00779296875 C2.13867187,0.00817382813 2.01240234,0.0266894531 1.89064453,0.0627832031 C1.36962891,0.227724609 1.01554687,0.711269531 1.01563477,1.25777344 L1.01563477,7.50776367 L0.778125,7.50776367 C0.633164063,7.50776367 0.515615234,7.62530273 0.515615234,7.77026367 L0.515615234,11.7577734 L0.0156152344,11.7577734 L0.0156152344,12.5077734 C0.0156152344,12.6458789 0.127558594,12.7578223 0.265634766,12.7578223 Z" id="Path"></path>
                </g>
                <g id="Group">
                    <polygon id="Path" fill="#FFFFFF" points="1.5 4.25000977 1.5 7.5 1.5 9.50000977 0.999990234 9.50000977 0.999990234 7.5 0.999990234 4.25000977"></polygon>
                    <g fill="#428DFF">
                        <path d="M1.25000977,6.50001396 C1.35158203,6.5005957 1.44339844,6.4396875 1.48236328,6.34587891 C1.52129883,6.25207031 1.49964844,6.14402344 1.42751953,6.07250977 L1.39001953,6.04250977 C1.37607422,6.03304687 1.36095703,6.02548828 1.34501953,6.02000977 C1.33083984,6.01277344 1.31569336,6.00773437 1.30001953,6.00500977 C1.28349609,6.00222656 1.26676758,6.00055664 1.25000977,6 C1.18382812,6.0009668 1.12045898,6.02686523 1.0725,6.07250977 C1.04991211,6.09641602 1.03207031,6.12442383 1.02,6.15500977 C0.982294922,6.24826172 1.00283203,6.35496094 1.0725,6.4275 C1.09640625,6.45008789 1.12441406,6.46792969 1.155,6.48 C1.18505859,6.49280273 1.21734375,6.49959961 1.25000977,6.50001396 Z" id="Path"></path>
                        <path d="M0.5,15 L14.5000195,15 C14.7761719,15 15.0000293,14.7761426 15.0000293,14.5 L15.0000293,13.7499902 C15.0000293,13.6119141 14.8881152,13.5 14.7500391,13.5 L14.5000488,13.5 L14.5000488,0.5 L14.7500391,0.5 C14.8881152,0.5 15.0000293,0.388066406 15.0000293,0.250019531 C15.0000293,0.111972656 14.8880859,0 14.7500098,0 L10.2500098,0 C10.1119336,0 10.0000195,0.111943359 10.0000195,0.249990234 C10.0000195,0.388037109 10.1119629,0.499980469 10.2500098,0.499980469 L10.5,0.499980469 L10.5,9.24999023 L9.75,9.24999023 L9.75,8.5 C9.88807617,8.5 10,8.38804687 10,8.25 C10,8.11195312 9.88807617,8 9.75,8 L9.75,7.25000977 C9.88807617,7.25000977 10,7.13806641 10,7.00001953 C10,6.86194336 9.88807617,6.7500293 9.75,6.7500293 L9.75,6.0000293 C9.88807617,6.0000293 10,5.88808594 10,5.75003906 C10,5.61199219 9.88807617,5.50004883 9.75,5.50004883 L9.75,4.75004883 C9.88807617,4.75004883 10,4.63810547 10,4.50005859 C10,4.36201172 9.88807617,4.25006836 9.75,4.25006836 L9.75,3.75 C9.75,3.61192383 9.63808594,3.5 9.5,3.5 C9.36193359,3.5 9.25001953,3.61195312 9.25001953,3.75 L9.25001953,4.25000977 L8.75000977,4.25000977 L8.75000977,3.25001953 C8.75000977,2.4215918 8.0784375,1.75001953 7.25000977,1.75001953 C6.42158203,1.75001953 5.75000977,2.4215918 5.75000977,3.25001953 L5.75000977,9.25001953 L5,9.25001953 L5,8.50001953 C5.13808594,8.50001953 5.25,8.38807617 5.25,8.2500293 C5.25,8.11198242 5.13805664,8.00003906 5,8.00003906 L5,7.25003906 C5.13808594,7.25003906 5.25,7.1380957 5.25,7.00004883 C5.25,6.86197266 5.13805664,6.75005859 5,6.75005859 L5,6.00005859 C5.13808594,6.00005859 5.25,5.88811523 5.25,5.75006836 C5.25,5.61202148 5.13805664,5.50007813 5,5.50007813 L5,4.75007813 C5.13808594,4.75007813 5.25,4.63813477 5.25,4.50008789 C5.25,4.36204102 5.13805664,4.25009766 5,4.25009766 L5,3.75 C5,3.61192383 4.88806641,3.5 4.75001953,3.5 C4.61194336,3.5 4.5000293,3.61195312 4.5000293,3.75 L4.5000293,4.25000977 L4.00001953,4.25000977 L4.00001953,3.25001953 C4.00001953,2.4215918 3.32844727,1.75001953 2.50001953,1.75001953 C1.6715918,1.75001953 1.00001953,2.4215918 1.00001953,3.25001953 L1.00001953,5.25 C1.00001953,5.38807617 1.11196289,5.5 1.25000977,5.5 C1.38805664,5.5 1.5,5.38807617 1.5,5.25 L1.5,3.24999023 C1.5,2.69771484 1.94771484,2.25 2.5,2.25 C3.05226562,2.25 3.49998047,2.69771484 3.49998047,3.24999023 L3.49998047,9.24999023 L1.5,9.24999023 L1.5,7.24998047 C1.5,7.1119043 1.38805664,7 1.25000977,7 C1.11196289,7 1.00001953,7.11193359 1.00001953,7.24998047 L1.00001953,9.24999023 C0.723867188,9.24999023 0.5,9.47384766 0.5,9.75 L0.5,13.5 L0.249990234,13.5 C0.111943359,13.5 0,13.6119434 0,13.7499902 L0,14.5 C0,14.7761426 0.223857422,15 0.5,15 Z M14.0000098,0.500009766 L14.0000098,13.5000098 L11.0000098,13.5000098 L11.0000098,0.500009766 L14.0000098,0.500009766 Z M9.24998047,9.24999023 L8.74998047,9.24999023 L8.74998047,8.49999023 L9.24998047,8.49999023 L9.24998047,9.24999023 Z M9.24998047,8.00000977 L8.74998047,8.00000977 L8.74998047,7.25000977 L9.24998047,7.25000977 L9.24998047,8.00000977 Z M9.24998047,6.75 L8.74998047,6.75 L8.74998047,6 L9.24998047,6 L9.24998047,6.75 Z M9.24998047,4.74999023 L9.24998047,5.49999023 L8.74998047,5.49999023 L8.74998047,4.74999023 L9.24998047,4.74999023 Z M6.24999023,3.25 C6.24999023,2.69771484 6.69770508,2.25 7.24999023,2.25 C7.80225586,2.25 8.24999023,2.69771484 8.24999023,3.25 L8.24999023,9.25 L6.24999023,9.25 L6.24999023,3.25 L6.24999023,3.25 Z M4.49999023,8.00000977 L3.99999023,8.00000977 L3.99999023,7.25000977 L4.49999023,7.25000977 L4.49999023,8.00000977 Z M4.49999023,6.75 L3.99999023,6.75 L3.99999023,6 L4.49999023,6 L4.49999023,6.75 Z M4.49999023,4.74999023 L4.49999023,5.49999023 L3.99999023,5.49999023 L3.99999023,4.74999023 L4.49999023,4.74999023 Z M3.99999023,8.49999023 L4.49999023,8.49999023 L4.49999023,9.24999023 L3.99999023,9.24999023 L3.99999023,8.49999023 Z M0.999990234,9.75 L10.4999902,9.75 L10.4999902,13.5 L0.999990234,13.5 L0.999990234,9.75 Z M0.500009766,14.0000098 L14.5000098,14.0000098 L14.5000098,14.5000098 L0.500009766,14.5000098 L0.500009766,14.0000098 Z" id="Shape"></path>
                        <path d="M3.75,11.25 L1.74999023,11.25 C1.61191406,11.25 1.5,11.3619141 1.5,11.4999902 C1.5,11.6380664 1.61194336,11.7499805 1.74999023,11.7499805 L1.74999023,12.75 C1.74999023,12.8880762 1.86193359,12.9999902 1.99998047,12.9999902 L3.49998047,12.9999902 C3.63805664,12.9999902 3.7499707,12.8880469 3.7499707,12.75 L3.7499707,11.75 C3.88804688,11.75 3.99996094,11.6380957 3.99996094,11.5000195 C3.99996094,11.3619434 3.88807617,11.25 3.75,11.25 Z M3.25,12.5000098 L2.25,12.5000098 L2.25,11.7500098 L3.25,11.7500098 L3.25,12.5000098 L3.25,12.5000098 Z" id="Shape"></path>
                        <path d="M6.75,11.25 L4.74999023,11.25 C4.61191406,11.25 4.5,11.3619141 4.5,11.4999902 C4.5,11.6380664 4.61194336,11.7499805 4.74999023,11.7499805 L4.74999023,12.75 C4.74999023,12.8880762 4.86193359,12.9999902 4.99998047,12.9999902 L6.49998047,12.9999902 C6.63805664,12.9999902 6.7499707,12.8880469 6.7499707,12.75 L6.7499707,11.75 C6.88804687,11.75 6.99996094,11.6380957 6.99996094,11.5000195 C6.99996094,11.3619434 6.88807617,11.25 6.75,11.25 Z M6.25,12.5000098 L5.25,12.5000098 L5.25,11.7500098 L6.25,11.7500098 L6.25,12.5000098 Z" id="Shape"></path>
                        <path d="M9.75,11.25 L7.74999023,11.25 C7.61191406,11.25 7.5,11.3619141 7.5,11.4999902 C7.5,11.6380664 7.61194336,11.7499805 7.74999023,11.7499805 L7.74999023,12.75 C7.74999023,12.8880762 7.8619043,12.9999902 7.99998047,12.9999902 L9.49998047,12.9999902 C9.63805664,12.9999902 9.7499707,12.8880469 9.7499707,12.75 L9.7499707,11.75 C9.88804688,11.75 9.99996094,11.6380957 9.99996094,11.5000195 C9.99996094,11.3619434 9.88807617,11.25 9.75,11.25 Z M9.25,12.5000098 L8.25,12.5000098 L8.25,11.7500098 L9.25,11.7500098 L9.25,12.5000098 Z" id="Shape"></path>
                        <path d="M11.4999902,2.49999023 L11.4999902,3.49998047 C11.4999902,3.63805664 11.6119043,3.7499707 11.7499707,3.7499707 L13.2499707,3.7499707 C13.3880566,3.7499707 13.4999707,3.63802734 13.4999707,3.49998047 L13.4999707,2.49999023 C13.6380469,2.49999023 13.7499707,2.38807617 13.7499707,2.25 C13.7499707,2.11192383 13.6380469,2.00000977 13.4999707,2.00000977 L11.4999609,2.00000977 C11.3618848,2.00000977 11.2499707,2.11195313 11.2499707,2.25 C11.25,2.38807617 11.3619434,2.49999023 11.4999902,2.49999023 Z M13,2.49999023 L13,3.24999023 L12,3.24999023 L12,2.49999023 L13,2.49999023 Z" id="Shape"></path>
                        <path d="M11.4999902,5.25 L11.4999902,6.24999023 C11.4999902,6.38806641 11.6119043,6.49998047 11.7499707,6.49998047 L13.2499707,6.49998047 C13.3880566,6.49998047 13.4999707,6.38803711 13.4999707,6.24999023 L13.4999707,5.25 C13.6380469,5.25 13.7499707,5.13805664 13.7499707,5.00000977 C13.7499707,4.86193359 13.6380469,4.75001953 13.4999707,4.75001953 L11.4999609,4.75001953 C11.3618848,4.75001953 11.2499707,4.86196289 11.2499707,5.00000977 C11.25,5.13808594 11.3619434,5.25 11.4999902,5.25 Z M13,5.25 L13,6 L12,6 L12,5.25 L13,5.25 Z" id="Shape"></path>
                        <path d="M11.4999902,8 L11.4999902,9 C11.4999902,9.13807617 11.6119043,9.24999023 11.7499805,9.24999023 L13.2499805,9.24999023 C13.3880566,9.24999023 13.4999707,9.13807617 13.4999707,9 L13.4999707,8 C13.6380469,8 13.7499609,7.8880957 13.7499609,7.75001953 C13.7499609,7.61194336 13.6380762,7.5 13.5,7.5 L11.4999902,7.5 C11.3619141,7.5 11.25,7.61194336 11.25,7.74999023 C11.25,7.88803711 11.3619434,8 11.4999902,8 Z M13,8.00000977 L13,8.75000977 L12,8.75000977 L12,8.00000977 L13,8.00000977 Z" id="Shape"></path>
                        <path d="M11.4999902,10.7499902 L11.4999902,11.7499805 C11.4999902,11.8880566 11.6119043,11.9999707 11.7499707,11.9999707 L13.2499707,11.9999707 C13.3880566,11.9999707 13.4999707,11.8880273 13.4999707,11.7499805 L13.4999707,10.7499902 C13.6380469,10.7499902 13.7499707,10.6380762 13.7499707,10.5 C13.7499707,10.3619238 13.6380469,10.2500098 13.4999707,10.2500098 L11.4999609,10.2500098 C11.3618848,10.2500098 11.2499707,10.3619238 11.2499707,10.5 C11.2499707,10.6380762 11.3619434,10.7499902 11.4999902,10.7499902 Z M13,10.7499902 L13,11.4999902 L12,11.4999902 L12,10.7499902 L13,10.7499902 Z" id="Shape"></path>
                        <path d="M1.74999023,10.7499902 L2.74998047,10.7499902 C2.88805664,10.7499902 2.9999707,10.6380762 2.9999707,10.5 C2.9999707,10.3619238 2.88802734,10.2500098 2.74998047,10.2500098 L1.74999023,10.2500098 C1.61191406,10.2500098 1.5,10.3619238 1.5,10.5 C1.5,10.6380762 1.61194336,10.7499902 1.74999023,10.7499902 Z" id="Path"></path>
                        <path d="M6.75,10.2500098 L3.75,10.2500098 C3.61192383,10.2500098 3.50000977,10.3619238 3.50000977,10.5 C3.50000977,10.6380762 3.61195313,10.7499902 3.75,10.7499902 L6.75,10.7499902 C6.88807617,10.7499902 6.99999023,10.6380762 6.99999023,10.5 C6.99999023,10.3619238 6.88807617,10.2500098 6.75,10.2500098 Z" id="Path"></path>
                        <path d="M2.25,3.50000977 L2.75000977,3.50000977 C2.88808594,3.50000977 3.00000977,3.38806641 3.00000977,3.25001953 C3.00000977,3.11194336 2.88805664,3.0000293 2.75000977,3.0000293 L2.25,3.0000293 C2.11192383,3.0000293 2.00000977,3.11197266 2.00000977,3.25001953 C2.00000977,3.38806641 2.11192383,3.50000977 2.25,3.50000977 Z" id="Path"></path>
                        <path d="M2.25,4.74999023 L2.75000977,4.74999023 C2.88808594,4.74999023 3.00000977,4.63804688 3.00000977,4.5 C3.00000977,4.36195313 2.88805664,4.25000977 2.75000977,4.25000977 L2.25,4.25000977 C2.11192383,4.25000977 2.00000977,4.36192383 2.00000977,4.5 C2.00000977,4.63807617 2.11192383,4.74999023 2.25,4.74999023 Z" id="Path"></path>
                        <path d="M2.25,6 L2.75000977,6 C2.88808594,6 3.00000977,5.88805664 3.00000977,5.75000977 C3.00000977,5.61196289 2.88805664,5.50001953 2.75000977,5.50001953 L2.25,5.50001953 C2.11192383,5.50001953 2.00000977,5.61196289 2.00000977,5.75000977 C2.00000977,5.88805664 2.11192383,6 2.25,6 Z" id="Path"></path>
                        <path d="M2.25,7.25000977 L2.75000977,7.25000977 C2.88808594,7.25000977 3.00000977,7.13806641 3.00000977,7.00001953 C3.00000977,6.86194336 2.88805664,6.7500293 2.75000977,6.7500293 L2.25,6.7500293 C2.11192383,6.7500293 2.00000977,6.86197266 2.00000977,7.00001953 C2.00000977,7.13806641 2.11192383,7.25000977 2.25,7.25000977 Z" id="Path"></path>
                        <path d="M2.25,8.49999023 L2.75000977,8.49999023 C2.88808594,8.49999023 3.00000977,8.38804687 3.00000977,8.25 C3.00000977,8.11195312 2.88805664,8.00000977 2.75000977,8.00000977 L2.25,8.00000977 C2.11192383,8.00000977 2.00000977,8.11192383 2.00000977,8.25 C2.00000977,8.38807617 2.11192383,8.49999023 2.25,8.49999023 Z" id="Path"></path>
                        <path d="M7.5,3 L6.99999023,3 C6.86191406,3 6.75,3.11194336 6.75,3.24999023 C6.75,3.38806641 6.86194336,3.49998047 6.99999023,3.49998047 L7.5,3.49998047 C7.63807617,3.49998047 7.75,3.38803711 7.75,3.24999023 C7.75,3.11194336 7.63807617,3 7.5,3 Z" id="Path"></path>
                        <path d="M7.5,4.25000977 L6.99999023,4.25000977 C6.86191406,4.25000977 6.75,4.36192383 6.75,4.5 C6.75,4.63807617 6.86194336,4.74999023 6.99999023,4.74999023 L7.5,4.74999023 C7.63807617,4.74999023 7.75,4.63804687 7.75,4.5 C7.75,4.36195313 7.63807617,4.25000977 7.5,4.25000977 Z" id="Path"></path>
                        <path d="M7.5,5.49999023 L6.99999023,5.49999023 C6.86191406,5.49999023 6.75,5.61193359 6.75,5.74998047 C6.75,5.88802734 6.86194336,5.9999707 6.99999023,5.9999707 L7.5,5.9999707 C7.63807617,5.9999707 7.75,5.88802734 7.75,5.74998047 C7.75,5.61193359 7.63807617,5.49999023 7.5,5.49999023 Z" id="Path"></path>
                        <path d="M7.5,6.75 L6.99999023,6.75 C6.86191406,6.75 6.75,6.86194336 6.75,6.99999023 C6.75,7.13806641 6.86194336,7.24998047 6.99999023,7.24998047 L7.5,7.24998047 C7.63807617,7.24998047 7.75,7.13803711 7.75,6.99999023 C7.75,6.86194336 7.63807617,6.75 7.5,6.75 Z" id="Path"></path>
                        <path d="M7.5,8.00000977 L6.99999023,8.00000977 C6.86191406,8.00000977 6.75,8.11192383 6.75,8.25 C6.75,8.38807617 6.86194336,8.49999023 6.99999023,8.49999023 L7.5,8.49999023 C7.63807617,8.49999023 7.75,8.38804688 7.75,8.25 C7.75,8.11195313 7.63807617,8.00000977 7.5,8.00000977 Z" id="Path"></path>
                    </g>
                </g>
            </g>
        </g>
    </g>
</svg>