<?xml version="1.0" encoding="UTF-8"?>
<svg width="15px" height="19px" viewBox="0 0 15 19" version="1.1" xmlns="http://www.w3.org/2000/svg" xmlns:xlink="http://www.w3.org/1999/xlink">
    <!-- Generator: Sketch 61.2 (89653) - https://sketch.com -->
    <title>touch</title>
    <desc>Created with Sketch.</desc>
    <g id="Page-1" stroke="none" stroke-width="1" fill="none" fill-rule="evenodd">
        <g id="Desktop-HD-Copy-14" transform="translate(-1049.000000, -590.000000)" fill-rule="nonzero">
            <g id="touch" transform="translate(1049.000000, 590.000000)">
                <path d="M0.936642512,6.64997102 L14.0487805,6.64997102 C14.3936261,6.64997102 14.6731612,6.93350984 14.6731612,7.28329468 L14.6731612,18.049942 C14.6731612,18.3997269 14.3936261,18.6832657 14.0487805,18.6832657 L0.936642512,18.6832657 C0.591796866,18.6832657 0.312261805,18.3997269 0.312261805,18.049942 L0.312261805,7.28329468 C0.312261805,6.93350984 0.591796866,6.64997102 0.936642512,6.64997102 Z" id="Path" fill="#E3E7F2"></path>
                <path d="M0.936642512,6.64997102 L13.112138,6.64997102 C13.4569836,6.64997102 13.7365187,6.93350984 13.7365187,7.28329468 L13.7365187,18.049942 C13.7365187,18.3997269 13.4569836,18.6832657 13.112138,18.6832657 L0.936642512,18.6832657 C0.591796866,18.6832657 0.312261805,18.3997269 0.312261805,18.049942 L0.312261805,7.28329468 C0.312261805,6.93350984 0.591796866,6.64997102 0.936642512,6.64997102 L0.936642512,6.64997102 Z" id="Path" fill="#E3E7F2"></path>
                <path d="M7.4927115,0.316734305 C7.34251141,0.315429687 7.19231137,0.323982248 7.04311167,0.341957102 L7.03382239,0.341957102 C7.02753432,0.341957102 7.02124617,0.338767996 7.0149581,0.341957102 L7.01195693,0.341957102 C4.62519055,0.593315115 2.81135671,2.63273619 2.80978467,5.0667343 L2.80978467,6.64997102 L4.37066502,6.64997102 L4.37066502,5.0667343 C4.37137957,3.50408172 5.49552212,2.17553711 7.01810213,1.93795012 C7.02439024,1.93476106 7.02753432,1.93476106 7.03067835,1.93795012 C7.18330793,1.91258238 7.33793824,1.89982603 7.4927115,1.89997102 C9.2169398,1.89997102 10.6146151,3.31781006 10.6146151,5.0667343 L10.6146151,6.64997102 L12.1756383,6.64997102 L12.1756383,5.0667343 C12.1747809,2.44371031 10.0786966,0.317604074 7.4927115,0.316734305 Z" id="Path" fill="#D4E1F4"></path>
                <path d="M12.1756383,5.0667343 L12.1756383,6.64997102 L11.2389958,6.64997102 L11.2389958,5.0667343 C11.236995,2.63534546 9.42687691,0.597229004 7.04311167,0.341957102 C7.19231137,0.323982248 7.34251141,0.315429687 7.4927115,0.316734305 C10.0786966,0.317604074 12.1747809,2.44371031 12.1756383,5.0667343 Z" id="Path" fill="#A4C2F7"></path>
                <path d="M3.74628432,5.0667343 C3.74785632,2.63273619 5.5618331,0.593315115 7.94845654,0.341957102 L7.95160061,0.341957102 C7.95788872,0.338767996 7.96403393,0.341957102 7.97032204,0.341957102 L7.9763243,0.341957102 C7.81554878,0.325286865 7.65420161,0.316734305 7.4927115,0.316734305 C7.34251141,0.315429687 7.19231137,0.323982248 7.04311167,0.341957102 L7.03382239,0.341957102 C7.02753432,0.341957102 7.02124617,0.338767996 7.0149581,0.341957102 L7.01195693,0.341957102 C4.62519055,0.593315115 2.81135671,2.63273619 2.80978467,5.0667343 L2.80978467,6.64997102 L3.74628432,6.64997102 L3.74628432,5.0667343 Z" id="Path" fill="#FFFFFF"></path>
                <path d="M0.936642512,18.6832657 L1.87314216,18.6832657 C1.52872522,18.682251 1.2497618,18.399292 1.24876141,18.049942 L1.24876141,7.28329468 C1.2497618,6.93394468 1.52872522,6.6509857 1.87314216,6.64997102 L0.936642512,6.64997102 C0.59222561,6.6509857 0.313262195,6.93394468 0.312261805,7.28329468 L0.312261805,18.049942 C0.313262195,18.399292 0.59222561,18.682251 0.936642512,18.6832657 Z" id="Path" fill="#FFFFFF"></path>
                <polygon id="Path" fill="#FFFFFF" points="0.624380707 7.28329468 0.624380707 18.049942 0 18.049942 0 7.28329468"></polygon>
                <g id="Group" fill="#428DFF">
                    <path d="M0.312261805,8.86667634 C0.484613195,8.86667634 0.624380707,8.72490691 0.624380707,8.54994204 L0.624380707,7.28329468 L0,7.28329468 L0,8.54994204 C0,8.72490691 0.139767512,8.86667634 0.312261805,8.86667634 Z" id="Path"></path>
                    <path d="M0,18.049942 L0.624380707,18.049942 L0.624380707,11.0833817 C0.624380707,10.9084167 0.484613195,10.7666473 0.312261805,10.7666473 C0.139767512,10.7666473 0,10.9084167 0,11.0833817 L0,18.049942 Z" id="Path"></path>
                    <path d="M0.624380707,9.8167343 C0.623237415,9.73280336 0.590796512,9.65249634 0.533917683,9.59190367 L0.487042683,9.55377961 C0.469607488,9.541893 0.450743122,9.53232575 0.430878439,9.52536775 C0.413157402,9.51623535 0.394150171,9.50971223 0.374571256,9.50637817 C0.353991988,9.50275422 0.333126915,9.50072478 0.312261805,9.5 C0.229516024,9.50115967 0.150342988,9.53406526 0.0906059268,9.59190367 C0.0623094512,9.62205504 0.0400152439,9.65756989 0.0250095366,9.69627379 C-0.0221513049,9.81441497 0.0035727878,9.94966127 0.0906059268,10.0415649 C0.120331537,10.0701218 0.155344902,10.0927353 0.193502268,10.1079559 C0.231088024,10.1241913 0.27138911,10.1328888 0.312261805,10.1333237 C0.395293463,10.1341934 0.475181012,10.1011429 0.533917683,10.0415649 C0.592654354,9.98198699 0.625238195,9.90095522 0.624380707,9.8167343 Z" id="Path"></path>
                    <path d="M14.0487805,19 L0.936642512,19 C0.41930261,19 0,18.5746918 0,18.049942 C0,17.8751221 0.139767512,17.7333527 0.312261805,17.7333527 C0.484613195,17.7333527 0.624380707,17.8751221 0.624380707,18.049942 C0.624380707,18.2249069 0.764148256,18.3666763 0.936642512,18.3666763 L14.0487805,18.3666763 C14.2211319,18.3666763 14.3610423,18.2249069 14.3610423,18.049942 L14.3610423,7.28329468 C14.3610423,7.10847475 14.2211319,6.96670532 14.0487805,6.96670532 L0.936642512,6.96670532 C0.764148256,6.96670532 0.624380707,7.10847475 0.624380707,7.28329468 C0.624380707,7.45825959 0.484613195,7.60002898 0.312261805,7.60002898 C0.139767512,7.60002898 0,7.45825959 0,7.28329468 C0,6.75868987 0.41930261,6.33338166 0.936642512,6.33338166 L14.0487805,6.33338166 C14.5659775,6.33338166 14.985423,6.75868987 14.985423,7.28329468 L14.985423,18.049942 C14.985423,18.5746918 14.5659775,19 14.0487805,19 Z" id="Path"></path>
                    <path d="M12.1756383,6.96670532 L10.6146151,6.96670532 C10.4422637,6.96670532 10.3024962,6.82493589 10.3024962,6.64997102 L10.3024962,5.0667343 C10.3024962,3.49263002 9.04444551,2.21670532 7.4927115,2.21670532 C5.94083459,2.21670532 4.68292683,3.49263002 4.68292683,5.0667343 L4.68292683,6.64997102 C4.68292683,6.82493589 4.54315932,6.96670532 4.37066502,6.96670532 L2.80978467,6.96670532 C2.63729041,6.96670532 2.49752287,6.82493589 2.49752287,6.64997102 L2.49752287,5.0667343 C2.49752287,2.2684555 4.73394626,0 7.4927115,0 C10.2514767,0 12.4877572,2.2684555 12.4877572,5.0667343 L12.4877572,6.64997102 C12.4877572,6.73404695 12.4548876,6.81449888 12.3962938,6.87393188 C12.337843,6.93336489 12.2583841,6.96670532 12.1756383,6.96670532 L12.1756383,6.96670532 Z M10.9268769,6.33338166 L11.8633765,6.33338166 L11.8633765,5.0667343 C11.8633765,2.61824037 9.9066311,0.63332366 7.4927115,0.63332366 C5.0787919,0.63332366 3.12190357,2.61824037 3.12190357,5.0667343 L3.12190357,6.33338166 L4.05854612,6.33338166 L4.05854612,5.0667343 C4.05854612,3.14284514 5.59598894,1.58338166 7.4927115,1.58338166 C9.38929116,1.58338166 10.9268769,3.14284514 10.9268769,5.0667343 L10.9268769,6.33338166 Z" id="Shape"></path>
                    <path d="M14.2954459,11.399971 L13.1615854,11.399971 C12.9890911,11.399971 12.8493236,11.2582016 12.8493236,11.0833817 C12.8493236,10.9084167 12.9890911,10.7666473 13.1615854,10.7666473 L14.2954459,10.7666473 C14.4677973,10.7666473 14.6075648,10.9084167 14.6075648,11.0833817 C14.6075648,11.2582016 14.4677973,11.399971 14.2954459,11.399971 Z" id="Path"></path>
                    <path d="M14.2954459,13.6166763 L13.1615854,13.6166763 C12.9890911,13.6166763 12.8493236,13.4749069 12.8493236,13.299942 C12.8493236,13.1251221 12.9890911,12.9833527 13.1615854,12.9833527 L14.2954459,12.9833527 C14.4677973,12.9833527 14.6075648,13.1251221 14.6075648,13.299942 C14.6075648,13.4749069 14.4677973,13.6166763 14.2954459,13.6166763 L14.2954459,13.6166763 Z" id="Path"></path>
                    <path d="M14.2954459,16.149971 L13.1615854,16.149971 C12.9890911,16.149971 12.8493236,16.0082016 12.8493236,15.8333817 C12.8493236,15.6584167 12.9890911,15.5166473 13.1615854,15.5166473 L14.2954459,15.5166473 C14.4677973,15.5166473 14.6075648,15.6584167 14.6075648,15.8333817 C14.6075648,16.0082016 14.4677973,16.149971 14.2954459,16.149971 Z" id="Path"></path>
                    <path d="M1.82383763,11.399971 L0.689977134,11.399971 C0.517482841,11.399971 0.377715329,11.2582016 0.377715329,11.0833817 C0.377715329,10.9084167 0.517482841,10.7666473 0.689977134,10.7666473 L1.82383763,10.7666473 C1.99633193,10.7666473 2.13609948,10.9084167 2.13609948,11.0833817 C2.13609948,11.2582016 1.99633193,11.399971 1.82383763,11.399971 Z" id="Path"></path>
                    <path d="M1.82383763,13.6166763 L0.689977134,13.6166763 C0.517482841,13.6166763 0.377715329,13.4749069 0.377715329,13.299942 C0.377715329,13.1251221 0.517482841,12.9833527 0.689977134,12.9833527 L1.82383763,12.9833527 C1.99633193,12.9833527 2.13609948,13.1251221 2.13609948,13.299942 C2.13609948,13.4749069 1.99633193,13.6166763 1.82383763,13.6166763 L1.82383763,13.6166763 Z" id="Path"></path>
                    <path d="M1.82383763,16.149971 L0.689977134,16.149971 C0.517482841,16.149971 0.377715329,16.0082016 0.377715329,15.8333817 C0.377715329,15.6584167 0.517482841,15.5166473 0.689977134,15.5166473 L1.82383763,15.5166473 C1.99633193,15.5166473 2.13609948,15.6584167 2.13609948,15.8333817 C2.13609948,16.0082016 1.99633193,16.149971 1.82383763,16.149971 Z" id="Path"></path>
                    <path d="M4.39067265,16.1680908 C4.27076982,16.1679459 4.16144246,16.0982208 4.10942265,15.9886322 C4.05754573,15.8790436 4.07197979,15.7488708 4.14686546,15.6537781 C4.23747143,15.5385361 4.32350418,15.4196701 4.40510671,15.2971802 C4.48870998,15.1704865 4.52057927,15.123085 4.58703315,15.0030594 C4.67220845,14.8524475 4.86099468,14.7995377 5.01033728,14.8843384 C5.15967988,14.9691391 5.21384338,15.1600495 5.13181211,15.3124008 C5.07193215,15.4219894 5.00647866,15.528389 4.93573741,15.6313095 C4.83184068,15.7877197 4.73594704,15.9203568 4.63490854,16.0489349 C4.57560022,16.1243133 4.48570884,16.1680908 4.39067265,16.1680908 L4.39067265,16.1680908 Z" id="Path"></path>
                    <path d="M5.3981993,14.2015838 C5.3684737,14.2015838 5.33889102,14.1972351 5.31045161,14.1888275 C5.23099277,14.1653442 5.16396724,14.1106949 5.1242378,14.036911 C5.08436546,13.9632721 5.07521912,13.8765869 5.09851372,13.795845 L5.1315263,13.6752396 C5.16968371,13.5295563 5.2018388,13.3811188 5.22799163,13.230072 C5.25400152,13.0801849 5.27386624,12.9256592 5.28729991,12.7705536 C5.30073362,12.615303 5.30730754,12.4570084 5.30730754,12.2995834 C5.30730754,12.1496964 5.32217034,12.0000992 5.35189595,11.8531113 C5.38062117,11.7103271 5.42320884,11.5708771 5.47937309,11.4367905 C5.64457888,11.0409088 5.91939787,10.7022858 6.27038872,10.4616546 C6.50662156,10.299881 6.77186546,10.1865234 7.05097178,10.1279602 C7.19631289,10.0979538 7.34436929,10.0828781 7.4927115,10.0830221 C7.66506289,10.0830221 7.8048304,10.2247925 7.8048304,10.3996124 C7.8048304,10.5745773 7.66506289,10.7163468 7.4927115,10.7163468 C7.38695693,10.7162018 7.2816311,10.7267838 7.17802021,10.7479477 C6.67454268,10.8533325 6.25438262,11.2029724 6.05402056,11.683075 C6.01414826,11.7787476 5.9837081,11.8780441 5.96327173,11.979805 C5.94226372,12.0850449 5.93168824,12.1920242 5.93197409,12.2992935 C5.93197409,12.4751282 5.92454268,12.6524124 5.90953698,12.8253479 C5.89453127,12.9982834 5.87237996,13.1717987 5.8430831,13.3392258 C5.81364329,13.5067978 5.77777248,13.6746597 5.73532774,13.838028 L5.69788493,13.9732742 C5.65915588,14.1085205 5.53696646,14.2014389 5.3981993,14.2015838 L5.3981993,14.2015838 Z" id="Path"></path>
                    <path d="M9.10575457,14.844335 C9.08103088,14.8444748 9.05616424,14.8415756 9.0321551,14.8354874 C8.86466272,14.7943192 8.76176638,14.6231232 8.80235327,14.4532318 C8.82922065,14.3398743 8.85423018,14.2253571 8.87695313,14.110405 C8.91568215,13.9152908 8.94812309,13.7180023 8.97441882,13.5185394 C9.00057165,13.3189316 9.02029346,13.1177292 9.03372713,12.9146423 C9.0470179,12.7117004 9.05359185,12.5067291 9.05359185,12.2995834 C9.05402056,12.1924591 9.04344512,12.0854797 9.02243711,11.9803848 C8.98156441,11.7780228 8.90181973,11.5856628 8.78763337,11.4146118 C8.73175496,11.3303909 8.66787348,11.2518234 8.59727517,11.179924 C8.5778392,11.1606445 8.55783154,11.141655 8.53753811,11.1229553 C8.41006098,11.0051041 8.40091463,10.8047714 8.51695884,10.6754684 C8.63314595,10.5461655 8.83064978,10.5367432 8.95812691,10.6545944 C8.9852801,10.6799622 9.01243332,10.7056198 9.03872905,10.7321472 C9.44874238,11.1475983 9.67883005,11.7116318 9.67811712,12.2995834 C9.67811712,12.5178909 9.670827,12.7392425 9.65682165,12.9566803 C9.64281629,13.174263 9.62095083,13.3912659 9.59436929,13.6024704 C9.56778772,13.8136749 9.5319169,14.026474 9.49047256,14.2357941 C9.46603467,14.3588638 9.4393102,14.4812088 9.41015627,14.6031189 C9.37585749,14.7451782 9.25009529,14.8449097 9.10575457,14.844335 L9.10575457,14.844335 Z" id="Path"></path>
                    <path d="M8.13795732,17.3160174 C8.02634338,17.3161621 7.92301829,17.2558594 7.86713985,17.1578674 C7.81126141,17.0598755 7.81111851,16.9389801 7.86699695,16.8409881 C7.9613186,16.6721115 8.05049543,16.5013504 8.13452744,16.3285599 C8.21870235,16.1559143 8.29730374,15.9790649 8.37061738,15.7981567 L8.41920732,15.6765366 C8.48608994,15.5191116 8.6643007,15.4441681 8.82136054,15.507515 C8.97827744,15.5707169 9.05730754,15.7493057 8.99928545,15.9103546 L8.94755144,16.0403824 C8.86923589,16.2323074 8.78520388,16.4213333 8.6953125,16.6073151 C8.60527822,16.7932968 8.51009909,16.9757996 8.40963223,17.1548233 C8.35432544,17.2542648 8.25057165,17.3158722 8.13795732,17.3160174 L8.13795732,17.3160174 Z" id="Path"></path>
                    <path d="M6.36871189,17.7333527 C6.2518102,17.7332077 6.14462652,17.6668167 6.09117761,17.5611419 C6.03772866,17.4556122 6.0470179,17.3284836 6.11532966,17.2320862 L6.42902056,16.7886581 C6.53391768,16.6345672 6.63795732,16.4691696 6.7352801,16.3013077 C6.83274582,16.1335907 6.92449504,15.9599304 7.00852705,15.78685 C7.09241616,15.6136246 7.17301829,15.4314118 7.24504573,15.2484741 C7.31721607,15.0653915 7.3840987,14.8782501 7.44240662,14.6916885 C7.50085749,14.5052719 7.5541635,14.309578 7.59846607,14.1163483 C7.64291159,13.9232635 7.68192644,13.722786 7.71250954,13.5244827 C7.7430926,13.3263245 7.76681594,13.1207733 7.78210749,12.9178314 C7.797399,12.7147446 7.8048304,12.5083237 7.8048304,12.2995834 C7.8048304,12.2784195 7.80254382,12.2571106 7.79825649,12.2363815 C7.79425496,12.2163773 7.78839556,12.1970978 7.78053545,12.1783981 C7.765101,12.1408539 7.74252095,12.1066437 7.71408154,12.0779419 C7.69964748,12.063446 7.68392722,12.0502548 7.66720654,12.0386581 C7.65034299,12.0272064 7.63247905,12.0172043 7.61375762,12.0089417 C7.59532204,12.0012589 7.57617187,11.9953156 7.55673351,11.9912567 C7.49385479,11.9777756 7.42854421,11.9841537 7.36937883,12.0095215 C7.33250762,12.0256119 7.29906629,12.0486603 7.27076982,12.0773621 C7.2421875,12.1063538 7.21932165,12.1407089 7.20360139,12.1783981 C7.19559834,12.1973877 7.18959604,12.217247 7.18545161,12.2375412 C7.18130715,12.2584152 7.1791635,12.2795792 7.1793064,12.300888 C7.1793064,12.475853 7.03939595,12.6176224 6.8670446,12.6176224 C6.69469321,12.6176224 6.55478276,12.475853 6.55478276,12.300888 C6.55478276,12.2371063 6.5612138,12.1734696 6.57393293,12.1108475 C6.6108041,11.9281998 6.69983802,11.7606278 6.82988759,11.6290054 C6.9596513,11.4963684 7.125,11.4057694 7.30535444,11.36837 C7.4295446,11.3428574 7.55759338,11.3428574 7.68192644,11.36837 C7.80168637,11.393158 7.91544399,11.441864 8.01648249,11.5114441 C8.11623476,11.5797196 8.20212461,11.6668396 8.26943598,11.7680206 C8.30330601,11.8186112 8.33217417,11.8723908 8.35561167,11.9287796 C8.37962082,11.9863281 8.3980564,12.046196 8.41048972,12.1073685 C8.42320884,12.1704254 8.42949695,12.234642 8.42963985,12.2990036 C8.42963985,12.5225296 8.4212081,12.7477951 8.40391577,12.9684219 C8.38676638,13.1891937 8.36189978,13.408371 8.32874429,13.6239242 C8.2955888,13.8396225 8.25443027,14.0530014 8.20569739,14.2633362 C8.15696455,14.473526 8.09994285,14.6809616 8.03620427,14.8849182 C7.97246568,15.0888748 7.90172448,15.2889176 7.82298018,15.4866409 C7.74437883,15.6842194 7.65906059,15.8780289 7.56759717,16.0663299 C7.47613376,16.254776 7.37752478,16.4407577 7.27234185,16.6225357 C7.16701602,16.8041687 7.05368711,16.9818878 6.93850039,17.1529388 L6.62166541,17.6015854 C6.56307165,17.6842117 6.4690358,17.7332077 6.36871189,17.7333527 L6.36871189,17.7333527 Z" id="Path"></path>
                    <path d="M5.43221228,16.8783875 C5.3131669,16.8782425 5.2045541,16.8093872 5.15210557,16.7009583 C5.09979991,16.5925293 5.11266198,16.4633713 5.18554687,16.3678436 C5.29201602,16.2282486 5.39476943,16.0828552 5.49094895,15.9331131 C5.58698554,15.783371 5.67816311,15.629425 5.76219512,15.4733048 C5.84622713,15.3171844 5.92540017,15.1528015 5.99671302,14.9910278 C6.06788301,14.8292542 6.13462273,14.6563187 6.19264482,14.487442 C6.25080984,14.3187103 6.30383005,14.1407013 6.34884717,13.9650116 C6.38871951,13.8172989 6.42130335,13.6677017 6.44645579,13.516655 C6.46532012,13.4050369 6.54120618,13.3121185 6.64581746,13.2728348 C6.75042874,13.233551 6.86775915,13.2537003 6.953649,13.3260345 C7.03953885,13.3982239 7.08084033,13.5114365 7.0621189,13.6230545 C7.02753432,13.8284607 6.99966655,13.935585 6.95322029,14.1233063 C6.90420161,14.316246 6.84675113,14.5087509 6.78244094,14.6961823 C6.71813071,14.8836136 6.64667491,15.0666961 6.56735898,15.2477493 C6.48804307,15.4289474 6.40315357,15.6031876 6.31040396,15.7759781 C6.21765435,15.9489136 6.11875954,16.1164856 6.01343371,16.2798538 C5.90825078,16.443222 5.79492187,16.6028214 5.6791635,16.7548828 C5.62014102,16.8325806 5.52896341,16.8782425 5.43221228,16.8783875 L5.43221228,16.8783875 Z" id="Path"></path>
                    <path d="M3.55907012,15.1854172 C3.44231137,15.1852722 3.3354135,15.1190262 3.28196455,15.0136414 C3.22851563,14.9084015 3.23751907,14.7815628 3.30525915,14.6851654 C3.36428162,14.6005096 3.42073171,14.5138245 3.47375191,14.4251099 C3.52691502,14.3363953 3.57650532,14.2455063 3.62338032,14.1524429 C3.67011241,14.0593796 3.71255715,13.9653015 3.75228659,13.8674545 C3.79187309,13.7696076 3.8278868,13.6723404 3.86032774,13.5720291 C3.89276868,13.4715729 3.9227801,13.3702469 3.9462176,13.2667465 C3.9695122,13.1632462 3.99209224,13.0587311 4.00852705,12.9523315 C4.02510479,12.845932 4.0398247,12.7382279 4.04697029,12.629364 C4.05411585,12.5203552 4.05854612,12.4107666 4.05854612,12.2995834 C4.05854612,12.1247635 4.19831363,11.9829941 4.37066502,11.9829941 C4.54315932,11.9829941 4.68292683,12.1247635 4.68292683,12.2995834 C4.68292683,12.4280167 4.67792491,12.5547104 4.66792112,12.6796646 C4.65791729,12.8046188 4.64319739,12.9289932 4.62361851,13.0526428 C4.60418254,13.1755676 4.58017339,13.2968979 4.55116237,13.4164886 C4.52272295,13.5356445 4.48870998,13.6530609 4.45226751,13.7687378 C4.41568215,13.8842697 4.37295161,13.998497 4.3273628,14.110405 C4.281774,14.222168 4.23175496,14.3320465 4.17844895,14.4381561 C4.125,14.5441208 4.06697788,14.6502304 4.00609756,14.7522812 C3.94521724,14.854187 3.88119285,14.9546432 3.8115949,15.0514755 C3.75385862,15.1349716 3.65967988,15.1849823 3.55907012,15.1854172 L3.55907012,15.1854172 Z" id="Path"></path>
                    <path d="M4.62862043,11.3537292 C4.52400915,11.3537292 4.42625762,11.3003845 4.36852134,11.2118149 C4.31078506,11.1233902 4.30063833,11.0113373 4.34136812,10.9136353 C4.42354229,10.7163468 4.52529534,10.5281906 4.64519817,10.3517761 C5.14681785,9.59668733 5.92011241,9.07092285 6.79930449,8.88697053 C7.25576411,8.79318237 7.72608615,8.79318237 8.18268863,8.88697053 C9.06216655,9.07135774 9.83574695,9.59712221 10.3386528,10.3517761 L10.3795255,10.4129486 C10.4658441,10.5331192 10.537157,10.6635819 10.5918922,10.8014374 C10.6576315,10.9621964 10.5830316,11.1467285 10.4251143,11.2144241 C10.2670541,11.2822647 10.084699,11.208046 10.0168159,11.0481567 C9.97822979,10.9491501 9.92692456,10.8557968 9.86418637,10.7704163 L9.82102705,10.7070694 C9.61895009,10.4033813 9.36113759,10.1418762 9.0617378,9.93661499 C8.75790776,9.72845459 8.41663493,9.58277131 8.05749809,9.50797273 C7.68364138,9.43114471 7.29835174,9.43114471 6.92449504,9.50797273 C6.56521533,9.58262632 6.22408537,9.72816469 5.92011241,9.93632505 C5.77105566,10.0389557 5.63185976,10.1556473 5.50438262,10.2846603 C5.37690549,10.4139633 5.26186167,10.5552979 5.16096607,10.7067795 C5.06335749,10.8491287 4.98089748,11.0011902 4.9145865,11.1609344 C4.86585366,11.2773361 4.75338223,11.3531494 4.62862043,11.3537292 L4.62862043,11.3537292 Z" id="Path"></path>
                    <path d="M9.80516385,16.743721 C9.76386241,16.743721 9.72313262,16.7353134 9.68526106,16.7190781 C9.52605754,16.6518173 9.45074312,16.4665604 9.5169112,16.3052215 C9.57936359,16.1509857 9.63895771,15.9951553 9.6958365,15.8374405 C9.75271533,15.6797257 9.80473515,15.5201263 9.85189595,15.3586426 C9.90062883,15.1973038 9.94550305,15.0345154 9.98651868,14.8699875 C10.0275343,14.7056046 10.0646913,14.5396271 10.0982755,14.3722 C10.1317169,14.204628 10.1611566,14.0357513 10.1863091,13.8655701 C10.2114615,13.6953888 10.2323266,13.523758 10.2487614,13.3506775 C10.2659108,13.1780319 10.2799162,13.0023422 10.2874905,12.828537 C10.2949219,12.6545868 10.3024962,12.4767227 10.3024962,12.2995834 C10.3024962,12.1247635 10.4422637,11.9829941 10.6146151,11.9829941 C10.7871094,11.9829941 10.9268769,12.1247635 10.9268769,12.2995834 C10.9268769,12.4877396 10.9223037,12.674736 10.9131574,12.8604279 C10.9038681,13.0462646 10.8902915,13.2307968 10.8721418,13.4140243 C10.8537062,13.5976868 10.8311261,13.7796097 10.8044017,13.9599381 C10.7778201,14.1402664 10.7465225,14.319725 10.7107946,14.4983139 C10.6752096,14.676033 10.6356231,14.8521576 10.592178,15.0263977 C10.5485899,15.2007828 10.5010004,15.3735733 10.4491235,15.5444794 C10.3978182,15.7155304 10.3422256,15.8844071 10.2824886,16.0512543 C10.2234661,16.2183914 10.1597275,16.384079 10.0929878,16.5477371 C10.0448266,16.6660233 9.93135479,16.7434311 9.80516385,16.743721 L9.80516385,16.743721 Z" id="Path"></path>
                    <path d="M3.12190357,12.6163177 C2.94955222,12.6163177 2.80977701,12.4745483 2.80977701,12.2995834 C2.80921302,11.9782104 2.84065357,11.6577072 2.90339177,11.3427124 C2.96555832,11.036705 3.05745044,10.7376556 3.17778201,10.450058 C3.4070122,9.90095522 3.73599468,9.40070344 4.14758005,8.97496031 C4.22560976,8.89407349 4.34022483,8.86174773 4.44826602,8.8898697 C4.55630715,8.91799163 4.64133955,9.00250244 4.671351,9.11151123 C4.70136241,9.22052002 4.67177971,9.33750154 4.5936071,9.41824341 C4.23704268,9.78745271 3.95179116,10.2211685 3.75285823,10.6970672 C3.64910444,10.9458161 3.5700743,11.204567 3.5169112,11.4694061 C3.46174734,11.742508 3.43402248,12.0208283 3.43416541,12.2995834 C3.43416541,12.4745483 3.29439787,12.6163177 3.12190357,12.6163177 L3.12190357,12.6163177 Z" id="Path"></path>
                    <path d="M5.24485518,8.81406035 C5.10465893,8.81406035 4.98175496,8.71939851 4.94416921,8.58241274 C4.90658345,8.44542693 4.96346228,8.2998886 5.08350801,8.22639467 C5.53653772,7.94981382 6.03272674,7.75368499 6.55078127,7.64627075 C7.17344704,7.51798249 7.81512004,7.51798249 8.4376429,7.64627075 C8.57355183,7.67424773 8.70717417,7.70831299 8.83822409,7.74817658 C8.94640815,7.77948762 9.02958271,7.8674774 9.05602134,7.97837068 C9.08231707,8.08911897 9.04801829,8.2059555 8.96584412,8.2837982 C8.88381289,8.36178589 8.76662539,8.38903809 8.65929878,8.35497283 C8.54568406,8.32032778 8.4300686,8.29090119 8.31245235,8.26654817 C7.7725324,8.15536499 7.21603467,8.15536499 6.67597178,8.26654817 C6.22765815,8.3596115 5.79835174,8.52950286 5.40634529,8.76882935 C5.35761241,8.79869078 5.30173398,8.81434633 5.24485518,8.81406035 Z" id="Path"></path>
                    <path d="M11.6761624,14.7456131 C11.6577267,14.7456131 11.639577,14.7440186 11.6214272,14.7408294 C11.5399676,14.7261887 11.4673685,14.679367 11.4199219,14.6105118 C11.3724752,14.5416565 11.3538967,14.4565658 11.3683308,14.3737946 C11.3831936,14.2894287 11.3973419,14.2049179 11.4104897,14.1205521 C11.4234947,14.0353165 11.4356422,13.9503708 11.447218,13.8652801 C11.4587938,13.7800446 11.4690835,13.6936493 11.4785156,13.6078338 C11.4878049,13.5220184 11.4969512,13.4354782 11.5046685,13.3490829 C11.5125286,13.2626877 11.5193883,13.1761475 11.5252477,13.0894623 C11.53125,13.0026322 11.5362519,12.9155121 11.5399676,12.8278122 C11.5436833,12.7401123 11.5471132,12.6527023 11.5493998,12.5647125 C11.5515435,12.4767227 11.5521151,12.3888779 11.5521151,12.3003082 C11.552258,12.021553 11.5245331,11.7435226 11.469798,11.4702759 C11.3093083,10.6818466 10.9245903,9.95835875 10.3633765,9.38910676 C10.192883,9.21646118 10.0078125,9.05932617 9.81016577,8.91958618 C9.66854041,8.81970979 9.63366995,8.6222763 9.73199312,8.4787674 C9.83045923,8.33511353 10.0251048,8.29974365 10.1665873,8.39962005 C10.8931498,8.91248322 11.4620808,9.62335969 11.8074981,10.450058 C11.9274009,10.7375107 12.0187214,11.0362702 12.0804592,11.3419876 C12.1431974,11.6569824 12.174495,11.9776306 12.1740706,12.2990036 C12.1740706,12.392067 12.1730659,12.4851303 12.1709223,12.5780487 C12.1687786,12.6708221 12.1656345,12.7635956 12.1612043,12.8560791 C12.1570598,12.9478378 12.151915,13.0395965 12.1456269,13.1312103 C12.1393388,13.2234039 12.1321932,13.3145828 12.1240473,13.4054718 C12.1160442,13.4963608 12.106612,13.5878296 12.0963224,13.6781387 C12.0860328,13.7683029 12.0750286,13.858902 12.0631669,13.9489212 C12.0513053,14.0387955 12.0383003,14.1280899 12.0244379,14.2173843 C12.0107184,14.3066788 11.9958556,14.3951034 11.9804211,14.4833832 C11.9545541,14.6338501 11.8266483,14.7440186 11.6761624,14.7456131 L11.6761624,14.7456131 Z" id="Path"></path>
                </g>
            </g>
        </g>
    </g>
</svg>