<?xml version="1.0" encoding="UTF-8"?>
<svg width="15px" height="15px" viewBox="0 0 15 15" version="1.1" xmlns="http://www.w3.org/2000/svg" xmlns:xlink="http://www.w3.org/1999/xlink">
    <!-- Generator: Sketch 61.2 (89653) - https://sketch.com -->
    <title>date copy</title>
    <desc>Created with Sketch.</desc>
    <g id="Page-1" stroke="none" stroke-width="1" fill="none" fill-rule="evenodd">
        <g id="Personal-Details" transform="translate(-664.000000, -627.000000)" fill-rule="nonzero">
            <g id="date-copy" transform="translate(664.000000, 627.000000)">
                <path d="M14.75,4.75 L14.75,13.25 C14.75,14.0784271 14.0784271,14.75 13.25,14.75 L1.75,14.75 C0.921572875,14.75 0.25,14.0784271 0.25,13.25 L0.25,4.75 L14.75,4.75 Z" id="Shape" fill="#E8EDFC"></path>
                <path d="M14,4.75 L14,13.25 C14,14.0784271 13.3284271,14.75 12.5,14.75 L13.25,14.75 C14.0784271,14.75 14.75,14.0784271 14.75,13.25 L14.75,4.75 L14,4.75 Z" id="Shape" fill="#CAD9FC"></path>
                <path d="M14.75,3.25 L14.75,4.75 L0.25,4.75 L0.25,3.25 C0.25,2.42157287 0.921572875,1.75 1.75,1.75 L13.25,1.75 C14.0784271,1.75 14.75,2.42157287 14.75,3.25 Z" id="Shape" fill="#A4C2F7"></path>
                <path d="M13.25,1.75 L12.5,1.75 C13.3284271,1.75 14,2.42157287 14,3.25 L14,4.75 L14.75,4.75 L14.75,3.25 C14.75,2.42157287 14.0784271,1.75 13.25,1.75 Z" id="Shape" fill="#7FACFA"></path>
                <path d="M1.75,14.75 L2.5,14.75 C1.67157287,14.75 1,14.0784271 1,13.25 L1,3.25 C1,2.42157287 1.67157287,1.75 2.5,1.75 L1.75,1.75 C0.921572875,1.75 0.25,2.42157287 0.25,3.25 L0.25,13.25 C0.25,14.0784271 0.921572875,14.75 1.75,14.75 Z" id="Shape" fill="#FFFFFF"></path>
                <polygon id="Rectangle-path" fill="#FFFFFF" points="0 11.25 0.5 11.25 0.5 13.25 0 13.25"></polygon>
                <g id="Group" fill="#428DFF">
                    <circle id="Oval" cx="0.25" cy="12.25" r="1"></circle>
                    <path d="M1.75,15 L13.25,15 C14.2160414,14.9988979 14.9988979,14.2160414 15,13.25 L15,3.25 C14.9988979,2.28395859 14.2160414,1.50110216 13.25,1.5 L12.5,1.5 L12.5,0.25 C12.5,0.111928813 12.3880712,0 12.25,0 C12.1119288,0 12,0.111928813 12,0.25 L12,1.5 L3,1.5 L3,0.25 C3,0.111928813 2.88807117,0 2.75,0 C2.61192883,0 2.5,0.111928813 2.5,0.25 L2.5,1.5 L1.75,1.5 C0.783958585,1.50110216 0.00110216,2.28395859 0,3.25 L0,11.25 C0,11.3880712 0.111928813,11.5 0.25,11.5 C0.388071188,11.5 0.5,11.3880712 0.5,11.25 L0.5,5 L1,5 C1.13807119,5 1.25,4.88807118 1.25,4.75 C1.25,4.61192882 1.13807119,4.5 1,4.5 L0.5,4.5 L0.5,3.25 C0.50082653,2.5599867 1.05998671,2.00082653 1.75,2 L2.5,2 C2.5,2.13807119 2.61192883,2.25 2.75,2.25 C2.88807117,2.25 3,2.13807119 3,2 L12,2 C12,2.13807119 12.1119288,2.25 12.25,2.25 C12.3880712,2.25 12.5,2.13807119 12.5,2 L13.25,2 C13.9400133,2.00082653 14.4991735,2.5599867 14.5,3.25 L14.5,4.5 L2.25,4.5 C2.11192881,4.5 2,4.61192882 2,4.75 C2,4.88807118 2.11192881,5 2.25,5 L14.5,5 L14.5,13.25 C14.4991735,13.9400133 13.9400133,14.4991735 13.25,14.5 L1.75,14.5 C1.05998671,14.4991735 0.50082653,13.9400133 0.5,13.25 C0.5,13.1119288 0.388071188,13 0.25,13 C0.111928812,13 0,13.1119288 0,13.25 C0.00110216,14.2160414 0.783958585,14.9988979 1.75,15 Z" id="Shape"></path>
                    <path d="M3,3.25 L3,3 C3,2.86192883 2.88807117,2.75 2.75,2.75 C2.61192883,2.75 2.5,2.86192883 2.5,3 L2.5,3.25 C2.5,3.38807117 2.61192883,3.5 2.75,3.5 C2.88807117,3.5 3,3.38807117 3,3.25 Z" id="Shape"></path>
                    <path d="M12.5,3.25 L12.5,3 C12.5,2.86192883 12.3880712,2.75 12.25,2.75 C12.1119288,2.75 12,2.86192883 12,3 L12,3.25 C12,3.38807117 12.1119288,3.5 12.25,3.5 C12.3880712,3.5 12.5,3.38807117 12.5,3.25 Z" id="Shape"></path>
                    <path d="M9,6.75 L9.5,6.75 C9.63807118,6.75 9.75,6.63807118 9.75,6.5 C9.75,6.36192882 9.63807118,6.25 9.5,6.25 L9,6.25 C8.86192882,6.25 8.75,6.36192882 8.75,6.5 C8.75,6.63807118 8.86192882,6.75 9,6.75 Z" id="Shape"></path>
                    <path d="M10.75,6.75 L11.25,6.75 C11.3880712,6.75 11.5,6.63807118 11.5,6.5 C11.5,6.36192882 11.3880712,6.25 11.25,6.25 L10.75,6.25 C10.6119288,6.25 10.5,6.36192882 10.5,6.5 C10.5,6.63807118 10.6119288,6.75 10.75,6.75 Z" id="Shape"></path>
                    <path d="M12.5,6.75 L13,6.75 C13.1380712,6.75 13.25,6.63807118 13.25,6.5 C13.25,6.36192882 13.1380712,6.25 13,6.25 L12.5,6.25 C12.3619288,6.25 12.25,6.36192882 12.25,6.5 C12.25,6.63807118 12.3619288,6.75 12.5,6.75 Z" id="Shape"></path>
                    <path d="M2,8.25 L2.5,8.25 C2.63807117,8.25 2.75,8.13807117 2.75,8 C2.75,7.86192882 2.63807117,7.75 2.5,7.75 L2,7.75 C1.86192881,7.75 1.75,7.86192882 1.75,8 C1.75,8.13807117 1.86192881,8.25 2,8.25 Z" id="Shape"></path>
                    <path d="M3.75,8.25 L4.25,8.25 C4.38807118,8.25 4.5,8.13807117 4.5,8 C4.5,7.86192882 4.38807118,7.75 4.25,7.75 L3.75,7.75 C3.61192883,7.75 3.5,7.86192882 3.5,8 C3.5,8.13807117 3.61192883,8.25 3.75,8.25 Z" id="Shape"></path>
                    <path d="M5.5,8.25 L6,8.25 C6.13807117,8.25 6.25,8.13807117 6.25,8 C6.25,7.86192882 6.13807117,7.75 6,7.75 L5.5,7.75 C5.36192882,7.75 5.25,7.86192882 5.25,8 C5.25,8.13807117 5.36192882,8.25 5.5,8.25 Z" id="Shape"></path>
                    <path d="M7.25,8.25 L7.75,8.25 C7.88807118,8.25 8,8.13807117 8,8 C8,7.86192882 7.88807118,7.75 7.75,7.75 L7.25,7.75 C7.11192882,7.75 7,7.86192882 7,8 C7,8.13807117 7.11192882,8.25 7.25,8.25 Z" id="Shape"></path>
                    <path d="M5.5,6.75 L6,6.75 C6.13807117,6.75 6.25,6.63807118 6.25,6.5 C6.25,6.36192882 6.13807117,6.25 6,6.25 L5.5,6.25 C5.36192882,6.25 5.25,6.36192882 5.25,6.5 C5.25,6.63807118 5.36192882,6.75 5.5,6.75 Z" id="Shape"></path>
                    <path d="M7.25,6.75 L7.75,6.75 C7.88807118,6.75 8,6.63807118 8,6.5 C8,6.36192882 7.88807118,6.25 7.75,6.25 L7.25,6.25 C7.11192882,6.25 7,6.36192882 7,6.5 C7,6.63807118 7.11192882,6.75 7.25,6.75 Z" id="Shape"></path>
                    <path d="M9,8.25 L9.5,8.25 C9.63807118,8.25 9.75,8.13807117 9.75,8 C9.75,7.86192882 9.63807118,7.75 9.5,7.75 L9,7.75 C8.86192882,7.75 8.75,7.86192882 8.75,8 C8.75,8.13807117 8.86192882,8.25 9,8.25 Z" id="Shape"></path>
                    <path d="M10.75,8.25 L11.25,8.25 C11.3880712,8.25 11.5,8.13807117 11.5,8 C11.5,7.86192882 11.3880712,7.75 11.25,7.75 L10.75,7.75 C10.6119288,7.75 10.5,7.86192882 10.5,8 C10.5,8.13807117 10.6119288,8.25 10.75,8.25 Z" id="Shape"></path>
                    <path d="M12.5,8.25 L13,8.25 C13.1380712,8.25 13.25,8.13807117 13.25,8 C13.25,7.86192882 13.1380712,7.75 13,7.75 L12.5,7.75 C12.3619288,7.75 12.25,7.86192882 12.25,8 C12.25,8.13807117 12.3619288,8.25 12.5,8.25 Z" id="Shape"></path>
                    <path d="M2,9.75 L2.5,9.75 C2.63807117,9.75 2.75,9.63807118 2.75,9.5 C2.75,9.36192882 2.63807117,9.25 2.5,9.25 L2,9.25 C1.86192881,9.25 1.75,9.36192882 1.75,9.5 C1.75,9.63807118 1.86192881,9.75 2,9.75 Z" id="Shape"></path>
                    <path d="M3.75,9.75 L4.25,9.75 C4.38807118,9.75 4.5,9.63807118 4.5,9.5 C4.5,9.36192882 4.38807118,9.25 4.25,9.25 L3.75,9.25 C3.61192883,9.25 3.5,9.36192882 3.5,9.5 C3.5,9.63807118 3.61192883,9.75 3.75,9.75 Z" id="Shape"></path>
                    <path d="M5.5,9.75 L6,9.75 C6.13807117,9.75 6.25,9.63807118 6.25,9.5 C6.25,9.36192882 6.13807117,9.25 6,9.25 L5.5,9.25 C5.36192882,9.25 5.25,9.36192882 5.25,9.5 C5.25,9.63807118 5.36192882,9.75 5.5,9.75 Z" id="Shape"></path>
                    <path d="M7.25,9.75 L7.75,9.75 C7.88807118,9.75 8,9.63807118 8,9.5 C8,9.36192882 7.88807118,9.25 7.75,9.25 L7.25,9.25 C7.11192882,9.25 7,9.36192882 7,9.5 C7,9.63807118 7.11192882,9.75 7.25,9.75 Z" id="Shape"></path>
                    <path d="M9,9.75 L9.5,9.75 C9.63807118,9.75 9.75,9.63807118 9.75,9.5 C9.75,9.36192882 9.63807118,9.25 9.5,9.25 L9,9.25 C8.86192882,9.25 8.75,9.36192882 8.75,9.5 C8.75,9.63807118 8.86192882,9.75 9,9.75 Z" id="Shape"></path>
                    <path d="M10.75,9.75 L11.25,9.75 C11.3880712,9.75 11.5,9.63807118 11.5,9.5 C11.5,9.36192882 11.3880712,9.25 11.25,9.25 L10.75,9.25 C10.6119288,9.25 10.5,9.36192882 10.5,9.5 C10.5,9.63807118 10.6119288,9.75 10.75,9.75 Z" id="Shape"></path>
                    <path d="M12.5,9.75 L13,9.75 C13.1380712,9.75 13.25,9.63807118 13.25,9.5 C13.25,9.36192882 13.1380712,9.25 13,9.25 L12.5,9.25 C12.3619288,9.25 12.25,9.36192882 12.25,9.5 C12.25,9.63807118 12.3619288,9.75 12.5,9.75 Z" id="Shape"></path>
                    <path d="M2,11.25 L2.5,11.25 C2.63807117,11.25 2.75,11.1380712 2.75,11 C2.75,10.8619288 2.63807117,10.75 2.5,10.75 L2,10.75 C1.86192881,10.75 1.75,10.8619288 1.75,11 C1.75,11.1380712 1.86192881,11.25 2,11.25 Z" id="Shape"></path>
                    <path d="M3.75,11.25 L4.25,11.25 C4.38807118,11.25 4.5,11.1380712 4.5,11 C4.5,10.8619288 4.38807118,10.75 4.25,10.75 L3.75,10.75 C3.61192883,10.75 3.5,10.8619288 3.5,11 C3.5,11.1380712 3.61192883,11.25 3.75,11.25 Z" id="Shape"></path>
                    <path d="M5.5,11.25 L6,11.25 C6.13807117,11.25 6.25,11.1380712 6.25,11 C6.25,10.8619288 6.13807117,10.75 6,10.75 L5.5,10.75 C5.36192882,10.75 5.25,10.8619288 5.25,11 C5.25,11.1380712 5.36192882,11.25 5.5,11.25 Z" id="Shape"></path>
                    <path d="M7.25,11.25 L7.75,11.25 C7.88807118,11.25 8,11.1380712 8,11 C8,10.8619288 7.88807118,10.75 7.75,10.75 L7.25,10.75 C7.11192882,10.75 7,10.8619288 7,11 C7,11.1380712 7.11192882,11.25 7.25,11.25 Z" id="Shape"></path>
                    <path d="M2,12.75 L2.5,12.75 C2.63807117,12.75 2.75,12.6380712 2.75,12.5 C2.75,12.3619288 2.63807117,12.25 2.5,12.25 L2,12.25 C1.86192881,12.25 1.75,12.3619288 1.75,12.5 C1.75,12.6380712 1.86192881,12.75 2,12.75 Z" id="Shape"></path>
                    <path d="M3.75,12.75 L4.25,12.75 C4.38807118,12.75 4.5,12.6380712 4.5,12.5 C4.5,12.3619288 4.38807118,12.25 4.25,12.25 L3.75,12.25 C3.61192883,12.25 3.5,12.3619288 3.5,12.5 C3.5,12.6380712 3.61192883,12.75 3.75,12.75 Z" id="Shape"></path>
                    <path d="M5.5,12.75 L6,12.75 C6.13807117,12.75 6.25,12.6380712 6.25,12.5 C6.25,12.3619288 6.13807117,12.25 6,12.25 L5.5,12.25 C5.36192882,12.25 5.25,12.3619288 5.25,12.5 C5.25,12.6380712 5.36192882,12.75 5.5,12.75 Z" id="Shape"></path>
                    <path d="M7.25,12.75 L7.75,12.75 C7.88807118,12.75 8,12.6380712 8,12.5 C8,12.3619288 7.88807118,12.25 7.75,12.25 L7.25,12.25 C7.11192882,12.25 7,12.3619288 7,12.5 C7,12.6380712 7.11192882,12.75 7.25,12.75 Z" id="Shape"></path>
                    <path d="M9,11.25 L9.5,11.25 C9.63807118,11.25 9.75,11.1380712 9.75,11 C9.75,10.8619288 9.63807118,10.75 9.5,10.75 L9,10.75 C8.86192882,10.75 8.75,10.8619288 8.75,11 C8.75,11.1380712 8.86192882,11.25 9,11.25 Z" id="Shape"></path>
                    <path d="M10.75,11.25 L11.25,11.25 C11.3880712,11.25 11.5,11.1380712 11.5,11 C11.5,10.8619288 11.3880712,10.75 11.25,10.75 L10.75,10.75 C10.6119288,10.75 10.5,10.8619288 10.5,11 C10.5,11.1380712 10.6119288,11.25 10.75,11.25 Z" id="Shape"></path>
                    <path d="M12.5,11.25 L13,11.25 C13.1380712,11.25 13.25,11.1380712 13.25,11 C13.25,10.8619288 13.1380712,10.75 13,10.75 L12.5,10.75 C12.3619288,10.75 12.25,10.8619288 12.25,11 C12.25,11.1380712 12.3619288,11.25 12.5,11.25 Z" id="Shape"></path>
                    <path d="M9.5,13.75 C9.5,13.8880712 9.61192882,14 9.75,14 L11.5,14 C11.6380712,14 11.75,13.8880712 11.75,13.75 C11.75,13.6119288 11.6380712,13.5 11.5,13.5 L9.75,13.5 C9.61192882,13.5 9.5,13.6119288 9.5,13.75 Z" id="Shape"></path>
                    <path d="M12.5,14 L13,14 C13.1380712,14 13.25,13.8880712 13.25,13.75 C13.25,13.6119288 13.1380712,13.5 13,13.5 L12.5,13.5 C12.3619288,13.5 12.25,13.6119288 12.25,13.75 C12.25,13.8880712 12.3619288,14 12.5,14 Z" id="Shape"></path>
                </g>
            </g>
        </g>
    </g>
</svg>