<?xml version="1.0" encoding="UTF-8"?>
<svg width="15px" height="15px" viewBox="0 0 15 15" version="1.1" xmlns="http://www.w3.org/2000/svg" xmlns:xlink="http://www.w3.org/1999/xlink">
    <!-- Generator: Sketch 61.2 (89653) - https://sketch.com -->
    <title>emailne</title>
    <desc>Created with Sketch.</desc>
    <g id="Page-1" stroke="none" stroke-width="1" fill="none" fill-rule="evenodd">
        <g id="Contact-Details" transform="translate(-1046.000000, -502.000000)" fill-rule="nonzero">
            <g id="email" transform="translate(1046.000000, 502.000000)">
                <path d="M14.5675,6.12 C14.5243255,6.0584109 14.473971,6.00218175 14.4175,5.9525 L11.62,3.445 L11.6175,3.4425 L3.3825,3.4425 L3.38,3.445 L0.5825,5.9525 C0.372169398,6.14327025 0.25154297,6.413546 0.25,6.6975 L0.25,13.75 C0.250963273,14.3018852 0.698114743,14.7490367 1.25,14.75 L13.75,14.75 C14.3018853,14.7490367 14.7490367,14.3018852 14.75,13.75 L14.75,6.6975 C14.75,6.4907909 14.6864028,6.28908815 14.5675,6.12 L14.5675,6.12 Z" id="Shape" fill="#F0C419"></path>
                <path d="M14.5675,6.12 L8.7075,10.375 L8.0725,10.835 C7.7291321,11.0837549 7.26617115,11.0887653 6.9175,10.8475 L6.2625,10.395 L0.3325,6.3025 C0.388271972,6.1684171 0.473753022,6.04874362 0.5825,5.9525 L3.38,3.445 L3.3825,3.4425 L11.6175,3.4425 L11.62,3.445 L14.4175,5.9525 C14.473971,6.00218175 14.5243255,6.0584109 14.5675,6.12 Z" id="Shape" fill="#A4C2F7"></path>
                <path d="M6.2625,10.395 L0.5925,14.5025 C0.374572628,14.3132317 0.249593595,14.0386428 0.249988634,13.75 L0.249988634,6.6975 C0.2493397,6.561489 0.277454995,6.42687635 0.3325,6.3025 L6.2625,10.395 Z" id="Shape" fill="#E8EDFC"></path>
                <path d="M14.4075,14.5025 C14.2256633,14.6621111 13.991951,14.7500865 13.75,14.7500001 L1.25,14.7500001 C1.00804899,14.7500865 0.774336692,14.6621111 0.5925,14.5025 L6.2625,10.395 L6.9175,10.8475 C7.26617115,11.0887653 7.7291321,11.0837549 8.0725,10.835 L8.7075,10.375 L14.4075,14.5025 Z" id="Shape" fill="#E8EDFC"></path>
                <path d="M14.750001,6.6975 L14.750001,13.75 C14.7504064,14.0386428 14.6254274,14.3132317 14.4075,14.5025 L13.9175,14.1475 L8.7075,10.375 L13.9875,6.5425 L14.5675,6.12 C14.6864028,6.28908815 14.7501444,6.4907909 14.750001,6.6975 Z" id="Shape" fill="#CAD9FC"></path>
                <path d="M14,6.6975 L14,13.75 C14,13.8867455 13.9718743,14.0220298 13.9175,14.1475 L8.7075,10.375 L13.9875,6.5425 C13.9954872,6.59378728 13.9996653,6.6455956 14,6.6975 Z" id="Shape" fill="#E8EDFC"></path>
                <path d="M11.75,4.5 C11.7500919,5.62720058 11.3023648,6.7082625 10.5053137,7.50531368 C9.7082625,8.30236485 8.62720057,8.75003233 7.5,8.75003233 C7.37478425,8.75052375 7.24962277,8.74468288 7.125,8.7325 C4.93187312,8.53865925 3.2500919,6.70167658 3.2500919,4.5 C3.2500919,2.29832342 4.93187312,0.461340758 7.125,0.2675 C7.24962277,0.25531713 7.37478425,0.249476263 7.5,0.249967675 C8.62720057,0.249967675 9.7082625,0.697635155 10.5053137,1.49468633 C11.3023648,2.2917375 11.7500919,3.37279943 11.75,4.5 Z" id="Shape" fill="#CAD9FC"></path>
                <ellipse id="Oval" fill="#E8EDFC" cx="7.125" cy="4.5" rx="3.875" ry="4.2325"></ellipse>
                <path d="M10.02,2.99 L7.5,6.655 L7.4125,6.7825 C7.33242715,6.89981248 7.2059122,6.97717773 7.065,6.995 C7.04344675,6.99790795 7.02174445,6.99957738 7,7 C6.88085872,6.9998361 6.76565985,6.95730113 6.675,6.88 L5.115,5.5425 C5.0645473,5.49944145 5.03329517,5.4380818 5.02813627,5.3719539 C5.02297735,5.305826 5.04433542,5.24036203 5.0875,5.19 L5.4125,4.81 C5.45555855,4.7595473 5.5169182,4.72829518 5.5830461,4.72313628 C5.649174,4.71797735 5.71463797,4.73933543 5.765,4.7825 L6.9025,5.7575 L7.5,4.89 L9.195,2.4225 C9.27374415,2.30972294 9.428316,2.28081022 9.5425,2.3575 L9.955,2.64 C10.0103266,2.67755873 10.0483297,2.73568893 10.0605398,2.80143548 C10.0727499,2.867182 10.0581522,2.93508093 10.02,2.99 Z" id="Shape" fill="#FFFFFF"></path>
                <path d="M1.25,14.75 L2,14.75 C1.44811474,14.7490367 1.00096327,14.3018853 1,13.75 L1,6.6975 C1.00154297,6.413546 1.1221694,6.14327025 1.3325,5.9525 L4.13,3.445 L4.1325,3.4425 L4.1369,3.4425 C4.58263668,1.70122602 6.07709285,0.429683842 7.867275,0.26855 C7.745975,0.258125 7.624,0.249967675 7.5,0.249967675 C7.37478425,0.249476262 7.24962278,0.25531713 7.125,0.2675 C5.33161373,0.42571925 3.83326513,1.69835958 3.3869,3.4425 L3.3825,3.4425 L3.38,3.445 L0.5825,5.9525 C0.372169398,6.14327025 0.25154297,6.413546 0.25,6.6975 L0.25,13.75 C0.250963273,14.3018853 0.698114743,14.7490367 1.25,14.75 Z" id="Shape" fill="#FFFFFF"></path>
                <polygon id="Shape" fill="#FFFFFF" points="0 13.75 0 10.5 0 6.6975 0.5 6.6975 0.5 10.5 0.5 13.75"></polygon>
                <g id="Group" fill="#428DFF">
                    <path d="M0.25,12.5 C0.112094087,12.5003982 0.0003981975,12.6120941 0,12.75 L0,13.75 L0.5,13.75 L0.5,12.75 C0.499601803,12.6120941 0.387905913,12.5003982 0.25,12.5 Z" id="Shape"></path>
                    <path d="M0.5,6.6975 L0,6.6975 L0,10.75 C0,10.8880712 0.111928813,11 0.25,11 C0.388071188,11 0.5,10.8880712 0.5,10.75 L0.5,6.6975 Z" id="Shape"></path>
                    <path d="M-6.9388939e-17,11.75 C0.000989725,11.8161777 0.02687556,11.8795534 0.0725,11.9275 L0.11,11.9575 C0.123938995,11.966957 0.139071,11.974523 0.155,11.98 C0.16916502,11.9872233 0.184333992,11.9922796 0.2,11.995 C0.216532185,11.997812 0.233238345,11.9994826 0.25,12 C0.316191745,11.9990791 0.379591552,11.9731834 0.4275,11.9275 C0.521863067,11.8279787 0.521863067,11.6720213 0.4275,11.5725 C0.40358498,11.5499178 0.375585537,11.5321 0.345,11.52 C0.314944422,11.5071898 0.282669315,11.500395 0.25,11.5 C0.183827292,11.5010142 0.120460202,11.5268966 0.0725,11.5725 C0.0268965475,11.6204602 0.001014215,11.6838273 -6.9388939e-17,11.75 L-6.9388939e-17,11.75 Z" id="Shape"></path>
                    <path d="M13.75,15 L1.25,15 C0.55998101,14.9991872 0.000812785,14.440019 0,13.75 C0,13.6119288 0.111928813,13.5 0.25,13.5 C0.388071188,13.5 0.5,13.6119288 0.5,13.75 C0.500454677,14.1640251 0.835974917,14.4995453 1.25,14.5 L13.75,14.5 C14.1640251,14.4995453 14.4995453,14.1640251 14.5,13.75 L14.5,6.6975 C14.5001511,6.4843518 14.4095452,6.28122047 14.25085,6.138925 L11.453125,3.6311 L11.6175,3.4425 L11.79425,3.26575 L14.58425,5.76635 C14.848894,6.0035241 15,6.34212977 15,6.6975 L15,13.75 C14.9991872,14.440019 14.440019,14.9991872 13.75,15 Z" id="Shape"></path>
                    <path d="M0.25,6.9475 C0.111928813,6.9475 -5.37589474e-08,6.83557118 -5.37589474e-08,6.6975 C-0.000104155,6.342028 0.151141963,6.00332435 0.4159,5.766125 L3.213125,3.2588 C3.31405665,3.16798868 3.46886895,3.17376718 3.56275,3.27185 C3.65629,3.36936433 3.65471265,3.523767 3.5592,3.61935 L3.5567,3.62185 L0.7494,6.138675 C0.590576063,6.28100455 0.499876428,6.4842332 0.499999946,6.6975 C0.499999946,6.76380413 0.47366079,6.8273926 0.426776695,6.8742767 C0.3798926,6.9211608 0.316304122,6.9475 0.25,6.9475 Z" id="Shape"></path>
                    <path d="M7.48535,11.2745255 C7.23173138,11.2747478 6.98406593,11.1976837 6.77535,11.0536 L0.19055,6.508175 C0.0808931175,6.42835895 0.05487861,6.27566523 0.13191978,6.16404135 C0.208960947,6.05241745 0.36095432,6.02258215 0.474475,6.0968 L7.059325,10.6422 C7.3212717,10.8226286 7.66847245,10.8184724 7.926025,10.631825 L14.42065,5.917725 C14.5323856,5.8396122 14.6861029,5.86542363 14.7661971,5.9757475 C14.8462913,6.0860714 14.823227,6.24022483 14.71435,6.322275 L8.219725,11.036375 C8.00623482,11.191338 7.7491521,11.2747072 7.48535,11.2745255 L7.48535,11.2745255 Z" id="Shape"></path>
                    <path d="M14.407225,14.7525001 C14.354646,14.7525001 14.3034077,14.7359115 14.260875,14.705 L8.560875,10.5775 C8.48793187,10.5253481 8.44850607,10.4381247 8.45755155,10.3489131 C8.466597,10.2597016 8.52272817,10.1821671 8.60465485,10.1457179 C8.68658155,10.1092687 8.7817544,10.1194882 8.854075,10.1725 L14.554075,14.3 C14.6419021,14.3635856 14.6787289,14.4765372 14.645259,14.5796706 C14.6117891,14.682804 14.5156534,14.7526052 14.407225,14.7525001 L14.407225,14.7525001 Z" id="Shape"></path>
                    <path d="M0.592775,14.7525001 C0.484346588,14.7526052 0.388210905,14.682804 0.354740985,14.5796706 C0.321271065,14.4765372 0.358097893,14.3635856 0.445925,14.3 L6.115925,10.1925 C6.1882456,10.1394882 6.28341845,10.1292687 6.36534515,10.1657179 C6.44727182,10.2021671 6.503403,10.2797016 6.51244845,10.3689131 C6.52149393,10.4581247 6.48206812,10.5453481 6.409125,10.5975 L0.739125,14.705 C0.696592287,14.7359115 0.645353982,14.7525001 0.592775,14.7525001 Z" id="Shape"></path>
                    <path d="M7.5,9 C5.01471863,9 3,6.98528137 3,4.5 C3,2.01471863 5.01471863,0 7.5,0 C9.98528137,0 12,2.01471862 12,4.5 C11.9972444,6.98413907 9.98413907,8.99724442 7.5,9 Z M7.5,0.5 C5.290861,0.5 3.5,2.290861 3.5,4.5 C3.5,6.709139 5.290861,8.5 7.5,8.5 C9.709139,8.5 11.5,6.709139 11.5,4.5 C11.4974788,2.29190615 9.70809385,0.502521185 7.5,0.5 Z" id="Shape"></path>
                    <path d="M7,7.25000194 C6.82099542,7.25000194 6.647903,7.1859241 6.511975,7.06945 L4.761975,5.56945 C4.65715632,5.47959075 4.64502357,5.32177537 4.734875,5.21695 L5.38575,4.457675 C5.47573713,4.35310873 5.63333682,4.34099255 5.73825,4.430575 L6.854625,5.3875 L9.13195,2.075 C9.16949162,2.02032394 9.227234,1.98282001 9.29245097,1.97075391 C9.35766795,1.95868781 9.42500633,1.97304996 9.479625,2.010675 L10.3036,2.5775 C10.4173118,2.65569137 10.4461595,2.81123197 10.36805,2.925 L7.61805,6.925 C7.49738365,7.1002583 7.30802987,7.21609662 7.09705,7.243725 C7.06487613,7.2479785 7.03245372,7.25007485 7,7.25000194 Z M5.2771,5.3525 L6.837275,6.689775 C6.8911103,6.73591892 6.96200755,6.75703222 7.03231648,6.74785857 C7.1026254,6.73868495 7.1657318,6.7000874 7.205925,6.641675 L9.814325,2.84765 L9.40235,2.564325 L7.109125,5.9 C7.06895255,5.95847097 7.00583035,5.99712153 6.93548788,6.00632025 C6.8651454,6.015519 6.79420705,5.99439967 6.74035,5.948225 L5.6025,4.9729 L5.2771,5.3525 Z" id="Shape"></path>
                </g>
            </g>
        </g>
    </g>
</svg>