<?xml version="1.0" encoding="UTF-8"?>
<svg width="18px" height="17px" viewBox="0 0 18 17" version="1.1" xmlns="http://www.w3.org/2000/svg" xmlns:xlink="http://www.w3.org/1999/xlink">
    <!-- Generator: Sketch 61.2 (89653) - https://sketch.com -->
    <title>pointerne</title>
    <desc>Created with Sketch.</desc>
    <g id="Page-1" stroke="none" stroke-width="1" fill="none" fill-rule="evenodd">
        <g id="Contact-Details" transform="translate(-1046.000000, -565.000000)" fill-rule="nonzero">
            <g id="pointer" transform="translate(1046.000000, 565.000000)">
                <path d="M13.101,2.89547205 C12.2276259,1.00672311 10.1224635,-0.0295618553 8.04883773,0.408500122 C5.97521196,0.8465621 4.49646297,2.63996308 4.49999367,4.71246869 C4.51436343,6.37742994 5.01158445,8.00430466 5.934,9.4044229 C5.97,9.46596633 6.009,9.51871785 6.045,9.5744 C6.048,9.57733064 6.048,9.58026128 6.051,9.58319192 C6.258,9.89090909 6.471,10.1781118 6.687,10.4389387 C6.93047865,10.7391515 7.18983144,11.0267453 7.464,11.3005468 C7.93193382,11.7815662 8.44632072,12.217323 8.99999367,12.6017508 C9.55367928,12.217323 10.0680662,11.7815662 10.536,11.3005468 C10.8101686,11.0267453 11.0695214,10.7391515 11.313,10.4389387 C11.529,10.1781118 11.742,9.89090909 11.949,9.58319192 C11.952,9.58026128 11.952,9.57733064 11.955,9.5744 C11.991,9.51871785 12.03,9.46596633 12.066,9.4044229 C12.9884156,8.00430466 13.4856366,6.37742994 13.5000164,4.71246869 C13.5017345,4.08587895 13.3656652,3.466236 13.101,2.89547205 L13.101,2.89547205 Z M9,7.6196633 C7.34314575,7.6196633 6,6.3075712 6,4.68902357 C6,3.07047594 7.34314575,1.75838384 9,1.75838384 C10.6568543,1.75838384 12,3.07047594 12,4.68902357 C12,6.3075712 10.6568543,7.6196633 9,7.6196633 Z" id="Shape" fill="#E8EDFC"></path>
                <path d="M13.101,2.89547205 C12.3217828,1.15851459 10.4803231,0.114995258 8.55,0.316509091 C10.8535154,0.551815662 12.6022606,2.44994243 12.6,4.71246869 C12.5856366,6.37742994 12.0884156,8.00430466 11.166,9.4044229 C11.13,9.46596633 11.091,9.51871785 11.055,9.5744 C11.052,9.57733064 11.052,9.58026128 11.049,9.58319192 C10.842,9.89090909 10.629,10.1781118 10.413,10.4389387 C10.1695213,10.7391515 9.91016856,11.0267453 9.636,11.3005468 C9.29467836,11.6454989 8.93199591,11.9696515 8.55,12.2711747 C8.8275,12.4892143 9,12.6017508 9,12.6017508 C9.55367928,12.217323 10.0680662,11.7815662 10.536,11.3005468 C10.8101686,11.0267453 11.0695214,10.7391515 11.313,10.4389387 C11.529,10.1781118 11.742,9.89090909 11.949,9.58319192 C11.952,9.58026128 11.952,9.57733064 11.955,9.5744 C11.991,9.51871785 12.03,9.46596633 12.066,9.4044229 C12.9884156,8.00430466 13.4856366,6.37742994 13.5000164,4.71246869 C13.5017345,4.08587895 13.3656652,3.466236 13.101,2.89547205 L13.101,2.89547205 Z" id="Shape" fill="#CAD9FC"></path>
                <ellipse id="Oval" fill="#E8EDFC" cx="9" cy="4.68902357" rx="3" ry="2.93063973"></ellipse>
                <path d="M9,1.75838179 C8.84927241,1.75956597 8.69884887,1.77181145 8.55,1.79501684 C10.0160342,2.01034964 11.1003661,3.24078629 11.1003661,4.68902357 C11.1003661,6.13726085 10.0160342,7.3676975 8.55,7.5830303 C9.6631353,7.74941805 10.7778546,7.29252569 11.436207,6.40005451 C12.0945594,5.50758334 12.1855355,4.33001909 11.6717605,3.3511307 C11.1579854,2.37224234 10.1260903,1.757087 9,1.75838179 Z" id="Shape" fill="#CAD9FC"></path>
                <path d="M17.7,13.0354855 C17.7,15.0634882 13.806,16.7046465 9,16.7046465 C4.194,16.7046465 0.3,15.0634882 0.3,13.0354855 C0.3,11.4412175 2.697,10.087262 6.051,9.58319192 C6.258,9.89090909 6.471,10.1781118 6.687,10.4389387 C4.521,10.7906155 3,11.6258478 3,12.6017508 C3,13.8970936 5.685,14.9462626 9,14.9462626 C12.315,14.9462626 15,13.8970936 15,12.6017508 C15,11.6258478 13.479,10.7906155 11.313,10.4389387 C11.529,10.1781118 11.742,9.89090909 11.949,9.58319192 C15.303,10.087262 17.7,11.4412175 17.7,13.0354855 L17.7,13.0354855 Z" id="Shape" fill="#CAD9FC"></path>
                <path d="M12,12.3086869 C12,12.9563582 10.656,13.4809428 9,13.4809428 C7.344,13.4809428 6,12.9563582 6,12.3086869 C6,11.8808135 6.588,11.5056916 7.464,11.3005468 C7.93193382,11.7815662 8.44632072,12.217323 9,12.6017508 C9.55367928,12.217323 10.0680662,11.7815662 10.536,11.3005468 C11.412,11.5056916 12,11.8808135 12,12.3086869 Z" id="Shape" fill="#E8EDFC"></path>
                <path d="M15,12.6017508 C15,13.8970936 12.315,14.9462626 9,14.9462626 C5.685,14.9462626 3,13.8970936 3,12.6017508 C3,11.6258478 4.521,10.7906155 6.687,10.4389387 C6.93047865,10.7391515 7.18983144,11.0267453 7.464,11.3005468 C6.588,11.5056916 6,11.8808135 6,12.3086869 C6,12.9563582 7.344,13.4809428 9,13.4809428 C10.656,13.4809428 12,12.9563582 12,12.3086869 C12,11.8808135 11.412,11.5056916 10.536,11.3005468 C10.8101686,11.0267453 11.0695213,10.7391515 11.313,10.4389387 C13.479,10.7906155 15,11.6258478 15,12.6017508 L15,12.6017508 Z" id="Shape" fill="#CAD9FC"></path>
                <path d="M5.934,9.4044229 C5.9616,9.4516062 6.0504,9.58260579 6.051,9.58319192 C2.697,10.087262 0.3,11.4412175 0.3,13.0354855 C0.3,15.0634882 4.194,16.7046465 9,16.7046465 C9.15099999,16.7046465 9.30099999,16.7029858 9.45,16.6996644 C4.8531,16.6011949 1.2,14.9998933 1.2,13.0354855 C1.2,11.5455483 3.2931,10.2657379 6.3042,9.69455623" id="Shape" fill="#FFFFFF"></path>
                <path d="M6.2292,0.86746936 L6.5775,1.34457751 C5.96623893,1.77033115 5.48138382,2.3467141 5.1723,3.01504215 L4.6248,2.77560889 C4.97733987,2.01208364 5.53098276,1.35362695 6.2292,0.86746936 Z" id="Shape" fill="#FFFFFF"></path>
                <g id="Group" fill="#428DFF">
                    <path d="M5.532,2.19300074 C5.36631459,2.19372606 5.23139559,2.06310729 5.2306469,1.90125253 C5.22990441,1.73939776 5.36361459,1.60759811 5.5293,1.60686976 L5.532,1.60686976 C5.69768541,1.60686976 5.832,1.73807897 5.832,1.89993374 C5.832,2.0617885 5.69768541,2.19300074 5.532,2.19300074 Z" id="Shape"></path>
                    <path d="M9,7.91272727 C10.8225397,7.91272727 12.3,6.46942595 12.3,4.68902357 C12.3,2.90862117 10.8225397,1.46531987 9,1.46531987 C7.17746034,1.46531987 5.7,2.90862117 5.7,4.68902357 C5.70214905,6.46855567 7.17835122,7.91062791 9,7.91272727 Z M9,2.05144781 C10.4911688,2.05144781 11.7,3.23233072 11.7,4.68902357 C11.7,6.14571642 10.4911688,7.32659933 9,7.32659933 C7.50883119,7.32659933 6.3,6.14571642 6.3,4.68902357 C6.30165333,3.23300022 7.50951654,2.05306293 9,2.05144781 Z" id="Shape"></path>
                    <path d="M12.435,9.36837603 C13.3163207,7.9668098 13.7883576,6.35642505 13.8,4.71158949 C13.8023543,4.04454788 13.6575695,3.38483998 13.3755,2.77736727 C12.7932627,1.49479701 11.6516812,0.535837049 10.266354,0.165598822 C8.88102687,-0.204639407 7.39870974,0.0530655772 6.2292,0.86746936 C6.16078341,0.911788212 6.11476464,0.982323986 6.10253121,1.06162237 C6.09029775,1.14092075 6.11299266,1.22157255 6.165,1.2836202 C6.26626002,1.4040851 6.44429661,1.43039451 6.5775,1.34457751 C7.86242157,0.462698257 9.54329064,0.353694182 10.9362685,1.06191211 C12.3292464,1.77013003 13.2022077,3.17755275 13.2,4.71158949 C13.1867708,6.32562239 12.7034317,7.90262052 11.8065,9.25818397 C11.7834,9.29745455 11.7582,9.33379448 11.733,9.37042747 L11.703,9.4149732 C10.9707311,10.498486 10.0569621,11.4538414 9,12.2409891 C7.94270727,11.4535562 7.02872439,10.4977929 6.2964,9.41380094 L6.2664,9.37042747 C6.2412,9.33379448 6.216,9.29745455 6.1875,9.24968512 C5.29373358,7.8961698 4.81250931,6.32222985 4.8,4.71158949 C4.79800746,4.12775011 4.92467583,3.55033109 5.1714,3.01855892 C5.23397556,2.87243175 5.16636849,2.70417675 5.01874722,2.63864916 C4.87112595,2.57312157 4.69691976,2.63403808 4.6254,2.77619502 C4.34288799,3.38397151 4.19779338,4.04409213 4.2,4.71158949 C4.21123026,6.35648296 4.68329826,7.96697374 5.565,9.36837603 C2.1708,9.9656404 -3.19744231e-15,11.3814325 -3.19744231e-15,13.0354855 C-3.19744231e-15,15.2574966 3.9534,16.9977104 9,16.9977104 C14.0466,16.9977104 18,15.2574966 18,13.0354855 C18,11.3814325 15.8292,9.9656404 12.435,9.36837603 L12.435,9.36837603 Z M6.915,11.1560663 C6.1395,11.4239267 5.7,11.8306995 5.7,12.3086869 C5.7,13.2605587 7.4001,13.7740067 9,13.7740067 C10.5999,13.7740067 12.3,13.2605587 12.3,12.3086869 C12.3,11.8306995 11.8605,11.4239267 11.085,11.1557732 C11.2011,11.0294626 11.3178,10.8987561 11.4357,10.7586715 C13.3656,11.1021425 14.7,11.8494556 14.7,12.6017508 C14.7,13.5720857 12.36,14.6531987 9,14.6531987 C5.64,14.6531987 3.3,13.5720857 3.3,12.6017508 C3.3,11.8494556 4.6344,11.1021425 6.5646,10.7586715 C6.6822,10.8987561 6.7992,11.0294626 6.915,11.1557732 L6.915,11.1560663 Z M8.835,12.8458731 C8.93581107,12.9115779 9.06718893,12.9115779 9.168,12.8458731 C9.69180111,12.4844299 10.1809107,12.0772541 10.6293,11.6293646 C11.3295,11.8210284 11.7,12.1082311 11.7,12.3086869 C11.7,12.6671041 10.6482,13.1878788 9,13.1878788 C7.3518,13.1878788 6.3,12.6671041 6.3,12.3086869 C6.3,12.1082311 6.6705,11.8210284 7.3722,11.6290715 C7.82065923,12.0768879 8.30976171,12.4840578 8.8335,12.8455801 L8.835,12.8458731 Z M9,16.4115825 C4.4466,16.4115825 0.6,14.86567 0.6,13.0354855 C0.6,11.6873912 2.7762,10.4116838 5.9121,9.90409697 C5.99210001,10.018978 6.07209999,10.1305377 6.1521,10.238776 C4.0104,10.673976 2.7,11.5602015 2.7,12.6017508 C2.7,14.0808447 5.4675,15.2393266 9,15.2393266 C12.5325,15.2393266 15.3,14.0808447 15.3,12.6017508 C15.3,11.5602015 13.9896,10.673976 11.8464,10.238776 C11.9278,10.1303424 12.0078,10.0187827 12.0864,9.90409697 C15.2241,10.4116838 17.4,11.6865121 17.4,13.0354855 C17.4,14.86567 13.5534,16.4115825 9,16.4115825 Z" id="Shape"></path>
                </g>
            </g>
        </g>
    </g>
</svg>