<?xml version="1.0" encoding="UTF-8"?>
<svg width="15px" height="13px" viewBox="0 0 15 13" version="1.1" xmlns="http://www.w3.org/2000/svg" xmlns:xlink="http://www.w3.org/1999/xlink">
    <!-- Generator: Sketch 61.2 (89653) - https://sketch.com -->
    <title>id-card</title>
    <desc>Created with Sketch.</desc>
    <defs>
        <linearGradient x1="29.0067157%" y1="11.6937166%" x2="72.0446844%" y2="71.6538037%" id="linearGradient-1">
            <stop stop-color="#D4E1F4" offset="0%"></stop>
            <stop stop-color="#D4E1F4" offset="17.17%"></stop>
            <stop stop-color="#D4E1F4" offset="20%"></stop>
            <stop stop-color="#DAE4F4" offset="20.01%"></stop>
            <stop stop-color="#EBEBF4" offset="20.07%"></stop>
            <stop stop-color="#F6F1F4" offset="20.14%"></stop>
            <stop stop-color="#FDF4F4" offset="20.23%"></stop>
            <stop stop-color="#FFF5F4" offset="20.5%"></stop>
            <stop stop-color="#FFF5F4" offset="25.22%"></stop>
            <stop stop-color="#FFF5F4" offset="26%"></stop>
            <stop stop-color="#D4E1F4" offset="26%"></stop>
            <stop stop-color="#D4E1F4" offset="39.74%"></stop>
            <stop stop-color="#D4E1F4" offset="42%"></stop>
            <stop stop-color="#DAE4F4" offset="42.01%"></stop>
            <stop stop-color="#EBEBF4" offset="42.07%"></stop>
            <stop stop-color="#F6F1F4" offset="42.14%"></stop>
            <stop stop-color="#FDF4F4" offset="42.23%"></stop>
            <stop stop-color="#FFF5F4" offset="42.5%"></stop>
            <stop stop-color="#FFF5F4" offset="48.94%"></stop>
            <stop stop-color="#FFF5F4" offset="50%"></stop>
            <stop stop-color="#F9F2F4" offset="50%"></stop>
            <stop stop-color="#E8EBF4" offset="50.01%"></stop>
            <stop stop-color="#DDE5F4" offset="50.03%"></stop>
            <stop stop-color="#D6E2F4" offset="50.05%"></stop>
            <stop stop-color="#D4E1F4" offset="50.1%"></stop>
            <stop stop-color="#D4E1F4" offset="70.62%"></stop>
            <stop stop-color="#D4E1F4" offset="74%"></stop>
            <stop stop-color="#FFF5F4" offset="74.1%"></stop>
            <stop stop-color="#FFF5F4" offset="83.46%"></stop>
            <stop stop-color="#FFF5F4" offset="85%"></stop>
            <stop stop-color="#D4E1F4" offset="85.1%"></stop>
        </linearGradient>
    </defs>
    <g id="Page-1" stroke="none" stroke-width="1" fill="none" fill-rule="evenodd">
        <g id="Document-Upload" transform="translate(-662.000000, -528.000000)" fill-rule="nonzero">
            <g id="id-card" transform="translate(662.000000, 528.000000)">
                <g id="Group" transform="translate(0.234375, 0.238532)">
                    <path d="M14.5156348,3.58949083 L14.5156348,11.4769725 C14.5341504,12.0194541 14.1176074,12.4747821 13.5846094,12.4946995 L1.94666016,12.4946995 C1.41366211,12.4747821 0.997119141,12.0194541 1.01563477,11.4769725 L1.01563477,3.58949083 C0.997119141,3.04700917 1.41366211,2.59168119 1.94666016,2.57176376 L6.13631836,2.57176376 L14.5156348,3.58949083 Z" id="Path" fill="#7FACFA"></path>
                    <path d="M13.5156152,3.58949083 L13.5156152,11.4769725 C13.5341309,12.0194541 13.1175879,12.4747821 12.5845898,12.4946995 L0.946669922,12.4946995 C0.413671875,12.4747821 -0.00287109375,12.0194541 0.0156152344,11.4769725 L0.0156152344,3.58949083 C-0.00290039063,3.04700917 0.413642578,2.59168119 0.946640625,2.57176376 L5.13632812,2.57176376 L13.5156152,3.58949083 Z" id="Path" fill="#FFFFFF"></path>
                    <path d="M13.7656348,3.58949083 L13.7656348,11.4769725 C13.7804297,12.0236284 13.3572656,12.4791055 12.820166,12.4946995 L1.71108398,12.4946995 C1.17398438,12.4791055 0.750849609,12.0235986 0.765615234,11.4769725 L0.765615234,3.58949083 C0.750820313,3.04283486 1.17398438,2.5873578 1.71108398,2.57176376 L5.2565332,2.57176376 L13.7656348,3.58949083 Z" id="Path" fill="#E3E7F2"></path>
                    <path d="M14.5156348,2.41907339 L14.5156348,4.75227523 C14.4879199,6.88162156 13.497334,8.87911927 11.8306348,10.1666261 L10.348125,11.3599128 C10.1526855,11.515078 9.87858398,11.515078 9.68311523,11.3599128 L9.635625,11.3217477 L8.20063477,10.1666261 C6.53393555,8.87914908 5.54334961,6.88165138 5.51563477,4.75227523 L5.51563477,2.41907339 C5.51698242,2.24885092 5.61418945,2.09449083 5.765625,2.02218578 L9.613125,0.121561927 C9.86748047,-0.00310091743 10.1637598,-0.00310091743 10.4181152,0.121561927 L13.7631152,1.77283028 L14.2656152,2.02218578 C14.4170508,2.09449083 14.5142871,2.24885092 14.5156348,2.41907339 Z" id="Path" fill="#7FACFA"></path>
                    <path d="M13.7656348,1.81355963 L13.7656348,4.30192661 C13.756084,6.53703211 12.7726172,8.65260321 11.0806348,10.077594 L9.635625,11.3217775 L8.20063477,10.166656 C6.53393555,8.8791789 5.54334961,6.88168119 5.51563477,4.75230505 L5.51563477,2.41910321 C5.51698242,2.24888073 5.61418945,2.09452064 5.765625,2.0222156 L9.613125,0.121591743 C9.86748047,-0.00307110092 10.1637598,-0.00307110092 10.4181152,0.121591743 L13.7631152,1.77286009 C13.7651953,1.78630734 13.7660449,1.79993349 13.7656348,1.81355963 Z" id="Path" fill="url(#linearGradient-1)"></path>
                    <ellipse id="Oval" fill="#E3E7F2" cx="10.0156348" cy="4.87186927" rx="2.25" ry="2.27974083"></ellipse>
                    <path d="M4.86254883,8.00069495 L3.99418945,7.56507569 C3.88248047,7.50958716 3.81149414,7.39431651 3.81111328,7.26780505 L3.81111328,6.9259289 C3.84026367,6.89205734 3.86768555,6.85666514 3.89329102,6.81993119 C4.01024414,6.65319725 4.10129883,6.46913991 4.16320312,6.27419954 C4.2769043,6.24011927 4.35539063,6.13441972 4.3565625,6.01378211 L4.3565625,5.64891743 C4.35615234,5.57136468 4.32304688,5.49771789 4.2656543,5.44670183 L4.2656543,4.91921789 C4.2656543,4.91921789 4.37355469,4.09830963 3.2656543,4.09830963 C2.15765625,4.09830963 2.26567383,4.91921789 2.26567383,4.91921789 L2.26567383,5.44670183 C2.20828125,5.49771789 2.17517578,5.57136468 2.17476562,5.64891743 L2.17476562,6.01378211 C2.17529297,6.10716743 2.22272461,6.1937844 2.30047852,6.24336927 C2.36109375,6.49209862 2.47321289,6.72481651 2.62930664,6.92589908 L2.62930664,7.25927752 C2.62895508,7.3814656 2.56262695,7.49357569 2.45666016,7.55106193 L1.64566406,7.99491055 C1.41240234,8.1213922 1.26638672,8.36815367 1.2656543,8.63712844 L1.2656543,8.93258028 L5.2656543,8.93258028 L5.2656543,8.65501835 C5.26476563,8.37659174 5.1084375,8.12282339 4.86254883,8.00069495 Z" id="Path" fill="#A4C2F7"></path>
                </g>
                <g id="Group">
                    <polygon id="Path" fill="#FFFFFF" points="0.500009766 3.82802294 0.500009766 7.13568807 0.500009766 11.7155046 0 11.7155046 0 7.13568807 0 3.82802294"></polygon>
                    <g fill="#428DFF">
                        <path d="M0.249990234,5.10020413 C0.387890625,5.0997867 0.499599609,4.98612615 0.499980469,4.84577982 L0.499980469,3.82805275 L0,3.82805275 L0,4.84577982 C0.00041015625,4.98612615 0.112089844,5.0997867 0.249990234,5.10020413 Z" id="Path"></path>
                        <path d="M0,11.7155046 L0.5,11.7155046 L0.5,6.88123394 C0.5,6.74070872 0.388066406,6.62680963 0.250019531,6.62680963 C0.111972656,6.62680963 0,6.74073853 0,6.88123394 L0,11.7155046 Z" id="Path"></path>
                        <path d="M0.500009766,5.86350688 C0.499042969,5.79615138 0.473144531,5.73165826 0.4275,5.68284862 L0.390029297,5.6522867 C0.376083984,5.64262615 0.3609375,5.63490367 0.344970703,5.62929817 C0.330791016,5.62199312 0.315585937,5.61686468 0.299912109,5.61415138 C0.283417969,5.61128899 0.26671875,5.60958945 0.249990234,5.60905275 C0.183808594,5.60997706 0.120410156,5.63633486 0.0724804687,5.68284862 C-0.0219140625,5.78413532 -0.0219140625,5.94287844 0.0724804687,6.04413532 C0.0963574219,6.06712385 0.124335937,6.08525229 0.154892578,6.09756651 C0.184980469,6.11062615 0.217294922,6.11754358 0.249990234,6.11793119 C0.316171875,6.11691743 0.379541016,6.09055963 0.4275,6.04413532 C0.473115234,5.9953555 0.498984375,5.93086239 0.500009766,5.86350688 Z" id="Path"></path>
                        <path d="M10.2500098,11.9689498 C10.0732324,11.9695711 9.90143555,11.9094014 9.76245117,11.7982454 L8.27991211,10.6035872 C6.55318359,9.26786697 5.52764648,7.19681193 5.50001953,4.9896445 L5.50001953,2.65724771 C5.50001953,2.38934633 5.65174805,2.14544725 5.88966797,2.03086239 L9.73842773,0.131043578 C10.0618066,-0.0272224771 10.4383594,-0.0272224771 10.7617383,0.131043578 L14.6103516,2.03083257 C14.8482422,2.14547706 15,2.38934633 15,2.65721789 L15,4.98961468 C14.9722852,7.19693119 13.9466016,9.26807569 12.2197266,10.6038257 L10.7375391,11.7982156 C10.5985547,11.9094014 10.4267578,11.9695413 10.2500098,11.9689498 Z M10.2500098,0.520654939 C10.1484668,0.520477064 10.0482129,0.543733945 9.95680664,0.588727064 L6.10792969,2.48854587 C6.04303711,2.51895872 6.00108398,2.58455505 6.0000293,2.65724771 L6.0000293,4.9896445 C6.02821289,7.04102064 6.98361328,8.96472248 8.58987305,10.2043142 L10.072793,11.399211 C10.1770605,11.4817133 10.3230176,11.4817133 10.4272852,11.399211 L11.909707,10.2045528 C13.5162305,8.96505046 14.4718359,7.04119954 14.5000488,4.9896445 L14.5000488,2.65724771 C14.4990527,2.58455505 14.4570703,2.51889908 14.3921484,2.48854587 L10.5433301,0.588727064 C10.4518359,0.543853211 10.351582,0.520654939 10.2500098,0.520654939 Z" id="Shape"></path>
                        <path d="M10.2500098,7.64456755 C8.87613281,7.63896101 7.76633789,6.50187844 7.77002011,5.10363303 C7.7737207,3.70538761 8.88946289,2.57438761 10.2633398,2.57623398 C11.6372168,2.57811468 12.7500293,3.71212615 12.7500293,5.11037156 C12.7457227,6.51213532 11.6273145,7.64581881 10.2500098,7.64456755 Z M10.2500098,3.08511284 C9.15225586,3.09072018 8.26631836,3.99994495 8.26996916,5.11716972 C8.27364258,6.2343945 9.16555664,7.13756651 10.2633105,7.13572072 C11.3610645,7.13386927 12.2499902,6.22765596 12.2499902,5.11043119 C12.2459473,3.98959862 11.3512793,3.08362385 10.2500098,3.08511284 Z" id="Shape"></path>
                        <path d="M9.8409375,6.09482362 C9.77460938,6.09491284 9.71100586,6.06807798 9.66418945,6.02028211 L9.255,5.60386468 C9.15738281,5.50451606 9.15738281,5.34341743 9.255,5.24406881 C9.35261719,5.14472018 9.5109082,5.14472018 9.60852539,5.24406881 L9.8409375,5.48060321 L10.8914941,4.41144266 C10.9892578,4.3129289 11.1468457,4.31334633 11.2441113,4.41233716 C11.341377,4.51132798 11.3417871,4.67171101 11.2450195,4.77120872 L10.0177148,6.02028211 C9.97086914,6.06807798 9.90726563,6.09491284 9.8409375,6.09482362 Z" id="Path"></path>
                        <path d="M0.249990234,4.08247709 C0.183691406,4.08250688 0.120087891,4.05570183 0.0731835937,4.0079656 C0.0263085937,3.96025917 -2.9296875e-05,3.89552752 -2.9296875e-05,3.82802294 C0.000791015625,3.12575459 0.559951172,2.55667661 1.24998047,2.55584174 L5.74998047,2.55584174 C5.88805664,2.55584174 5.9999707,2.66977064 5.9999707,2.81026606 C5.9999707,2.95076147 5.88802734,3.06469037 5.74998047,3.06469037 L1.24998047,3.06469037 C0.835957031,3.06513761 0.500419922,3.40662615 0.499970703,3.82799312 C0.500009766,3.89546789 0.473671875,3.96019954 0.426767578,4.00793578 C0.379921875,4.05570183 0.316318359,4.08247709 0.249990234,4.08247709 Z" id="Path"></path>
                        <path d="M13.7499902,12.9876858 L1.25000977,12.9876858 C0.559980469,12.9868509 0.0008203125,12.4177729 0,11.7155046 C0,11.5749794 0.111943359,11.4610803 0.249990234,11.4610803 C0.388037109,11.4610803 0.499980469,11.5750092 0.499980469,11.7155046 C0.500419922,12.1368716 0.835957031,12.4783601 1.24998047,12.4788073 L13.7499902,12.4788073 C14.1640137,12.4783601 14.4995508,12.1368716 14.5,11.7155046 L14.5,3.82802294 C14.5,3.68749771 14.6119336,3.57359862 14.7499805,3.57359862 C14.8880566,3.57359862 14.9999707,3.68752752 14.9999707,3.82802294 L14.9999707,11.7155046 C14.9991797,12.4177729 14.4400195,12.9868509 13.7499902,12.9876858 Z" id="Path"></path>
                        <path d="M5.49999023,10.4433234 L1.55663086,10.4433234 C1.41855469,10.4433234 1.30664062,10.3294243 1.30664062,10.1888991 C1.30664062,10.0483739 1.41858398,9.93447477 1.55663086,9.93447477 L5.49999023,9.93447477 C5.63806641,9.93447477 5.74998047,10.0484037 5.74998047,10.1888991 C5.74998047,10.3293945 5.63806641,10.4433234 5.49999023,10.4433234 Z" id="Path"></path>
                        <path d="M3.50000977,11.4610803 L1.55663086,11.4610803 C1.41855469,11.4610803 1.30664062,11.3471812 1.30664062,11.206656 C1.30664062,11.0661307 1.41858398,10.9522317 1.55663086,10.9522317 L3.49998047,10.9522317 C3.63805664,10.9522317 3.7499707,11.0661307 3.7499707,11.206656 C3.7499707,11.3471812 3.63805664,11.4610803 3.50000977,11.4610803 Z" id="Path"></path>
                        <path d="M5.49999023,9.42559636 L1.5,9.42559636 C1.43370117,9.42559636 1.37009766,9.3988211 1.32319336,9.35108486 C1.27631836,9.30337844 1.24998047,9.23864679 1.24998047,9.1711422 L1.24998047,8.87572018 C1.25053711,8.51300229 1.44714844,8.18004128 1.7615918,8.00931193 L2.57261719,7.56555275 C2.59746094,7.55240367 2.61319336,7.5264633 2.61363281,7.49795872 L2.61363281,7.25024312 C2.48024414,7.06055046 2.37878906,6.84962844 2.31333984,6.62609404 C2.21463867,6.52769954 2.15900391,6.39301835 2.1590332,6.25240367 L2.1590332,5.88765826 C2.15923828,5.78198853 2.1909375,5.67888303 2.24998047,5.59196789 L2.24998047,5.17104817 C2.23007813,4.91429817 2.31137695,4.66005275 2.4759375,4.46439679 C2.74552734,4.19008486 3.12005859,4.0503945 3.49998047,4.08247706 C3.87981445,4.05042431 4.25425781,4.18999541 4.52390625,4.46412844 C4.68852539,4.65984404 4.76985352,4.9141789 4.74998047,5.17101835 L4.74998047,5.59193807 C4.80902344,5.67885321 4.84072266,5.78195872 4.84092773,5.88762844 L4.84092773,6.25237385 C4.84116211,6.43309174 4.74960938,6.6011078 4.59887695,6.69663991 C4.53166992,6.87780505 4.44158203,7.04927982 4.33081055,7.20674083 C4.31871094,7.22388532 4.30693359,7.24004587 4.29541992,7.25519266 L4.29541992,7.50639679 C4.29597656,7.5358555 4.31279297,7.56248165 4.33886719,7.5752133 L5.20740234,8.01077294 L5.20751953,8.01104128 C5.5396875,8.17503211 5.75041992,8.5178922 5.75001036,8.89361009 L5.75001036,9.1711422 C5.75001036,9.23861697 5.72370117,9.30334862 5.67679688,9.35108486 C5.62992188,9.3988211 5.56631836,9.42559636 5.49999023,9.42559636 Z M1.74996094,8.91671789 L5.25,8.91671789 L5.25,8.89361009 C5.24970703,8.71187844 5.14731445,8.54633716 4.98644531,8.46747248 L4.11802734,8.03191284 C3.92030273,7.93426376 3.79494141,7.73005046 3.79538086,7.50639679 L3.79538086,7.16452064 C3.79538086,7.10202523 3.81796875,7.04170642 3.85886719,6.99507339 C3.88230469,6.96779128 3.90430664,6.93925688 3.92478516,6.90958945 C4.02670898,6.76420413 4.10598633,6.60373165 4.15989258,6.43377752 C4.18523438,6.35500229 4.24666992,6.29372936 4.32457031,6.26954817 L4.34091797,5.88762844 C4.28525391,5.83530046 4.2525,5.76245872 4.24998047,5.68538303 L4.24998047,5.15786927 C4.24998047,5.14656881 4.25071289,5.13526835 4.25217773,5.12408716 C4.25941406,5.0042844 4.2205957,4.88630046 4.14389648,4.79509174 C3.9655957,4.64052294 3.73294922,4.56690596 3.49998047,4.5913555 C3.26504883,4.56604128 3.03038086,4.64138761 2.85228516,4.79932569 C2.77822266,4.89014679 2.74083984,5.00625229 2.7477832,5.12408716 C2.74924805,5.13529817 2.74998047,5.14656881 2.74998047,5.15786927 L2.74998047,5.68538303 C2.74998047,5.75801606 2.71945312,5.82719037 2.66610352,5.8754633 L2.65901367,6.25240367 C2.71763672,6.29343119 2.75991211,6.35440596 2.77828125,6.4243555 C2.83025391,6.63384633 2.92438477,6.83006881 3.05478516,7.00055963 C3.09254883,7.04659633 3.11334961,7.10458945 3.11361328,7.16455046 L3.11361328,7.49798853 C3.11329102,7.71371101 2.99651367,7.91178211 2.8096582,8.01357569 L1.99836914,8.45760321 C1.84614258,8.53971789 1.75066406,8.7004289 1.74996094,8.87577982 L1.74996094,8.91671789 L1.74996094,8.91671789 Z" id="Shape"></path>
                    </g>
                </g>
            </g>
        </g>
    </g>
</svg>