<?xml version="1.0" encoding="UTF-8"?>
<svg width="15px" height="17px" viewBox="0 0 15 17" version="1.1" xmlns="http://www.w3.org/2000/svg" xmlns:xlink="http://www.w3.org/1999/xlink">
    <!-- Generator: Sketch 61.2 (89653) - https://sketch.com -->
    <title>job-searcher</title>
    <desc>Created with Sketch.</desc>
    <g id="Page-1" stroke="none" stroke-width="1" fill="none" fill-rule="evenodd">
        <g id="Your-Income" transform="translate(-660.000000, -564.000000)" fill-rule="nonzero">
            <g id="job-search" transform="translate(660.000000, 564.000000)">
                <g id="Group" transform="translate(0.292208, 0.259740)">
                    <g fill="#A4C2F7" id="Path">
                        <path d="M1.71694805,16.0868507 L1.66711039,16.0868507 C1.2262013,16.0869805 0.803311688,15.9118831 0.491525974,15.6000974 C0.17974026,15.2883117 0.00464285714,14.8654221 0.00477265508,14.424513 L0.00477265508,10.2686688 L4.43766234,10.2686688 L4.43766234,16.0868507 L1.71694805,16.0868507 L1.71694805,16.0868507 Z"></path>
                        <path d="M14.4116558,0.571720779 L14.4116558,14.4245455 C14.4109416,15.3423377 13.6671104,16.0861688 12.7493182,16.0868831 L1.71694805,16.0868831 C2.63149351,16.0347727 3.34253247,15.2712013 3.32944805,14.3552922 L3.32944805,0.571720779 C3.33032468,0.266071429 3.57788961,0.0185064935 3.88357143,0.0175974026 L13.8575974,0.0175974026 C14.1632143,0.018474026 14.4107792,0.266038961 14.4116558,0.571720779 Z"></path>
                    </g>
                    <path d="M13.580487,0.571720779 L13.580487,14.4245455 C13.5797727,15.3423377 12.8359416,16.0861688 11.9181494,16.0868831 L1.71694805,16.0868831 C2.63149351,16.0347727 3.34253247,15.2712013 3.32944805,14.3552922 L3.32944805,0.571720779 C3.33032468,0.266071429 3.57788961,0.0185064935 3.88357143,0.0175974026 L13.0264286,0.0175974026 C13.3320455,0.018474026 13.5796104,0.266038961 13.580487,0.571720779 Z" id="Path" fill="#D4E1F4"></path>
                    <g transform="translate(4.415584, 2.500000)" fill="#A4C2F7" id="Path">
                        <path d="M5.28613636,1.86185065 L5.28613636,3.61285714 C5.28568182,3.76568182 5.16191558,3.88944805 5.00909091,3.8899026 L0.576168831,3.8899026 C0.423344156,3.88944805 0.299577922,3.76568182 0.299123377,3.61285714 L0.299123377,1.86185065 L5.28613636,1.86185065 L5.28613636,1.86185065 Z"></path>
                        <path d="M4.14464286,1.95048701 L0.609415584,1.95048701 C0.285097403,1.95032468 0.0222077922,1.68743506 0.0220454545,1.36311688 L0.0220454545,0.288149351 C0.0225,0.135324675 0.146266234,0.011525974 0.299090909,0.0111038961 L5.2861039,0.0111038961 C5.43892857,0.0115584416 5.56272727,0.135324675 5.56314935,0.288149351 L5.56314935,1.36311688 C5.56298701,1.68743506 5.3000974,1.95032468 4.97577922,1.95048701 L4.14464286,1.95048701"></path>
                    </g>
                    <g transform="translate(4.415584, 2.500000)" fill="#E3E7F2" id="Path">
                        <path d="M4.45496753,1.86185065 L4.45496753,3.61285714 C4.45451299,3.76568182 4.33074675,3.88944805 4.17792208,3.8899026 L0.576168831,3.8899026 C0.423344156,3.88944805 0.299577922,3.76568182 0.299123377,3.61285714 L0.299123377,1.86185065 L4.45496753,1.86185065 L4.45496753,1.86185065 Z"></path>
                        <path d="M4.73201299,0.288149351 L4.73201299,1.36311688 C4.73185065,1.68743506 4.46896104,1.95032468 4.14464286,1.95048701 L0.609415584,1.95048701 C0.285097403,1.95032468 0.0222077922,1.68743506 0.0220454545,1.36311688 L0.0220454545,0.349123377 L0.299090909,0.0111038961 L4.45493506,0.0111038961 C4.60779221,0.0115584416 4.73155844,0.135324675 4.73201299,0.288149351 Z"></path>
                    </g>
                    <g fill="#FFFFFF" id="Path">
                        <path d="M4.71470779,0.0175974026 C4.40905844,0.018474026 4.16149351,0.266038961 4.16058442,0.571720779 L4.16058442,14.4245455 C4.15987013,15.3423377 3.41603896,16.0861688 2.49824675,16.0868831 L1.66707792,16.0868831 C2.58487013,16.0861688 3.3287013,15.3423377 3.32941558,14.4245455 L3.32941558,0.571720779 C3.33029221,0.266071429 3.57785714,0.0185064935 3.88353896,0.0175974026 L4.71470779,0.0175974026 Z"></path>
                        <path d="M1.71694805,16.0868507 L2.49827922,16.0868507 C2.05737013,16.0869805 1.63444805,15.9118831 1.32269481,15.6000974 C1.01090909,15.2883117 0.835811688,14.8654221 0.835941558,14.424513 L0.835941558,10.2686688 L0.00477265508,10.2686688 L0.00477265508,14.424513 C0.00464285714,14.8654221 0.17974026,15.2883117 0.491525974,15.6000974 C0.803311688,15.9118831 1.2262013,16.0869805 1.66711039,16.0868507 L1.71694805,16.0868507 L1.71694805,16.0868507 Z"></path>
                    </g>
                </g>
                <g id="Group">
                    <polygon id="Path" fill="#FFFFFF" points="3.89866883 0.831461039 3.89866883 4.43318182 3.89866883 11.3595779 3.34457792 11.3595779 3.34457792 4.43318182 3.34457792 0.831461039"></polygon>
                    <g fill="#428DFF">
                        <path d="M3.62162338,3.32496753 C3.73363636,3.32451299 3.83448052,3.25691558 3.87743506,3.15347403 C3.92038961,3.05003247 3.89711039,2.93087662 3.81834416,2.8512013 L3.77681818,2.81792208 C3.76136364,2.8074026 3.74457792,2.79899351 3.72688312,2.79288961 C3.71116883,2.7849026 3.69435065,2.77935065 3.67698052,2.7763961 C3.65866883,2.77327922 3.64019481,2.77142857 3.62162338,2.77087662 C3.54827922,2.77188312 3.47801948,2.80058442 3.4249026,2.85123377 C3.35769481,2.91597403 3.32818182,3.01058442 3.34668831,3.10207792 C3.36519481,3.19357143 3.42912338,3.26925325 3.51623377,3.30282468 C3.54957792,3.31698052 3.58538961,3.32451299 3.62162338,3.32496753 Z" id="Path"></path>
                        <path d="M14.1497727,0 L4.17574675,0 C3.71691558,0.000487012987 3.34506494,0.372337662 3.34457792,0.831168831 L3.34464286,0.831461039 L3.34457792,0.831461039 L3.34457792,1.93967532 C3.34457792,2.09269481 3.46863636,2.21672078 3.62162338,2.21672078 C3.77464286,2.21672078 3.89866883,2.09269481 3.89866883,1.93967532 L3.89866883,0.831461039 L3.8986039,0.831461039 L3.89866883,0.831168831 C3.89876623,0.678181818 4.02275974,0.554220779 4.17571429,0.554123377 L14.1497403,0.554123377 C14.3027273,0.554220779 14.4266883,0.678214286 14.4267857,0.831168831 L14.4267857,14.6839935 C14.4258766,15.4487013 13.8062013,16.0683766 13.0414935,16.0692857 L3.28662338,16.0692857 C3.6775,15.6861688 3.89801948,15.1620455 3.89863636,14.6147403 L3.89863636,4.15613636 C3.89863636,4.00311688 3.77457792,3.87909091 3.62159091,3.87909091 C3.46857143,3.87909091 3.34454545,4.00314935 3.34454545,4.15613636 L3.34454545,10.2513636 L0.296948052,10.2513636 C0.223441558,10.2513312 0.152954545,10.280487 0.101006494,10.3324675 C0.049025974,10.3844481 0.0199025646,10.4549351 0.0199025646,10.5284091 L0.0199025646,14.683961 C0.0197077922,15.7550649 0.88762987,16.6236364 1.95873377,16.6241883 C1.97821429,16.6241883 1.99795455,16.6238961 2.01743506,16.6233766 L13.041526,16.6233766 C14.1120779,16.6220779 14.9796104,15.7545455 14.9809091,14.6839935 L14.9809091,0.831201299 C14.9804545,0.372337662 14.6086039,0.000487012987 14.1497727,0 Z M0.573985652,14.6839935 L0.573985652,10.805487 L3.34457792,10.805487 L3.34457792,14.6147403 C3.35730519,15.3807143 2.76555195,16.0213636 2.00097403,16.0692857 C1.62584416,16.0841558 1.26133117,15.9426948 0.994480519,15.6786039 C0.72461039,15.4182143 0.572727273,15.058961 0.573985652,14.6839935 Z" id="Shape"></path>
                        <path d="M11.3791883,4.71022727 L13.3185714,4.71022727 C13.4715909,4.71022727 13.5956169,4.58616883 13.5956169,4.43318182 C13.5956169,4.28019481 13.4715909,4.15613636 13.3185714,4.15613636 L11.3791883,4.15613636 C11.2261688,4.15613636 11.1021429,4.28016234 11.1021429,4.43318182 C11.1021429,4.5862013 11.2262013,4.71022727 11.3791883,4.71022727 Z" id="Path"></path>
                        <path d="M11.3791883,2.4937987 L13.3185714,2.4937987 C13.4715909,2.4937987 13.5956169,2.36974026 13.5956169,2.21675325 C13.5956169,2.06373377 13.4715909,1.93970779 13.3185714,1.93970779 L11.3791883,1.93970779 C11.2261688,1.93970779 11.1021429,2.06373377 11.1021429,2.21675325 C11.1021429,2.36974026 11.2262013,2.4937987 11.3791883,2.4937987 Z" id="Path"></path>
                        <path d="M11.3791883,3.60201299 L13.3185714,3.60201299 C13.4715909,3.60201299 13.5956169,3.47795455 13.5956169,3.32496753 C13.5956169,3.17194805 13.4715909,3.04792208 13.3185714,3.04792208 L11.3791883,3.04792208 C11.2261688,3.04792208 11.1021429,3.17198052 11.1021429,3.32496753 C11.1021429,3.47795455 11.2262013,3.60201299 11.3791883,3.60201299 Z" id="Path"></path>
                        <path d="M11.3791883,5.81847403 L13.3185714,5.81847403 C13.4715909,5.81847403 13.5956169,5.69441558 13.5956169,5.54142857 C13.5956169,5.38840909 13.4715909,5.26438312 13.3185714,5.26438312 L11.3791883,5.26438312 C11.2261688,5.26438312 11.1021429,5.38844156 11.1021429,5.54142857 C11.1021429,5.69441558 11.2262013,5.81847403 11.3791883,5.81847403 Z" id="Path"></path>
                        <path d="M11.3791883,6.92668831 L13.3185714,6.92668831 C13.4715909,6.92668831 13.5956169,6.80262987 13.5956169,6.64964286 C13.5956169,6.49662338 13.4715909,6.3725974 13.3185714,6.3725974 L11.3791883,6.3725974 C11.2261688,6.3725974 11.1021429,6.49665584 11.1021429,6.64964286 C11.1021429,6.80262987 11.2262013,6.92668831 11.3791883,6.92668831 Z" id="Path"></path>
                        <path d="M4.72983766,8.0349026 L13.3185714,8.0349026 C13.4715909,8.0349026 13.5956169,7.91084416 13.5956169,7.75785714 C13.5956169,7.60487013 13.4715909,7.48081169 13.3185714,7.48081169 L4.72983766,7.48081169 C4.57681818,7.48081169 4.45279221,7.60487013 4.45279221,7.75785714 C4.45279221,7.91084416 4.57685065,8.0349026 4.72983766,8.0349026 Z" id="Path"></path>
                        <path d="M4.72983766,9.14314935 L13.3185714,9.14314935 C13.4715909,9.14314935 13.5956169,9.01909091 13.5956169,8.8661039 C13.5956169,8.71308442 13.4715909,8.58905844 13.3185714,8.58905844 L4.72983766,8.58905844 C4.57681818,8.58905844 4.45279221,8.71311688 4.45279221,8.8661039 C4.45279221,9.01909091 4.57685065,9.14314935 4.72983766,9.14314935 Z" id="Path"></path>
                        <path d="M13.3186039,9.69724026 L9.71685065,9.69724026 C9.56383117,9.69724026 9.43980519,9.8212987 9.43980519,9.97428571 C9.43980519,10.1272727 9.56383117,10.2513312 9.71685065,10.2513312 L13.3185714,10.2513312 C13.4715909,10.2513312 13.5956169,10.1273052 13.5956169,9.97428571 C13.5956169,9.82126623 13.4716234,9.69724026 13.3186039,9.69724026 Z" id="Path"></path>
                        <path d="M4.72983766,10.2513636 L8.05451299,10.2513636 C8.20753247,10.2513636 8.33155844,10.1273377 8.33155844,9.97431818 C8.33155844,9.8212987 8.2075,9.69727273 8.05451299,9.69727273 L4.72983766,9.69727273 C4.57681818,9.69727273 4.45279221,9.82133117 4.45279221,9.97431818 C4.45279221,10.1273052 4.57685065,10.2513636 4.72983766,10.2513636 Z" id="Path"></path>
                        <path d="M13.3186039,10.805487 L9.71685065,10.805487 C9.56383117,10.805487 9.43980519,10.929513 9.43980519,11.0825325 C9.43980519,11.2355519 9.56383117,11.3595779 9.71685065,11.3595779 L13.3185714,11.3595779 C13.4715909,11.3595779 13.5956169,11.2355519 13.5956169,11.0825325 C13.5956169,10.929513 13.4716234,10.805487 13.3186039,10.805487 Z" id="Path"></path>
                        <path d="M4.72983766,11.3595779 L8.05451299,11.3595779 C8.20753247,11.3595779 8.33155844,11.2355519 8.33155844,11.0825325 C8.33155844,10.929513 8.2075,10.805487 8.05451299,10.805487 L4.72983766,10.805487 C4.57681818,10.805487 4.45279221,10.929513 4.45279221,11.0825325 C4.45279221,11.2355519 4.57685065,11.3595779 4.72983766,11.3595779 Z" id="Path"></path>
                        <path d="M13.3186039,11.9137013 L9.71685065,11.9137013 C9.56383117,11.9137013 9.43980519,12.0377273 9.43980519,12.1907468 C9.43980519,12.3437662 9.56383117,12.4677922 9.71685065,12.4677922 L13.3185714,12.4677922 C13.4715909,12.4677922 13.5956169,12.3437662 13.5956169,12.1907468 C13.5956169,12.0377273 13.4716234,11.9137013 13.3186039,11.9137013 Z" id="Path"></path>
                        <path d="M4.72983766,12.4678247 L8.05451299,12.4678247 C8.20753247,12.4678247 8.33155844,12.3437987 8.33155844,12.1907792 C8.33155844,12.0377597 8.2075,11.9137338 8.05451299,11.9137338 L4.72983766,11.9137338 C4.57681818,11.9137338 4.45279221,12.0377597 4.45279221,12.1907792 C4.45279221,12.3437987 4.57685065,12.4678247 4.72983766,12.4678247 Z" id="Path"></path>
                        <path d="M13.3186039,13.0219156 L9.71685065,13.0219156 C9.56383117,13.0219156 9.43980519,13.1459416 9.43980519,13.298961 C9.43980519,13.4519805 9.56383117,13.5760065 9.71685065,13.5760065 L13.3185714,13.5760065 C13.4715909,13.5760065 13.5956169,13.4519805 13.5956169,13.298961 C13.5956169,13.1459416 13.4716234,13.0219156 13.3186039,13.0219156 Z" id="Path"></path>
                        <path d="M4.72983766,13.576039 L8.05451299,13.576039 C8.20753247,13.576039 8.33155844,13.452013 8.33155844,13.2989935 C8.33155844,13.145974 8.2075,13.0219481 8.05451299,13.0219481 L4.72983766,13.0219481 C4.57681818,13.0219481 4.45279221,13.145974 4.45279221,13.2989935 C4.45279221,13.452013 4.57685065,13.576039 4.72983766,13.576039 Z" id="Path"></path>
                        <path d="M13.3186039,14.1301623 L9.71685065,14.1301623 C9.56383117,14.1301623 9.43980519,14.2541883 9.43980519,14.4072078 C9.43980519,14.5602273 9.56383117,14.6842532 9.71685065,14.6842532 L13.3185714,14.6842532 C13.4715909,14.6842532 13.5956169,14.5601948 13.5956169,14.4072078 C13.5956169,14.2542208 13.4716234,14.1301623 13.3186039,14.1301623 Z" id="Path"></path>
                        <path d="M4.72983766,14.6842532 L8.05451299,14.6842532 C8.20753247,14.6842532 8.33155844,14.5601948 8.33155844,14.4072078 C8.33155844,14.2542208 8.2075,14.1301623 8.05451299,14.1301623 L4.72983766,14.1301623 C4.57681818,14.1301623 4.45279221,14.2541883 4.45279221,14.4072078 C4.45279221,14.5602273 4.57685065,14.6842532 4.72983766,14.6842532 Z" id="Path"></path>
                        <path d="M8.88568182,1.38555195 L6.11512987,1.38555195 C5.80925325,1.38594156 5.56142857,1.6337987 5.56100649,1.93967532 L5.56100649,2.4937987 L5.00688312,2.4937987 C4.70100649,2.49418831 4.45318182,2.74204545 4.45275974,3.04792208 L4.45275974,4.1225974 C4.45324675,4.36217532 4.55366883,4.59071429 4.72980519,4.75311688 L4.72980519,6.3725974 C4.73019481,6.67847403 4.97805195,6.9262987 5.28392857,6.92672078 L9.71681818,6.92672078 C10.0226948,6.92633117 10.2705195,6.67847403 10.2709416,6.3725974 L10.2709416,4.75311688 C10.4471104,4.59071429 10.5475,4.36220779 10.547987,4.1225974 L10.547987,3.04792208 C10.5475974,2.74204545 10.2997403,2.49422078 9.99386364,2.4937987 L9.43974026,2.4937987 L9.43974026,1.93967532 C9.43941558,1.6337987 9.19155844,1.38594156 8.88568182,1.38555195 Z M6.11512987,1.93967532 L8.88568182,1.93967532 L8.88568182,2.4937987 L6.11512987,2.4937987 L6.11512987,1.93967532 L6.11512987,1.93967532 Z M9.71685065,6.37256494 L5.28396104,6.37256494 L5.28396104,4.9838961 C5.29532468,4.98431818 5.30600649,4.98727273 5.3175,4.98727273 L7.22334416,4.98727273 L7.22334416,5.26431818 C7.22334416,5.41733766 7.3474026,5.54136364 7.50038961,5.54136364 C7.65337662,5.54136364 7.77743506,5.41733766 7.77743506,5.26431818 L7.77743506,4.98727273 L9.68327922,4.98727273 C9.69477273,4.98727273 9.70545455,4.98428571 9.71685065,4.9838961 L9.71685065,6.37256494 L9.71685065,6.37256494 Z M9.99392857,4.12256494 C9.99373377,4.29402597 9.85477273,4.43298701 9.68331169,4.43318182 L5.3175,4.43318182 C5.14603896,4.43298701 5.00707792,4.29402597 5.00688312,4.12256494 L5.00688312,3.04788961 L9.99392857,3.04788961 L9.99392857,4.12256494 L9.99392857,4.12256494 Z" id="Shape"></path>
                    </g>
                </g>
            </g>
        </g>
    </g>
</svg>