<?xml version="1.0" encoding="UTF-8"?>
<svg width="31px" height="31px" viewBox="0 0 31 31" version="1.1" xmlns="http://www.w3.org/2000/svg" xmlns:xlink="http://www.w3.org/1999/xlink">
    <!-- Generator: Sketch 61.2 (89653) - https://sketch.com -->
    <title>Group 31</title>
    <desc>Created with Sketch.</desc>
    <g id="Page-1" stroke="none" stroke-width="1" fill="none" fill-rule="evenodd">
        <g id="Home" transform="translate(-312.000000, -3359.000000)">
            <g id="Group-31" transform="translate(312.000000, 3359.000000)">
                <rect id="Rectangle-Copy-3" fill="#0091FF" x="0" y="0" width="31" height="31" rx="8"></rect>
                <path d="M15.4980172,10.9869168 C16.2300224,10.9593337 16.9630476,10.9795922 17.692412,11.0475629 C18.0461596,11.0432572 18.3975788,11.1053122 18.7284574,11.2305121 C19.184914,11.443252 19.5517614,11.8100969 19.7645029,12.2665502 C19.8898282,12.5977437 19.9518857,12.9495149 19.9474533,13.3035991 C19.9474533,13.8524467 20.0080999,14.0353958 20.0080999,15.4979785 C20.0357272,16.2303149 20.0154685,16.9636741 19.9474533,17.6933686 C19.9517591,18.0471137 19.8897036,18.3985304 19.7645029,18.7294067 C19.5515682,19.1854815 19.1847431,19.5519462 18.7284574,19.7644341 C18.3978959,19.8895095 18.0468313,19.9515625 17.6934228,19.9473833 C17.1445714,19.9473833 16.9616209,20.0080294 15.499028,20.0080294 C14.7670228,20.0356124 14.0339975,20.0153539 13.3046332,19.9473833 C12.9508856,19.951689 12.5994664,19.8896339 12.2685877,19.7644341 C11.8113741,19.5520811 11.4437661,19.1851915 11.2305207,18.7283959 C11.1054444,18.3978367 11.043391,18.0467746 11.0475703,17.6933686 C11.0475703,17.144521 10.9869237,16.9615719 10.9869237,15.4989892 C10.9593405,14.7669892 10.9795991,14.0339691 11.0475703,13.3046099 C11.0432645,12.9508648 11.10532,12.5994481 11.2305207,12.2685718 C11.337189,12.0436374 11.4814397,11.8385431 11.6570682,11.6621104 C11.799334,11.4496429 12.0154783,11.2976225 12.2635339,11.2355659 C12.5944125,11.1103661 12.9458317,11.048311 13.2995793,11.0526167 C14.0301742,10.9827838 14.764556,10.960837 15.4980172,10.9869168 M15.4980172,10.0115248 C14.7468174,9.98473027 13.994677,10.0049853 13.2460082,10.0721709 C12.7868504,10.0703407 12.3312343,10.1525565 11.901676,10.3147554 C11.5302066,10.4337448 11.1935665,10.6419744 10.9212233,10.9212168 C10.6426746,11.1921264 10.4344902,11.5269541 10.3147576,11.8966088 C10.1224134,12.319065 10.0390107,12.7829892 10.0721714,13.2459853 C10.0049853,13.9946489 9.98473016,14.746784 10.0115248,15.4979785 C9.9846034,16.2501824 10.0048586,17.0033343 10.0721714,17.7530039 C10.0707109,18.2111399 10.1529214,18.6656918 10.3147576,19.0942943 C10.4344902,19.463949 10.6426746,19.7987766 10.9212233,20.0696863 C11.1921348,20.348233 11.5269648,20.556416 11.8966222,20.6761477 C12.3271832,20.8420601 12.7845865,20.927373 13.2460082,20.9278291 C13.9956831,20.9951414 14.7488403,21.0153965 15.5010495,20.9884752 C16.2532588,21.0153965 17.0064159,20.9951414 17.7560909,20.9278291 C18.2142926,20.9289666 18.6688497,20.8464139 19.0973907,20.6842338 C19.8414029,20.4279288 20.4259808,19.8433551 20.6822875,19.0993481 C20.8457653,18.669352 20.9290147,18.2130257 20.9279061,17.7530039 C20.9279061,17.1465426 20.9885527,16.9605611 20.9885527,15.4979785 C21.0153473,14.746784 20.9950922,13.9946489 20.9279061,13.2459853 C20.9290436,12.7877868 20.8464903,12.3332329 20.6843091,11.9046949 C20.5634414,11.5313248 20.3523584,11.193525 20.0697572,10.9212168 C19.7988457,10.6426701 19.4640157,10.4344871 19.0943584,10.3147554 C18.6657529,10.1529203 18.2111977,10.0707104 17.7530585,10.0721709 C17.0033836,10.0048586 16.2502265,9.98460351 15.4980172,10.0115248 M15.4980172,12.6941055 C14.7507217,12.681961 14.0304626,12.9734667 13.5019751,13.5019505 C12.9734876,14.0304342 12.6819799,14.7506882 12.6941245,15.4979785 C12.6941245,17.0465148 13.94947,18.3018515 15.4980172,18.3018515 C17.0465644,18.3018515 18.3019099,17.0465148 18.3019099,15.4979785 C18.3019099,13.9494422 17.0465644,12.6941055 15.4980172,12.6941055 M15.4980172,17.3274702 C15.0102288,17.3363413 14.5398172,17.1464084 14.194937,16.80134 C13.8500569,16.4562716 13.6603826,15.9857584 13.6695233,15.4979785 C13.6606605,15.0103722 13.8504575,14.5401237 14.1953066,14.195277 C14.5401557,13.8504304 15.0104075,13.6606347 15.4980172,13.6694975 C15.9856269,13.6606347 16.4558787,13.8504304 16.8007278,14.195277 C17.1455769,14.5401237 17.3353739,15.0103722 17.3265111,15.4979785 C17.3353739,15.9855847 17.1455769,16.4558332 16.8007278,16.8006799 C16.4558787,17.1455266 15.9856269,17.3353222 15.4980172,17.3264594 M18.4242138,11.9016626 C18.0541032,11.9016626 17.7540693,12.2016944 17.7540693,12.5718024 C17.7540693,12.9419104 18.0541032,13.2419422 18.4242138,13.2419422 C18.7943244,13.2419422 19.0943584,12.9419104 19.0943584,12.5718024 C19.0910659,12.2030668 18.792952,11.9049551 18.4242138,11.9016626" id="Path_3-Copy" fill="#E8E8E8" fill-rule="nonzero"></path>
            </g>
        </g>
    </g>
</svg>