<?xml version="1.0" encoding="UTF-8"?>
<svg width="74px" height="74px" viewBox="0 0 74 74" version="1.1" xmlns="http://www.w3.org/2000/svg" xmlns:xlink="http://www.w3.org/1999/xlink">
    <!-- Generator: Sketch 61.2 (89653) - https://sketch.com -->
    <title>Group 8 Copy 3</title>
    <desc>Created with Sketch.</desc>
    <g id="Page-1" stroke="none" stroke-width="1" fill="none" fill-rule="evenodd">
        <g id="Loan-Selection-Page" transform="translate(-197.000000, -124.000000)" fill-rule="nonzero">
            <g id="Group-8-Copy-3" transform="translate(197.000000, 124.000000)">
                <rect id="Rectangle" fill="#1B1E76" x="0" y="0" width="74" height="74" rx="12"></rect>
                <g id="Group-2" transform="translate(23.000000, 15.000000)">
                    <path d="M17.0556498,0 L8.18480383,0 C3.66010595,0.0251996921 0,3.68877074 0,8.19222099 L0,9.38788007 C1.85539446,6.69084985 4.90564836,5.08834837 8.18480383,5.08834837 L17.0556498,5.08834837 C23.7656784,5.08834837 29.4597285,10.1511655 29.7899961,16.384442 C29.9678834,19.6919016 28.7985312,22.8468367 26.5363478,25.2381549 C24.4520518,27.4262177 21.7579037,28.7236702 18.7838399,28.9527885 C17.3097272,30.8862017 16.4961495,33.2015892 16.4961495,35.5932389 L16.4961495,35.9238192 C16.6488609,35.0083409 17.3097272,34.2957864 18.1739879,34.0411368 C22.7745446,33.9645431 27.0448337,32.1073921 30.2219607,28.7492014 C33.4756093,25.3399483 35.1024334,20.8368297 34.8735317,16.1297924 C34.3905529,7.25054828 26.4094748,0 17.0556498,0" id="Fill-3" fill="#FFFFFF"></path>
                    <path d="M18.8431714,29.0928033 C17.3644025,31.0259521 16.548255,33.3410234 16.548255,35.7323461 L16.548255,36.0628811 C16.5229996,36.2157163 16.5229996,36.4192755 16.5229996,36.597307 C16.5229996,41.2778416 12.8001573,44.9919675 8.26149977,44.9919675 C3.6972546,44.9919675 0,41.2778416 0,36.7498105 L0,9.53056829 C1.86125499,6.83390663 4.92114357,5.23162414 8.21065673,5.23162414 C6.50193092,5.25715193 5.09959277,6.63034747 5.09959277,8.33507261 L5.09959277,36.7498105 C5.09959277,38.4797318 6.50193092,39.9039831 8.26149977,39.9039831 C9.99514864,39.9039831 11.4230745,38.4797318 11.4230745,36.7498105 C11.2193699,33.1885196 13.8200094,29.8559842 17.4664209,29.1435273 L17.9505931,29.1179993 C18.2569807,29.1179993 18.5627037,29.1179993 18.8431714,29.0928033" id="Fill-4" fill="#DBDBDB"></path>
                    <path d="M18.8431714,28.9483202 C18.2461304,30.5777282 18.029314,32.3089951 18.1920147,34.0399301 C17.2692186,34.2947429 16.5635925,35.0077539 16.400538,35.9238192 L16.400538,35.5930271 C16.400538,33.1998444 17.2692186,30.8829727 18.8431714,28.9483202" id="Fill-5" fill="#7C7C7C"></path>
                    <path d="M8.02579523,5.23162414 C4.81034489,5.23162414 1.81934916,6.79154945 0,9.41692346 C1.54617068,8.37213175 3.29503265,7.65914292 5.13419619,7.32411242 C5.53243257,6.12084289 6.68199099,5.25163559 8.02579523,5.23162414" id="Fill-6" fill="#7C7C7C"></path>
                </g>
            </g>
        </g>
    </g>
</svg>