<?xml version="1.0" encoding="UTF-8"?>
<svg width="42px" height="40px" viewBox="0 0 42 40" version="1.1" xmlns="http://www.w3.org/2000/svg" xmlns:xlink="http://www.w3.org/1999/xlink">
    <!-- Generator: Sketch 61.2 (89653) - https://sketch.com -->
    <title>business-and-finance</title>
    <desc>Created with Sketch.</desc>
    <g id="Page-1" stroke="none" stroke-width="1" fill="none" fill-rule="evenodd">
        <g id="Home" transform="translate(-980.000000, -1030.000000)" fill-rule="nonzero">
            <g id="business-and-finance" transform="translate(980.000000, 1030.000000)">
                <path d="M41.9240796,33.1023036 C41.7270122,32.1665942 41.1694558,31.3671316 40.3539494,30.8509108 C39.538443,30.3350061 38.5697687,30.1684119 37.6251271,30.3814755 L33.2473476,31.3702928 L33.2473476,29.6047733 C34.1253388,28.7888726 35.0395392,27.7235548 35.6897012,26.7499111 C36.829808,25.0425574 37.6366627,23.1676611 38.0878349,21.1783301 C38.6242426,18.8115541 38.6357782,16.3060023 38.1208397,13.9316395 C38.025991,13.4947643 37.5898792,13.2159482 37.1470384,13.3098353 C36.7038772,13.4030901 36.4218946,13.8333268 36.5164229,14.2705181 C36.9823349,16.4179081 36.972081,18.6844746 36.4866224,20.8249101 C36.0790294,22.6223574 35.34972,24.3164342 34.3195223,25.8594064 C34.014148,26.3168293 33.6437253,26.7966966 33.2473476,27.2550677 L33.2473476,18.2849014 C33.2473476,17.8379105 32.8801294,17.4756391 32.4270346,17.4756391 L25.9379106,17.4756391 L25.9379106,8.83360341 C25.9379106,8.38787689 25.5722946,8.02592172 25.1204817,8.02434115 L17.8110447,8 C17.8100834,8 17.8094426,8 17.8084813,8 C17.5912265,8 17.3829439,8.08471972 17.2294557,8.23614022 C17.0750062,8.38787689 16.9881683,8.59398587 16.9881683,8.80926226 L16.9881683,13.3047774 L10.498083,13.3047774 C10.0453087,13.3047774 9.67777006,13.6670486 9.67777006,14.1140396 L9.67777006,22.1279488 L7.85001029,22.1279488 L7.85001029,21.0288062 C7.85001029,20.5821314 7.48279211,20.2198601 7.02969735,20.2198601 L6.18823575,20.2198601 C6.0450014,19.4418935 5.96200887,18.6515984 5.94246228,17.8625677 C5.89439711,15.9440471 6.2026553,14.066938 6.85826482,12.2827677 C7.01111217,11.8667562 7.18478784,11.4520093 7.37416472,11.0505394 C7.56546424,10.645276 7.3873026,10.1638282 6.97682563,9.9751057 C6.56602833,9.78701551 6.0780062,9.96214488 5.88702709,10.3674083 C5.67714232,10.8118702 5.48488147,11.2708737 5.31601242,11.7311416 C4.59054817,13.7052989 4.2496056,15.7818786 4.30215682,17.9023986 C4.3217034,18.6775201 4.39668509,19.4532738 4.52389774,20.2198601 L0.820312942,20.2198601 C0.367218174,20.2198601 0,20.5821314 0,21.0291223 L0,35.2538033 C0,35.7007943 0.367218174,36.0630655 0.820312942,36.0630655 L7.02969735,36.0630655 C7.48279211,36.0630655 7.85001029,35.7007943 7.85001029,35.2538033 L7.85001029,34.4843719 L10.9357969,34.4843719 L23.4356358,39.3209783 C24.6026591,39.7727111 25.8251176,40 27.0539849,40 C27.8733365,40 28.6962129,39.8988422 29.5065924,39.6955783 L39.3038846,37.2390247 C41.163688,36.7727506 42.3143691,34.9557039 41.9240796,33.1023036 L41.9240796,33.1023036 Z M31.6070422,19.0941637 L31.6070422,31.7407832 L29.4139867,32.2361402 C29.1781468,32.2892481 28.9397433,32.3312917 28.7000582,32.364168 C27.7861782,32.4884024 26.8537132,32.4621646 25.9494464,32.2854546 C25.9456011,32.2845063 25.9417559,32.283874 25.9379106,32.2829256 L25.9379106,31.0557553 C26.5633993,30.1352195 26.7707206,28.9681116 26.4429158,27.9027936 C26.3515919,27.6056427 26.2218159,27.3189236 26.056792,27.0543328 C26.0193011,26.9942704 25.9802081,26.9354724 25.9395129,26.8779389 C25.9391925,26.8769905 25.9385516,26.8763583 25.9379106,26.87541 L25.9379106,19.0938476 L31.6070422,19.0938476 L31.6070422,19.0941637 Z M18.6287942,9.62136964 L24.2976053,9.64002062 L24.2976053,25.5900739 L21.1294669,24.2965187 L18.6287942,23.2751413 L18.6287942,9.62136964 Z M11.3183959,14.9233019 L16.987207,14.9233019 L16.987207,22.6046548 L15.9698268,22.1892757 C15.8701715,22.1484965 15.7634667,22.1276327 15.6561211,22.1276327 L11.3183959,22.1276327 L11.3183959,14.9233019 Z M6.2093844,34.444541 L1.64062588,34.444541 L1.64062588,21.8380685 L5.51083675,21.8380685 C5.5124389,21.8380685 5.51436147,21.8383846 5.51628412,21.8383846 C5.51788627,21.8383846 5.51916801,21.8380685 5.52077016,21.8380685 L6.2093844,21.8380685 L6.2093844,34.444541 Z M38.8998164,35.6704469 L29.1025242,38.1270004 C27.4112696,38.5509148 25.658812,38.4424863 24.0345284,37.8143596 L11.3904938,32.9218003 C11.2950042,32.8848144 11.1934264,32.8661635 11.0908873,32.8661635 L7.85001029,32.8661635 L7.85001029,23.7464733 L15.4926994,23.7464733 L20.8003804,25.9137788 L23.7048009,27.0998538 C24.7324352,27.5202908 25.2243025,28.709527 24.8029308,29.7220532 C24.7183361,29.9253171 24.6135539,30.1184653 24.4744852,30.2907496 C23.9608283,30.9302565 23.115201,31.2122338 22.3243681,31.0225629 C22.3179594,31.0209823 22.3115507,31.0194017 22.305142,31.0178211 C22.2577176,31.0061248 22.2106137,30.9925317 22.1638303,30.977358 L16.6443419,28.8840241 C16.599481,28.8669538 16.5757688,28.8581025 16.5757688,28.8581025 C16.1531153,28.6975145 15.6785515,28.9058363 15.5157707,29.3231122 C15.3533102,29.7400719 15.5641563,30.2085589 15.9871302,30.3688308 C15.9871302,30.3688308 19.0991924,31.5492156 21.4723321,32.4520488 C21.5200769,32.4703837 21.5675013,32.487454 21.615246,32.50326 L23.4375584,33.1946102 C23.9883858,33.4035642 24.5366495,33.6115699 25.1099073,33.7560359 C26.0833881,34.0013435 27.0937188,34.0999724 28.0973204,34.0459161 C28.6632082,34.0155688 29.2281347,33.938436 29.7805641,33.8138854 L32.6103233,33.1750108 C32.6132072,33.1743786 32.6160912,33.1731141 32.6189751,33.1724819 L37.9913839,31.9592207 C38.5024774,31.8438376 39.027029,31.9339313 39.4679472,32.2130635 C39.9095063,32.4925119 40.2110354,32.9252775 40.3177402,33.4316987 C40.5292271,34.4347413 39.906302,35.4181847 38.8998164,35.6704469 L38.8998164,35.6704469 Z" id="Shape" fill="#32C5FF"></path>
                <path d="M10.8498053,6 C11.0529169,6 11.2566922,5.92816346 11.4189823,5.78251311 C12.9350175,4.42289058 14.7454317,3.33842186 16.6554104,2.64608862 C18.7246921,1.8960883 20.9931029,1.57611902 23.215714,1.72111028 C24.8064227,1.82491077 26.3649387,2.16201547 27.8477856,2.72286806 C28.2858694,2.88861945 28.7770541,2.67047347 28.9439906,2.23484069 C29.1112589,1.79953732 28.8912214,1.31216904 28.452474,1.14641765 C26.8116513,0.525591447 25.0871945,0.152568482 23.3272263,0.0375639893 C20.8706386,-0.122585404 18.3619455,0.231325119 16.0726262,1.06140001 C13.959536,1.82721747 11.9566305,3.02702011 10.2802965,4.53031588 C9.93182083,4.84270614 9.9046065,5.37620809 10.2192303,5.7218804 C10.3868305,5.90641473 10.6178201,6 10.8498053,6 Z" id="Path" fill="#32C5FF"></path>
                <path d="M29.2691668,11.78647 C29.4173552,11.929845 29.6000699,12 29.781868,12 C30.0003313,12 30.2178779,11.8985136 30.3727883,11.7003086 L36.8081355,3.44347032 C37.0916795,3.08009449 37.0568476,2.52941159 36.7308332,2.21371393 C36.4045132,1.89801628 35.9107557,1.93649944 35.6275173,2.29987527 L29.1918645,10.5567136 C28.9083205,10.9200894 28.9431524,11.4707723 29.2691668,11.78647 Z" id="Path" fill="#0091FF"></path>
                <path d="M35,8 C33.8971527,8 33,8.89715265 33,10 C33,11.1028474 33.8971527,12 35,12 C36.1028474,12 37,11.1025362 37,10 C37,8.89715265 36.1028474,8 35,8 L35,8 Z M35,10.4067217 C34.775634,10.4067217 34.5932784,10.2243659 34.5932784,10 C34.5932784,9.77594523 34.775634,9.59327834 35,9.59327834 C35.2240548,9.59327834 35.4067216,9.77594523 35.4067216,10 C35.4067216,10.2243659 35.2240548,10.4067217 35,10.4067217 Z" id="Shape" fill="#0091FF"></path>
                <path d="M31,6 C32.1028474,6 33,5.10284741 33,4 C33,2.89715267 32.1028474,2 31,2 C29.8971527,2 29,2.89715267 29,4 C29,5.10284741 29.8971527,6 31,6 L31,6 Z M31,3.59296721 C31.224366,3.59296721 31.4067216,3.7756341 31.4067216,4.00000004 C31.4067216,4.22405481 31.224366,4.40672163 31,4.40672163 C30.775634,4.40672163 30.5932784,4.22405481 30.5932784,4.00000004 C30.5932784,3.7756341 30.775634,3.59296721 31,3.59296721 Z" id="Shape" fill="#0091FF"></path>
                <path d="M7.07485184,7.3815486 C7.23530363,7.76638073 7.63017143,8.0205889 8.04851997,7.99868789 C8.46217236,7.97717803 8.82455853,7.69754897 8.95252851,7.30489504 C9.08167264,6.90872133 8.94078818,6.45740392 8.60931834,6.20436905 C8.27158707,5.94703206 7.79727597,5.93099741 7.44349945,6.16604222 C7.05097978,6.42689899 6.89365875,6.94704806 7.07485184,7.3815486 Z" id="Path" fill="#32C5FF"></path>
            </g>
        </g>
    </g>
</svg>