<?xml version="1.0" encoding="UTF-8"?>
<svg width="20px" height="14px" viewBox="0 0 20 14" version="1.1" xmlns="http://www.w3.org/2000/svg" xmlns:xlink="http://www.w3.org/1999/xlink">
    <!-- Generator: Sketch 61.2 (89653) - https://sketch.com -->
    <title>cash copyer</title>
    <desc>Created with Sketch.</desc>
    <g id="Page-1" stroke="none" stroke-width="1" fill="none" fill-rule="evenodd">
        <g id="Your-Income" transform="translate(-1045.000000, -695.000000)" fill-rule="nonzero">
            <g id="cash-copy" transform="translate(1045.000000, 695.000000)">
                <path d="M18.2446667,0.441673775 L16.4446667,1.30720461 C14.4017628,2.28976702 12.0429039,2.28976702 10,1.30720461 C7.95702513,0.324973402 5.5983082,0.324973402 3.55533333,1.30720461 L0.911333333,2.57864669 C0.5588643,2.74810317 0.333333333,3.11320015 0.333333333,3.51475581 L0.333333333,12.5976653 C0.333333333,12.9505015 0.507671737,13.2789381 0.795716263,13.4686289 C1.08376079,13.6583197 1.44562824,13.6830156 1.75533333,13.5341187 L3.55533333,12.6685879 C5.5983082,11.6863567 7.95702513,11.6863567 10,12.6685879 C12.0428102,13.6510434 14.4015231,13.6510434 16.4443333,12.6685879 L19.0886667,11.3971458 C19.441245,11.2276368 19.6666667,10.8623726 19.6666667,10.4606924 L19.6666667,1.37812719 C19.6666667,1.02529096 19.4923283,0.696854362 19.2042837,0.507163588 C18.9162392,0.317472813 18.5543718,0.292776888 18.2446667,0.441673775 Z" id="Shape" fill="#E8EDFC"></path>
                <ellipse id="Oval" fill="#A4C2F7" cx="2.66666667" cy="4.57790586" rx="1" ry="1.03285303"></ellipse>
                <ellipse id="Oval" fill="#A4C2F7" cx="17.3333333" cy="9.39788665" rx="1" ry="1.03285303"></ellipse>
                <path d="M18.2446667,0.441673775 L18.157,0.483676465 C18.4719071,0.663727198 18.6671452,1.0063647 18.6666667,1.37812719 L18.6666667,10.4606924 C18.6666942,10.8623726 18.441245,11.2276368 18.0886667,11.3971458 L15.4443333,12.6685879 C14.5878117,13.07974 13.6648504,13.3231389 12.7223333,13.3864207 C14.0016793,13.4737943 15.2817236,13.2269222 16.4443333,12.6685879 L19.0886667,11.3971458 C19.441245,11.2276368 19.6666667,10.8623726 19.6666667,10.4606924 L19.6666667,1.37812719 C19.6666667,1.02529096 19.4923283,0.696854362 19.2042837,0.507163588 C18.9162392,0.317472813 18.5543718,0.292776888 18.2446667,0.441673775 Z" id="Shape" fill="#CAD9FC"></path>
                <path d="M1.75533333,13.5341187 L1.84266667,13.4917718 C1.52788924,13.3118005 1.3327658,12.9692721 1.33333333,12.5976653 L1.33333333,3.51475581 C1.33343539,3.11320015 1.5588643,2.74810317 1.91133333,2.57864669 L4.55566667,1.30720461 C5.41213097,0.895886372 6.3351228,0.65247937 7.27766667,0.589371758 C5.9983104,0.501819399 4.71822343,0.7486997 3.55566667,1.30720461 L0.911333333,2.57864669 C0.5588643,2.74810317 0.333435393,3.11320015 0.333333333,3.51475581 L0.333333333,12.5976653 C0.333333333,12.9505015 0.507671737,13.2789381 0.795716263,13.4686289 C1.08376079,13.6583197 1.44562824,13.6830156 1.75533333,13.5341187 Z" id="Shape" fill="#FFFFFF"></path>
                <polygon id="Rectangle-path" fill="#FFFFFF" points="0 9.84339059 0.666666667 9.84339059 0.666666667 12.5976653 0 12.5976653"></polygon>
                <g id="Group" fill="#428DFF">
                    <ellipse id="Oval" cx="0.333333333" cy="11.220528" rx="1" ry="1"></ellipse>
                    <path d="M19.3833333,0.2168561 C18.9996606,-0.0371455056 18.5166348,-0.0700325134 18.104,0.129752161 L16.304,0.995282997 C14.3505849,1.93639085 12.0940818,1.93639085 10.1406667,0.995282997 C8.00932507,-0.0330874708 5.5463416,-0.0330874708 3.415,0.995282997 L0.770666667,2.26638079 C0.30131332,2.49315666 0.00103706667,2.97956329 -4.31666276e-06,3.51475581 L-4.31666276e-06,9.84339059 C-4.31666276e-06,10.0335336 0.149238417,10.1876749 0.333333333,10.1876749 C0.51742825,10.1876749 0.666666667,10.0335336 0.666666667,9.84339059 L0.666666667,3.5151001 C0.667348853,3.24755336 0.81743584,3.00443288 1.052,2.89091258 L3.696,1.61947051 C5.64938457,0.678220189 7.90594877,0.678220189 9.85933333,1.61947051 C11.9907875,2.64731745 14.4535459,2.64731745 16.585,1.61947051 L18.385,0.754283958 C18.5914297,0.654895647 18.8326993,0.671230597 19.0248011,0.797601122 C19.2169029,0.92397165 19.3332507,1.14288863 19.3333333,1.37812719 L19.3333333,10.4606924 C19.3326511,10.7282391 19.1825642,10.9713596 18.948,11.0848799 L16.304,12.3566663 C14.3505441,13.2975842 12.0941226,13.2975842 10.1406667,12.3566663 C8.00929437,11.3284386 5.5463723,11.3284386 3.415,12.3566663 L1.615,13.2218528 C1.40851667,13.321267 1.16717946,13.3048961 0.975058373,13.1784432 C0.782937287,13.0519902 0.666635437,12.832965 0.666666667,12.5976653 C0.666666667,12.4075223 0.51742825,12.253381 0.333333333,12.253381 C0.149238417,12.253381 -4.31666276e-06,12.4075223 -4.31666276e-06,12.5976653 C-0.00115879667,13.0684975 0.23105656,13.5071909 0.615431463,13.7603177 C0.999806367,14.0134445 1.48286629,14.0457895 1.89566667,13.8460403 L3.69566667,12.9805095 C5.64905123,12.0392592 7.90561543,12.0392592 9.859,12.9805095 C11.9904848,14.0082138 14.4531819,14.0082138 16.5846667,12.9805095 L19.229,11.7090674 C19.6984833,11.4823915 19.9989023,10.9959641 19.9999957,10.4606924 L19.9999957,1.37812719 C20.0013143,0.907303919 19.7684426,0.468773446 19.3833333,0.2168561 Z" id="Shape"></path>
                    <path d="M5.396,10.9327062 C5.81668917,10.849141 6.24365043,10.803752 6.672,10.7970582 C6.8558408,10.7940387 7.00259733,10.6378394 7,10.4479539 C6.98985097,10.2612769 6.84295247,10.113742 6.662,10.1084895 C6.1948385,10.1158852 5.72918903,10.1653047 5.27033333,10.2561875 C5.15332887,10.2793117 5.05715647,10.3651512 5.01804333,10.4813711 C4.97893023,10.597591 5.00281863,10.7265347 5.08071,10.8196305 C5.1586014,10.9127262 5.2786622,10.9558304 5.39566667,10.9327062 L5.396,10.9327062 Z" id="Shape"></path>
                    <path d="M3.41466667,10.8783093 L1.61466667,11.7438402 C1.47317588,11.8121151 1.39654723,11.9726989 1.43030681,12.1301864 C1.4640664,12.2876738 1.59916276,12.3998403 1.75533333,12.4000464 C1.80385284,12.4001117 1.85178216,12.3890586 1.89566667,12.3676834 L3.69566667,11.5021525 C3.8067209,11.4522029 3.88280083,11.3439619 3.89438627,11.2194289 C3.90597173,11.0948958 3.8512391,10.9736725 3.75142553,10.9027954 C3.65161197,10.8319184 3.52242837,10.8225439 3.414,10.8783093 L3.41466667,10.8783093 Z" id="Shape"></path>
                    <path d="M13.68,3.78192046 C14.1510421,3.75360634 14.6187456,3.68240755 15.0776667,3.56915274 C15.1934803,3.54049351 15.2856933,3.45019565 15.3195699,3.33227344 C15.3534465,3.21435123 15.3238402,3.08671989 15.2419032,2.99745691 C15.1599663,2.90819393 15.0381469,2.87086047 14.9223333,2.89951969 C14.501761,3.00351717 14.0730768,3.06872834 13.6413333,3.09438463 C13.4572384,3.09980371 13.3122533,3.2583381 13.3175,3.44848108 C13.3227467,3.63862405 13.4762384,3.78837238 13.6603333,3.78295331 L13.68,3.78192046 Z" id="Shape"></path>
                    <path d="M16.4446667,3.05892339 C16.493289,3.05894878 16.5413184,3.0478988 16.5853333,3.02656061 L18.3853333,2.16068549 C18.497284,2.11138464 18.5743225,2.00298544 18.5863093,1.8778964 C18.5982962,1.75280735 18.5433259,1.63091339 18.4429043,1.5599025 C18.3424826,1.48889161 18.2125733,1.48005212 18.104,1.53684227 L16.304,2.40271739 C16.162453,2.47101984 16.0858275,2.63169866 16.1196768,2.78923141 C16.1535261,2.94676417 16.2887671,3.05887855 16.445,3.05892339 L16.4446667,3.05892339 Z" id="Shape"></path>
                    <path d="M10,9.05360231 C9.8159051,9.05360231 9.66666667,9.20774367 9.66666667,9.39788665 L9.66666667,10.0585683 C8.907,9.93049452 8.33333333,9.37447531 8.33333333,8.70931796 C8.33333333,8.51917499 8.1840949,8.36503362 8,8.36503362 C7.8159051,8.36503362 7.66666667,8.51917499 7.66666667,8.70931796 C7.66666667,9.74802382 8.53766667,10.6073575 9.66666667,10.7516127 L9.66666667,11.1193084 C9.66666667,11.3094513 9.8159051,11.4635927 10,11.4635927 C10.1840949,11.4635927 10.3333333,11.3094513 10.3333333,11.1193084 L10.3333333,10.7516127 C11.4623333,10.6073575 12.3333333,9.74802382 12.3333333,8.70931796 C12.3333333,7.6706121 11.4623333,6.81127839 10.3333333,6.66702325 L10.3333333,6.29932757 C10.3333333,6.1091846 10.1840949,5.95504323 10,5.95504323 C9.8159051,5.95504323 9.66666667,6.1091846 9.66666667,6.29932757 L9.66666667,6.61572488 C8.907,6.4876511 8.33333333,5.93163189 8.33333333,5.26647454 C8.33333333,4.6013172 8.907,4.04529798 9.66666667,3.91722421 L9.66666667,4.57790586 C9.66666667,4.76804883 9.8159051,4.9221902 10,4.9221902 C10.1840949,4.9221902 10.3333333,4.76804883 10.3333333,4.57790586 L10.3333333,3.91722421 C11.093,4.04529798 11.6666667,4.6013172 11.6666667,5.26647454 C11.6666667,5.45661752 11.8159051,5.61075889 12,5.61075889 C12.1840949,5.61075889 12.3333333,5.45661752 12.3333333,5.26647454 C12.3333333,4.22776868 11.4623333,3.36843497 10.3333333,3.22417983 L10.3333333,2.85648415 C10.3333333,2.66634116 10.1840949,2.51219981 10,2.51219981 C9.8159051,2.51219981 9.66666667,2.66634116 9.66666667,2.85648415 L9.66666667,3.22417983 C8.53766667,3.36843497 7.66666667,4.22776868 7.66666667,5.26647454 C7.66666667,6.3051804 8.53766667,7.16451412 9.66666667,7.30876926 L9.66666667,7.3321806 C9.6629645,7.51832037 9.8041502,7.67329773 9.9842609,7.68079886 C10.1643716,7.68829999 10.3171799,7.54556669 10.328,7.35972334 C11.0903333,7.48573141 11.6666667,8.04243919 11.6666667,8.70931796 C11.6666667,9.37619673 11.093,9.93049452 10.3333333,10.0585683 L10.3333333,9.39788665 C10.3333333,9.20774367 10.1840949,9.05360231 10,9.05360231 L10,9.05360231 Z" id="Shape"></path>
                    <path d="M4,4.57790586 C4,3.81733389 3.40304633,3.20076849 2.66666667,3.20076849 C1.930287,3.20076849 1.33333333,3.81733389 1.33333333,4.57790586 C1.33333333,5.33847783 1.930287,5.95504323 2.66666667,5.95504323 C2.85076158,5.95504323 3,5.80090186 3,5.61075889 C3,5.42061591 2.85076158,5.26647454 2.66666667,5.26647454 C2.29847683,5.26647454 2,4.95819184 2,4.57790586 C2,4.19761988 2.29847683,3.88933718 2.66666667,3.88933718 C3.0348565,3.88933718 3.33333333,4.19761988 3.33333333,4.57790586 C3.33333333,4.76804883 3.48257177,4.9221902 3.66666667,4.9221902 C3.85076157,4.9221902 4,4.76804883 4,4.57790586 Z" id="Shape"></path>
                    <path d="M17.3333333,10.775024 C17.5174282,10.775024 17.6666667,10.6208826 17.6666667,10.4307397 C17.6666667,10.2405967 17.5174282,10.0864553 17.3333333,10.0864553 C16.9651435,10.0864553 16.6666667,9.77817263 16.6666667,9.39788665 C16.6666667,9.01760066 16.9651435,8.70931796 17.3333333,8.70931796 C17.7015232,8.70931796 18,9.01760066 18,9.39788665 C18,9.58802962 18.1492384,9.74217099 18.3333333,9.74217099 C18.5174282,9.74217099 18.6666667,9.58802962 18.6666667,9.39788665 C18.6666667,8.63731468 18.069713,8.02074928 17.3333333,8.02074928 C16.5969537,8.02074928 16,8.63731468 16,9.39788665 C16,10.1584586 16.5969537,10.775024 17.3333333,10.775024 Z" id="Shape"></path>
                </g>
            </g>
        </g>
    </g>
</svg>