<?xml version="1.0" encoding="UTF-8"?>
<svg width="11px" height="17px" viewBox="0 0 11 17" version="1.1" xmlns="http://www.w3.org/2000/svg" xmlns:xlink="http://www.w3.org/1999/xlink">
    <!-- Generator: Sketch 61.2 (89653) - https://sketch.com -->
    <title>smartphone copyer</title>
    <desc>Created with Sketch.</desc>
    <defs>
        <linearGradient x1="13.5519706%" y1="5.3571%" x2="86.4480294%" y2="94.6429%" id="linearGradient-1">
            <stop stop-color="#D3DFF2" offset="0%"></stop>
            <stop stop-color="#D3DFF2" offset="17.2%"></stop>
            <stop stop-color="#D3DFF2" offset="20%"></stop>
            <stop stop-color="#DAE2F2" offset="20%"></stop>
            <stop stop-color="#EBEAF2" offset="20.1%"></stop>
            <stop stop-color="#F6EFF2" offset="20.1%"></stop>
            <stop stop-color="#FDF2F2" offset="20.2%"></stop>
            <stop stop-color="#FFF3F2" offset="20.5%"></stop>
            <stop stop-color="#FFF3F2" offset="25.2%"></stop>
            <stop stop-color="#FFF3F2" offset="26%"></stop>
            <stop stop-color="#D3DFF2" offset="26%"></stop>
            <stop stop-color="#D3DFF2" offset="39.7%"></stop>
            <stop stop-color="#D3DFF2" offset="42%"></stop>
            <stop stop-color="#DAE2F2" offset="42%"></stop>
            <stop stop-color="#EBEAF2" offset="42.1%"></stop>
            <stop stop-color="#F6EFF2" offset="42.1%"></stop>
            <stop stop-color="#FDF2F2" offset="42.2%"></stop>
            <stop stop-color="#FFF3F2" offset="42.5%"></stop>
            <stop stop-color="#FFF3F2" offset="48.9%"></stop>
            <stop stop-color="#FFF3F2" offset="50%"></stop>
            <stop stop-color="#F8F0F2" offset="50%"></stop>
            <stop stop-color="#E7E8F2" offset="50%"></stop>
            <stop stop-color="#DCE3F2" offset="50%"></stop>
            <stop stop-color="#D5E0F2" offset="50%"></stop>
            <stop stop-color="#D3DFF2" offset="50.1%"></stop>
            <stop stop-color="#D3DFF2" offset="70.6%"></stop>
            <stop stop-color="#D3DFF2" offset="74%"></stop>
            <stop stop-color="#FFF3F2" offset="74.1%"></stop>
            <stop stop-color="#FFF3F2" offset="83.5%"></stop>
            <stop stop-color="#FFF3F2" offset="85%"></stop>
            <stop stop-color="#D3DFF2" offset="85.1%"></stop>
        </linearGradient>
    </defs>
    <g id="Page-1" stroke="none" stroke-width="1" fill="none" fill-rule="evenodd">
        <g id="Your-Income" transform="translate(-1049.000000, -627.000000)" fill-rule="nonzero">
            <g id="smartphone-copy" transform="translate(1049.000000, 627.000000)">
                <path d="M1.73289664,0.283393852 L9.24224759,0.283393852 C10.0397476,0.283393852 10.6863942,0.917625436 10.6863942,1.69997407 L10.6863942,15.3000259 C10.6863942,16.0823746 10.0397476,16.7166061 9.24224759,16.7166061 L1.73289664,16.7166061 C0.935396643,16.7166061 0.288882203,16.0823746 0.288882203,15.3000259 L0.288882203,1.69997407 C0.288882203,0.917625436 0.935396643,0.283393852 1.73289664,0.283393852 Z" id="Path" fill="#7FACFA"></path>
                <path d="M1.73289664,0.283393852 L8.37573318,0.283393852 C9.17336538,0.283393852 9.81987979,0.917625436 9.81987979,1.69997407 L9.81987979,15.3000259 C9.81987979,16.0823746 9.17336538,16.7166061 8.37573318,16.7166061 L1.73289664,16.7166061 C0.935396643,16.7166061 0.288882203,16.0823746 0.288882203,15.3000259 L0.288882203,1.69997407 C0.288882203,0.917625436 0.935396643,0.283393852 1.73289664,0.283393852 Z" id="Path" fill="#A4C2F7"></path>
                <polygon id="Path" fill="#D4E1F4" points="0.288882203 2.55002593 10.6863942 2.55002593 10.6863942 14.4499741 0.288882203 14.4499741"></polygon>
                <path d="M10.6863942,2.55002593 L10.6863942,8.02114868 C10.3918269,7.97588349 10.100036,7.93904878 9.81987979,7.90779112 C9.08544472,7.82802583 8.34625,7.79676817 7.60758413,7.81427764 C3.73153846,7.9192047 1.48460336,9.51710509 0.288882203,10.8091736 L0.288882203,2.55002593 L10.6863942,2.55002593 Z" id="Path" fill="#D4E1F4"></path>
                <polygon id="Path" fill="url(#linearGradient-1)" points="0.288882203 2.55002593 0.288882203 14.4499741 9.81987979 14.4499741 9.81987979 2.55002593"></polygon>
                <path d="M1.73289664,16.7166061 L2.59941105,16.7166061 C1.80177885,16.7166061 1.15526441,16.0823746 1.15526441,15.3000259 L1.15526441,1.69997407 C1.15526441,0.917625436 1.80177885,0.283393852 2.59941105,0.283393852 L1.73289664,0.283393852 C0.935396643,0.283393852 0.288882203,0.917625436 0.288882203,1.69997407 L0.288882203,15.3000259 C0.288882203,16.0823746 0.935396643,16.7166061 1.73289664,16.7166061 Z" id="Path" fill="#FFFFFF"></path>
                <polygon id="Path" fill="#FFFFFF" points="0.577632203 1.69997407 0.577632203 15.3000259 0 15.3000259 0 1.69997407"></polygon>
                <polygon id="Path" fill="#FFFFFF" points="0.577632203 2.55002593 0.577632203 14.4499741 0 14.4499741 0 2.55002593"></polygon>
                <g id="Group" fill="#428DFF">
                    <path d="M1.73289664,17 L9.24224759,17 C10.1989303,16.9990921 10.9742187,16.238533 10.9751442,15.3000259 L10.9751442,1.69997407 C10.9742187,0.761466988 10.1989303,0.000907899609 9.24224759,9.43689571e-16 L1.73289664,9.43689571e-16 C0.776213951,0.000907899609 0.000925482462,0.761466988 9.16873415e-16,1.69997407 L9.16873415e-16,3.68334199 C0.00132211538,3.73366547 0.0167908738,3.78269195 0.04481972,3.82497407 C0.0366225877,3.83560943 0.0293509785,3.84689331 0.0231370277,3.85869599 C-0.0204927969,3.96440126 0.00330528677,4.08528136 0.0838220985,4.16751099 C0.111322098,4.19319151 0.143713951,4.21329497 0.179014406,4.22704316 C0.213786049,4.24169922 0.25106972,4.2494812 0.288882203,4.25 C0.365697132,4.25077821 0.439603357,4.22120665 0.493942308,4.16790009 C0.548281258,4.11459351 0.578425489,4.04209136 0.577632203,3.96660615 C0.575649022,3.91641235 0.560312517,3.86764526 0.533209126,3.82497407 C0.560973566,3.78269195 0.576310105,3.73366547 0.577632203,3.68334199 L0.577632203,2.83329009 L10.397512,2.83329009 L10.397512,14.1667099 L0.577632203,14.1667099 L0.577632203,5.10005186 C0.576310105,5.04972841 0.560973566,5.0007019 0.533209126,4.95829009 C0.560312517,4.91574859 0.575649022,4.86685181 0.577632203,4.81665801 C0.576574511,4.7416916 0.546562517,4.66983794 0.493942308,4.61549376 L0.450576923,4.58151245 C0.434447132,4.57074737 0.416995175,4.5621872 0.398617797,4.55596162 C0.382223566,4.54779053 0.36463944,4.54208374 0.346526434,4.53897095 C0.327487972,4.53585815 0.308185105,4.53391265 0.288882203,4.53339385 C0.212331748,4.53443145 0.139086538,4.5637436 0.0838220985,4.61549376 C-0.00661056,4.70913696 -0.0235336369,4.85012055 0.0424398954,4.96179199 C0.0158653846,5.0032959 0.00118990215,5.05102539 9.16873415e-16,5.10005186 L9.16873415e-16,15.3000259 C0.000925482462,16.238533 0.776213951,16.9990921 1.73289664,17 Z M0.577632203,2.26663208 L0.577632203,1.69997407 C0.577632203,1.07404327 1.09484374,0.566658012 1.73289664,0.566658012 L5.1988221,0.566658012 L5.1988221,1.13331602 C5.1988221,1.28986358 5.328125,1.41670991 5.4875721,1.41670991 C5.64715143,1.41670991 5.77645434,1.28986358 5.77645434,1.13331602 L5.77645434,0.566658012 L9.24224759,0.566658012 C9.88030049,0.566658012 10.397512,1.07404327 10.397512,1.69997407 L10.397512,2.26663208 L0.577632203,2.26663208 Z M0.577632203,14.7333679 L10.397512,14.7333679 L10.397512,15.3000259 C10.397512,15.9259567 9.88030049,16.433342 9.24224759,16.433342 L1.73289664,16.433342 C1.09484374,16.433342 0.577632203,15.9259567 0.577632203,15.3000259 L0.577632203,14.7333679 Z" id="Shape"></path>
                    <path d="M4.6211899,15.866684 L6.35408654,15.866684 C6.51353364,15.866684 6.64283654,15.7398376 6.64283654,15.5832901 C6.64283654,15.4268723 6.51353364,15.3000259 6.35408654,15.3000259 L4.6211899,15.3000259 C4.46161056,15.3000259 4.33230769,15.4268723 4.33230769,15.5832901 C4.33230769,15.7398376 4.46161056,15.866684 4.6211899,15.866684 Z" id="Path"></path>
                    <path d="M5.56531252,3.49008941 L1.52175482,7.74008941 C1.44864182,7.81362915 1.42180287,7.92024229 1.45155049,8.01881407 C1.48143028,8.11725616 1.56326923,8.1922226 1.66560098,8.21453095 C1.76780049,8.23696899 1.87436297,8.20324707 1.94403846,8.12659454 L5.98759615,3.87659454 C6.06070913,3.80305479 6.08754808,3.69644165 6.05766825,3.59786987 C6.02792066,3.49942779 5.94608175,3.42446137 5.84375,3.40215302 C5.74155049,3.37971495 5.63498797,3.41343691 5.56531252,3.49008941 Z" id="Path"></path>
                    <path d="M7.99258413,3.47361757 C7.93586538,3.42303467 7.86103364,3.39670562 7.78448318,3.40020752 C7.70793269,3.40370942 7.63600962,3.43704224 7.58444713,3.4926834 L1.8079928,9.72592163 C1.70063703,9.84174346 1.70936297,10.0209885 1.8274279,10.1263046 C1.94536056,10.2316208 2.12807692,10.2231903 2.23543269,10.1073685 L8.01188703,3.87400054 C8.06344951,3.81835937 8.09042066,3.74494932 8.08671874,3.66985322 C8.08314902,3.59488677 8.04917066,3.52420044 7.99258413,3.47361757 Z" id="Path"></path>
                    <path d="M7.00469951,6.32830811 L4.69417066,8.87820435 C4.58813703,8.99519346 4.59871395,9.17430879 4.71783654,9.27832793 C4.83709133,9.38234712 5.01967549,9.37197114 5.12570913,9.25511171 L7.43623797,6.70508575 C7.50485577,6.62947081 7.52719951,6.52363585 7.49467549,6.42752837 C7.46228364,6.3314209 7.38004808,6.25969697 7.27890626,6.2392044 C7.17789664,6.21871186 7.07331731,6.25269317 7.00469951,6.32830811 L7.00469951,6.32830811 Z" id="Path"></path>
                </g>
            </g>
        </g>
    </g>
</svg>