<?xml version="1.0" encoding="UTF-8"?>
<svg width="60px" height="44px" viewBox="0 0 60 44" version="1.1" xmlns="http://www.w3.org/2000/svg" xmlns:xlink="http://www.w3.org/1999/xlink">
    <!-- Generator: Sketch 61.2 (89653) - https://sketch.com -->
    <title>question</title>
    <desc>Created with Sketch.</desc>
    <g id="Page-1" stroke="none" stroke-width="1" fill="none" fill-rule="evenodd">
        <g id="Home" transform="translate(-592.000000, -1030.000000)" fill-rule="nonzero">
            <g id="question" transform="translate(592.000000, 1030.000000)">
                <path d="M35.8963663,20 L38.1036335,20 C38.5990185,20 39,19.552659 39,19 C39,18.4473409 38.5990185,18 38.1036335,18 L35.8963663,18 C35.4009814,18 35,18.4473409 35,19 C35,19.552659 35.4009814,20 35.8963663,20 L35.8963663,20 Z" id="Path" fill="#0091FF"></path>
                <path d="M47.0853193,20 C47.5905625,20 48,19.552659 48,19 C48,18.4473409 47.5905625,18 47.0853193,18 L40.9142041,18 C40.4094376,18 40,18.4473409 40,19 C40,19.552659 40.4094376,20 40.9142041,20 L47.0853193,20 Z" id="Path" fill="#0091FF"></path>
                <path d="M35.9167529,23 L52.0832471,23 C52.5894209,23 53,22.552659 53,22 C53,21.4473409 52.5894209,21 52.0832471,21 L35.9167529,21 C35.4101011,21 35,21.4473409 35,22 C35,22.552659 35.4101011,23 35.9167529,23 L35.9167529,23 Z" id="Path" fill="#0091FF"></path>
                <path d="M35.9167529,26 L52.0832471,26 C52.5894209,26 53,25.5526591 53,25 C53,24.447341 52.5894209,24 52.0832471,24 L35.9167529,24 C35.4101011,24 35,24.447341 35,25 C35,25.5526591 35.4101011,26 35.9167529,26 L35.9167529,26 Z" id="Path" fill="#0091FF"></path>
                <path d="M35.9167529,30 L52.0832471,30 C52.5894209,30 53,29.5526591 53,29 C53,28.447341 52.5894209,28 52.0832471,28 L35.9167529,28 C35.4101011,28 35,28.447341 35,29 C35,29.5526591 35.4101011,30 35.9167529,30 L35.9167529,30 Z" id="Path" fill="#0091FF"></path>
                <path d="M36.8565474,33 L44.1434525,33 C44.6168313,33 45,32.5522545 45,31.9997393 C45,31.4477457 44.6168313,31 44.1434525,31 L36.8565474,31 C36.3831687,31 36,31.4477457 36,31.9997393 C36,32.5522545 36.3831687,33 36.8565474,33 L36.8565474,33 Z" id="Path" fill="#0091FF"></path>
                <path d="M44.866333,8.79666512 L41.0412598,8.79666512 C38.2731628,8.79666512 35.6776429,9.5539602 33.4428405,10.8726262 C31.557312,4.58777209 25.7780456,0 18.9587402,0 L15.133667,0 C6.78909305,0 0,6.869384 0,15.3126447 C0,23.7563686 6.78909305,30.6257526 15.133667,30.6257526 L17.7529908,30.6257526 L17.7529908,34.0449282 C17.7529908,34.5173692 18.0322266,34.9379343 18.4648132,35.1167207 C18.6058044,35.1750811 18.7532044,35.2033349 18.8987732,35.2033349 C19.199524,35.2033349 19.4943237,35.0824456 19.7145081,34.8545623 L24.9110413,29.4858731 C25.0236511,29.3696155 25.1527405,29.2769801 25.2951049,29.2098194 C25.7281494,29.0060213 26.151123,28.7818434 26.5626526,28.5377489 C27.1673584,30.5474757 28.1790162,32.4293655 29.554596,34.0523391 C29.8699951,34.4251969 30.424347,34.4682723 30.7923889,34.14868 C31.1608887,33.8295508 31.2034607,33.2681797 30.8876038,32.8957851 C29.5527649,31.3205187 28.6047363,29.470125 28.0957031,27.4969894 C29.2634583,26.5974988 30.3044128,25.5284854 31.1764526,24.3232978 C31.4630127,23.9272812 31.3778686,23.371005 30.9864807,23.0815192 C30.5950928,22.7915702 30.0457764,22.877258 29.7592162,23.2737378 C28.4124756,25.1352478 26.6130066,26.6308476 24.5553588,27.5984252 C24.2202759,27.7559055 23.9176941,27.9726725 23.6563111,28.242705 L19.50943,32.5275591 L19.50943,30.4553034 C19.50943,29.569245 18.7971497,28.848541 17.9219055,28.848541 L15.133667,28.848541 C7.75726313,28.848541 1.75598145,22.7762854 1.75598145,15.3126447 C1.75598145,7.84900411 7.75726313,1.77674849 15.133667,1.77674849 L18.9587402,1.77674849 C26.335144,1.77674849 32.3364258,7.84900411 32.3364258,15.3126447 C32.3364258,16.8508568 32.0800781,18.3617416 31.574707,19.8036128 C31.4126587,20.2658638 31.6516113,20.7735062 32.1089173,20.9379342 C32.5653076,21.1018991 33.0674743,20.8601204 33.2299805,20.3974063 C33.802185,18.7647059 34.0924072,17.0537286 34.0924072,15.3126447 C34.0924072,14.4182492 34.0155029,13.5419175 33.8694763,12.689208 C35.9436035,11.3506252 38.4040833,10.5734136 41.0412598,10.5734136 L44.866333,10.5734136 C52.2427369,10.5734136 58.2440186,16.6456692 58.2440186,24.1093099 C58.2440186,31.5734136 52.2427369,37.6452061 44.866333,37.6452061 L42.0780945,37.6452061 C41.2028503,37.6452061 40.49057,38.3659101 40.49057,39.2519685 L40.49057,41.3242242 L36.3436889,37.0393701 C36.0823059,36.7693376 35.7801819,36.5525706 35.4446412,36.3950903 C34.8651123,36.1222788 34.2988587,35.8045392 33.7623596,35.4497453 C33.3563232,35.1811024 32.8125,35.2964335 32.5469971,35.707735 C32.2814941,36.1181103 32.395935,36.6688282 32.8019714,36.9374711 C33.4085084,37.3385827 34.0489196,37.6984715 34.7048951,38.0064845 C34.8472595,38.0736452 34.9763489,38.1667438 35.0889587,38.2825382 L40.2850342,43.6516906 C40.5056763,43.8791107 40.8000183,44 41.1012268,44 C41.2467956,44 41.3941956,43.9717462 41.5351868,43.9133858 C41.9673157,43.7350625 42.2470092,43.3140343 42.2470092,42.8415934 L42.2470092,39.4224178 L44.8658753,39.4224178 C53.210907,39.4224178 60,32.5530338 60,24.1093099 C60,15.6660491 53.210907,8.79666512 44.866333,8.79666512 L44.866333,8.79666512 Z" id="Path" fill="#32C5FF"></path>
                <path d="M16.4900085,21 C15.6666097,21 15,21.6820496 15,22.5 C15,23.2986088 15.6471392,24 16.4900085,24 C17.3333902,24 18,23.2986088 18,22.5 C18,21.6820496 17.3139197,21 16.4900085,21 Z" id="Path" fill="#32C5FF"></path>
                <path d="M19.0879486,16.0933354 C19.548786,15.7254841 21,14.5350007 21,12.8892787 C21,11.2435566 19.548786,10 17.3637117,10 C15.0586324,10 14,11.4009456 14,12.3461949 C14,13.0292816 14.563444,13.3445174 15.0247275,13.3445174 C15.9468485,13.3445174 15.570773,11.9961873 17.3124083,11.9961873 C18.1658276,11.9961873 18.8488306,12.3814244 18.8488306,13.1871283 C18.8488306,14.1323776 17.8928048,14.6750037 17.3293608,15.1654719 C16.8341724,15.6033247 16.1855204,16.3211834 16.1855204,17.8269026 C16.1855204,18.7373798 16.4246383,19 17.1245937,19 C17.9610605,19 18.1319228,18.6147628 18.1319228,18.2821413 C18.1319228,17.3716638 18.1488751,16.8464236 19.0879486,16.0933354 Z" id="Path" fill="#32C5FF"></path>
            </g>
        </g>
    </g>
</svg>