<?xml version="1.0" encoding="UTF-8"?>
<svg width="55px" height="55px" viewBox="0 0 55 55" version="1.1" xmlns="http://www.w3.org/2000/svg" xmlns:xlink="http://www.w3.org/1999/xlink">
    <!-- Generator: Sketch 61.2 (89653) - https://sketch.com -->
    <desc>Created with Sketch.</desc>
    <g id="Page-1" stroke="none" stroke-width="1" fill="none" fill-rule="evenodd">
        <g id="Group-4-Copy">
            <g id="Group">
                <rect id="Rectangle" fill="#FFFFFF" x="0" y="0" width="55" height="55" rx="13"></rect>
                <g id="Group-2" transform="translate(17.303371, 10.505618)">
                    <path d="M12.6861547,0 L6.08793504,0 C2.72242165,0.0188904359 0,2.76521184 0,6.14113158 L0,7.03743306 C1.38006007,5.0156593 3.64886798,3.81437671 6.08793504,3.81437671 L12.6861547,3.81437671 C17.6771379,3.81437671 21.9124267,7.60961442 22.1580828,12.2822632 C22.2903971,14.7616329 21.4206217,17.1266658 19.7379882,18.9192687 C18.187669,20.5595054 16.183736,21.5321143 13.971599,21.7038681 C12.8751399,23.1532119 12.2699931,24.888895 12.2699931,26.6817465 L12.2699931,26.9295592 C12.3835813,26.2432896 12.8751399,25.7091376 13.5179853,25.5182448 C16.9399232,25.4608278 20.116205,24.0686524 22.4793823,21.5512532 C24.8994769,18.9955761 26.1095242,15.6199049 25.9392651,12.0913703 C25.5800207,5.43522582 19.6436188,0 12.6861547,0" id="Fill-3" fill="#052AC7"></path>
                    <path d="M14.0157303,21.8088273 C12.9158079,23.257973 12.3087496,24.9934189 12.3087496,26.7860255 L12.3087496,27.0338043 C12.2899644,27.148374 12.2899644,27.300968 12.2899644,27.4344256 C12.2899644,30.9430931 9.52087889,33.727312 6.14498222,33.727312 C2.75005318,33.727312 0,30.9430931 0,27.5487469 L0,7.14439639 C1.38441919,5.1228989 3.66039346,3.92178047 6.10716467,3.92178047 C4.83619815,3.94091685 3.79312567,4.97030492 3.79312567,6.2482174 L3.79312567,27.5487469 C3.79312567,28.8455472 4.83619815,29.913208 6.14498222,29.913208 C7.43448676,29.913208 8.4965916,28.8455472 8.4965916,27.5487469 C8.3450742,24.8790977 10.2794546,22.3809304 12.9916902,21.8468515 L13.3518221,21.8277151 C13.5797162,21.8277151 13.8071158,21.8277151 14.0157303,21.8088273" id="Fill-4" fill="#161963"></path>
                    <path d="M14.0157303,21.7005186 C13.5716456,22.9219711 13.4103754,24.21978 13.5313938,25.5173402 C12.8450092,25.7083554 12.3201579,26.2428497 12.1988764,26.9295592 L12.1988764,26.6815877 C12.1988764,24.887587 12.8450092,23.1507914 14.0157303,21.7005186" id="Fill-5" fill="#0E1049"></path>
                    <path d="M5.96966292,3.92178047 C3.57798034,3.92178047 1.35324923,5.0911467 0,7.05920484 C1.15005648,6.27599803 2.45087667,5.74152048 3.81886402,5.49037168 C4.11507604,4.58836519 4.97012854,3.93678165 5.96966292,3.92178047" id="Fill-6" fill="#0E1049"></path>
                </g>
            </g>
        </g>
    </g>
</svg>