<?xml version="1.0" encoding="UTF-8"?>
<svg width="31px" height="31px" viewBox="0 0 31 31" version="1.1" xmlns="http://www.w3.org/2000/svg" xmlns:xlink="http://www.w3.org/1999/xlink">
    <!-- Generator: Sketch 61.2 (89653) - https://sketch.com -->
    <title>Group 27</title>
    <desc>Created with Sketch.</desc>
    <g id="Page-1" stroke="none" stroke-width="1" fill="none" fill-rule="evenodd">
        <g id="Home" transform="translate(-413.000000, -3359.000000)">
            <g id="Group-27" transform="translate(413.000000, 3359.000000)">
                <rect id="Rectangle" fill="#0091FF" x="0" y="0" width="31" height="31" rx="8"></rect>
                <path d="M10.0742187,10.4258827 C11.4380823,12.1328368 13.4614399,13.2051109 15.6601562,13.3861383 C15.4596267,12.5553946 15.6627422,11.680108 16.2098334,11.0174113 C16.7569246,10.3547146 17.5858605,9.97986761 18.453125,10.002989 C19.2598351,9.9659599 20.0433407,10.2744069 20.6015625,10.8487764 C21.2307334,10.8339534 21.8363765,10.6104283 22.3203125,10.2144359 C22.1432811,10.8134927 21.7644573,11.3354606 21.2460938,11.6945637 C21.7780881,11.6974428 22.2998522,11.5507244 22.75,11.27167 C22.4666566,11.9409422 21.9261178,12.4729345 21.2460938,12.7517978 C21.362905,14.8627441 20.6067218,16.9303624 19.1497509,18.4837916 C17.6927799,20.0372208 15.659055,20.9442154 13.5117188,20.9982243 C11.9123652,21.0317601 10.3399401,20.5895991 9,19.7295433 C10.4326194,19.7456136 11.8430217,19.3803235 13.0820313,18.6723091 C11.955053,18.498288 10.9892044,17.7853548 10.5039062,16.7692877 C10.9433787,16.7805797 11.3809726,16.7088005 11.7929688,16.5578408 C10.5340418,16.1645247 9.61543602,15.0960646 9.4296875,13.809032 C9.82650469,14.0330067 10.2647525,14.1767796 10.71875,14.2319257 C9.57790449,13.2942469 9.30403819,11.6770299 10.0742188,10.4258827" id="Path" fill="#E8E8E8" fill-rule="nonzero"></path>
            </g>
        </g>
    </g>
</svg>