<?xml version="1.0" encoding="UTF-8"?>
<svg width="15px" height="19px" viewBox="0 0 15 19" version="1.1" xmlns="http://www.w3.org/2000/svg" xmlns:xlink="http://www.w3.org/1999/xlink">
    <!-- Generator: Sketch 61.2 (89653) - https://sketch.com -->
    <title>man (1) copy 2</title>
    <desc>Created with Sketch.</desc>
    <g id="Page-1" stroke="none" stroke-width="1" fill="none" fill-rule="evenodd">
        <g id="Personal-Details" transform="translate(-1047.000000, -500.000000)" fill-rule="nonzero">
            <g id="man-(1)-copy-2" transform="translate(1047.000000, 500.000000)">
                <g id="Icons" transform="translate(0.312500, 0.345814)">
                    <path d="M14.375,17.3894956 L14.375,18.3380135 L0,18.3380135 L0,17.3894956 C0,16.4378957 0.580621234,15.5850746 1.459375,15.245845 L4.50625,14.0696828 C4.99211759,13.8837921 5.31328809,13.4127476 5.3125,12.8871971 L5.3125,12.2548518 C5.31698019,11.8959455 5.16631231,11.5529587 4.9,11.315819 C4.12679094,10.6615541 3.70116541,9.6785996 3.75,8.6599688 C3.75,8.61886635 3.75,8.57460218 3.753125,8.53666147 L3.434375,8.53666147 C2.91660805,8.53666147 2.496875,8.1119955 2.496875,7.58814353 L2.496875,6.63962559 C2.49592803,6.25862243 2.72150366,5.91441166 3.06875,5.76698908 C2.891671,5.19848679 2.8051719,4.6050878 2.8125,4.00906916 C2.8125,1.60963495 4.3215625,1.12327089e-15 6.3125,1.12327089e-15 C7.9784375,1.12327089e-15 9.72625,0.727197088 10.10625,2.33967759 C11.0971875,2.57585855 11.8875,3.90536453 11.446875,5.69110764 L11.378125,5.80176807 C11.6861866,5.96485865 11.8789371,6.28785354 11.878125,6.63962559 L11.878125,7.58814353 C11.878125,8.1119955 11.4583919,8.53666147 10.940625,8.53666147 L10.621875,8.53666147 C10.625,8.57460218 10.625,8.61886635 10.625,8.6599688 C10.6738346,9.6785996 10.2482091,10.6615541 9.475,11.315819 C9.20868769,11.5529587 9.05801981,11.8959455 9.0625,12.2548518 L9.0625,12.8871971 C9.06171191,13.4127476 9.38288241,13.8837921 9.86875,14.0696828 L12.915625,15.245845 C13.7943787,15.5850746 14.375,16.4378957 14.375,17.3894956 Z" id="Shape" fill="#CAD9FC"></path>
                    <path d="M13.4375,17.3894956 L13.4375,18.3380135 L0,18.3380135 L0,17.3894956 C0,16.4378957 0.580621234,15.5850746 1.459375,15.245845 L4.50625,14.0696828 C4.99211759,13.8837921 5.31328809,13.4127476 5.3125,12.8871971 L5.3125,12.2548518 C5.31698019,11.8959455 5.16631231,11.5529587 4.9,11.315819 C4.12679094,10.6615541 3.70116541,9.6785996 3.75,8.6599688 C3.75,8.61886635 3.75,8.57460218 3.753125,8.53666147 L3.434375,8.53666147 C2.91660805,8.53666147 2.496875,8.1119955 2.496875,7.58814353 L2.496875,6.63962559 C2.49592803,6.25862243 2.72150366,5.91441166 3.06875,5.76698908 C2.891671,5.19848679 2.8051719,4.6050878 2.8125,4.00906916 C2.8125,1.83063963 4.075,0.233967759 5.896875,0.0252938118 C7.565625,0.170733229 8.7625,1.01807592 9.1125,2.14048882 C9.213125,2.40797088 9.0903125,2.30205304 9.3125,2.38710348 C10.544375,2.87717109 10.8290625,4.39669683 10.509375,5.69110764 L10.440625,5.80176807 C10.7486866,5.96485865 10.9414371,6.28785354 10.940625,6.63962559 L10.940625,7.58814353 C10.940625,8.1119955 10.5208919,8.53666147 10.003125,8.53666147 L9.684375,8.53666147 C9.6875,8.57460218 9.6875,8.61886635 9.6875,8.6599688 C9.73633459,9.6785996 9.31070906,10.6615541 8.5375,11.315819 C8.27118769,11.5529587 8.12051981,11.8959455 8.125,12.2548518 L8.125,12.8871971 C8.12421191,13.4127476 8.44538241,13.8837921 8.93125,14.0696828 L11.978125,15.245845 C12.8568788,15.5850746 13.4375,16.4378957 13.4375,17.3894956 Z" id="Shape" fill="#E8EDFC"></path>
                </g>
                <path d="M1.25,17.7353094 C1.25002944,16.7837096 1.83062123,15.9308884 2.709375,15.5916589 L5.75625,14.4154966 C6.24211759,14.2296059 6.56328809,13.7585615 6.5625,13.2330109 L6.5625,12.6006656 C6.56698019,12.2417593 6.41631231,11.8987725 6.15,11.6616329 C5.37679094,11.0073679 4.95116541,10.0244134 5,9.00578263 C5,8.96468019 5,8.92041602 5.003125,8.8824753 L4.684375,8.8824753 C4.16660806,8.8824753 3.746875,8.45780934 3.746875,7.93395736 L3.746875,6.98543942 C3.74592803,6.60443627 3.97150366,6.26022549 4.31875,6.11280291 C3.93761544,4.91679716 3.97881644,3.62399737 4.4353125,2.45531773 C4.89778031,1.31266636 5.93748306,0.514581511 7.1496875,0.37173999 C6.975,0.355615185 6.7996875,0.345710917 6.625,0.345710917 C5.25408512,0.335041426 4.01514209,1.17079406 3.4978125,2.45531773 C3.04131643,3.62399737 3.00011544,4.91679716 3.38125,6.11280291 C3.03400366,6.26022549 2.80842803,6.60443627 2.809375,6.98543942 L2.809375,7.93395736 C2.809375,8.45780934 3.22910805,8.8824753 3.746875,8.8824753 L4.065625,8.8824753 C4.0625,8.92041602 4.0625,8.96468019 4.0625,9.00578263 C4.01366541,10.0244134 4.43929094,11.0073679 5.2125,11.6616329 C5.47881231,11.8987725 5.62948019,12.2417593 5.625,12.6006656 L5.625,13.2330109 C5.62578809,13.7585615 5.30461759,14.2296059 4.81875,14.4154966 L1.771875,15.5916589 C0.893121234,15.9308884 0.3125,16.7837096 0.3125,17.7353094 L0.3125,18.6838274 L1.25,18.6838274 L1.25,17.7353094 Z" id="Shape" fill="#FFFFFF"></path>
                <g id="Layer_10">
                    <path d="M3.5,1.77649506 L4.03125,2.11290276 C3.62992419,2.78931339 3.42421269,3.56607312 3.4375,4.354883 L2.8125,4.354883 C2.79857176,3.44725041 3.03677636,2.55389206 3.5,1.77649506 Z" id="Shape" fill="#FFFFFF"></path>
                    <g id="Group" fill="#428DFF">
                        <path d="M3.284375,3.41648258 C3.11178602,3.41648258 2.971875,3.27492725 2.971875,3.10030993 C2.971875,2.92569262 3.11178602,2.78413729 3.284375,2.78413729 C3.45696397,2.78413729 3.596875,2.92569262 3.596875,3.10030993 C3.596875,3.27492725 3.45696397,3.41648258 3.284375,3.41648258 Z" id="Shape"></path>
                        <path d="M15,18.6838274 L15,17.7353094 C14.9962766,16.6537404 14.337077,15.6852678 13.3396875,15.2960374 L10.29125,14.1205075 C9.92869869,13.9792318 9.68897766,13.6273504 9.6875,13.2342756 L9.6875,12.6019303 C9.68192353,12.3353118 9.79283109,12.0797714 9.990625,11.9035049 C10.7852458,11.2351186 11.2453757,10.2441573 11.2465625,9.19864795 C11.5792187,9.20041494 11.8988496,9.0679516 12.1346913,8.83058432 C12.3705331,8.59321704 12.5031296,8.27052773 12.503125,7.93395736 L12.503125,6.98543942 C12.5039154,6.6223846 12.3497997,6.27664857 12.0803125,6.03692148 C12.4084375,4.58885075 12.0309375,2.9804805 10.6771875,2.43824441 C10.15625,0.760316173 8.366875,0.0296411856 6.625,0.0296411856 C5.35221656,0.015514557 4.16563922,0.678803276 3.5,1.77649506 C3.45112303,1.84851333 3.43521331,1.93831811 3.45632431,2.02302854 C3.47743534,2.10773898 3.53352862,2.17917534 3.6103125,2.21913677 C3.75701287,2.29631182 3.93756144,2.25074591 4.03125,2.11290276 C4.58200881,1.19986845 5.56786616,0.648390294 6.625,0.661986479 C8.13375,0.661986479 9.78125,1.29433177 10.114375,2.75821113 C10.1634375,2.96720125 10.350625,2.98933333 10.448125,3.02695788 C11.47125,3.43450442 11.698125,4.63943838 11.494375,5.7511014 C11.4156763,5.72990636 11.334564,5.7192761 11.253125,5.71948414 C11.080536,5.71948414 10.940625,5.86103947 10.940625,6.03565679 C10.940625,6.2102741 11.080536,6.35182943 11.253125,6.35182943 C11.598303,6.35182943 11.878125,6.63494006 11.878125,6.98417473 L11.878125,7.93269267 C11.878125,8.28192733 11.598303,8.56503796 11.253125,8.56503796 L10.934375,8.56503796 C10.8469168,8.56474718 10.7633404,8.60155008 10.7039499,8.66650573 C10.6445594,8.73146135 10.6147904,8.8186249 10.621875,8.90682059 C10.624375,8.93685699 10.6240625,8.97195216 10.6240625,9.00451794 C10.6745856,9.93007226 10.289795,10.8253394 9.58625,11.4191284 C9.24768112,11.7158633 9.05598466,12.1487778 9.0625,12.6019303 L9.0625,13.2342756 C9.06520991,13.8893267 9.46447094,14.475743 10.0684375,14.7117504 L13.116875,15.8869641 C13.8726702,16.1818703 14.3721981,16.9157403 14.375,17.7353094 L14.375,18.3676547 L0.625,18.3676547 L0.625,17.7353094 C0.627801859,16.9157403 1.12732983,16.1818703 1.883125,15.8869641 L4.9315625,14.7117504 C5.53552906,14.475743 5.93479009,13.8893267 5.9375,13.2342756 L5.9375,12.6019303 C5.94341022,12.1490646 5.75139294,11.7166633 5.4128125,11.4203931 C4.7092675,10.8266041 4.32447688,9.93133695 4.375,9.00578263 C4.39902903,8.88684193 4.36985963,8.7632379 4.2953125,8.66811024 C4.183125,8.54511908 4.088125,8.56630265 3.746875,8.56630265 C3.40169703,8.56630265 3.121875,8.28319202 3.121875,7.93395736 L3.121875,6.98543942 C3.12112296,6.81749891 3.18672947,6.65621697 3.30410313,6.53746388 C3.42147678,6.41871079 3.58088528,6.35233325 3.746875,6.35309412 C3.91946397,6.35309412 4.059375,6.21153879 4.059375,6.03692148 C4.059375,5.86230416 3.91946397,5.72074883 3.746875,5.72074883 C3.69755141,5.7227502 3.64839613,5.72781855 3.5996875,5.73592512 C3.48965591,5.2840851 3.43518137,4.82022922 3.4375,4.354883 C3.4375,4.18026568 3.29758897,4.03871035 3.125,4.03871035 C2.95241102,4.03871035 2.8125,4.18026568 2.8125,4.354883 C2.80882337,4.89767356 2.87489775,5.43864524 3.0090625,5.96420177 C2.68617549,6.20166959 2.49564165,6.58157018 2.496875,6.98543942 L2.496875,7.93395736 C2.49687042,8.27052773 2.62946693,8.59321704 2.86530867,8.83058432 C3.1011504,9.0679516 3.42078131,9.20041494 3.7534375,9.19864795 C3.75462431,10.2441573 4.21475419,11.2351186 5.009375,11.9035049 C5.20716891,12.0797714 5.31807647,12.3353118 5.3125,12.6019303 L5.3125,13.2342756 C5.31063687,13.6270034 5.07098344,13.9784091 4.70875,14.119559 L1.6603125,15.2950889 C0.662604819,15.6844449 0.00333760937,16.6533935 -2.77555756e-16,17.7353094 L-2.77555756e-16,18.6838274 C-2.77555756e-16,18.8584447 0.139911016,19 0.3125,19 L14.6875,19 C14.860089,19 15,18.8584447 15,18.6838274 L15,18.6838274 Z" id="Shape"></path>
                    </g>
                </g>
            </g>
        </g>
    </g>
</svg>