<?xml version="1.0" encoding="UTF-8"?>
<svg width="25px" height="22px" viewBox="0 0 25 22" version="1.1" xmlns="http://www.w3.org/2000/svg" xmlns:xlink="http://www.w3.org/1999/xlink">
    <!-- Generator: Sketch 61.2 (89653) - https://sketch.com -->
    <title>Group 18jd</title>
    <desc>Created with Sketch.</desc>
    <g id="Page-1" stroke="none" stroke-width="1" fill="none" fill-rule="evenodd">
        <g id="History" transform="translate(-27.000000, -321.000000)" fill="#0091FF" fill-rule="nonzero">
            <g id="Group-18" transform="translate(28.000000, 322.000000)">
                <path d="M23,18.0058569 L23,4.17979825 C23,3.08092778 22.1032964,2.18658485 21.0010592,2.18658485 L6.96110502,2.18658485 C6.58033218,2.18658485 6.22938733,1.97926838 6.04575884,1.64644634 L5.70739767,1.03286381 C5.35645292,0.396039579 4.68485727,0 3.95593597,0 L1.99894078,0 C0.896703642,0 0,0.89434293 0,1.9932134 L0,18.0058569 C0,19.105657 0.896703642,20 1.99894078,20 L21.0010592,20 C22.1032964,20 23,19.105657 23,18.0058569 Z M1.99894087,0.95198252 L3.95593607,0.95198252 C4.3367089,0.95198252 4.68765375,1.15929899 4.87128225,1.49212103 L5.20964341,2.10570356 C5.56058826,2.74252779 6.23218391,3.13856737 6.96110511,3.13856737 L21.0010593,3.13856737 C21.5771121,3.13856737 22.0455046,3.60526195 22.0455046,4.17979825 L22.0455046,5.7211918 L0.954495474,5.7211918 L0.954495474,1.9932134 C0.954495474,1.4186771 1.42288793,0.95198252 1.99894087,0.95198252 Z M0.954495474,18.0058569 L0.954495474,6.67317432 L22.0455046,6.67317432 L22.0455046,18.0058569 C22.0455046,18.5803932 21.5771121,19.0480175 21.0010592,19.0480175 L1.99894087,19.0480175 C1.42288793,19.0480175 0.954495474,18.5803932 0.954495474,18.0058569 Z" id="Shape" stroke="#0091FF" stroke-width="0.6"></path>
                <path d="M11.8607031,10.0055761 C12.78816,9.93151854 13.6146129,10.6030927 13.7567254,11.5462804 C13.8354018,12.0664013 13.6899123,12.5959297 13.3580464,12.9973257 L13.3580464,12.9973257 L13.9522679,14.7074167 C14.0981233,15.1102479 13.8985097,15.5581736 13.5061272,15.7085406 L13.5061272,15.7085406 L13.2809555,15.791322 C12.3734367,16.0948536 11.3886156,16.0672599 10.4951517,15.7085406 L10.4951517,15.7085406 C10.1018887,15.5581665 9.90250606,15.1116294 10.0471125,14.7093644 L10.0471125,14.7093644 L10.6394355,12.9973257 C10.3693483,12.6709012 10.2207029,12.256872 10.2198734,11.8286986 C10.2180286,10.8743105 10.9332462,10.0796337 11.8607031,10.0055761 Z M12.0006394,10.9662059 C11.6474173,10.9662059 11.332927,11.1956558 11.216979,11.5379591 C11.101031,11.8802623 11.2090533,12.2603499 11.4861537,12.4850775 L11.4861537,12.4850775 C11.6426798,12.614435 11.7036711,12.8326589 11.636133,13.0284891 L11.636133,13.0284891 L11.0020436,14.8593383 C11.6499383,15.0788184 12.3494421,15.0788184 12.9973369,14.8593383 L12.9973369,14.8593383 L12.3632474,13.0284891 C12.2957093,12.8326589 12.3567006,12.614435 12.5151252,12.4850775 C12.7922255,12.2603499 12.9002479,11.8802623 12.7842999,11.5379591 C12.6683519,11.1956558 12.3538616,10.9662059 12.0006394,10.9662059 Z" id="Combined-Shape"></path>
            </g>
        </g>
    </g>
</svg>