<?xml version="1.0" encoding="UTF-8"?>
<svg width="25px" height="22px" viewBox="0 0 25 22" version="1.1" xmlns="http://www.w3.org/2000/svg" xmlns:xlink="http://www.w3.org/1999/xlink">
    <!-- Generator: Sketch 61.2 (89653) - https://sketch.com -->
    <title>Group 30 Copy 8jd</title>
    <desc>Created with Sketch.</desc>
    <g id="Page-1" stroke="none" stroke-width="1" fill="none" fill-rule="evenodd">
        <g id="Loan-" transform="translate(-27.000000, -250.000000)" fill="#0091FF" fill-rule="nonzero" stroke="#0091FF" stroke-width="0.6">
            <g id="Group-30-Copy-8" transform="translate(28.000000, 251.000000)">
                <path d="M9.76744186,0 C10.0883721,0 10.3023256,0.216802168 10.3023256,0.54200542 C10.3023256,0.867208672 10.0883721,1.08401084 9.76744186,1.08401084 L9.76744186,1.08401084 L2.78139535,1.13821138 C1.81860465,1.13821138 1.06976744,1.89701897 1.06976744,2.87262873 L1.06976744,2.87262873 L1.06976744,17.1815718 C1.06976744,18.1571816 1.81860465,18.9159892 2.78139535,18.9159892 L2.78139535,18.9159892 L20.2186047,18.9159892 C21.1813953,18.9159892 21.9302326,18.1571816 21.9302326,17.1815718 L21.9302326,17.1815718 L21.9302326,11.3821138 C21.9302326,11.0569106 22.144186,10.8401084 22.4651163,10.8401084 C22.7860465,10.8401084 23,11.0569106 23,11.3821138 L23,11.3821138 L23,17.1815718 C23,18.7533875 21.7697674,20 20.2186047,20 L20.2186047,20 L2.78139535,20 C1.23023256,20 0,18.699187 0,17.1273713 L0,17.1273713 L0,2.81842818 C0,1.24661247 1.23023256,0 2.78139535,0 L2.78139535,0 Z M18.7596178,0.223972493 C18.9735713,0.00717032487 19.2945015,0.00717032487 19.508455,0.223972493 L19.508455,0.223972493 L22.7712457,3.5844061 C23.0386875,3.90960935 23.0386875,4.39741423 22.7712457,4.66841694 L22.7712457,4.66841694 L19.508455,8.02885054 C19.4014782,8.13725163 19.2945015,8.19145217 19.1340364,8.19145217 C18.9735713,8.19145217 18.8665945,8.13725163 18.7596178,8.02885054 C18.5456643,7.81204837 18.5456643,7.48684512 18.7596178,7.27004295 L18.7596178,7.27004295 L21.2735713,4.66841694 L12.5014782,4.66841694 C9.93403638,4.66841694 7.90147824,6.78223808 7.90147824,9.32966355 L7.90147824,9.32966355 L7.90147824,11.2808831 C7.90147824,11.6060863 7.68752475,11.8228885 7.36659452,11.8228885 C7.04566429,11.8228885 6.8317108,11.6060863 6.8317108,11.2808831 L6.8317108,11.2808831 L6.8317108,9.32966355 C6.8317108,6.13183157 9.39915266,3.5844061 12.5014782,3.5844061 L12.5014782,3.5844061 L21.2735713,3.5844061 L18.7596178,0.982780081 C18.5456643,0.765977913 18.5456643,0.440774661 18.7596178,0.223972493 Z" id="Combined-Shape"></path>
            </g>
        </g>
    </g>
</svg>