<?xml version="1.0" encoding="UTF-8"?>
<svg width="22px" height="22px" viewBox="0 0 22 22" version="1.1" xmlns="http://www.w3.org/2000/svg" xmlns:xlink="http://www.w3.org/1999/xlink">
    <!-- Generator: Sketch 61.2 (89653) - https://sketch.com -->
    <title>Shape 2</title>
    <desc>Created with Sketch.</desc>
    <g id="Page-1" stroke="none" stroke-width="1" fill="none" fill-rule="evenodd">
        <g id="Home" transform="translate(-28.000000, -393.000000)" fill="#C1BEBE" fill-rule="nonzero" stroke="#C0BFBE" stroke-width="0.1">
            <g id="Shape-2" transform="translate(29.000000, 394.000000)">
                <path d="M18.2421875,4.6875 L15.8577734,4.6875 C16.2264453,4.1975 16.4453125,3.58871094 16.4453125,2.9296875 C16.4453125,1.31425781 15.1310547,0 13.515625,0 C12.5425391,0 11.825,0.348632812 11.2574609,1.09714844 C10.7826563,1.72339844 10.4354688,2.59777344 10,3.70253906 C9.56453125,2.59773437 9.21734375,1.72339844 8.74253906,1.09714844 C8.175,0.348632812 7.45746094,0 6.484375,0 C4.86894531,0 3.5546875,1.31425781 3.5546875,2.9296875 C3.5546875,3.58871094 3.77355469,4.1975 4.14222656,4.6875 L1.7578125,4.6875 C0.788554688,4.6875 0,5.47605469 0,6.4453125 L0,7.6171875 C0,8.38105469 0.489882812,9.03234375 1.171875,9.27421875 L1.171875,18.2421875 C1.171875,19.2114453 1.96042969,20 2.9296875,20 L17.0703125,20 C18.0395703,20 18.828125,19.2114453 18.828125,18.2421875 L18.828125,9.27421875 C19.5101172,9.03234375 20,8.38105469 20,7.6171875 L20,6.4453125 C20,5.47605469 19.2114453,4.6875 18.2421875,4.6875 Z M11.0755469,4.16953125 C11.9731641,1.89226562 12.3144141,1.171875 13.515625,1.171875 C14.4848828,1.171875 15.2734375,1.96042969 15.2734375,2.9296875 C15.2734375,3.89894531 14.4848828,4.6875 13.515625,4.6875 L10.8705859,4.6875 C10.9423828,4.50722656 11.0108594,4.33367188 11.0755469,4.16953125 Z M6.484375,1.171875 C7.68558594,1.171875 8.02683594,1.89226562 8.92445312,4.16953125 C8.98914063,4.33367188 9.05761719,4.50722656 9.12941406,4.6875 L6.484375,4.6875 C5.51511719,4.6875 4.7265625,3.89894531 4.7265625,2.9296875 C4.7265625,1.96042969 5.51511719,1.171875 6.484375,1.171875 Z M7.65625,18.828125 L2.9296875,18.828125 C2.60660156,18.828125 2.34375,18.5652734 2.34375,18.2421875 L2.34375,9.375 L7.65625,9.375 L7.65625,18.828125 Z M7.65625,8.203125 L1.7578125,8.203125 C1.43472656,8.203125 1.171875,7.94027344 1.171875,7.6171875 L1.171875,6.4453125 C1.171875,6.12222656 1.43472656,5.859375 1.7578125,5.859375 L7.65625,5.859375 L7.65625,8.203125 Z M11.171875,18.828125 L8.828125,18.828125 L8.828125,5.859375 C8.95089844,5.859375 10.4984375,5.859375 11.171875,5.859375 L11.171875,18.828125 Z M17.65625,18.2421875 C17.65625,18.5652734 17.3933984,18.828125 17.0703125,18.828125 L12.34375,18.828125 L12.34375,9.375 L17.65625,9.375 L17.65625,18.2421875 Z M18.828125,7.6171875 C18.828125,7.94027344 18.5652734,8.203125 18.2421875,8.203125 L12.34375,8.203125 L12.34375,5.859375 L18.2421875,5.859375 C18.5652734,5.859375 18.828125,6.12222656 18.828125,6.4453125 L18.828125,7.6171875 Z" id="Shape"></path>
            </g>
        </g>
    </g>
</svg>