<?xml version="1.0" encoding="UTF-8"?>
<svg width="22px" height="22px" viewBox="0 0 22 22" version="1.1" xmlns="http://www.w3.org/2000/svg" xmlns:xlink="http://www.w3.org/1999/xlink">
    <!-- Generator: Sketch 61.2 (89653) - https://sketch.com -->
    <title>Shapejd</title>
    <desc>Created with Sketch.</desc>
    <g id="Page-1" stroke="none" stroke-width="1" fill="none" fill-rule="evenodd">
        <g id="Referral" transform="translate(-28.000000, -393.000000)" fill="#0091FF" fill-rule="nonzero" stroke="#0091FF" stroke-width="0.1">
            <path d="M47.2421875,398.6875 L44.8577734,398.6875 C45.2264453,398.1975 45.4453125,397.588711 45.4453125,396.929688 C45.4453125,395.314258 44.1310547,394 42.515625,394 C41.5425391,394 40.825,394.348633 40.2574609,395.097148 C39.7826563,395.723398 39.4354687,396.597773 39,397.702539 C38.5645313,396.597734 38.2173437,395.723398 37.7425391,395.097148 C37.175,394.348633 36.4574609,394 35.484375,394 C33.8689453,394 32.5546875,395.314258 32.5546875,396.929688 C32.5546875,397.588711 32.7735547,398.1975 33.1422266,398.6875 L30.7578125,398.6875 C29.7885547,398.6875 29,399.476055 29,400.445312 L29,401.617188 C29,402.381055 29.4898828,403.032344 30.171875,403.274219 L30.171875,412.242188 C30.171875,413.211445 30.9604297,414 31.9296875,414 L46.0703125,414 C47.0395703,414 47.828125,413.211445 47.828125,412.242188 L47.828125,403.274219 C48.5101172,403.032344 49,402.381055 49,401.617188 L49,400.445312 C49,399.476055 48.2114453,398.6875 47.2421875,398.6875 Z M40.0755469,398.169531 C40.9731641,395.892266 41.3144141,395.171875 42.515625,395.171875 C43.4848828,395.171875 44.2734375,395.96043 44.2734375,396.929688 C44.2734375,397.898945 43.4848828,398.6875 42.515625,398.6875 L39.8705859,398.6875 C39.9423828,398.507227 40.0108594,398.333672 40.0755469,398.169531 Z M35.484375,395.171875 C36.6855859,395.171875 37.0268359,395.892266 37.9244531,398.169531 C37.9891406,398.333672 38.0576172,398.507227 38.1294141,398.6875 L35.484375,398.6875 C34.5151172,398.6875 33.7265625,397.898945 33.7265625,396.929688 C33.7265625,395.96043 34.5151172,395.171875 35.484375,395.171875 Z M36.65625,412.828125 L31.9296875,412.828125 C31.6066016,412.828125 31.34375,412.565273 31.34375,412.242188 L31.34375,403.375 L36.65625,403.375 L36.65625,412.828125 Z M36.65625,402.203125 L30.7578125,402.203125 C30.4347266,402.203125 30.171875,401.940273 30.171875,401.617188 L30.171875,400.445312 C30.171875,400.122227 30.4347266,399.859375 30.7578125,399.859375 L36.65625,399.859375 L36.65625,402.203125 Z M40.171875,412.828125 L37.828125,412.828125 L37.828125,399.859375 C37.9508984,399.859375 39.4984375,399.859375 40.171875,399.859375 L40.171875,412.828125 Z M46.65625,412.242188 C46.65625,412.565273 46.3933984,412.828125 46.0703125,412.828125 L41.34375,412.828125 L41.34375,403.375 L46.65625,403.375 L46.65625,412.242188 Z M47.828125,401.617188 C47.828125,401.940273 47.5652734,402.203125 47.2421875,402.203125 L41.34375,402.203125 L41.34375,399.859375 L47.2421875,399.859375 C47.5652734,399.859375 47.828125,400.122227 47.828125,400.445312 L47.828125,401.617188 Z" id="Shape"></path>
        </g>
    </g>
</svg>