<?xml version="1.0" encoding="UTF-8"?>
<svg width="4px" height="14px" viewBox="0 0 4 14" version="1.1" xmlns="http://www.w3.org/2000/svg" xmlns:xlink="http://www.w3.org/1999/xlink">
    <!-- Generator: Sketch 61.2 (89653) - https://sketch.com -->
    <title>Group 33</title>
    <desc>Created with Sketch.</desc>
    <g id="Page-1" stroke="none" stroke-width="1" fill="none" fill-rule="evenodd">
        <g id="Home" transform="translate(-946.000000, -782.000000)">
            <g id="Group-33" transform="translate(939.154639, 780.000000)">
                <rect id="Rectangle" x="0" y="0" width="16.9793814" height="18"></rect>
                <path d="M8.75219339,13.3159376 C9.40340543,13.3159376 9.9313171,13.8755816 9.9313171,14.5659376 C9.9313171,15.2562935 9.40340543,15.8159376 8.75219339,15.8159376 C8.10098134,15.8159376 7.57306968,15.2562935 7.57306968,14.5659376 C7.57306968,13.8755816 8.10098134,13.3159376 8.75219339,13.3159376 Z M8.74068682,7.92814991 C9.39189887,7.92814991 9.91981053,8.48779397 9.91981053,9.17814991 C9.91981053,9.86850585 9.39189887,10.4281499 8.74068682,10.4281499 C8.08947478,10.4281499 7.56156311,9.86850585 7.56156311,9.17814991 C7.56156311,8.48779397 8.08947478,7.92814991 8.74068682,7.92814991 Z M8.73800027,2.10608885 C9.38921231,2.10608885 9.91712398,2.66573291 9.91712398,3.35608885 C9.91712398,4.04644478 9.38921231,4.60608885 8.73800027,4.60608885 C8.08678822,4.60608885 7.55887656,4.04644478 7.55887656,3.35608885 C7.55887656,2.66573291 8.08678822,2.10608885 8.73800027,2.10608885 Z" id="Combined-Shape" fill="#4D4D4D"></path>
            </g>
        </g>
    </g>
</svg>