<?xml version="1.0" encoding="UTF-8"?>
<svg width="14px" height="14px" viewBox="0 0 14 14" version="1.1" xmlns="http://www.w3.org/2000/svg" xmlns:xlink="http://www.w3.org/1999/xlink">
    <!-- Generator: Sketch 61.2 (89653) - https://sketch.com -->
    <title>Combined Shape</title>
    <desc>Created with Sketch.</desc>
    <g id="Page-1" stroke="none" stroke-width="1" fill="none" fill-rule="evenodd">
        <g id="Loan-" transform="translate(-1056.000000, -755.000000)" fill="#4D4D4D" fill-rule="nonzero" stroke="#4D4D4D" stroke-width="0.6">
            <g id="Group-63" transform="translate(1032.000000, 642.000000)">
                <g id="Group-50" transform="translate(0.000000, 46.000000)">
                    <path d="M31,68 C34.3084,68 37,70.6916 37,74 C37,77.3084 34.3084,80 31,80 C27.6916,80 25,77.3084 25,74 C25,70.6916 27.6916,68 31,68 Z M31,68.4 C27.9122,68.4 25.4,70.9122 25.4,74 C25.4,77.0878 27.9122,79.6 31,79.6 C34.0878,79.6 36.6,77.0878 36.6,74 C36.6,70.9122 34.0878,68.4 31,68.4 Z M31.12679,70.1894155 C31.23719,70.1894155 31.32679,70.2788155 31.32679,70.3894155 L31.32679,70.3894155 L31.32679,74.1894155 C31.32679,74.3000155 31.23719,74.3894155 31.12679,74.3894155 L31.12679,74.3894155 L27.92679,74.3894155 C27.81639,74.3894155 27.72679,74.3000155 27.72679,74.1894155 C27.72679,74.0788155 27.81639,73.9894155 27.92679,73.9894155 L27.92679,73.9894155 L30.92679,73.9894155 L30.92679,70.3894155 C30.92679,70.2788155 31.01639,70.1894155 31.12679,70.1894155 Z" id="Combined-Shape"></path>
                </g>
            </g>
        </g>
    </g>
</svg>