<?xml version="1.0" encoding="UTF-8"?>
<svg width="36px" height="36px" viewBox="0 0 36 36" version="1.1" xmlns="http://www.w3.org/2000/svg" xmlns:xlink="http://www.w3.org/1999/xlink">
    <!-- Generator: Sketch 61.2 (89653) - https://sketch.com -->
    <title>Group 24</title>
    <desc>Created with Sketch.</desc>
    <g id="Page-1" stroke="none" stroke-width="1" fill="none" fill-rule="evenodd">
        <g id="Home" transform="translate(-653.000000, -488.000000)">
            <g id="Group-24" transform="translate(653.000000, 488.000000)">
                <g id="folder-icon">
                    <g id="Group-22">
                        <rect id="Rectangle" fill="#8F98FF" opacity="0.517717634" x="0" y="0" width="36" height="36" rx="10"></rect>
                        <g id="Group-21" transform="translate(7.000000, 9.000000)" fill="#FFFFFF" fill-rule="nonzero">
                            <path d="M18.9384615,2.25 L13.7464615,2.25 C13.4558697,2.2487573 13.1773964,2.13158718 12.9710769,1.92375 L11.3981538,0.32625 C11.1918344,0.118412816 10.9133611,0.00124269924 10.6227692,0 L2.21538462,0 C0.991861477,0 0,1.00735931 0,2.25 L0,15.75 C0,16.9926407 0.991861477,18 2.21538462,18 L18.9384615,18 C20.1619847,18 21.1538462,16.9926407 21.1538462,15.75 L21.1538462,4.5 C21.1538462,3.25735931 20.1619847,2.25 18.9384615,2.25 Z" id="folder"></path>
                        </g>
                    </g>
                </g>
                <g id="money-(3)" transform="translate(13.000000, 15.000000)" fill-rule="nonzero">
                    <path d="M10,0.29296875 L10,5.41015625 C10,5.571875 9.86875,5.703125 9.70703125,5.703125 L0.29296875,5.703125 C0.13125,5.703125 0,5.571875 0,5.41015625 L0,0.29296875 C0,0.13125 0.13125,0 0.29296875,0 L9.70703125,0 C9.86875,0 10,0.13125 10,0.29296875 Z" id="Path" fill="#C5C8F0"></path>
                    <path d="M9.70703125,0 L5,0 L5,5.703125 L9.70703125,5.703125 C9.86875,5.703125 10,5.571875 10,5.41015625 L10,0.29296875 C10,0.13125 9.86875,0 9.70703125,0 Z" id="Path" fill="#C5C8F0"></path>
                    <g id="Group">
                        <path d="M5,1.87501953 C4.46152344,1.87501953 4.0234375,2.31310547 4.0234375,2.85158203 C4.0234375,3.39005859 4.46152344,3.82814453 5,3.82814453 C5.53847656,3.82814453 5.9765625,3.39005859 5.9765625,2.85158203 C5.9765625,2.31310547 5.53847656,1.87501953 5,1.87501953 Z" id="Path" fill="#9EA3E4"></path>
                        <path d="M0.29296875,0 C0.13125,0 0,0.13125 0,0.29296875 C0,0.466738281 0,5.14095703 0,5.41015625 C0,5.571875 0.13125,5.703125 0.29296875,5.703125 L3.08027344,5.703125 L0.228515625,2.8515625 L3.08027344,0 L0.29296875,0 Z" id="Path" fill="#6672FB"></path>
                    </g>
                    <g id="Group" transform="translate(0.976562, 6.289062)" fill="#6672FB">
                        <path d="M7.75390625,0.5859375 L0.29296875,0.5859375 C0.131171875,0.5859375 0,0.454765625 0,0.29296875 C0,0.131171875 0.131171875,0 0.29296875,0 L7.75390625,0 C7.91570312,0 8.046875,0.131171875 8.046875,0.29296875 C8.046875,0.454765625 7.91570312,0.5859375 7.75390625,0.5859375 Z" id="Path"></path>
                        <path d="M6.77734375,1.7578125 L1.26953125,1.7578125 C1.10773437,1.7578125 0.9765625,1.62664062 0.9765625,1.46484375 C0.9765625,1.30304688 1.10773437,1.171875 1.26953125,1.171875 L6.77734375,1.171875 C6.93914063,1.171875 7.0703125,1.30304688 7.0703125,1.46484375 C7.0703125,1.62664062 6.93914063,1.7578125 6.77734375,1.7578125 Z" id="Path"></path>
                    </g>
                    <path d="M5,1.87501953 L5,3.82814453 C5.53847656,3.82814453 5.9765625,3.39005859 5.9765625,2.85158203 C5.9765625,2.31310547 5.53847656,1.87501953 5,1.87501953 Z" id="Path" fill="#6672FB"></path>
                    <g id="Group" transform="translate(5.000000, 6.289062)" fill="#6672FB">
                        <path d="M3.73046875,0 L0,0 L0,0.5859375 L3.73046875,0.5859375 C3.89226562,0.5859375 4.0234375,0.454765625 4.0234375,0.29296875 C4.0234375,0.131171875 3.89226562,0 3.73046875,0 Z" id="Path"></path>
                        <path d="M2.75390625,1.171875 L0,1.171875 L0,1.7578125 L2.75390625,1.7578125 C2.91570312,1.7578125 3.046875,1.62664062 3.046875,1.46484375 C3.046875,1.30304688 2.91570312,1.171875 2.75390625,1.171875 Z" id="Path"></path>
                    </g>
                    <path d="M9.70703125,0 L6.91972656,0 L9.77148437,2.8515625 L6.91972656,5.703125 L9.70703125,5.703125 C9.86875,5.703125 10,5.571875 10,5.41015625 C10,5.23638672 10,0.562167969 10,0.29296875 C10,0.13125 9.86875,0 9.70703125,0 Z" id="Path" fill="#6672FB"></path>
                </g>
            </g>
        </g>
    </g>
</svg>