<?xml version="1.0" encoding="UTF-8"?>
<svg width="22px" height="18px" viewBox="0 0 22 18" version="1.1" xmlns="http://www.w3.org/2000/svg" xmlns:xlink="http://www.w3.org/1999/xlink">
    <!-- Generator: Sketch 61.2 (89653) - https://sketch.com -->
    <title>Group 18</title>
    <desc>Created with Sketch.</desc>
    <g id="Page-1" stroke="none" stroke-width="1" fill="none" fill-rule="evenodd">
        <g id="Loan-" transform="translate(-277.000000, -565.000000)" fill-rule="nonzero">
            <g id="Group-18" transform="translate(277.000000, 565.000000)">
                <g id="folder-icon-copy-2" fill="#FFFFFF">
                    <g id="Group-22">
                        <g id="Group-21">
                            <path d="M18.9384615,2.25 L13.7464615,2.25 C13.4558697,2.2487573 13.1773964,2.13158718 12.9710769,1.92375 L11.3981538,0.32625 C11.1918344,0.118412816 10.9133611,0.00124269924 10.6227692,0 L2.21538462,0 C0.991861477,0 0,1.00735931 0,2.25 L0,15.75 C0,16.9926407 0.991861477,18 2.21538462,18 L18.9384615,18 C20.1619847,18 21.1538462,16.9926407 21.1538462,15.75 L21.1538462,4.5 C21.1538462,3.25735931 20.1619847,2.25 18.9384615,2.25 Z" id="folder"></path>
                        </g>
                    </g>
                </g>
                <g id="date-copy" transform="translate(5.000000, 4.000000)">
                    <path d="M9.83333333,3.16666667 L9.83333333,8.83333333 C9.83333333,9.38561808 9.38561808,9.83333333 8.83333333,9.83333333 L1.16666667,9.83333333 C0.614381917,9.83333333 0.166666667,9.38561808 0.166666667,8.83333333 L0.166666667,3.16666667 L9.83333333,3.16666667 Z" id="Shape" fill="#E8EDFC"></path>
                    <path d="M9.33333333,3.16666667 L9.33333333,8.83333333 C9.33333333,9.38561808 8.88561808,9.83333333 8.33333333,9.83333333 L8.83333333,9.83333333 C9.38561808,9.83333333 9.83333333,9.38561808 9.83333333,8.83333333 L9.83333333,3.16666667 L9.33333333,3.16666667 Z" id="Shape" fill="#CAD9FC"></path>
                    <path d="M9.83333333,2.16666667 L9.83333333,3.16666667 L0.166666667,3.16666667 L0.166666667,2.16666667 C0.166666667,1.61438192 0.614381917,1.16666667 1.16666667,1.16666667 L8.83333333,1.16666667 C9.38561808,1.16666667 9.83333333,1.61438192 9.83333333,2.16666667 Z" id="Shape" fill="#A4C2F7"></path>
                    <path d="M8.83333333,1.16666667 L8.33333333,1.16666667 C8.88561808,1.16666667 9.33333333,1.61438192 9.33333333,2.16666667 L9.33333333,3.16666667 L9.83333333,3.16666667 L9.83333333,2.16666667 C9.83333333,1.61438192 9.38561808,1.16666667 8.83333333,1.16666667 Z" id="Shape" fill="#7FACFA"></path>
                    <path d="M1.16666667,9.83333333 L1.66666667,9.83333333 C1.11438192,9.83333333 0.666666667,9.38561808 0.666666667,8.83333333 L0.666666667,2.16666667 C0.666666667,1.61438192 1.11438192,1.16666667 1.66666667,1.16666667 L1.16666667,1.16666667 C0.614381917,1.16666667 0.166666667,1.61438192 0.166666667,2.16666667 L0.166666667,8.83333333 C0.166666667,9.38561808 0.614381917,9.83333333 1.16666667,9.83333333 Z" id="Shape" fill="#FFFFFF"></path>
                    <polygon id="Rectangle-path" fill="#FFFFFF" points="0 7.5 0.333333333 7.5 0.333333333 8.83333333 0 8.83333333"></polygon>
                    <g id="Group" fill="#428DFF">
                        <circle id="Oval" cx="0.166666667" cy="8.16666667" r="1"></circle>
                        <path d="M1.16666667,10 L8.83333333,10 C9.47736095,9.99926523 9.99926523,9.47736095 10,8.83333333 L10,2.16666667 C9.99926523,1.52263906 9.47736095,1.00073477 8.83333333,1 L8.33333333,1 L8.33333333,0.166666667 C8.33333333,0.0746192083 8.25871412,0 8.16666667,0 C8.07461922,0 8,0.0746192083 8,0.166666667 L8,1 L2,1 L2,0.166666667 C2,0.0746192083 1.92538078,0 1.83333333,0 C1.74128588,0 1.66666667,0.0746192083 1.66666667,0.166666667 L1.66666667,1 L1.16666667,1 C0.522639057,1.00073477 0.000734773333,1.52263906 0,2.16666667 L0,7.5 C0,7.59204745 0.0746192083,7.66666667 0.166666667,7.66666667 C0.258714125,7.66666667 0.333333333,7.59204745 0.333333333,7.5 L0.333333333,3.33333333 L0.666666667,3.33333333 C0.758714125,3.33333333 0.833333333,3.25871412 0.833333333,3.16666667 C0.833333333,3.07461922 0.758714125,3 0.666666667,3 L0.333333333,3 L0.333333333,2.16666667 C0.333884353,1.7066578 0.706657808,1.33388435 1.16666667,1.33333333 L1.66666667,1.33333333 C1.66666667,1.42538079 1.74128588,1.5 1.83333333,1.5 C1.92538078,1.5 2,1.42538079 2,1.33333333 L8,1.33333333 C8,1.42538079 8.07461922,1.5 8.16666667,1.5 C8.25871412,1.5 8.33333333,1.42538079 8.33333333,1.33333333 L8.83333333,1.33333333 C9.2933422,1.33388435 9.66611565,1.7066578 9.66666667,2.16666667 L9.66666667,3 L1.5,3 C1.40795254,3 1.33333333,3.07461922 1.33333333,3.16666667 C1.33333333,3.25871412 1.40795254,3.33333333 1.5,3.33333333 L9.66666667,3.33333333 L9.66666667,8.83333333 C9.66611565,9.2933422 9.2933422,9.66611565 8.83333333,9.66666667 L1.16666667,9.66666667 C0.706657808,9.66611565 0.333884353,9.2933422 0.333333333,8.83333333 C0.333333333,8.74128588 0.258714125,8.66666667 0.166666667,8.66666667 C0.0746192083,8.66666667 0,8.74128588 0,8.83333333 C0.000734773333,9.47736095 0.522639057,9.99926523 1.16666667,10 Z" id="Shape"></path>
                        <path d="M2,2.16666667 L2,2 C2,1.90795255 1.92538078,1.83333333 1.83333333,1.83333333 C1.74128588,1.83333333 1.66666667,1.90795255 1.66666667,2 L1.66666667,2.16666667 C1.66666667,2.25871412 1.74128588,2.33333333 1.83333333,2.33333333 C1.92538078,2.33333333 2,2.25871412 2,2.16666667 Z" id="Shape"></path>
                        <path d="M8.33333333,2.16666667 L8.33333333,2 C8.33333333,1.90795255 8.25871412,1.83333333 8.16666667,1.83333333 C8.07461922,1.83333333 8,1.90795255 8,2 L8,2.16666667 C8,2.25871412 8.07461922,2.33333333 8.16666667,2.33333333 C8.25871412,2.33333333 8.33333333,2.25871412 8.33333333,2.16666667 Z" id="Shape"></path>
                        <path d="M6,4.5 L6.33333333,4.5 C6.42538078,4.5 6.5,4.42538078 6.5,4.33333333 C6.5,4.24128588 6.42538078,4.16666667 6.33333333,4.16666667 L6,4.16666667 C5.90795255,4.16666667 5.83333333,4.24128588 5.83333333,4.33333333 C5.83333333,4.42538078 5.90795255,4.5 6,4.5 Z" id="Shape"></path>
                        <path d="M7.16666667,4.5 L7.5,4.5 C7.59204745,4.5 7.66666667,4.42538078 7.66666667,4.33333333 C7.66666667,4.24128588 7.59204745,4.16666667 7.5,4.16666667 L7.16666667,4.16666667 C7.07461922,4.16666667 7,4.24128588 7,4.33333333 C7,4.42538078 7.07461922,4.5 7.16666667,4.5 Z" id="Shape"></path>
                        <path d="M8.33333333,4.5 L8.66666667,4.5 C8.75871412,4.5 8.83333333,4.42538078 8.83333333,4.33333333 C8.83333333,4.24128588 8.75871412,4.16666667 8.66666667,4.16666667 L8.33333333,4.16666667 C8.24128588,4.16666667 8.16666667,4.24128588 8.16666667,4.33333333 C8.16666667,4.42538078 8.24128588,4.5 8.33333333,4.5 Z" id="Shape"></path>
                        <path d="M1.33333333,5.5 L1.66666667,5.5 C1.75871412,5.5 1.83333333,5.42538078 1.83333333,5.33333333 C1.83333333,5.24128588 1.75871412,5.16666667 1.66666667,5.16666667 L1.33333333,5.16666667 C1.24128588,5.16666667 1.16666667,5.24128588 1.16666667,5.33333333 C1.16666667,5.42538078 1.24128588,5.5 1.33333333,5.5 Z" id="Shape"></path>
                        <path d="M2.5,5.5 L2.83333333,5.5 C2.92538078,5.5 3,5.42538078 3,5.33333333 C3,5.24128588 2.92538078,5.16666667 2.83333333,5.16666667 L2.5,5.16666667 C2.40795255,5.16666667 2.33333333,5.24128588 2.33333333,5.33333333 C2.33333333,5.42538078 2.40795255,5.5 2.5,5.5 Z" id="Shape"></path>
                        <path d="M3.66666667,5.5 L4,5.5 C4.09204745,5.5 4.16666667,5.42538078 4.16666667,5.33333333 C4.16666667,5.24128588 4.09204745,5.16666667 4,5.16666667 L3.66666667,5.16666667 C3.57461922,5.16666667 3.5,5.24128588 3.5,5.33333333 C3.5,5.42538078 3.57461922,5.5 3.66666667,5.5 Z" id="Shape"></path>
                        <path d="M4.83333333,5.5 L5.16666667,5.5 C5.25871412,5.5 5.33333333,5.42538078 5.33333333,5.33333333 C5.33333333,5.24128588 5.25871412,5.16666667 5.16666667,5.16666667 L4.83333333,5.16666667 C4.74128588,5.16666667 4.66666667,5.24128588 4.66666667,5.33333333 C4.66666667,5.42538078 4.74128588,5.5 4.83333333,5.5 Z" id="Shape"></path>
                        <path d="M3.66666667,4.5 L4,4.5 C4.09204745,4.5 4.16666667,4.42538078 4.16666667,4.33333333 C4.16666667,4.24128588 4.09204745,4.16666667 4,4.16666667 L3.66666667,4.16666667 C3.57461922,4.16666667 3.5,4.24128588 3.5,4.33333333 C3.5,4.42538078 3.57461922,4.5 3.66666667,4.5 Z" id="Shape"></path>
                        <path d="M4.83333333,4.5 L5.16666667,4.5 C5.25871412,4.5 5.33333333,4.42538078 5.33333333,4.33333333 C5.33333333,4.24128588 5.25871412,4.16666667 5.16666667,4.16666667 L4.83333333,4.16666667 C4.74128588,4.16666667 4.66666667,4.24128588 4.66666667,4.33333333 C4.66666667,4.42538078 4.74128588,4.5 4.83333333,4.5 Z" id="Shape"></path>
                        <path d="M6,5.5 L6.33333333,5.5 C6.42538078,5.5 6.5,5.42538078 6.5,5.33333333 C6.5,5.24128588 6.42538078,5.16666667 6.33333333,5.16666667 L6,5.16666667 C5.90795255,5.16666667 5.83333333,5.24128588 5.83333333,5.33333333 C5.83333333,5.42538078 5.90795255,5.5 6,5.5 Z" id="Shape"></path>
                        <path d="M7.16666667,5.5 L7.5,5.5 C7.59204745,5.5 7.66666667,5.42538078 7.66666667,5.33333333 C7.66666667,5.24128588 7.59204745,5.16666667 7.5,5.16666667 L7.16666667,5.16666667 C7.07461922,5.16666667 7,5.24128588 7,5.33333333 C7,5.42538078 7.07461922,5.5 7.16666667,5.5 Z" id="Shape"></path>
                        <path d="M8.33333333,5.5 L8.66666667,5.5 C8.75871412,5.5 8.83333333,5.42538078 8.83333333,5.33333333 C8.83333333,5.24128588 8.75871412,5.16666667 8.66666667,5.16666667 L8.33333333,5.16666667 C8.24128588,5.16666667 8.16666667,5.24128588 8.16666667,5.33333333 C8.16666667,5.42538078 8.24128588,5.5 8.33333333,5.5 Z" id="Shape"></path>
                        <path d="M1.33333333,6.5 L1.66666667,6.5 C1.75871412,6.5 1.83333333,6.42538078 1.83333333,6.33333333 C1.83333333,6.24128588 1.75871412,6.16666667 1.66666667,6.16666667 L1.33333333,6.16666667 C1.24128588,6.16666667 1.16666667,6.24128588 1.16666667,6.33333333 C1.16666667,6.42538078 1.24128588,6.5 1.33333333,6.5 Z" id="Shape"></path>
                        <path d="M2.5,6.5 L2.83333333,6.5 C2.92538078,6.5 3,6.42538078 3,6.33333333 C3,6.24128588 2.92538078,6.16666667 2.83333333,6.16666667 L2.5,6.16666667 C2.40795255,6.16666667 2.33333333,6.24128588 2.33333333,6.33333333 C2.33333333,6.42538078 2.40795255,6.5 2.5,6.5 Z" id="Shape"></path>
                        <path d="M3.66666667,6.5 L4,6.5 C4.09204745,6.5 4.16666667,6.42538078 4.16666667,6.33333333 C4.16666667,6.24128588 4.09204745,6.16666667 4,6.16666667 L3.66666667,6.16666667 C3.57461922,6.16666667 3.5,6.24128588 3.5,6.33333333 C3.5,6.42538078 3.57461922,6.5 3.66666667,6.5 Z" id="Shape"></path>
                        <path d="M4.83333333,6.5 L5.16666667,6.5 C5.25871412,6.5 5.33333333,6.42538078 5.33333333,6.33333333 C5.33333333,6.24128588 5.25871412,6.16666667 5.16666667,6.16666667 L4.83333333,6.16666667 C4.74128588,6.16666667 4.66666667,6.24128588 4.66666667,6.33333333 C4.66666667,6.42538078 4.74128588,6.5 4.83333333,6.5 Z" id="Shape"></path>
                        <path d="M6,6.5 L6.33333333,6.5 C6.42538078,6.5 6.5,6.42538078 6.5,6.33333333 C6.5,6.24128588 6.42538078,6.16666667 6.33333333,6.16666667 L6,6.16666667 C5.90795255,6.16666667 5.83333333,6.24128588 5.83333333,6.33333333 C5.83333333,6.42538078 5.90795255,6.5 6,6.5 Z" id="Shape"></path>
                        <path d="M7.16666667,6.5 L7.5,6.5 C7.59204745,6.5 7.66666667,6.42538078 7.66666667,6.33333333 C7.66666667,6.24128588 7.59204745,6.16666667 7.5,6.16666667 L7.16666667,6.16666667 C7.07461922,6.16666667 7,6.24128588 7,6.33333333 C7,6.42538078 7.07461922,6.5 7.16666667,6.5 Z" id="Shape"></path>
                        <path d="M8.33333333,6.5 L8.66666667,6.5 C8.75871412,6.5 8.83333333,6.42538078 8.83333333,6.33333333 C8.83333333,6.24128588 8.75871412,6.16666667 8.66666667,6.16666667 L8.33333333,6.16666667 C8.24128588,6.16666667 8.16666667,6.24128588 8.16666667,6.33333333 C8.16666667,6.42538078 8.24128588,6.5 8.33333333,6.5 Z" id="Shape"></path>
                        <path d="M1.33333333,7.5 L1.66666667,7.5 C1.75871412,7.5 1.83333333,7.42538078 1.83333333,7.33333333 C1.83333333,7.24128588 1.75871412,7.16666667 1.66666667,7.16666667 L1.33333333,7.16666667 C1.24128588,7.16666667 1.16666667,7.24128588 1.16666667,7.33333333 C1.16666667,7.42538078 1.24128588,7.5 1.33333333,7.5 Z" id="Shape"></path>
                        <path d="M2.5,7.5 L2.83333333,7.5 C2.92538078,7.5 3,7.42538078 3,7.33333333 C3,7.24128588 2.92538078,7.16666667 2.83333333,7.16666667 L2.5,7.16666667 C2.40795255,7.16666667 2.33333333,7.24128588 2.33333333,7.33333333 C2.33333333,7.42538078 2.40795255,7.5 2.5,7.5 Z" id="Shape"></path>
                        <path d="M3.66666667,7.5 L4,7.5 C4.09204745,7.5 4.16666667,7.42538078 4.16666667,7.33333333 C4.16666667,7.24128588 4.09204745,7.16666667 4,7.16666667 L3.66666667,7.16666667 C3.57461922,7.16666667 3.5,7.24128588 3.5,7.33333333 C3.5,7.42538078 3.57461922,7.5 3.66666667,7.5 Z" id="Shape"></path>
                        <path d="M4.83333333,7.5 L5.16666667,7.5 C5.25871412,7.5 5.33333333,7.42538078 5.33333333,7.33333333 C5.33333333,7.24128588 5.25871412,7.16666667 5.16666667,7.16666667 L4.83333333,7.16666667 C4.74128588,7.16666667 4.66666667,7.24128588 4.66666667,7.33333333 C4.66666667,7.42538078 4.74128588,7.5 4.83333333,7.5 Z" id="Shape"></path>
                        <path d="M1.33333333,8.5 L1.66666667,8.5 C1.75871412,8.5 1.83333333,8.42538078 1.83333333,8.33333333 C1.83333333,8.24128588 1.75871412,8.16666667 1.66666667,8.16666667 L1.33333333,8.16666667 C1.24128588,8.16666667 1.16666667,8.24128588 1.16666667,8.33333333 C1.16666667,8.42538078 1.24128588,8.5 1.33333333,8.5 Z" id="Shape"></path>
                        <path d="M2.5,8.5 L2.83333333,8.5 C2.92538078,8.5 3,8.42538078 3,8.33333333 C3,8.24128588 2.92538078,8.16666667 2.83333333,8.16666667 L2.5,8.16666667 C2.40795255,8.16666667 2.33333333,8.24128588 2.33333333,8.33333333 C2.33333333,8.42538078 2.40795255,8.5 2.5,8.5 Z" id="Shape"></path>
                        <path d="M3.66666667,8.5 L4,8.5 C4.09204745,8.5 4.16666667,8.42538078 4.16666667,8.33333333 C4.16666667,8.24128588 4.09204745,8.16666667 4,8.16666667 L3.66666667,8.16666667 C3.57461922,8.16666667 3.5,8.24128588 3.5,8.33333333 C3.5,8.42538078 3.57461922,8.5 3.66666667,8.5 Z" id="Shape"></path>
                        <path d="M4.83333333,8.5 L5.16666667,8.5 C5.25871412,8.5 5.33333333,8.42538078 5.33333333,8.33333333 C5.33333333,8.24128588 5.25871412,8.16666667 5.16666667,8.16666667 L4.83333333,8.16666667 C4.74128588,8.16666667 4.66666667,8.24128588 4.66666667,8.33333333 C4.66666667,8.42538078 4.74128588,8.5 4.83333333,8.5 Z" id="Shape"></path>
                        <path d="M6,7.5 L6.33333333,7.5 C6.42538078,7.5 6.5,7.42538078 6.5,7.33333333 C6.5,7.24128588 6.42538078,7.16666667 6.33333333,7.16666667 L6,7.16666667 C5.90795255,7.16666667 5.83333333,7.24128588 5.83333333,7.33333333 C5.83333333,7.42538078 5.90795255,7.5 6,7.5 Z" id="Shape"></path>
                        <path d="M7.16666667,7.5 L7.5,7.5 C7.59204745,7.5 7.66666667,7.42538078 7.66666667,7.33333333 C7.66666667,7.24128588 7.59204745,7.16666667 7.5,7.16666667 L7.16666667,7.16666667 C7.07461922,7.16666667 7,7.24128588 7,7.33333333 C7,7.42538078 7.07461922,7.5 7.16666667,7.5 Z" id="Shape"></path>
                        <path d="M8.33333333,7.5 L8.66666667,7.5 C8.75871412,7.5 8.83333333,7.42538078 8.83333333,7.33333333 C8.83333333,7.24128588 8.75871412,7.16666667 8.66666667,7.16666667 L8.33333333,7.16666667 C8.24128588,7.16666667 8.16666667,7.24128588 8.16666667,7.33333333 C8.16666667,7.42538078 8.24128588,7.5 8.33333333,7.5 Z" id="Shape"></path>
                        <path d="M6.33333333,9.16666667 C6.33333333,9.25871412 6.40795255,9.33333333 6.5,9.33333333 L7.66666667,9.33333333 C7.75871412,9.33333333 7.83333333,9.25871412 7.83333333,9.16666667 C7.83333333,9.07461922 7.75871412,9 7.66666667,9 L6.5,9 C6.40795255,9 6.33333333,9.07461922 6.33333333,9.16666667 Z" id="Shape"></path>
                        <path d="M8.33333333,9.33333333 L8.66666667,9.33333333 C8.75871412,9.33333333 8.83333333,9.25871412 8.83333333,9.16666667 C8.83333333,9.07461922 8.75871412,9 8.66666667,9 L8.33333333,9 C8.24128588,9 8.16666667,9.07461922 8.16666667,9.16666667 C8.16666667,9.25871412 8.24128588,9.33333333 8.33333333,9.33333333 Z" id="Shape"></path>
                    </g>
                </g>
            </g>
        </g>
    </g>
</svg>