<?xml version="1.0" encoding="UTF-8"?>
<svg width="22px" height="18px" viewBox="0 0 22 18" version="1.1" xmlns="http://www.w3.org/2000/svg" xmlns:xlink="http://www.w3.org/1999/xlink">
    <!-- Generator: Sketch 61.2 (89653) - https://sketch.com -->
    <title>Group 11</title>
    <desc>Created with Sketch.</desc>
    <g id="Page-1" stroke="none" stroke-width="1" fill="none" fill-rule="evenodd">
        <g id="Loan-" transform="translate(-277.000000, -507.000000)" fill-rule="nonzero">
            <g id="Group-11" transform="translate(277.000000, 507.000000)">
                <g id="folder-icon-copy" fill="#FFFFFF">
                    <g id="Group-22">
                        <g id="Group-21">
                            <path d="M18.9384615,2.25 L13.7464615,2.25 C13.4558697,2.2487573 13.1773964,2.13158718 12.9710769,1.92375 L11.3981538,0.32625 C11.1918344,0.118412816 10.9133611,0.00124269924 10.6227692,0 L2.21538462,0 C0.991861477,0 0,1.00735931 0,2.25 L0,15.75 C0,16.9926407 0.991861477,18 2.21538462,18 L18.9384615,18 C20.1619847,18 21.1538462,16.9926407 21.1538462,15.75 L21.1538462,4.5 C21.1538462,3.25735931 20.1619847,2.25 18.9384615,2.25 Z" id="folder"></path>
                        </g>
                    </g>
                </g>
                <g id="cash-copy" transform="translate(5.000000, 6.000000)">
                    <path d="M9.12233333,0.220836888 L8.22233333,0.653602305 C7.2008814,1.14488351 6.02145193,1.14488351 5,0.653602305 C3.97851257,0.162486701 2.7991541,0.162486701 1.77766667,0.653602305 L0.455666667,1.28932334 C0.27943215,1.37405158 0.166666667,1.55660008 0.166666667,1.75737791 L0.166666667,6.29883266 C0.166666667,6.47525077 0.253835868,6.63946907 0.397858132,6.73431447 C0.541880397,6.82915984 0.722814118,6.84150781 0.877666667,6.76705937 L1.77766667,6.33429395 C2.7991541,5.84317834 3.97851257,5.84317834 5,6.33429395 C6.02140512,6.8255217 7.20076155,6.8255217 8.22216667,6.33429395 L9.54433333,5.69857291 C9.7206225,5.61381839 9.83333333,5.4311863 9.83333333,5.23034621 L9.83333333,0.689063593 C9.83333333,0.512645482 9.74616413,0.348427181 9.60214187,0.253581794 C9.4581196,0.158736407 9.27718588,0.146388444 9.12233333,0.220836888 Z" id="Shape" fill="#E8EDFC"></path>
                    <ellipse id="Oval" fill="#A4C2F7" cx="1.33333333" cy="2.28895293" rx="1" ry="1"></ellipse>
                    <ellipse id="Oval" fill="#A4C2F7" cx="8.66666667" cy="4.69894332" rx="1" ry="1"></ellipse>
                    <path d="M9.12233333,0.220836888 L9.0785,0.241838232 C9.23595353,0.331863599 9.33357262,0.503182349 9.33333333,0.689063593 L9.33333333,5.23034621 C9.3333471,5.4311863 9.2206225,5.61381839 9.04433333,5.69857291 L7.72216667,6.33429395 C7.29390583,6.53987 6.83242522,6.66156947 6.36116667,6.69321037 C7.00083967,6.73689713 7.64086182,6.61346109 8.22216667,6.33429395 L9.54433333,5.69857291 C9.7206225,5.61381839 9.83333333,5.4311863 9.83333333,5.23034621 L9.83333333,0.689063593 C9.83333333,0.512645482 9.74616413,0.348427181 9.60214187,0.253581794 C9.4581196,0.158736407 9.27718588,0.146388444 9.12233333,0.220836888 Z" id="Shape" fill="#CAD9FC"></path>
                    <path d="M0.877666667,6.76705937 L0.921333333,6.74588588 C0.763944622,6.65590023 0.666382898,6.48463603 0.666666667,6.29883266 L0.666666667,1.75737791 C0.666717697,1.55660008 0.77943215,1.37405158 0.955666667,1.28932334 L2.27783333,0.653602305 C2.70606548,0.447943186 3.1675614,0.326239685 3.63883333,0.294685879 C2.9991552,0.2509097 2.35911172,0.37434985 1.77783333,0.653602305 L0.455666667,1.28932334 C0.27943215,1.37405158 0.166717697,1.55660008 0.166666667,1.75737791 L0.166666667,6.29883266 C0.166666667,6.47525077 0.253835868,6.63946907 0.397858132,6.73431447 C0.541880397,6.82915984 0.722814118,6.84150781 0.877666667,6.76705937 Z" id="Shape" fill="#FFFFFF"></path>
                    <polygon id="Rectangle-path" fill="#FFFFFF" points="0 4.92169529 0.333333333 4.92169529 0.333333333 6.29883266 0 6.29883266"></polygon>
                    <g id="Group" fill="#428DFF">
                        <ellipse id="Oval" cx="0.166666667" cy="5.61026398" rx="1" ry="1"></ellipse>
                        <path d="M9.69166667,0.10842805 C9.49983028,-0.0185727528 9.25831738,-0.0350162567 9.052,0.0648760807 L8.152,0.497641499 C7.17529243,0.968195423 6.0470409,0.968195423 5.07033333,0.497641499 C4.00466253,-0.0165437354 2.7731708,-0.0165437354 1.7075,0.497641499 L0.385333333,1.13319039 C0.15065666,1.24657833 0.000518533333,1.48978164 -2.15833138e-06,1.75737791 L-2.15833138e-06,4.92169529 C-2.15833138e-06,5.01676678 0.0746192083,5.09383746 0.166666667,5.09383746 C0.258714125,5.09383746 0.333333333,5.01676678 0.333333333,4.92169529 L0.333333333,1.75755005 C0.333674427,1.62377668 0.40871792,1.50221644 0.526,1.44545629 L1.848,0.809735255 C2.82469228,0.339110094 3.95297438,0.339110094 4.92966667,0.809735255 C5.99539373,1.32365872 7.22677293,1.32365872 8.2925,0.809735255 L9.1925,0.377141979 C9.29571483,0.327447824 9.41634967,0.335615298 9.51240055,0.398800561 C9.60845143,0.461985825 9.66662533,0.571444316 9.66666667,0.689063593 L9.66666667,5.23034621 C9.66632557,5.36411957 9.59128208,5.48567982 9.474,5.54243996 L8.152,6.17833314 C7.17527205,6.64879212 6.04706128,6.64879212 5.07033333,6.17833314 C4.00464718,5.66421932 2.77318615,5.66421932 1.7075,6.17833314 L0.8075,6.61092642 C0.704258337,6.66063348 0.58358973,6.65244807 0.487529187,6.58922158 C0.391468643,6.52599508 0.333317718,6.4164825 0.333333333,6.29883266 C0.333333333,6.20376117 0.258714125,6.12669049 0.166666667,6.12669049 C0.0746192083,6.12669049 -2.15833138e-06,6.20376117 -2.15833138e-06,6.29883266 C-0.000579398333,6.53424875 0.11552828,6.75359547 0.307715732,6.88015887 C0.499903183,7.00672227 0.741433143,7.02289475 0.947833333,6.92302017 L1.84783333,6.49025476 C2.82452562,6.01962959 3.95280772,6.01962959 4.9295,6.49025476 C5.9952424,7.00410688 7.22659093,7.00410688 8.29233333,6.49025476 L9.6145,5.85453372 C9.84924167,5.74119576 9.99945115,5.49798204 9.99999784,5.23034621 L9.99999784,0.689063593 C10.0006571,0.453651959 9.88422132,0.234386723 9.69166667,0.10842805 Z" id="Shape"></path>
                        <path d="M2.698,5.46635312 C2.90834458,5.42457052 3.12182522,5.40187598 3.336,5.39852911 C3.4279204,5.39701935 3.50129867,5.31891972 3.5,5.22397695 C3.49492548,5.13063843 3.42147623,5.05687098 3.331,5.05424476 C3.09741925,5.05794259 2.86459452,5.08265235 2.63516667,5.12809376 C2.57666443,5.13965584 2.52857823,5.1825756 2.50902167,5.24068555 C2.48946512,5.29879549 2.50140932,5.36326737 2.540355,5.40981523 C2.5793007,5.45636309 2.6393311,5.47791521 2.69783333,5.46635312 L2.698,5.46635312 Z" id="Shape"></path>
                        <path d="M1.70733333,5.43915466 L0.807333333,5.87192008 C0.73658794,5.90605757 0.698273613,5.98634943 0.715153407,6.06509318 C0.732033198,6.14383692 0.799581378,6.19992015 0.877666667,6.2000232 C0.90192642,6.20005587 0.925891078,6.19452931 0.947833333,6.18384169 L1.84783333,5.75107627 C1.90336045,5.72610146 1.94140042,5.67198097 1.94719313,5.60971445 C1.95298587,5.5474479 1.92561955,5.48683623 1.87571277,5.4513977 C1.82580598,5.41595919 1.76121418,5.41127193 1.707,5.43915466 L1.70733333,5.43915466 Z" id="Shape"></path>
                        <path d="M6.84,1.89096023 C7.07552107,1.87680317 7.3093728,1.84120378 7.53883333,1.78457637 C7.59674013,1.77024676 7.64284663,1.72509782 7.65978495,1.66613672 C7.67672327,1.60717562 7.66192008,1.54335995 7.62095162,1.49872845 C7.57998315,1.45409696 7.51907347,1.43543024 7.46116667,1.44975985 C7.2508805,1.50175858 7.03653842,1.53436417 6.82066667,1.54719232 C6.72861922,1.54990186 6.65612665,1.62916905 6.65875,1.72424054 C6.66137337,1.81931203 6.73811922,1.89418619 6.83016667,1.89147666 L6.84,1.89096023 Z" id="Shape"></path>
                        <path d="M8.22233333,1.52946169 C8.24664448,1.52947439 8.2706592,1.5239494 8.29266667,1.51328031 L9.19266667,1.08034275 C9.24864202,1.05569232 9.28716125,1.00149272 9.29315467,0.938948198 C9.29914808,0.876403674 9.27166295,0.815456694 9.22145213,0.779951249 C9.1712413,0.744445804 9.10628663,0.74002606 9.052,0.768421134 L8.152,1.20135869 C8.08122648,1.23550992 8.04291373,1.31584933 8.05983838,1.39461571 C8.07676305,1.47338208 8.14438355,1.52943927 8.2225,1.52946169 L8.22233333,1.52946169 Z" id="Shape"></path>
                        <path d="M5,4.52680115 C4.90795255,4.52680115 4.83333333,4.60387184 4.83333333,4.69894332 L4.83333333,5.02928415 C4.4535,4.96524726 4.16666667,4.68723766 4.16666667,4.35465898 C4.16666667,4.25958749 4.09204745,4.18251681 4,4.18251681 C3.90795255,4.18251681 3.83333333,4.25958749 3.83333333,4.35465898 C3.83333333,4.87401191 4.26883333,5.30367877 4.83333333,5.37580634 L4.83333333,5.55965418 C4.83333333,5.65472567 4.90795255,5.73179635 5,5.73179635 C5.09204745,5.73179635 5.16666667,5.65472567 5.16666667,5.55965418 L5.16666667,5.37580634 C5.73116667,5.30367877 6.16666667,4.87401191 6.16666667,4.35465898 C6.16666667,3.83530605 5.73116667,3.40563919 5.16666667,3.33351162 L5.16666667,3.14966378 C5.16666667,3.0545923 5.09204745,2.97752161 5,2.97752161 C4.90795255,2.97752161 4.83333333,3.0545923 4.83333333,3.14966378 L4.83333333,3.30786244 C4.4535,3.24382555 4.16666667,2.96581595 4.16666667,2.63323727 C4.16666667,2.3006586 4.4535,2.02264899 4.83333333,1.9586121 L4.83333333,2.28895293 C4.83333333,2.38402442 4.90795255,2.4610951 5,2.4610951 C5.09204745,2.4610951 5.16666667,2.38402442 5.16666667,2.28895293 L5.16666667,1.9586121 C5.5465,2.02264899 5.83333333,2.3006586 5.83333333,2.63323727 C5.83333333,2.72830876 5.90795255,2.80537944 6,2.80537944 C6.09204745,2.80537944 6.16666667,2.72830876 6.16666667,2.63323727 C6.16666667,2.11388434 5.73116667,1.68421748 5.16666667,1.61208991 L5.16666667,1.42824207 C5.16666667,1.33317058 5.09204745,1.2560999 5,1.2560999 C4.90795255,1.2560999 4.83333333,1.33317058 4.83333333,1.42824207 L4.83333333,1.61208991 C4.26883333,1.68421748 3.83333333,2.11388434 3.83333333,2.63323727 C3.83333333,3.1525902 4.26883333,3.58225706 4.83333333,3.65438463 L4.83333333,3.6660903 C4.83148225,3.75916018 4.9020751,3.83664886 4.99213045,3.84039943 C5.08218582,3.84414999 5.15858997,3.77278334 5.164,3.67986167 C5.54516667,3.74286571 5.83333333,4.0212196 5.83333333,4.35465898 C5.83333333,4.68809837 5.5465,4.96524726 5.16666667,5.02928415 L5.16666667,4.69894332 C5.16666667,4.60387184 5.09204745,4.52680115 5,4.52680115 L5,4.52680115 Z" id="Shape"></path>
                        <path d="M2,2.28895293 C2,1.90866695 1.70152317,1.60038425 1.33333333,1.60038425 C0.9651435,1.60038425 0.666666667,1.90866695 0.666666667,2.28895293 C0.666666667,2.66923891 0.9651435,2.97752161 1.33333333,2.97752161 C1.42538079,2.97752161 1.5,2.90045093 1.5,2.80537944 C1.5,2.71030796 1.42538079,2.63323727 1.33333333,2.63323727 C1.14923842,2.63323727 1,2.47909592 1,2.28895293 C1,2.09880994 1.14923842,1.94466859 1.33333333,1.94466859 C1.51742825,1.94466859 1.66666667,2.09880994 1.66666667,2.28895293 C1.66666667,2.38402442 1.74128588,2.4610951 1.83333333,2.4610951 C1.92538078,2.4610951 2,2.38402442 2,2.28895293 Z" id="Shape"></path>
                        <path d="M8.66666667,5.38751201 C8.75871412,5.38751201 8.83333333,5.31044132 8.83333333,5.21536984 C8.83333333,5.12029835 8.75871412,5.04322767 8.66666667,5.04322767 C8.48257175,5.04322767 8.33333333,4.88908632 8.33333333,4.69894332 C8.33333333,4.50880033 8.48257175,4.35465898 8.66666667,4.35465898 C8.85076158,4.35465898 9,4.50880033 9,4.69894332 C9,4.79401481 9.07461922,4.87108549 9.16666667,4.87108549 C9.25871412,4.87108549 9.33333333,4.79401481 9.33333333,4.69894332 C9.33333333,4.31865734 9.0348565,4.01037464 8.66666667,4.01037464 C8.29847683,4.01037464 8,4.31865734 8,4.69894332 C8,5.07922931 8.29847683,5.38751201 8.66666667,5.38751201 Z" id="Shape"></path>
                    </g>
                </g>
            </g>
        </g>
    </g>
</svg>