<?xml version="1.0" encoding="UTF-8"?>
<svg width="14px" height="15px" viewBox="0 0 14 15" version="1.1" xmlns="http://www.w3.org/2000/svg" xmlns:xlink="http://www.w3.org/1999/xlink">
    <!-- Generator: Sketch 61.2 (89653) - https://sketch.com -->
    <title>Group</title>
    <desc>Created with Sketch.</desc>
    <g id="Page-1" stroke="none" stroke-width="1" fill="none" fill-rule="evenodd">
        <g id="History" transform="translate(-1327.000000, -159.000000)">
            <g id="Group" transform="translate(1327.000000, 159.000000)">
                <path d="M9.28114932,12.7076923 C9.21529127,13.8739679 8.2191683,14.8 7,14.8 C5.7808317,14.8 4.78470873,13.8739679 4.71885068,12.7076923 L1.92558827,12.7076923 C1.08307962,12.7076923 0.4,12.0468054 0.4,11.2307692 C0.4,10.4158395 1.08250702,9.75384615 1.92360667,9.75384615 C1.92261865,9.75384615 1.92307692,6.79981524 1.92307692,6.79981524 C1.92307692,4.71916113 3.2648687,2.89494314 5.22307692,2.18677708 L5.22307692,2.12190853 C5.22307692,1.1712112 6.01976216,0.4 7,0.4 C7.9812894,0.4 8.77692308,1.1707471 8.77692308,2.12190853 L8.77692308,2.18681812 C10.735083,2.89507845 12.0769231,4.71959936 12.0769231,6.79981524 L12.0769231,9.75341703 C12.916238,9.75384615 13.6,10.4155826 13.6,11.2307692 C13.6,12.0459139 12.9163837,12.7076923 12.0744117,12.7076923 L9.28114932,12.7076923 Z M8.26296392,12.7076923 L5.73703608,12.7076923 C5.80071649,13.3296397 6.34185965,13.8153846 7,13.8153846 C7.65814035,13.8153846 8.19928351,13.3296397 8.26296392,12.7076923 Z M5.87146737,3.01534693 C4.14773121,3.49745822 2.93846154,5.03317258 2.93846154,6.79981524 L2.93846154,9.75341703 C2.93846154,10.2970542 2.48353986,10.7384615 1.92360667,10.7384615 C1.64334628,10.7384615 1.41538462,10.9595715 1.41538462,11.2307692 C1.41538462,11.5025192 1.64334869,11.7230769 1.92558827,11.7230769 L12.0744117,11.7230769 C12.355987,11.7230769 12.5846154,11.501752 12.5846154,11.2307692 C12.5846154,10.9598056 12.3559041,10.7384615 12.0763933,10.7384615 C11.5153501,10.7384615 11.0615385,10.2986154 11.0615385,9.75341703 L11.0615385,6.79981524 C11.0615385,5.03360322 9.85217723,3.49752935 8.12851288,3.0153649 L7.76153846,2.91271033 L7.76153846,2.12190853 C7.76153846,1.71475722 7.4207367,1.38461538 7,1.38461538 C6.58015171,1.38461538 6.23846154,1.71538001 6.23846154,2.12190853 L6.23846154,2.91270245 L5.87146737,3.01534693 Z" id="Shape" fill="#333539" fill-rule="nonzero"></path>
                <circle id="Oval" stroke="#F4F7FC" stroke-width="1.08333333" fill="#E8523F" cx="10.777525" cy="3.677525" r="1.877525"></circle>
            </g>
        </g>
    </g>
</svg>