<?xml version="1.0" encoding="UTF-8"?>
<svg width="15px" height="16px" viewBox="0 0 15 16" version="1.1" xmlns="http://www.w3.org/2000/svg" xmlns:xlink="http://www.w3.org/1999/xlink">
    <!-- Generator: Sketch 61.2 (89653) - https://sketch.com -->
    <title>Group 29</title>
    <desc>Created with Sketch.</desc>
    <g id="Page-1" stroke="none" stroke-width="1" fill="none" fill-rule="evenodd">
        <g id="Home" transform="translate(-876.000000, -869.000000)">
            <g id="Group-29" transform="translate(875.010309, 868.000000)">
                <rect id="Rectangle" x="0" y="0" width="16.9793814" height="18"></rect>
                <path d="M8.53994845,2 C8.81609083,2 9.03994845,2.22385763 9.03994845,2.5 L9.03959794,8.416 L14.5927835,8.41666667 C14.8689259,8.41666667 15.0927835,8.64052429 15.0927835,8.91666667 L15.0927835,9.08333333 C15.0927835,9.35947571 14.8689259,9.58333333 14.5927835,9.58333333 L9.03959794,9.583 L9.03994845,15.5 C9.03994845,15.7761424 8.81609083,16 8.53994845,16 L8.43943299,16 C8.16329061,16 7.93943299,15.7761424 7.93943299,15.5 L7.93859794,9.583 L2.38659794,9.58333333 C2.11045556,9.58333333 1.88659794,9.35947571 1.88659794,9.08333333 L1.88659794,8.91666667 C1.88659794,8.64052429 2.11045556,8.41666667 2.38659794,8.41666667 L7.93859794,8.416 L7.93943299,2.5 C7.93943299,2.22385763 8.16329061,2 8.43943299,2 L8.53994845,2 Z" id="Combined-Shape" stroke="#FFFFFF" stroke-width="0.3" fill="#FFFFFF"></path>
            </g>
        </g>
    </g>
</svg>