<?xml version="1.0" encoding="UTF-8"?>
<svg width="36px" height="36px" viewBox="0 0 36 36" version="1.1" xmlns="http://www.w3.org/2000/svg" xmlns:xlink="http://www.w3.org/1999/xlink">
    <!-- Generator: Sketch 61.2 (89653) - https://sketch.com -->
    <title>Group 25</title>
    <desc>Created with Sketch.</desc>
    <g id="Page-1" stroke="none" stroke-width="1" fill="none" fill-rule="evenodd">
        <g id="Home" transform="translate(-265.000000, -488.000000)">
            <g id="Group-25" transform="translate(265.000000, 488.000000)">
                <g id="folder-icon">
                    <g id="Group-22">
                        <rect id="Rectangle" fill="#FFA395" opacity="0.445800781" x="0" y="0" width="36" height="36" rx="10"></rect>
                        <g id="Group-21" transform="translate(7.000000, 9.000000)" fill="#FFFFFF" fill-rule="nonzero">
                            <path d="M18.9384615,2.25 L13.7464615,2.25 C13.4558697,2.2487573 13.1773964,2.13158718 12.9710769,1.92375 L11.3981538,0.32625 C11.1918344,0.118412816 10.9133611,0.00124269924 10.6227692,0 L2.21538462,0 C0.991861477,0 0,1.00735931 0,2.25 L0,15.75 C0,16.9926407 0.991861477,18 2.21538462,18 L18.9384615,18 C20.1619847,18 21.1538462,16.9926407 21.1538462,15.75 L21.1538462,4.5 C21.1538462,3.25735931 20.1619847,2.25 18.9384615,2.25 Z" id="folder"></path>
                        </g>
                    </g>
                </g>
                <g id="history" transform="translate(13.000000, 14.000000)" fill-rule="nonzero">
                    <path d="M10,4.98046875 C10,7.72851562 7.74804688,10 5,10 C2.25195312,10 0,7.72851562 0,4.98046875 C0,3.65625 0.539042969,2.39060547 1.46484375,1.46484375 L1.02539062,1.46484375 C0.861308594,1.46484375 0.732421875,1.33591797 0.732421875,1.171875 C0.732421875,1.00779297 0.861308594,0.87890625 1.02539062,0.87890625 L2.19726562,0.87890625 C2.36134766,0.87890625 2.49023438,1.00779297 2.49023438,1.171875 L2.49023438,2.34375 C2.49023438,2.50779297 2.36134766,2.63671875 2.19726562,2.63671875 C2.03318359,2.63671875 1.90429688,2.50779297 1.90429688,2.34375 L1.90429688,1.85154297 C1.07228516,2.671875 0.5859375,3.80273438 0.5859375,4.98046875 C0.5859375,7.40625 2.57421875,9.4140625 5,9.4140625 C7.42578125,9.4140625 9.4140625,7.40625 9.4140625,4.98046875 C9.4140625,2.5546875 7.42578125,0.5859375 5,0.5859375 C4.83591797,0.5859375 4.70703125,0.457011719 4.70703125,0.29296875 C4.70703125,0.128886719 4.83591797,0 5,0 C7.74804688,0 10,2.23242188 10,4.98046875 Z" id="Path" fill="#E8523F"></path>
                    <path d="M7.63671875,4.98046875 C7.63671875,5.70703125 7.34375,6.36914063 6.86328125,6.84375 C6.38867188,7.32421875 5.7265625,7.6171875 5,7.6171875 C3.54101562,7.6171875 2.34375,6.43945312 2.34375,4.98046875 C2.34375,4.25390625 2.63671875,3.59179688 3.1171875,3.1171875 C3.59179688,2.63671875 4.2734375,2.34375 5,2.34375 C5.7265625,2.34375 6.38867188,2.63671875 6.86328125,3.1171875 C7.34375,3.59179688 7.63671875,4.25390625 7.63671875,4.98046875 Z" id="Path" fill="#EAA096"></path>
                    <path d="M7.63671875,4.98046875 C7.63671875,5.70703125 7.34375,6.36914063 6.86328125,6.84375 C6.38867188,7.32421875 5.7265625,7.6171875 5,7.6171875 L5,2.34375 C5.7265625,2.34375 6.38867188,2.63671875 6.86328125,3.1171875 C7.34375,3.59179688 7.63671875,4.25390625 7.63671875,4.98046875 Z" id="Path" fill="#F27664"></path>
                    <g id="Group" transform="translate(1.757812, 1.757812)" fill="#FFFFFF">
                        <path d="M3.53515625,0.29296875 L3.53515625,0.87890625 C3.53515625,1.04294922 3.40626953,1.171875 3.2421875,1.171875 C3.07810547,1.171875 2.94921875,1.04294922 2.94921875,0.87890625 L2.94921875,0.29296875 C2.94921875,0.128886719 3.07810547,0 3.2421875,0 C3.40626953,0 3.53515625,0.128886719 3.53515625,0.29296875 Z" id="Path"></path>
                        <path d="M3.53515625,5.56640625 L3.53515625,6.15234375 C3.53515625,6.31638672 3.40626953,6.4453125 3.2421875,6.4453125 C3.07810547,6.4453125 2.94921875,6.31638672 2.94921875,6.15234375 L2.94921875,5.56640625 C2.94921875,5.40232422 3.07810547,5.2734375 3.2421875,5.2734375 C3.40626953,5.2734375 3.53515625,5.40232422 3.53515625,5.56640625 Z" id="Path"></path>
                        <path d="M0.87890625,3.515625 L0.29296875,3.515625 C0.131035156,3.515625 0,3.38458984 0,3.22265625 C0,3.06072266 0.131035156,2.9296875 0.29296875,2.9296875 L0.87890625,2.9296875 C1.04083984,2.9296875 1.171875,3.06072266 1.171875,3.22265625 C1.171875,3.38458984 1.04083984,3.515625 0.87890625,3.515625 Z" id="Path"></path>
                    </g>
                    <path d="M7.9296875,5.2734375 L7.34375,5.2734375 C7.18181641,5.2734375 7.05078125,5.14240234 7.05078125,4.98046875 C7.05078125,4.81853516 7.18181641,4.6875 7.34375,4.6875 L7.9296875,4.6875 C8.09162109,4.6875 8.22265625,4.81853516 8.22265625,4.98046875 C8.22265625,5.14240234 8.09162109,5.2734375 7.9296875,5.2734375 Z" id="Path" fill="#FFFFFF"></path>
                    <path d="M2.70166016,7.25927734 C2.58722656,7.14484375 2.58722656,6.95943359 2.70166016,6.845 L3.1159375,6.43072266 C3.23037109,6.31628906 3.41578125,6.31628906 3.53021484,6.43072266 C3.64464844,6.54515625 3.64464844,6.73056641 3.53021484,6.845 L3.1159375,7.25927734 C3.00150391,7.37371094 2.81611328,7.37371094 2.70166016,7.25927734 Z" id="Path" fill="#FFFFFF"></path>
                    <g id="Group" transform="translate(6.347656, 2.597656)" fill="#FFFFFF">
                        <path d="M0.102597656,0.932558594 C-0.0118359375,0.818125 -0.0118359375,0.632714844 0.102597656,0.51828125 L0.516875,0.104003906 C0.631308594,-0.0104296875 0.81671875,-0.0104296875 0.931152344,0.104003906 C1.04558594,0.2184375 1.04558594,0.403847656 0.931152344,0.51828125 L0.516875,0.932558594 C0.402421875,1.04701172 0.21703125,1.04701172 0.102597656,0.932558594 Z" id="Path"></path>
                        <path d="M0.516875,4.66162109 L0.102597656,4.24734375 C-0.0118359375,4.13291016 -0.0118359375,3.9475 0.102597656,3.83306641 C0.21703125,3.71863281 0.402441406,3.71863281 0.516875,3.83306641 L0.931152344,4.24734375 C1.04558594,4.36177734 1.04558594,4.5471875 0.931152344,4.66162109 C0.816699219,4.77605469 0.631308594,4.77605469 0.516875,4.66162109 Z" id="Path"></path>
                    </g>
                    <path d="M3.1159375,3.53021484 L2.70166016,3.1159375 C2.58722656,3.00150391 2.58722656,2.81609375 2.70166016,2.70166016 C2.81609375,2.58722656 3.00150391,2.58722656 3.1159375,2.70166016 L3.53021484,3.1159375 C3.64464844,3.23037109 3.64464844,3.41578125 3.53021484,3.53021484 C3.41578125,3.64466797 3.23039062,3.64466797 3.1159375,3.53021484 Z" id="Path" fill="#FFFFFF"></path>
                    <g id="Group" transform="translate(5.000000, 1.757812)" fill="#FFFFFF">
                        <path d="M1,5.56640625 L1,6.15234375 C1,6.31638672 0.560066667,6.4453125 0,6.4453125 L0,5.2734375 C0.560066667,5.2734375 1,5.40232422 1,5.56640625 Z" id="Path"></path>
                        <path d="M1,0.29296875 L1,0.87890625 C1,1.04294922 0.560066667,1.171875 0,1.171875 L0,0 C0.560066667,0 1,0.128886719 1,0.29296875 Z" id="Path"></path>
                    </g>
                    <path d="M5.79099609,5.77146484 C5.68556641,5.88869141 5.48630859,5.88869141 5.38085937,5.77146484 L5,5.390625 L4.79494141,5.18552734 C4.73632812,5.1328125 4.70703125,5.05664062 4.70703125,4.98046875 L4.70703125,3.80859375 C4.70703125,3.64451172 4.83591797,3.515625 5,3.515625 C5.16408203,3.515625 5.29296875,3.64451172 5.29296875,3.80859375 L5.29296875,4.85740234 L5.79099609,5.36130859 C5.90820312,5.47263672 5.90820312,5.66013672 5.79099609,5.77146484 Z" id="Path" fill="#E1E4FB"></path>
                    <path d="M5.79099609,5.77146484 C5.68556641,5.88869141 5.48630859,5.88869141 5.38085937,5.77146484 L5,5.390625 L5,3.515625 C5.16408203,3.515625 5.29296875,3.64451172 5.29296875,3.80859375 L5.29296875,4.85740234 L5.79099609,5.36130859 C5.90820312,5.47263672 5.90820312,5.66013672 5.79099609,5.77146484 Z" id="Path" fill="#FFFFFF"></path>
                    <path d="M10,4.98046875 C10,7.72851562 7.74804688,10 5,10 L5,9.4140625 C7.42578125,9.4140625 9.4140625,7.40625 9.4140625,4.98046875 C9.4140625,2.5546875 7.42578125,0.5859375 5,0.5859375 L5,0 C7.74804688,0 10,2.23242188 10,4.98046875 Z" id="Path" fill="#E8523F"></path>
                    <path d="M5,1.7578125 C3.22458984,1.7578125 1.7578125,3.20505859 1.7578125,4.98046875 C1.7578125,6.75583984 3.22458984,8.203125 5,8.203125 C6.77541016,8.203125 8.22265625,6.75583984 8.22265625,4.98046875 C8.22265625,3.20505859 6.77541016,1.7578125 5,1.7578125 Z M5,7.6171875 C3.54603516,7.6171875 2.34375,6.43443359 2.34375,4.98046875 C2.34375,3.52650391 3.54603516,2.34375 5,2.34375 C6.45396484,2.34375 7.63671875,3.52650391 7.63671875,4.98046875 C7.63671875,6.43443359 6.45396484,7.6171875 5,7.6171875 Z" id="Shape" fill="#E8523F"></path>
                    <path d="M5,1.7578125 L5,2.34375 C6.45396484,2.34375 7.63671875,3.52650391 7.63671875,4.98046875 C7.63671875,6.43443359 6.45396484,7.6171875 5,7.6171875 L5,8.203125 C6.77541016,8.203125 8.22265625,6.75583984 8.22265625,4.98046875 C8.22265625,3.20505859 6.77541016,1.7578125 5,1.7578125 Z" id="Path" fill="#E8523F"></path>
                </g>
            </g>
        </g>
    </g>
</svg>