<?xml version="1.0" encoding="UTF-8"?>
<svg width="36px" height="36px" viewBox="0 0 36 36" version="1.1" xmlns="http://www.w3.org/2000/svg" xmlns:xlink="http://www.w3.org/1999/xlink">
    <!-- Generator: Sketch 61.2 (89653) - https://sketch.com -->
    <title>Group 25</title>
    <desc>Created with Sketch.</desc>
    <g id="Page-1" stroke="none" stroke-width="1" fill="none" fill-rule="evenodd">
        <g id="Referral" transform="translate(-660.000000, -497.000000)">
            <g id="Group-25" transform="translate(660.000000, 497.000000)">
                <g id="folder-icon">
                    <g id="Group-22">
                        <rect id="Rectangle" fill="#041E8B" opacity="0.517717634" x="0" y="0" width="36" height="36" rx="10"></rect>
                        <g id="Group-21" transform="translate(7.000000, 9.000000)" fill="#FFFFFF" fill-rule="nonzero">
                            <path d="M18.9384615,2.25 L13.7464615,2.25 C13.4558697,2.2487573 13.1773964,2.13158718 12.9710769,1.92375 L11.3981538,0.32625 C11.1918344,0.118412816 10.9133611,0.00124269924 10.6227692,0 L2.21538462,0 C0.991861477,0 0,1.00735931 0,2.25 L0,15.75 C0,16.9926407 0.991861477,18 2.21538462,18 L18.9384615,18 C20.1619847,18 21.1538462,16.9926407 21.1538462,15.75 L21.1538462,4.5 C21.1538462,3.25735931 20.1619847,2.25 18.9384615,2.25 Z" id="folder"></path>
                        </g>
                    </g>
                </g>
                <g id="ticket" transform="translate(12.000000, 13.000000)" fill-rule="nonzero">
                    <g id="Group" transform="translate(0.156250, 0.156250)">
                        <path d="M9.67708984,2.66873047 L7.01875,0.010390625 C6.93408203,0.0953320312 6.83683594,0.16671875 6.73041016,0.222050781 L9.17707031,2.66871094 C8.71037109,3.13603516 8.71037109,3.89304688 9.17707031,4.36037109 L4.07208984,9.46539062 C4.17849609,9.52072266 4.27576172,9.59210937 4.36042969,9.67705078 L9.67708984,4.36039062 C9.21039063,3.89306641 9.21039063,3.13605469 9.67708984,2.66873047 Z" id="Path" fill="#A4C2F7"></path>
                        <g fill="#E3E7F2">
                            <path d="M9.17708984,2.66873047 L6.73041016,0.222070313 C6.48320313,0.353554688 6.19738281,0.393125 5.92375,0.333730469 C5.69773437,0.286035156 5.49044922,0.173710937 5.32708984,0.010390625 L5.11541016,0.222070313 L0.0104101563,5.32707031 C0.477109375,5.79439453 0.477109375,6.55140625 0.0104101563,7.01873047 L2.66875,9.67707031 C3.03962891,9.30666016 3.60845703,9.22085937 4.07208984,9.46541016 L9.17708984,4.36041016 C8.71039062,3.89306641 8.71039062,3.13605469 9.17708984,2.66873047 Z M3.03041016,7.38039062 C2.86888672,7.54314453 2.61853516,7.57792969 2.41875,7.46539062 C2.20308594,7.58611328 1.93199219,7.53582031 1.77394531,7.34578125 C1.61591797,7.15574219 1.61591797,6.88001953 1.77394531,6.68998047 C1.93197266,6.49994141 2.20306641,6.44964844 2.41875,6.57037109 C2.64210937,6.445625 2.92326172,6.50476562 3.07742187,6.70892578 C3.23160156,6.91310547 3.21152344,7.19970703 3.03041016,7.38039062 Z" id="Shape"></path>
                            <path d="M3.03041016,7.38039062 C2.86888672,7.54314453 2.61853516,7.57792969 2.41875,7.46539062 C2.37744141,7.44210937 2.33933594,7.41353516 2.30541016,7.38039062 C2.10539063,7.18009766 2.10539063,6.85566406 2.30541016,6.65539062 C2.33976563,6.62275391 2.37779297,6.59421875 2.41875,6.57039062 C2.64210937,6.44564453 2.92326172,6.50478516 3.07742187,6.70894531 C3.23160156,6.91310547 3.21152344,7.19970703 3.03041016,7.38039062 Z" id="Path"></path>
                        </g>
                        <path d="M5.75541016,0.997070312 C5.63988281,0.970683594 5.52714844,0.933300781 5.41875,0.885410156 L5.32708984,0.977070312 C5.46859375,1.00033203 5.61234375,1.00705078 5.75541016,0.997070312 Z M8.80208984,2.76039062 L6.92708984,0.885390625 C6.80488281,0.938359375 6.67755859,0.978574219 6.54708984,1.00539062 L8.26042969,2.71873047 C8.05042969,3.19957031 8.05042969,3.74621094 8.26042969,4.22707031 L4.90375,7.58373047 L4.90375,7.58539062 L4.66875,7.82039062 L4.66708984,7.82039062 L3.81875,8.66873047 C3.97371094,8.69423828 4.12490234,8.73904297 4.26875,8.80207031 L5.20875,7.86207031 L5.21041016,7.86207031 L5.44541016,7.62707031 L5.44541016,7.62541016 L8.80208984,4.26875 C8.59208984,3.78789063 8.59208984,3.24125 8.80208984,2.76039062 Z M2.59875,8.64039063 L2.76041016,8.80205078 C2.95742187,8.71597656 3.16765625,8.66412109 3.38207031,8.64871094 C3.12445313,8.59097656 2.85755859,8.58814453 2.59875,8.64039063 Z" id="Shape" fill="#A4C2F7"></path>
                        <g transform="translate(0.878906, 0.839844)" fill="#E3E7F2">
                            <path d="M2.50318359,7.80888672 C2.6215625,7.83472656 2.73710938,7.87212891 2.84818359,7.92054688 L2.93984375,7.82888672 C2.79552734,7.80556641 2.64902344,7.79886719 2.50318359,7.80888672 Z M5.50650391,0.00388671875 C5.30699219,0.0911328125 5.09380859,0.143027344 4.87650391,0.157226562 C5.13685547,0.215800781 5.40664063,0.218652344 5.66816406,0.165566406 L5.50650391,0.00388671875 Z" id="Shape"></path>
                            <path d="M7.38152344,1.87888672 L5.66816406,0.165546875 C5.40664062,0.218632813 5.13683594,0.215800781 4.87650391,0.157207031 C4.7334375,0.1671875 4.5896875,0.160488281 4.44816406,0.137207031 L1.18318359,3.40222656 L1.18318359,3.40388672 L0.948183594,3.63888672 L0.946523437,3.63888672 L0.0065234375,4.57888672 C0.216523438,5.05972656 0.216523438,5.60636719 0.0065234375,6.08722656 L1.71986328,7.80056641 C1.97867188,7.74830078 2.24556641,7.75115234 2.50320312,7.80890625 C2.64904297,7.79888672 2.79554687,7.80558594 2.93986328,7.82890625 L3.78820312,6.98056641 L3.78986328,6.98056641 L4.02486328,6.74556641 L4.02486328,6.74390625 L7.38152344,3.38724609 C7.17150391,2.90636719 7.17150391,2.35974609 7.38152344,1.87888672 Z M2.15150391,6.54054687 C1.97429687,6.7209375 1.69117187,6.74298828 1.48816406,6.59220703 L1.48650391,6.59220703 C1.46541016,6.57630859 1.44535156,6.55904297 1.42650391,6.54054687 C1.22648438,6.34025391 1.22648438,6.01582031 1.42650391,5.81554687 C1.46318359,5.77871094 1.50535156,5.74777344 1.55150391,5.72388672 C1.77585937,5.60625 2.05251953,5.67017578 2.20251953,5.87433594 C2.35251953,6.07849609 2.33083984,6.36162109 2.15150391,6.54054687 Z" id="Shape"></path>
                            <path d="M2.15150391,6.54054687 C1.97429687,6.7209375 1.69117188,6.74298828 1.48816406,6.59220703 L1.48650391,6.59220703 C1.46541016,6.57630859 1.44535156,6.55904297 1.42650391,6.54054687 C1.22648438,6.34025391 1.22648438,6.01582031 1.42650391,5.81554687 C1.46318359,5.77871094 1.50535156,5.74777344 1.55150391,5.72388672 C1.77585937,5.60625 2.05251953,5.67017578 2.20251953,5.87433594 C2.35251953,6.07849609 2.33083984,6.36162109 2.15150391,6.54054687 Z" id="Path"></path>
                        </g>
                        <g transform="translate(3.769531, 1.855469)" fill="#A4C2F7" id="Path">
                            <polygon points="3.60087891 1.19992188 3.85255859 1.90160156 3.33421875 1.71492187 3.15255859 1.64826172 3.00421875 1.75660156 2.57421875 2.07160156 2.57087891 1.74492188 2.56587891 1.33826172 1.95587891 0.898261719 2.65087891 0.698261719 2.72255859 0.449921875 2.85087891 0.00326171875 3.29087891 0.613261719 3.57421875 0.616601562 4.02421875 0.621601562"></polygon>
                            <polygon points="1.64921875 3.14992188 1.90255859 3.85160156 1.38587891 3.66492188 1.20087891 3.59826172 1.05255859 3.70660156 0.62421875 4.02326172 0.61921875 3.69492188 0.61421875 3.28826172 0.00421875 2.84992188 0.700878906 2.64992187 0.772558594 2.39992187 0.900878906 1.95326172 1.33921875 2.56326172 1.62255859 2.56660156 2.07421875 2.57326172"></polygon>
                        </g>
                        <g transform="translate(3.769531, 2.304688)" fill="#E3E7F2" id="Path">
                            <polygon points="3.33421875 1.26570313 3.40255859 1.45238281 3.00421875 1.30738281 2.70255859 1.19904297 2.57087891 1.29570313 2.56587891 0.889042969 1.95587891 0.449042969 2.65087891 0.249042969 2.72255859 0.000703125 2.84087891 0.164042969 3.57421875 0.172382812 3.14921875 0.750703125"></polygon>
                            <polygon points="1.38587891 3.21570313 1.45255859 3.40238281 1.05255859 3.25738281 0.750878906 3.14904297 0.61921875 3.24570313 0.61421875 2.83904297 0.00421875 2.40070312 0.700878906 2.20070312 0.772558594 1.95070312 0.88921875 2.11404297 1.62255859 2.12404297 1.19921875 2.70070313"></polygon>
                        </g>
                        <path d="M2.66875,9.67707031 C2.75357422,9.59232422 2.85072266,9.52091797 2.95691406,9.46523437 L0.510410156,7.01873047 C0.977109375,6.55140625 0.977109375,5.79439453 0.510410156,5.32707031 L5.61541016,0.222070313 C5.50917969,0.166445313 5.41197266,0.0950976562 5.32707031,0.0104101563 L5.11541016,0.222070313 L0.0104101563,5.32707031 C0.477109375,5.79439453 0.477109375,6.55140625 0.0104101563,7.01873047 L2.66875,9.67707031 Z" id="Path" fill="#FFFFFF"></path>
                    </g>
                    <g id="Group">
                        <polygon id="Path" fill="#FFFFFF" points="0.048828125 5.36548828 1.58083984 3.83347656 5.36550781 0.0488085937 5.60117187 0.284472656 1.81666016 4.06914063 0.284492187 5.60115234"></polygon>
                        <g fill="#428DFF">
                            <path d="M1.22732422,4.42265625 C1.19628906,4.39099609 1.15382812,4.37316406 1.10949219,4.37316406 C1.06515625,4.37316406 1.02269531,4.39099609 0.991660156,4.42265625 C0.960742187,4.45423828 0.942890625,4.49630859 0.941660156,4.54048828 L0.94515625,4.57232422 C0.947207031,4.58335937 0.950742187,4.5940625 0.955664062,4.60416016 C0.959023437,4.61425781 0.963847656,4.62380859 0.97,4.6325 C0.976386719,4.64164062 0.983457031,4.65027344 0.991171875,4.65833984 C1.02273437,4.68929688 1.06482422,4.70714844 1.10900391,4.70833984 C1.16513672,4.70941406 1.21791016,4.68173828 1.24896484,4.63496094 C1.28001953,4.58818359 1.28498047,4.52878906 1.2621875,4.4775 C1.25433594,4.45707031 1.2425,4.43841797 1.22732422,4.42265625 Z" id="Path"></path>
                            <path d="M0,7.17498047 C0,7.21917969 0.017578125,7.2615625 0.048828125,7.2928125 L2.70716797,9.95115234 C2.77328125,10.0136719 2.87671875,10.0136719 2.94283203,9.95115234 C3.34492188,9.54916016 3.99673828,9.54916016 4.39882813,9.95115234 C4.46390625,10.0162109 4.56941406,10.0162109 4.63449219,9.95115234 L9.95117188,4.63447266 C10.0162305,4.56939453 10.0162305,4.46388672 9.95117188,4.39880859 C9.54917969,3.99671875 9.54917969,3.34490234 9.95117188,2.9428125 C10.0162305,2.87773437 10.0162305,2.77222656 9.95117188,2.70714844 L7.29283203,0.0488085937 C7.22671875,-0.0137109375 7.12328125,-0.0137109375 7.05716797,0.0488085937 C6.86441406,0.242324219 6.60230469,0.350761719 6.32916016,0.349980469 C6.05601562,0.350800781 5.79388672,0.242363281 5.60115234,0.0488085938 C5.53607422,-0.01625 5.43056641,-0.01625 5.36548828,0.0488085938 L1.46300781,3.95130859 C1.4196875,3.99314453 1.40230469,4.05511719 1.41755859,4.11339844 C1.4328125,4.17167969 1.47832031,4.21716797 1.53658203,4.23242188 C1.59484375,4.24767578 1.65681641,4.23029297 1.69867188,4.18697266 L5.49132813,0.394472656 C5.73021484,0.582167969 6.02535156,0.683925781 6.32916016,0.683300781 C6.63318359,0.684199219 6.92863281,0.582617187 7.16783203,0.394960937 L9.60466797,2.83212891 C9.22023438,3.32521484 9.22023438,4.01654297 9.60466797,4.50962891 L4.50966797,9.60464844 C4.01658203,9.22021484 3.32525391,9.22021484 2.83216797,9.60464844 L0.395332031,7.1678125 C0.582871094,6.92857422 0.684316406,6.633125 0.683339844,6.32914063 C0.683867188,6.02529297 0.581992188,5.73015625 0.394179688,5.49130859 L0.755683594,5.12980469 C0.820800781,5.0646875 0.820800781,4.95910156 0.755683594,4.89396484 C0.690566406,4.82884766 0.584980469,4.82884766 0.51984375,4.89396484 L0.048828125,5.36548828 C-0.0162304688,5.43056641 -0.0162304688,5.53607422 0.048828125,5.60115234 C0.242382813,5.79388672 0.350820313,6.05601562 0.35,6.32916016 C0.35078125,6.60228516 0.242363281,6.86441406 0.048828125,7.05716797 C0.017578125,7.08839844 0,7.13078125 0,7.17498047 Z" id="Path"></path>
                            <path d="M9.07550781,2.79814453 L7.20183594,0.924472656 C7.15322266,0.875742187 7.07966797,0.861894531 7.01666016,0.889648437 C6.5778125,1.08089844 6.07917969,1.08089844 5.64033203,0.889648437 C5.57748047,0.862148437 5.50417969,0.875957031 5.45566406,0.924472656 L0.924492188,5.45630859 C0.875976563,5.50482422 0.862148438,5.578125 0.889667969,5.64097656 C1.08083984,6.07984375 1.08083984,6.57845703 0.889667969,7.01730469 C0.862246094,7.08011719 0.876054688,7.15332031 0.924492188,7.20179688 L2.79816406,9.07546875 C2.84666016,9.12390625 2.91984375,9.13773438 2.98265625,9.11029297 C3.42152344,8.91912109 3.92013672,8.91912109 4.35898438,9.11029297 C4.42183594,9.13779297 4.49513672,9.12398438 4.54365234,9.07546875 L9.07548828,4.54363281 C9.12400391,4.49511719 9.13783203,4.42181641 9.1103125,4.35896484 C8.91914063,3.92009766 8.91914063,3.42148438 9.1103125,2.98263672 C9.13777344,2.91984375 9.12394531,2.84664063 9.07550781,2.79814453 Z M8.76183594,4.38582031 L5.48333984,7.66431641 C5.44148438,7.62099609 5.37953125,7.60361328 5.32125,7.61886719 C5.26298828,7.63412109 5.21748047,7.67962891 5.20222656,7.73789062 C5.18697266,7.79615234 5.20435547,7.858125 5.24767578,7.89998047 L4.38583984,8.76181641 C3.92447266,8.59099609 3.41720703,8.59099609 2.95583984,8.76181641 L1.23816406,7.04414062 C1.40898438,6.58277344 1.40898438,6.07550781 1.23816406,5.61414063 L2.1,4.75230469 C2.14183594,4.795625 2.20380859,4.81300781 2.26208984,4.79775391 C2.32037109,4.7825 2.36585938,4.73699219 2.38111328,4.67873047 C2.39636719,4.62044922 2.37898438,4.55849609 2.33566406,4.51664063 L5.61416016,1.23814453 C6.07552734,1.40890625 6.58279297,1.40890625 7.04416016,1.23814453 L8.76183594,2.95582031 C8.59101563,3.41716797 8.59101563,3.92445312 8.76183594,4.38582031 Z" id="Shape"></path>
                            <path d="M2.77449219,5.42699219 C2.81662109,5.46912109 2.87802734,5.48556641 2.93556641,5.47015625 C2.99310547,5.45472656 3.03806641,5.40978516 3.05347656,5.35224609 C3.06888672,5.29470703 3.05244141,5.23330078 3.0103125,5.19117188 L2.7853125,4.96667969 C2.74414062,4.920625 2.68087891,4.90111328 2.6209375,4.91599609 C2.56097656,4.93085937 2.51417969,4.97767578 2.49929687,5.03763672 C2.48443359,5.09759766 2.50392578,5.16085938 2.54998047,5.20201172 L2.77449219,5.42699219 Z" id="Path"></path>
                            <path d="M4.13433594,6.3153125 C4.06894531,6.25214844 3.96498047,6.25304688 3.90070312,6.31734375 C3.83640625,6.38164062 3.83550781,6.48558594 3.89867187,6.55097656 L4.12349609,6.77580078 C4.18888672,6.83896484 4.29285156,6.83806641 4.35712891,6.77376953 C4.42142578,6.70947266 4.42232422,6.60552734 4.35916016,6.54013672 L4.13433594,6.3153125 Z" id="Path"></path>
                            <path d="M4.80882812,6.98982422 C4.7434375,6.92666016 4.63947266,6.92755859 4.57519531,6.99185547 C4.51089844,7.05615234 4.51,7.16009766 4.57316406,7.22548828 L4.79798828,7.44998047 C4.86390625,7.50890625 4.96439453,7.50609375 5.02691406,7.44357422 C5.08943359,7.38105469 5.09224609,7.28056641 5.03332031,7.21464844 L4.80882812,6.98982422 Z" id="Path"></path>
                            <path d="M3.45982422,5.64082031 C3.39443359,5.57765625 3.29046875,5.57855469 3.22619141,5.64285156 C3.16189453,5.70714844 3.16099609,5.81109375 3.22416016,5.87648438 L3.44898438,6.10132813 C3.514375,6.16449219 3.61833984,6.16359375 3.68261719,6.09929688 C3.74691406,6.035 3.7478125,5.93105469 3.68464844,5.86566406 L3.45982422,5.64082031 Z" id="Path"></path>
                            <path d="M7.95232422,2.46664062 L7.30232422,2.45863281 L6.9125,1.91664062 C6.87519531,1.86490234 6.81162109,1.83900391 6.74876953,1.84992188 C6.68591797,1.86083984 6.63482422,1.90667969 6.61716797,1.96796875 L6.44216797,2.57513672 L5.835,2.74996094 C5.77365234,2.76761719 5.72777344,2.81878906 5.716875,2.88167969 C5.70597656,2.94457031 5.73199219,3.00818359 5.78382813,3.04544922 L6.32566406,3.43544922 L6.33367188,4.08544922 C6.33441406,4.14792969 6.37003906,4.20472656 6.4259375,4.23261719 C6.48183594,4.26050781 6.54865234,4.25478516 6.59900391,4.21779297 L7.10484375,3.84595703 L7.72251953,4.06912109 C7.78332031,4.09109375 7.85134766,4.07589844 7.89705078,4.03017578 C7.94275391,3.98445312 7.95787109,3.91640625 7.93585938,3.855625 L7.71285156,3.23794922 L8.08451172,2.73210937 C8.12148438,2.68177734 8.12722656,2.61501953 8.099375,2.55912109 C8.07152344,2.50322266 8.01478516,2.46757812 7.95234375,2.46677734 L7.95234375,2.46664062 L7.95232422,2.46664062 Z M7.36900391,3.26748047 L7.50234375,3.63414062 L7.13568359,3.50080078 C7.08339844,3.48193359 7.02513672,3.49037109 6.98035156,3.52330078 L6.66369141,3.75546875 L6.65869141,3.34580078 C6.65806641,3.29287109 6.63232422,3.24337891 6.58935547,3.21246094 L6.25769531,2.97378906 L6.62435547,2.86845703 C6.67943359,2.85257812 6.72248047,2.80953125 6.73835938,2.75445312 L6.84386719,2.38779297 L7.08236328,2.71945312 C7.11328125,2.76242187 7.16277344,2.78816406 7.21570313,2.78878906 L7.62537109,2.79378906 L7.39304688,3.11044922 C7.35896484,3.15546875 7.35,3.2146875 7.36921875,3.26777344 L7.36900391,3.26748047 Z" id="Shape"></path>
                            <path d="M6.00132812,4.41798828 L5.35132812,4.40998047 L4.96132812,3.86798828 C4.92392578,3.81664063 4.86058594,3.79103516 4.79800781,3.80193359 C4.73542969,3.81283203 4.68449219,3.85835938 4.66666016,3.91931641 L4.49166016,4.52648437 L3.88332031,4.70130859 C3.82212891,4.71925781 3.7765625,4.77054687 3.76591797,4.83341797 C3.75527344,4.89628906 3.78144531,4.95972656 3.83332031,4.99679688 L4.37515625,5.38662109 L4.38316406,6.03662109 C4.38396484,6.0990625 4.41960937,6.15582031 4.47550781,6.18365234 C4.53140625,6.21150391 4.59818359,6.20576172 4.64849609,6.16878906 L5.15433594,5.79712891 L5.77201172,6.02013672 C5.83279297,6.04214844 5.90083984,6.02703125 5.9465625,5.98132812 C5.99228516,5.935625 6.00748047,5.86761719 5.98550781,5.80679687 L5.76234375,5.18912109 L6.13333984,4.68328125 C6.17033203,4.63292969 6.17605469,4.56613281 6.14816406,4.51021484 C6.12027344,4.45429687 6.06347656,4.41869141 6.00099609,4.41794922 L6.00132812,4.41794922 L6.00132812,4.41798828 Z M5.41800781,5.21880859 L5.55134766,5.58546875 L5.1846875,5.45212891 C5.13242187,5.43320313 5.07416016,5.44158203 5.02935547,5.47445312 L4.71269531,5.70779297 L4.70769531,5.29796875 C4.70707031,5.24503906 4.68132813,5.19554687 4.63835938,5.16462891 L4.30669922,4.92613281 L4.67335937,4.82080078 C4.7284375,4.80492187 4.77148438,4.761875 4.78736328,4.70679687 L4.89287109,4.34013672 L5.13136719,4.67179687 C5.16228516,4.71476562 5.21175781,4.74050781 5.26470703,4.74113281 L5.674375,4.74613281 L5.44205078,5.06279297 C5.4084375,5.1075 5.39947266,5.16609375 5.41822266,5.21878906 L5.41800781,5.21878906 L5.41800781,5.21880859 Z" id="Shape"></path>
                            <path d="M2.34466797,6.69464844 C2.15037109,6.88892578 2.09222656,7.18113281 2.19736328,7.43498047 C2.3025,7.68884766 2.55021484,7.85435547 2.825,7.85435547 C3.09976562,7.85435547 3.34748047,7.68882813 3.45263672,7.43498047 C3.55777344,7.18111328 3.49964844,6.88892578 3.30533203,6.69464844 C3.03986328,6.42984375 2.61015625,6.42984375 2.34466797,6.69464844 Z M3.06966797,7.41964844 C2.93457031,7.55460938 2.71566406,7.55453125 2.58066406,7.41947266 C2.44566406,7.28443359 2.44566406,7.06552734 2.58066406,6.93046875 C2.71566406,6.79542969 2.93457031,6.79535156 3.06966797,6.93029297 C3.20470703,7.06546875 3.20470703,7.28449219 3.06966797,7.41964844 Z" id="Shape"></path>
                        </g>
                    </g>
                </g>
            </g>
        </g>
    </g>
</svg>