<?xml version="1.0" encoding="UTF-8"?>
<svg width="36px" height="36px" viewBox="0 0 36 36" version="1.1" xmlns="http://www.w3.org/2000/svg" xmlns:xlink="http://www.w3.org/1999/xlink">
    <!-- Generator: Sketch 61.2 (89653) - https://sketch.com -->
    <title>Group 24</title>
    <desc>Created with Sketch.</desc>
    <g id="Page-1" stroke="none" stroke-width="1" fill="none" fill-rule="evenodd">
        <g id="Referral" transform="translate(-270.000000, -497.000000)">
            <g id="Group-24" transform="translate(270.000000, 497.000000)">
                <g id="folder-icon">
                    <g id="Group-22">
                        <rect id="Rectangle" fill="#8F98FF" opacity="0.517717634" x="0" y="0" width="36" height="36" rx="10"></rect>
                        <g id="Group-21" transform="translate(7.000000, 9.000000)" fill="#FFFFFF" fill-rule="nonzero">
                            <path d="M18.9384615,2.25 L13.7464615,2.25 C13.4558697,2.2487573 13.1773964,2.13158718 12.9710769,1.92375 L11.3981538,0.32625 C11.1918344,0.118412816 10.9133611,0.00124269924 10.6227692,0 L2.21538462,0 C0.991861477,0 0,1.00735931 0,2.25 L0,15.75 C0,16.9926407 0.991861477,18 2.21538462,18 L18.9384615,18 C20.1619847,18 21.1538462,16.9926407 21.1538462,15.75 L21.1538462,4.5 C21.1538462,3.25735931 20.1619847,2.25 18.9384615,2.25 Z" id="folder"></path>
                        </g>
                    </g>
                </g>
                <g id="tickets" transform="translate(12.000000, 13.000000)" fill-rule="nonzero">
                    <path d="M9.70271605,4.56774529 L8.6048603,4.95532164 L8.29047433,5.06677063 L8.03430799,5.15659519 L1.26752437,5.15659519 L1.12447044,4.74905783 C1.17965675,4.74525126 1.23400279,4.73348563 1.28582196,4.71412606 C1.5505936,4.62455585 1.7304131,4.37813652 1.73494477,4.09866147 C1.73770433,3.88035487 1.63382382,3.67442071 1.45661496,3.54689657 C1.27940609,3.41937244 1.05114028,3.38628541 0.845016244,3.45824561 C0.79194089,3.47699864 0.741596622,3.50273016 0.695308642,3.53476283 L0.52231319,3.04405458 C0.49196876,2.95726223 0.537255889,2.8622335 0.623781676,2.8311371 L1.72330084,2.44356075 L2.03602339,2.33377518 L6.74183236,0.673684211 L7.05621832,0.563898635 L7.77481481,0.309395712 L8.15407407,0.176322287 C8.19575889,0.161421838 8.2416637,0.163751707 8.28162568,0.182796086 C8.32158767,0.201840465 8.35231016,0.236028296 8.36699155,0.277790773 L8.539987,0.768499025 C8.48367093,0.771950844 8.42817635,0.783722422 8.37530864,0.803430799 C8.16961314,0.876442157 8.01252755,1.04529289 7.95453661,1.2557171 C7.89654569,1.46614132 7.94495647,1.69162491 8.08421053,1.8597011 C8.26309898,2.07513733 8.55834265,2.15444658 8.82110461,2.05764782 C8.87291678,2.03910135 8.92211719,2.01394205 8.96748538,1.98279402 L9.20369071,2.65148798 C9.14864319,2.65518067 9.0943578,2.66637352 9.04233918,2.68475634 C8.77672942,2.77318208 8.59640245,3.02029682 8.59321637,3.30022092 C8.58971584,3.518458 8.69315531,3.72461529 8.87020318,3.85226217 C9.04725105,3.97990904 9.27553016,4.01291213 9.48148148,3.94063678 C9.53448993,3.92245216 9.58483632,3.89727896 9.63118908,3.86578298 L9.80418454,4.35649123 C9.8191285,4.39794433 9.8168,4.44366221 9.79772174,4.48338249 C9.77864349,4.5231028 9.74441374,4.55349802 9.70271605,4.56774529 Z" id="Shape" fill="#CAD9FC"></path>
                    <path d="M9.19038337,4.69250162 L8.09252762,5.08007797 L7.8762833,5.15659519 L1.26752437,5.15659519 L1.12447044,4.74905783 C1.17965675,4.74525126 1.23400279,4.73348563 1.28582196,4.71412606 C1.5505936,4.62455585 1.7304131,4.37813652 1.73494477,4.09866147 C1.73770433,3.88035487 1.63382382,3.67442071 1.45661496,3.54689657 C1.27940609,3.41937244 1.05114028,3.38628541 0.845016244,3.45824561 C0.79194089,3.47699864 0.741596622,3.50273016 0.695308642,3.53476283 L0.52231319,3.04405458 C0.49196876,2.95726223 0.537255889,2.8622335 0.623781676,2.8311371 L1.72330084,2.44356075 L2.03602339,2.33377518 L6.74183236,0.673684211 L7.05621832,0.563898635 L7.77481481,0.309395712 C7.81167512,0.329944871 7.83998892,0.362977643 7.85465887,0.402547109 L8.02765432,0.893255361 C7.97133825,0.896707179 7.91584367,0.908478757 7.86297596,0.928187135 C7.65728046,1.00119849 7.50019487,1.17004923 7.44220393,1.38047344 C7.38421301,1.59089765 7.43262379,1.81638125 7.57187784,1.98445744 C7.7507663,2.19989367 8.04600997,2.27920292 8.30877193,2.18240416 C8.3605841,2.16385768 8.40978451,2.13869839 8.4551527,2.10755036 L8.69135802,2.77624431 C8.63631051,2.779937 8.58202512,2.79112986 8.5300065,2.80951267 C8.26439673,2.89793841 8.08406977,3.14505315 8.08088369,3.42497726 C8.07738316,3.64321433 8.18082263,3.84937163 8.3578705,3.9770185 C8.53491837,4.10466538 8.76319748,4.13766847 8.9691488,4.06539311 C9.02215725,4.0472085 9.07250363,4.0220353 9.1188564,3.99053931 L9.29185185,4.48124756 C9.30679581,4.52270067 9.30446731,4.56841854 9.28538906,4.60813883 C9.2663108,4.64785913 9.23208106,4.67825435 9.19038337,4.69250162 Z" id="Shape" fill="#E8EDFC"></path>
                    <path d="M6.45738791,3.905705 C6.32764133,4.18515919 5.93507472,4.88379467 5.78204029,5.15659519 L5.43604938,5.15659519 C5.09005848,5.01853151 4.51950617,4.78731644 4.28496426,4.67087719 C4.06200789,4.58156373 3.84994311,4.46716036 3.6528655,4.32987654 C3.65120208,4.33153996 3.65120208,4.32987654 3.65120208,4.32987654 C3.45535391,4.17088549 3.30928322,3.95899639 3.23035737,3.71940221 C3.00080572,3.06567901 3.26861598,2.60491228 3.77928525,2.42359974 C4.13461164,2.3037933 4.52710531,2.39308401 4.79563353,2.65481481 C4.82886838,2.38753337 4.96811404,2.14481815 5.18207509,1.98121926 C5.39603615,1.81762038 5.6667635,1.74686209 5.93341131,1.7848473 C6.25278752,1.83474984 6.52725146,2.06430149 6.68194932,2.50344379 C6.91150097,3.15716699 6.62040286,3.55306043 6.45738791,3.905705 Z" id="Shape" fill="#A4C2F7"></path>
                    <path d="M7.69164392,6.72187135 C7.78876119,6.98421331 8.0407055,7.15684181 8.32041585,7.15269656 C8.37549488,7.15309621 8.43036088,7.14581806 8.4834308,7.13107212 L8.4834308,7.83968811 C8.43036088,7.82494218 8.37549488,7.81766402 8.32041585,7.81806368 C8.04049338,7.81321357 7.78818046,7.98609464 7.69164392,8.24888889 C7.61591477,8.45371717 7.64505452,8.68262611 7.76968548,8.86194886 C7.89431645,9.04127162 8.09871011,9.14837748 8.31708902,9.14879792 C8.37326883,9.14930581 8.42924817,9.14202849 8.4834308,9.12717349 L8.4834308,9.64782326 C8.4834308,9.73969128 8.40895704,9.81416504 8.31708902,9.81416504 L0.332683561,9.81416504 C0.240815532,9.81416504 0.16634178,9.73969128 0.16634178,9.64782326 L0.16634178,9.12717349 C0.219411698,9.14191942 0.2742777,9.14919757 0.329356725,9.14879792 C0.609067088,9.15294317 0.861011384,8.98031467 0.958128655,8.71797271 C1.03410853,8.51314152 1.00507612,8.28409599 0.880393902,8.10469951 C0.755711684,7.92530301 0.5511526,7.81825015 0.332683561,7.81806368 C0.276503752,7.81755579 0.220524413,7.82483311 0.16634178,7.83968811 L0.16634178,7.13107212 C0.219411698,7.14581806 0.2742777,7.15309621 0.329356725,7.15269656 C0.609067088,7.15684181 0.861011384,6.98421331 0.958128655,6.72187135 C1.03410853,6.51704016 1.00507612,6.28799463 0.880393902,6.10859814 C0.755711684,5.92920164 0.5511526,5.82214878 0.332683561,5.82196231 C0.276503752,5.82145442 0.220524413,5.82873174 0.16634178,5.84358674 L0.16634178,5.32293697 C0.16634178,5.23106895 0.240815532,5.15659519 0.332683561,5.15659519 L8.31708902,5.15659519 C8.40895704,5.15659519 8.4834308,5.23106895 8.4834308,5.32293697 L8.4834308,5.84358674 C8.42924817,5.82873174 8.37326883,5.82145442 8.31708902,5.82196231 C8.09861998,5.82214878 7.8940609,5.92920164 7.76937868,6.10859814 C7.64469645,6.28799463 7.61566406,6.51704016 7.69164392,6.72187135 Z" id="Shape" fill="#CAD9FC"></path>
                    <path d="M7.19261858,6.72187135 C7.28973585,6.98421331 7.54168016,7.15684181 7.82139051,7.15269656 C7.87646954,7.15309621 7.93133554,7.14581806 7.98440546,7.13107212 L7.98440546,7.83968811 C7.93133554,7.82494218 7.87646954,7.81766402 7.82139051,7.81806368 C7.54146804,7.81321357 7.28915512,7.98609464 7.19261858,8.24888889 C7.11688943,8.45371717 7.14602918,8.68262611 7.27066014,8.86194886 C7.39529111,9.04127162 7.59968477,9.14837748 7.81806368,9.14879792 C7.87424348,9.14930581 7.93022283,9.14202849 7.98440546,9.12717349 L7.98440546,9.64782326 C7.98440546,9.73969128 7.9099317,9.81416504 7.81806368,9.81416504 L0.332683561,9.81416504 C0.240815532,9.81416504 0.16634178,9.73969128 0.16634178,9.64782326 L0.16634178,9.12717349 C0.219411698,9.14191942 0.2742777,9.14919757 0.329356725,9.14879792 C0.609067088,9.15294317 0.861011384,8.98031467 0.958128655,8.71797271 C1.03410853,8.51314152 1.00507612,8.28409599 0.880393902,8.10469951 C0.755711684,7.92530301 0.5511526,7.81825015 0.332683561,7.81806368 C0.276503752,7.81755579 0.220524413,7.82483311 0.16634178,7.83968811 L0.16634178,7.13107212 C0.219411698,7.14581806 0.2742777,7.15309621 0.329356725,7.15269656 C0.609067088,7.15684181 0.861011384,6.98421331 0.958128655,6.72187135 C1.03410853,6.51704016 1.00507612,6.28799463 0.880393902,6.10859814 C0.755711684,5.92920164 0.5511526,5.82214878 0.332683561,5.82196231 C0.276503752,5.82145442 0.220524413,5.82873174 0.16634178,5.84358674 L0.16634178,5.32293697 C0.16634178,5.23106895 0.240815532,5.15659519 0.332683561,5.15659519 L7.81806368,5.15659519 C7.9099317,5.15659519 7.98440546,5.23106895 7.98440546,5.32293697 L7.98440546,5.84358674 C7.93022283,5.82873174 7.87424348,5.82145442 7.81806368,5.82196231 C7.59959464,5.82214878 7.39503555,5.92920164 7.27035334,6.10859814 C7.14567111,6.28799463 7.11663872,6.51704016 7.19261858,6.72187135 Z" id="Shape" fill="#E8EDFC"></path>
                    <path d="M6.15464587,6.86159844 C6.15464587,7.55524366 5.74877193,7.83137102 5.47763483,8.10916179 C5.20649773,8.38695257 4.32488629,9.14879792 4.32488629,9.14879792 C4.32488629,9.14879792 4.14357375,8.99077323 3.91734893,8.79116309 C3.64787524,8.55495776 3.32018194,8.26053281 3.17213775,8.10916179 C2.90100065,7.83137102 2.49512671,7.55524366 2.49512671,6.86159844 C2.49512671,6.16795322 2.90100065,5.82194745 3.44327485,5.82194745 C3.50922767,5.82158811 3.57503085,5.82827996 3.63955815,5.84192333 C3.73887153,5.86033023 3.83408239,5.8963864 3.92067576,5.94838207 C4.09283289,6.05016031 4.23290075,6.19829793 4.32488629,6.37588044 C4.492092,6.0409432 4.83218156,5.82726429 5.20649773,5.82194745 C5.27684851,5.82168961 5.34705379,5.82837584 5.41608837,5.84192333 C5.85024042,5.92010396 6.15464587,6.26110461 6.15464587,6.86159844 Z" id="Shape" fill="#A4C2F7"></path>
                    <path d="M5.95836257,3.62791423 C5.82861598,3.90736842 5.43604938,4.6060039 5.28301494,4.87880442 L4.93702404,4.87880442 C4.59103314,4.74074074 4.02048083,4.50952567 3.78593892,4.39308642 C3.74269006,4.37146199 3.69777778,4.35150097 3.6528655,4.32987654 C3.65120208,4.33153996 3.65120208,4.32987654 3.65120208,4.32987654 C3.45535391,4.17088549 3.30928322,3.95899639 3.23035737,3.71940221 C3.00080572,3.06567901 3.26861598,2.60491228 3.77928525,2.42359974 C4.13461164,2.3037933 4.52710531,2.39308401 4.79563353,2.65481481 C4.82886838,2.38753337 4.96811404,2.14481815 5.18207509,1.98121926 C5.39603615,1.81762038 5.6667635,1.74686209 5.93341131,1.7848473 C6.04447587,1.91414497 6.12923178,2.06388042 6.18292398,2.22565302 C6.41247563,2.87937622 6.12137752,3.27526966 5.95836257,3.62791423 Z" id="Shape" fill="#CAD9FC"></path>
                    <path d="M5.65562053,6.58380767 C5.65562053,7.27745289 5.24974659,7.55524366 4.97860949,7.83137102 C4.76070175,8.05426901 4.148564,8.58988954 3.91734893,8.79116309 C3.64787524,8.55495776 3.32018194,8.26053281 3.17213775,8.10916179 C2.90100065,7.83137102 2.49512671,7.55524366 2.49512671,6.86159844 C2.49512671,6.16795322 2.90100065,5.82194745 3.44327485,5.82194745 C3.50922767,5.82158811 3.57503085,5.82827996 3.63955815,5.84192333 C3.71457409,5.91775287 3.77741708,6.00472308 3.82586095,6.09975309 C3.85211244,6.04613423 3.88388959,5.9954023 3.92067576,5.94838207 C4.09283289,6.05016031 4.23290075,6.19829793 4.32488629,6.37588044 C4.492092,6.0409432 4.83218156,5.82726429 5.20649773,5.82194745 C5.27684851,5.82168961 5.34705379,5.82837584 5.41608837,5.84192333 C5.58465868,6.05123382 5.66996297,6.31544014 5.65562053,6.58380767 Z" id="Shape" fill="#CAD9FC"></path>
                    <path d="M9.50876153,3.92915919 C9.56009911,3.95019878 9.61385063,3.9647821 9.66878233,3.9725744 L9.63118908,3.86578298 C9.59297025,3.89157543 9.55188599,3.91284323 9.50876153,3.92915919 Z" id="Shape" fill="#FFFFFF"></path>
                    <path d="M8.84156465,2.04883171 C8.89427331,2.06986845 8.94944167,2.08412168 9.00574399,2.09124886 L8.96748538,1.98279402 C8.92821561,2.0096167 8.88595781,2.03177833 8.84156465,2.04883171 Z" id="Shape" fill="#FFFFFF"></path>
                    <path d="M0.332683561,9.81416504 L0.831708902,9.81416504 C0.739840873,9.81416504 0.665367122,9.73969128 0.665367122,9.64782326 L0.665367122,9.12717349 C0.718437039,9.14191942 0.773303041,9.14919757 0.828382066,9.14879792 C1.10809243,9.15294317 1.36003672,8.98031467 1.457154,8.71797271 C1.53313387,8.51314152 1.50410146,8.28409599 1.37941924,8.10469951 C1.25473703,7.92530301 1.05017794,7.81825015 0.831708902,7.81806368 C0.775529093,7.81755579 0.719549754,7.82483311 0.665367122,7.83968811 L0.665367122,7.13107212 C0.718437039,7.14581806 0.773303041,7.15309621 0.828382066,7.15269656 C1.10809243,7.15684181 1.36003672,6.98421331 1.457154,6.72187135 C1.53313387,6.51704016 1.50410146,6.28799463 1.37941924,6.10859814 C1.25473703,5.92920164 1.05017794,5.82214878 0.831708902,5.82196231 C0.775529093,5.82145442 0.719549754,5.82873174 0.665367122,5.84358674 L0.665367122,5.32293697 C0.665367122,5.23106895 0.739840873,5.15659519 0.831708902,5.15659519 L0.332683561,5.15659519 C0.240815532,5.15659519 0.16634178,5.23106895 0.16634178,5.32293697 L0.16634178,5.84358674 C0.220524413,5.82873174 0.276503752,5.82145442 0.332683561,5.82196231 C0.5511526,5.82214878 0.755711684,5.92920164 0.880393902,6.10859814 C1.00507612,6.28799463 1.03410853,6.51704016 0.958128655,6.72187135 C0.861011384,6.98421331 0.609067088,7.15684181 0.329356725,7.15269656 C0.2742777,7.15309621 0.219411698,7.14581806 0.16634178,7.13107212 L0.16634178,7.83968811 C0.220524413,7.82483311 0.276503752,7.81755579 0.332683561,7.81806368 C0.5511526,7.81825015 0.755711684,7.92530301 0.880393902,8.10469951 C1.00507612,8.28409599 1.03410853,8.51314152 0.958128655,8.71797271 C0.861011384,8.98031467 0.609067088,9.15294317 0.329356725,9.14879792 C0.2742777,9.14919757 0.219411698,9.14191942 0.16634178,9.12717349 L0.16634178,9.64782326 C0.16634178,9.73969128 0.240815532,9.81416504 0.332683561,9.81416504 Z" id="Shape" fill="#FFFFFF"></path>
                    <path d="M1.62349578,4.74905783 C1.67868209,4.74525126 1.73302813,4.73348563 1.7848473,4.71412606 C2.04961894,4.62455585 2.22943844,4.37813652 2.23397011,4.09866147 C2.23672967,3.88035487 2.13284916,3.67442071 1.95564031,3.54689657 C1.77843143,3.41937244 1.55016562,3.38628541 1.34404159,3.45824561 C1.3345601,3.46173879 1.32591033,3.46623002 1.31676153,3.47005588 C1.57190192,3.57397428 1.73768967,3.82318349 1.73494477,4.09866147 C1.7304131,4.37813652 1.5505936,4.62455585 1.28582196,4.71412606 C1.23400279,4.73348563 1.17965675,4.74525126 1.12447044,4.74905783 L1.26752437,5.15659519 L1.76654971,5.15659519 L1.62349578,4.74905783 Z" id="Shape" fill="#FFFFFF"></path>
                    <path d="M0.52231319,3.04405458 L0.695308642,3.53476283 C0.741596622,3.50273016 0.79194089,3.47699864 0.845016244,3.45824561 C0.944836378,3.42315635 1.05157333,3.41232301 1.15640806,3.42664068 L1.02133853,3.04405458 C0.990994101,2.95726223 1.03628123,2.8622335 1.12280702,2.8311371 L2.22232619,2.44356075 L2.53504873,2.33377518 L7.2408577,0.673684211 L7.55524366,0.563898635 L8.27384016,0.309395712 L8.36649253,0.276127355 C8.33522543,0.190064048 8.2402814,0.145454476 8.15407407,0.176322287 L7.77481481,0.309395712 L7.05621832,0.563898635 L6.74183236,0.673684211 L2.03602339,2.33377518 L1.72330084,2.44356075 L0.623781676,2.8311371 C0.537255889,2.8622335 0.49196876,2.95726223 0.52231319,3.04405458 Z" id="Shape" fill="#FFFFFF"></path>
                    <path d="M8.31708902,9.98050682 L0.332683561,9.98050682 C0.148947504,9.98050682 -1.47589632e-08,9.83155932 -1.47589632e-08,9.64782326 L-1.47589632e-08,9.12717349 C-1.47589632e-08,9.07511645 0.0243563114,9.02605796 0.0658367533,8.99460468 C0.107317195,8.96315141 0.161130399,8.95293096 0.211254061,8.96698635 C0.250748284,8.9780927 0.291666211,8.98330553 0.332683561,8.98245614 C0.540221696,8.98530042 0.727362098,8.85799177 0.800935673,8.66391163 C0.858572833,8.50653115 0.835587373,8.33090981 0.739389214,8.19366342 C0.645518603,8.06238264 0.494072318,7.98446058 0.332683561,7.98440546 C0.291738207,7.9838701 0.250919954,7.98907737 0.211420403,7.99987524 C0.161274206,8.01399317 0.107410098,8.00380261 0.0658869693,7.97234172 C0.0243638409,7.94088085 -1.47589632e-08,7.89178376 -1.47589632e-08,7.83968811 L-1.47589632e-08,7.13107212 C-1.47589632e-08,7.07901508 0.0243563114,7.0299566 0.0658367533,6.99850331 C0.107317195,6.96705005 0.161130399,6.95682959 0.211254061,6.97088499 C0.25069836,6.98223519 0.291653399,6.98745275 0.332683561,6.98635478 C0.540221696,6.98919905 0.727362098,6.8618904 0.800935673,6.66781027 C0.858572833,6.51042978 0.835587373,6.33480844 0.739389214,6.19756205 C0.645518603,6.06628128 0.494072318,5.98835922 0.332683561,5.98830409 C0.291738207,5.98776874 0.250919954,5.992976 0.211420403,6.00377388 C0.161274206,6.01789181 0.107410098,6.00770124 0.0658869693,5.97624036 C0.0243638409,5.94477949 -1.47589632e-08,5.8956824 -1.47589632e-08,5.84358674 L-1.47589632e-08,5.32293697 C-1.47589632e-08,5.13920091 0.148947504,4.99025341 0.332683561,4.99025341 L8.31708902,4.99025341 C8.50082508,4.99025341 8.64977262,5.13920091 8.64977262,5.32293697 L8.64977262,5.84358674 C8.64977262,5.8956824 8.62540873,5.94477949 8.58388562,5.97624036 C8.54236248,6.00770124 8.48849837,6.01789181 8.43835218,6.00377388 C8.39885262,5.992976 8.35803438,5.98776874 8.31708902,5.98830409 C8.15581767,5.98846649 8.00451834,6.06637667 7.91071605,6.19756205 C7.81451789,6.33480844 7.79153243,6.51042978 7.84916959,6.66781027 C7.92270141,6.86177463 8.10967206,6.98905825 8.31708902,6.98635478 L8.31875244,6.98635478 C8.35908307,6.98667384 8.39926743,6.9814689 8.43818583,6.97088499 C8.48835453,6.95670445 8.5422696,6.96686507 8.58383545,6.99833356 C8.6254013,7.02980205 8.64977262,7.07893783 8.64977262,7.13107212 L8.64977262,7.83968811 C8.64977262,7.89174515 8.62541627,7.94080363 8.58393583,7.97225692 C8.54245538,8.00371019 8.48864219,8.01393064 8.43851852,7.99987524 C8.39916279,7.98810134 8.35813968,7.98287511 8.31708902,7.98440546 C8.10965004,7.98155868 7.9225602,8.10870001 7.84883691,8.30261728 C7.79120954,8.46003258 7.81412737,8.63567368 7.91021702,8.77303184 C8.00415986,8.90433743 8.15563812,8.982306 8.31708902,8.98245614 C8.35803438,8.98299149 8.39885262,8.97778423 8.43835218,8.96698635 C8.48849837,8.95286843 8.54236248,8.96305899 8.58388562,8.99451988 C8.62540873,9.02598075 8.64977262,9.07507784 8.64977262,9.12717349 L8.64977262,9.64782326 C8.64977262,9.83155932 8.50082508,9.98050682 8.31708902,9.98050682 Z M0.332683561,9.3151397 L0.332683561,9.64782326 L8.31708902,9.64782326 L8.31708902,9.3151397 C7.85774888,9.3151397 7.48538012,8.94277093 7.48538012,8.4834308 C7.48538012,8.02409066 7.85774888,7.6517219 8.31708902,7.6517219 L8.31708902,7.31903834 C7.96816879,7.32021973 7.65576021,7.10306253 7.53528265,6.77559974 C7.44213001,6.5201344 7.47933414,6.23529973 7.63497818,6.01233137 C7.79062222,5.789363 8.04517071,5.65624651 8.31708902,5.65562053 L8.31708902,5.32293697 L0.332683561,5.32293697 L0.332683561,5.65562053 C0.60153505,5.65603655 0.853679346,5.78610362 1.00986095,6.00493827 C1.16900492,6.22934273 1.20838679,6.51737701 1.11532164,6.77626511 C0.994478569,7.10372156 0.681722621,7.32062329 0.332683561,7.31903834 L0.332683561,7.6517219 C0.60153505,7.65213792 0.853679346,7.78220498 1.00986095,8.00103964 C1.16900492,8.2254441 1.20838679,8.51347838 1.11532164,8.77236647 C0.994478569,9.09982293 0.681722621,9.31672466 0.332683561,9.3151397 Z" id="Shape" fill="#428DFF"></path>
                    <path d="M1.6634178,9.98050682 C1.57154978,9.98050682 1.49707602,9.90603306 1.49707602,9.81416504 L1.49707602,5.15659519 C1.49707602,5.06472717 1.57154978,4.99025341 1.6634178,4.99025341 C1.75528582,4.99025341 1.82975958,5.06472717 1.82975958,5.15659519 L1.82975958,9.81416504 C1.82975958,9.90603306 1.75528582,9.98050682 1.6634178,9.98050682 Z" id="Shape" fill="#428DFF"></path>
                    <path d="M6.98635478,9.98050682 C6.89448676,9.98050682 6.820013,9.90603306 6.820013,9.81416504 L6.820013,5.15659519 C6.820013,5.06472717 6.89448676,4.99025341 6.98635478,4.99025341 C7.0782228,4.99025341 7.15269656,5.06472717 7.15269656,5.15659519 L7.15269656,9.81416504 C7.15269656,9.90603306 7.0782228,9.98050682 6.98635478,9.98050682 Z" id="Shape" fill="#428DFF"></path>
                    <path d="M4.32488629,9.3151397 C4.28492577,9.3151397 4.24630891,9.30070934 4.21609877,9.27455231 C4.17983626,9.24328005 3.32666927,8.50438986 3.05386875,8.2254347 C3.01760624,8.18834048 2.97868226,8.15124626 2.93876023,8.11298765 C2.66695776,7.85316179 2.32878493,7.52962703 2.32878493,6.86159844 C2.32878493,6.12969461 2.76643015,5.65561734 3.44327485,5.65561734 C3.78627545,5.65480451 4.11089812,5.81056215 4.32488629,6.07862768 C4.53887446,5.81056215 4.86349713,5.65480451 5.20649773,5.65561734 C5.8840078,5.65561734 6.32098765,6.12902924 6.32098765,6.86159844 C6.32098765,7.52962703 5.98281481,7.85316179 5.71101235,8.11298765 C5.67109032,8.15124626 5.63216634,8.18834048 5.59590383,8.2254347 C5.32310331,8.50438986 4.46993632,9.24328005 4.43367381,9.27455231 C4.40346367,9.30070934 4.36484681,9.3151397 4.32488629,9.3151397 Z M3.44327485,5.98830409 C2.94591293,5.98830409 2.66146849,6.30668226 2.66146849,6.86159844 C2.66146849,7.38757115 2.91929825,7.63408967 3.16864457,7.87262378 C3.21139441,7.91337752 3.25297986,7.9531332 3.29173749,7.99288889 C3.49883301,8.20464198 4.08152827,8.71630929 4.32488629,8.92839506 C4.56824431,8.71614295 5.15093957,8.20464198 5.35803509,7.99288889 C5.39679272,7.9531332 5.43837817,7.91337752 5.48112801,7.87262378 C5.73047433,7.63408967 5.98830409,7.38757115 5.98830409,6.86159844 C5.98830409,6.30668226 5.70319428,5.98830409 5.20649773,5.98830409 C4.89583855,5.99418191 4.61402019,6.17172746 4.47459389,6.44940351 C4.44366239,6.50282041 4.3866125,6.53570951 4.32488629,6.53570951 C4.26316008,6.53570951 4.20611019,6.50282041 4.17517869,6.44940351 C4.03575239,6.17172746 3.75393403,5.99418191 3.44327485,5.98830409 Z" id="Shape" fill="#428DFF"></path>
                    <polygon id="Shape" fill="#FFFFFF" points="1.82427031 2.23180767 3.86378687 1.51271215 8.09868226 0.0194619883 8.20946589 0.333182586 3.97440416 1.82643275 1.93505393 2.54552827"></polygon>
                    <path d="M2.66396361,2.11254061 C2.63337546,2.02599277 2.53846042,1.98058244 2.45187784,2.01107212 L1.82427031,2.23230669 L1.93505393,2.54602729 L2.56249513,2.32479272 C2.60409895,2.31010446 2.63816307,2.27948936 2.6571925,2.23968353 C2.67622195,2.1998777 2.67865761,2.15414241 2.66396361,2.11254061 Z" id="Shape" fill="#428DFF"></path>
                    <path d="M8.20946589,0.332683561 L8.09868226,0.0194619883 L3.70725926,1.56810396 C3.65041841,1.58725837 3.60829185,1.63553106 3.59700723,1.69444143 C3.5857226,1.7533518 3.60702777,1.8137752 3.65276634,1.8525793 C3.69850489,1.89138341 3.76159239,1.90255782 3.81787654,1.88182456 L8.20946589,0.332683561 Z" id="Shape" fill="#428DFF"></path>
                    <path d="M3.07931904,1.78933853 C3.03803159,1.80457205 3.00399975,1.83480278 2.9840052,1.8740065 L2.97352567,1.9042807 C2.97059875,1.91512605 2.96914407,1.92631585 2.96920078,1.93754906 C2.96760969,1.94796819 2.96760969,1.95856852 2.96920078,1.96898765 C2.97107901,1.98025057 2.97374705,1.99136746 2.97718519,2.00225601 C2.99230339,2.04361244 3.02256735,2.07768168 3.06185315,2.09756985 C3.11193336,2.1226156 3.17132494,2.12041096 3.21941047,2.09172127 C3.26749599,2.06303159 3.29764417,2.01181334 3.29938921,1.95584665 C3.30075257,1.93409637 3.29787123,1.91228858 3.29090578,1.89163873 C3.27659593,1.84975679 3.24602983,1.81539792 3.206099,1.79630873 C3.16616819,1.77721955 3.12023428,1.77500711 3.07865367,1.79017024 L3.07931904,1.78933853 Z" id="Shape" fill="#428DFF"></path>
                    <path d="M8.03430799,5.32293698 C7.95326897,5.32293698 7.88401137,5.26456836 7.87032214,5.18469391 C7.8566329,5.10481947 7.90249639,5.02670409 7.97891618,4.99973489 L9.64782326,4.41088499 L9.53720598,4.09749708 C9.2805624,4.18760307 8.99609939,4.14684696 8.77508064,3.98830444 C8.5540619,3.82976191 8.42428038,3.5733696 8.42737362,3.30138532 C8.42804426,2.95106039 8.65192438,2.64013066 8.98395322,2.52839506 L8.87333593,2.21500715 C8.54444516,2.33526256 8.17547652,2.23405821 7.95396491,1.96283301 C7.7812672,1.75267873 7.72182613,1.47154585 7.79467912,1.20947379 C7.86753211,0.947401739 8.06353634,0.737279679 8.31991683,0.646404159 L8.32074854,0.646404159 L8.21013125,0.332683561 C8.15423904,0.352889147 8.09181294,0.341741736 8.04636829,0.30344045 C8.00092363,0.265139162 7.97936452,0.205502877 7.98981208,0.146996005 C8.00025964,0.088489132 8.04112662,0.040000258 8.09701884,0.0197946719 C8.18069663,-0.0106719586 8.27316519,-0.00580835205 8.35318519,0.0332683561 C8.43231282,0.0711182665 8.49337629,0.138574879 8.52318648,0.221068226 L8.6968473,0.713606238 C8.71417473,0.762886042 8.7073464,0.81744318 8.67840808,0.860932401 C8.64946977,0.904421623 8.60178306,0.931791039 8.54963483,0.934840806 C8.50945604,0.937428705 8.4698815,0.945949003 8.43219753,0.960124756 C8.2767262,1.01484768 8.15802028,1.14239994 8.11459405,1.3013971 C8.0711678,1.46039426 8.10855393,1.6305793 8.21462248,1.75673554 C8.34929793,1.9162199 8.56956495,1.9740483 8.76521378,1.90128655 C8.80292406,1.88783517 8.83875704,1.86961123 8.87183886,1.84705913 C8.91441683,1.81712731 8.96855015,1.80884947 9.01812732,1.82468935 C9.06770449,1.84052923 9.10701007,1.87866072 9.12434568,1.92773489 L9.36055101,2.59642885 C9.37792539,2.64564952 9.37118828,2.70017134 9.34235533,2.74368231 C9.31352238,2.78719326 9.26593758,2.81464699 9.21383756,2.81782976 C9.17410288,2.82071725 9.13493792,2.82894189 9.09739831,2.842282 C8.89987571,2.90780193 8.76493264,3.09050126 8.76038986,3.2985575 C8.75801607,3.46628368 8.83800497,3.62452126 8.97447173,3.72206368 C9.10642496,3.81440669 9.2747703,3.83756269 9.42675504,3.7842755 C9.46550099,3.77105203 9.50235275,3.75282187 9.53637427,3.73004808 C9.57897465,3.7001225 9.63312866,3.69186764 9.68271039,3.70774163 C9.73229213,3.72361563 9.77158229,3.76178739 9.78888109,3.81089019 L9.96187654,4.3014321 C9.99177353,4.38386451 9.98727795,4.47485503 9.94940091,4.55393892 C9.91128263,4.63452088 9.84224551,4.6963004 9.75794152,4.72527096 L8.08969981,5.31345549 C8.07190724,5.31973464 8.05317604,5.32293698 8.03430799,5.32293698 Z" id="Shape" fill="#428DFF"></path>
                    <path d="M1.26752437,5.32293697 C1.19696229,5.32293697 1.13409068,5.27838043 1.11066407,5.21182066 L0.967443795,4.80411696 C0.950186808,4.75488383 0.957027351,4.70040645 0.985920762,4.65696829 C1.01481417,4.61353012 1.06241305,4.58616362 1.11448993,4.58304873 C1.15382315,4.58021026 1.19253851,4.57169399 1.2294321,4.55776478 C1.42751605,4.49149989 1.56303531,4.30845916 1.56860299,4.09965952 C1.57001221,3.93275339 1.49015834,3.77558955 1.35452112,3.67831579 C1.22190835,3.5854957 1.05277552,3.56204112 0.899909032,3.61527225 C0.861319103,3.62895047 0.824689006,3.64762902 0.790955166,3.67083041 C0.748377197,3.70076223 0.69424387,3.70904006 0.6446667,3.69320019 C0.595089529,3.67736031 0.555783949,3.63922881 0.538448343,3.59015465 L0.365951917,3.09928005 C0.336285905,3.01596484 0.341014484,2.92426631 0.379092917,2.84444444 C0.416683049,2.76394035 0.485365905,2.70216179 0.569387914,2.67327875 L1.82427031,2.2311423 C1.88055446,2.21040904 1.94364196,2.22158345 1.98938051,2.26038756 C2.03511907,2.29919166 2.05642425,2.35961506 2.04513962,2.41852543 C2.03385499,2.47743581 1.99172844,2.52570849 1.93488759,2.5448629 L0.679173489,2.98733203 L0.78945809,3.30088629 C1.04631595,3.21095477 1.33087641,3.25172702 1.55214744,3.41016555 C1.77341848,3.56860409 1.90368275,3.82486225 1.90128655,4.09699805 C1.89892134,4.44722377 1.67500645,4.75752679 1.34337622,4.87015465 L1.42438467,5.10136972 C1.44229627,5.15226021 1.43441427,5.20867689 1.40324089,5.2527097 C1.37206751,5.2967425 1.32147497,5.32293697 1.26752437,5.32293697 Z" id="Shape" fill="#428DFF"></path>
                    <path d="M2.85608837,5.32293715 C2.7855695,5.32293715 2.72271086,5.27848113 2.69922807,5.211987 L1.72280182,2.44389344 C1.69375387,2.35769343 1.73933378,2.26414652 1.82512001,2.23389847 C1.91090624,2.2036504 2.00508013,2.2479204 2.03652242,2.33327615 L3.01294867,5.10120338 C3.0276347,5.14282667 3.02517579,5.18858027 3.00611337,5.22838983 C2.98705097,5.2681994 2.95294811,5.29880063 2.91131384,5.31345549 C2.89358467,5.3197572 2.87490417,5.32293715 2.85608837,5.32293715 Z" id="Shape" fill="#428DFF"></path>
                    <path d="M8.44816634,5.17738791 C8.37760426,5.17738791 8.31473265,5.13283137 8.29130604,5.0662716 L6.74233138,0.673684211 C6.72019374,0.617093436 6.7306765,0.552934397 6.76967451,0.506332405 C6.80867253,0.459730412 6.86997912,0.438102358 6.92958602,0.449918002 C6.98919292,0.461733645 7.03761344,0.505112481 7.05588564,0.563066927 L8.6048603,4.95565432 C8.62282992,5.00653724 8.61499999,5.06297539 8.58385724,5.10704472 C8.55271446,5.15111405 8.50212906,5.17733791 8.44816634,5.17738791 Z" id="Shape" fill="#428DFF"></path>
                    <path d="M5.43604938,5.32293697 C5.41497092,5.32293529 5.39408483,5.31892742 5.37450292,5.31112671 C4.96995971,5.14960884 4.4399948,4.93353086 4.21011046,4.81991943 C4.16386745,4.7971306 4.11479662,4.77500715 4.06422872,4.75205198 C3.73986225,4.60550487 3.29539701,4.40473034 3.07266537,3.77479402 C2.83047173,3.08480832 3.08564003,2.4931306 3.72289539,2.26673944 C4.04624064,2.15391204 4.40314454,2.19206888 4.69532943,2.37070305 C4.80753565,2.04737657 5.06165597,1.79325625 5.38498246,1.68105003 C6.02356855,1.45765302 6.59395452,1.75806628 6.83797791,2.44788564 C7.05871345,3.0771566 6.84845744,3.4940091 6.67945419,3.82852242 C6.65417024,3.87842495 6.62955166,3.92716309 6.60759454,3.97490318 C6.47734893,4.25552177 6.09692528,4.93319818 5.9345757,5.22246654 L5.92625861,5.23727096 C5.89793707,5.29051812 5.84301263,5.32426438 5.782714,5.3254997 C5.72241537,5.32666865 5.66618956,5.29513835 5.63576826,5.24306231 C5.60534696,5.19098625 5.6054963,5.12652323 5.63615854,5.07458869 L5.64447563,5.05961793 C5.80499545,4.77367641 6.18092788,4.10365172 6.30568421,3.83500975 C6.3291384,3.78410916 6.35558674,3.73187784 6.38253411,3.67848213 C6.53756465,3.37091618 6.6985835,3.05303704 6.52425731,2.55783756 C6.33928525,2.03552437 5.96401819,1.8294269 5.49526706,1.99443795 C5.20377238,2.10180342 4.99706639,2.36351108 4.96014555,2.67194802 C4.95349459,2.73567232 4.91083589,2.78991235 4.850474,2.81139408 C4.79011211,2.83287582 4.72277811,2.81778026 4.67736452,2.7725848 C4.45351325,2.55645399 4.12827701,2.4822717 3.8328473,2.57996101 C3.3654269,2.74630279 3.20224561,3.14103184 3.3857206,3.66351137 C3.56104483,4.15937622 3.88624301,4.30625601 4.20079532,4.44831189 C4.2548564,4.47276413 4.30725406,4.49638467 4.3571566,4.52100325 C4.52832229,4.6060039 4.9328655,4.77650422 5.49643145,5.00139831 C5.57128192,5.03026842 5.61486192,5.10844993 5.60005518,5.18729684 C5.58524844,5.26614376 5.51627414,5.3231886 5.43604938,5.32293697 Z" id="Shape" fill="#428DFF"></path>
                </g>
            </g>
        </g>
    </g>
</svg>