<?xml version="1.0" encoding="UTF-8"?>
<svg width="16px" height="16px" viewBox="0 0 16 16" version="1.1" xmlns="http://www.w3.org/2000/svg" xmlns:xlink="http://www.w3.org/1999/xlink">
    <!-- Generator: Sketch 61.2 (89653) - https://sketch.com -->
    <title>settings</title>
    <desc>Created with Sketch.</desc>
    <g id="Page-1" stroke="none" stroke-width="1" fill="none" fill-rule="evenodd">
        <g id="History" transform="translate(-1301.000000, -159.000000)" fill="#333539" fill-rule="nonzero" stroke="#333539" stroke-width="0.576">
            <g id="settings" transform="translate(1301.000000, 159.000000)">
                <g id="Group-2" transform="translate(0.800000, 0.400000)">
                    <path d="M13.6512,5.5872 L12.3264,5.5872 C12.096,5.5872 11.9232,5.472 11.8656,5.2416 C11.808,5.0688 11.808,4.8384 11.9808,4.6656 L12.96,3.6864 C13.0752,3.5712 13.1904,3.3408 13.1904,3.168 C13.1904,2.9952 13.1328,2.7648 12.96,2.6496 L11.7504,1.44 C11.4624,1.152 11.0016,1.152 10.7136,1.44 L9.7344,2.4192 C9.5616,2.592 9.3888,2.592 9.1584,2.5344 C8.9856,2.4768 8.8128,2.2464 8.8128,2.0736 L8.8128,0.7488 C8.8128,0.3456 8.4672,0 8.064,0 L6.336,0 C5.9328,0 5.5872,0.3456 5.5872,0.7488 L5.5872,2.0736 C5.5872,2.304 5.472,2.4768 5.2416,2.5344 C5.0688,2.592 4.8384,2.592 4.6656,2.4192 L3.6864,1.44 C3.3984,1.152 2.9376,1.152 2.6496,1.44 L1.44,2.6496 C1.3248,2.7648 1.2096,2.9952 1.2096,3.168 C1.2096,3.3408 1.2672,3.5712 1.44,3.6864 L2.4192,4.6656 C2.592,4.8384 2.592,5.0112 2.5344,5.2416 C2.4768,5.4144 2.2464,5.5872 2.0736,5.5872 L0.7488,5.5872 C0.3456,5.5872 0,5.9328 0,6.336 L0,8.064 C0,8.4672 0.3456,8.8128 0.7488,8.8128 L2.0736,8.8128 C2.304,8.8128 2.4768,8.928 2.5344,9.1584 C2.592,9.3312 2.592,9.5616 2.4192,9.7344 L1.44,10.7136 C1.3248,10.8288 1.2096,11.0592 1.2096,11.232 C1.2096,11.4048 1.2672,11.6352 1.44,11.7504 L2.6496,12.96 C2.9376,13.248 3.3984,13.248 3.6864,12.96 L4.6656,11.9808 C4.8384,11.808 5.0112,11.808 5.2416,11.8656 C5.4144,11.9232 5.5872,12.1536 5.5872,12.3264 L5.5872,13.6512 C5.5872,14.0544 5.9328,14.4 6.336,14.4 L8.064,14.4 C8.4672,14.4 8.8128,14.0544 8.8128,13.6512 L8.8128,12.3264 C8.8128,12.096 8.928,11.9232 9.1584,11.8656 C9.3312,11.808 9.5616,11.808 9.7344,11.9808 L10.7136,12.96 C11.0016,13.248 11.4624,13.248 11.7504,12.96 L12.96,11.7504 C13.0752,11.6352 13.1904,11.4048 13.1904,11.232 C13.1904,11.0592 13.1328,10.8288 12.96,10.7136 L11.9808,9.7344 C11.808,9.5616 11.808,9.3888 11.8656,9.1584 C11.9232,8.9856 12.1536,8.8128 12.3264,8.8128 L13.6512,8.8128 C14.0544,8.8128 14.4,8.4672 14.4,8.064 L14.4,6.336 C14.4,5.9328 14.0544,5.5872 13.6512,5.5872 Z M13.8816,8.064 C13.8816,8.1792 13.7664,8.2944 13.6512,8.2944 L12.3264,8.2944 C11.8656,8.2944 11.52,8.5248 11.3472,8.928 C11.1744,9.3312 11.2896,9.792 11.5776,10.08 L12.5568,11.0592 C12.6144,11.1168 12.6144,11.2896 12.5568,11.3472 L11.3472,12.5568 C11.2896,12.6144 11.1168,12.6144 11.0592,12.5568 L10.08,11.5776 C9.792,11.2896 9.3312,11.1744 8.928,11.3472 C8.5248,11.52 8.2944,11.8656 8.2944,12.3264 L8.2944,13.6512 C8.2944,13.7664 8.1792,13.8816 8.064,13.8816 L6.336,13.8816 C6.2208,13.8816 6.1056,13.7664 6.1056,13.6512 L6.1056,12.3264 C6.1056,11.8656 5.8752,11.52 5.472,11.3472 C5.3568,11.2896 5.184,11.2896 5.0688,11.2896 C4.7808,11.2896 4.5504,11.4048 4.32,11.5776 L3.3408,12.5568 C3.2832,12.6144 3.1104,12.6144 3.0528,12.5568 L1.8432,11.3472 C1.7856,11.2896 1.7856,11.1168 1.8432,11.0592 L2.8224,10.08 C3.1104,9.792 3.2256,9.3312 3.0528,8.928 C2.88,8.5248 2.5344,8.2944 2.0736,8.2944 L0.7488,8.2944 C0.6336,8.2944 0.5184,8.1792 0.5184,8.064 L0.5184,6.336 C0.5184,6.2208 0.6336,6.1056 0.7488,6.1056 L2.0736,6.1056 C2.5344,6.1056 2.88,5.8752 3.0528,5.472 C3.2256,5.0688 3.1104,4.608 2.8224,4.32 L1.8432,3.3408 C1.7856,3.2832 1.7856,3.1104 1.8432,3.0528 L3.0528,1.8432 C3.1104,1.7856 3.2832,1.7856 3.3408,1.8432 L4.32,2.8224 C4.608,3.1104 5.0688,3.2256 5.472,3.0528 C5.8752,2.88 6.1056,2.5344 6.1056,2.0736 L6.1056,0.7488 C6.1056,0.6336 6.2208,0.5184 6.336,0.5184 L8.064,0.5184 C8.1792,0.5184 8.2944,0.6336 8.2944,0.7488 L8.2944,2.0736 C8.2944,2.5344 8.5248,2.88 8.928,3.0528 C9.3312,3.2256 9.792,3.1104 10.08,2.8224 L11.0592,1.8432 C11.1168,1.7856 11.2896,1.7856 11.3472,1.8432 L12.5568,3.0528 C12.6144,3.1104 12.6144,3.2832 12.5568,3.3408 L11.5776,4.32 C11.2896,4.608 11.1744,5.0688 11.3472,5.472 C11.52,5.8752 11.8656,6.1056 12.3264,6.1056 L13.6512,6.1056 C13.7664,6.1056 13.8816,6.2208 13.8816,6.336 L13.8816,8.064 L13.8816,8.064 Z" id="Shape_1_"></path>
                    <path d="M7.2,4.7808 C5.8752,4.7808 4.7808,5.8752 4.7808,7.2 C4.7808,8.5248 5.8752,9.6192 7.2,9.6192 C8.5248,9.6192 9.6192,8.5248 9.6192,7.2 C9.6192,5.8752 8.5248,4.7808 7.2,4.7808 Z M7.2,9.0432 C6.1632,9.0432 5.3568,8.1792 5.3568,7.2 C5.3568,6.2208 6.2208,5.3568 7.2,5.3568 C8.1792,5.3568 9.0432,6.2208 9.0432,7.2 C9.0432,8.1792 8.2368,9.0432 7.2,9.0432 Z" id="Shape_2_"></path>
                </g>
            </g>
        </g>
    </g>
</svg>