<?xml version="1.0" encoding="UTF-8"?>
<svg width="17px" height="14px" viewBox="0 0 17 14" version="1.1" xmlns="http://www.w3.org/2000/svg" xmlns:xlink="http://www.w3.org/1999/xlink">
    <!-- Generator: Sketch 61.2 (89653) - https://sketch.com -->
    <title>Group</title>
    <desc>Created with Sketch.</desc>
    <g id="Page-1" stroke="none" stroke-width="1" fill="none" fill-rule="evenodd">
        <g id="Home" transform="translate(-907.000000, -782.000000)">
            <g id="Group" transform="translate(907.082474, 780.000000)">
                <g id="Group-31">
                    <rect id="Rectangle" x="0" y="0" width="16.9793814" height="18"></rect>
                    <path d="M10.2481871,2.67705727 L15.7681069,8.16725338 C15.8533829,8.25068559 15.9028231,8.37535768 15.9028231,8.50696366 C15.9028231,8.63856963 15.8533829,8.76324172 15.7681069,8.84667393 L10.2481871,14.33687 C10.1386209,14.4459198 9.98612162,14.4695699 9.85684417,14.397561 C9.72756672,14.325552 9.64480255,14.1708575 9.6444551,14.0005846 L9.6444551,11.591772 C8.66903007,11.5803524 4.87545994,11.7105359 1.52393023,15.2084277 C1.39925437,15.3385779 1.21709407,15.3532875 1.07886632,15.2443669 C0.940638567,15.1354463 0.880404045,14.9297346 0.931698074,14.741761 C2.4687749,9.08947236 6.31844583,6.60404302 9.6444551,5.54568473 L9.6444551,3.02019452 C9.64363451,2.89354444 9.68865643,2.7726353 9.76796875,2.68849104 C9.84728107,2.60434679 9.95316397,2.56515755 10.0584491,2.58097883 C10.1280712,2.59078258 10.193899,2.62411605 10.2481871,2.67705727 Z M10.3804444,5.8750965 C10.380516,6.07545524 10.2669842,6.25048202 10.1044484,6.3005867 C7.19107155,7.18086278 3.99295356,9.22764962 2.16216176,13.5682426 C5.94718916,10.5250708 9.68745528,10.6872732 10.0297087,10.7064669 C10.2261682,10.7174985 10.3806421,10.9109414 10.3804444,11.1456826 L10.3804444,13.0535257 L14.9573779,8.51038844 L10.3804444,3.95352786 L10.3804444,5.8750965 Z" id="Shape" stroke="#4D4D4D" stroke-width="0.3" fill="#4D4D4D" fill-rule="nonzero"></path>
                </g>
            </g>
        </g>
    </g>
</svg>