<?xml version="1.0" encoding="UTF-8"?>
<svg width="108px" height="108px" viewBox="0 0 108 108" version="1.1" xmlns="http://www.w3.org/2000/svg" xmlns:xlink="http://www.w3.org/1999/xlink">
    <!-- Generator: Sketch 61.2 (89653) - https://sketch.com -->
    <title>Group</title>
    <desc>Created with Sketch.</desc>
    <defs>
        <rect id="path-1" x="0" y="0" width="108" height="108" rx="14"></rect>
    </defs>
    <g id="Page-1" stroke="none" stroke-width="1" fill="none" fill-rule="evenodd">
        <g id="Loan-" transform="translate(-1252.000000, -38.000000)">
            <g id="Group" transform="translate(1252.000000, 38.000000)">
                <mask id="mask-2" fill="white">
                    <use xlink:href="#path-1"></use>
                </mask>
                <use id="Rectangle_4_" fill="#FFFFFF" transform="translate(54.000000, 54.000000) scale(-1, 1) translate(-54.000000, -54.000000) " xlink:href="#path-1"></use>
                <g id="man-(1)-copy" mask="url(#mask-2)">
                    <g transform="translate(13.216679, 13.000000)">
                        <g id="Icons" stroke-width="1" fill="none" fill-rule="evenodd" transform="translate(3.783321, 4.000000)">
                            <path d="M73.9497624,89.08993 L73.9497624,93.9493807 L0,93.9493807 L0,89.08993 C0,84.2146901 2.98690799,79.8455134 7.50750849,78.1075714 L23.1816429,72.0818525 C25.6811068,71.1294963 27.3333142,68.7162398 27.32926,66.0237372 L27.32926,62.7841034 C27.3523076,60.9453533 26.5772221,59.1881619 25.2072234,57.9732472 C21.2295798,54.6213145 19.040021,49.5854384 19.2912424,44.3667851 C19.2912424,44.1562089 19.2912424,43.9294346 19.3073184,43.7350565 L17.6675628,43.7350565 C15.0039981,43.7350565 12.8447522,41.5594063 12.8447522,38.8756058 L12.8447522,34.0161551 C12.8398807,32.0641983 14.0003165,30.3007363 15.7866667,29.5454604 C14.8757136,26.6329073 14.4307336,23.5928034 14.4684318,20.5392784 C14.4684318,8.24648788 22.2315492,5.75474569e-15 32.4735913,5.75474569e-15 C41.0437257,5.75474569e-15 50.0350523,3.72557889 51.9898982,11.9866451 C57.087609,13.1966484 61.1532383,20.0079785 58.8865173,29.1567044 L58.5328445,29.7236403 C60.1176154,30.5591865 61.1091877,32.2139552 61.1050102,34.0161551 L61.1050102,38.8756058 C61.1050102,41.5594063 58.9457643,43.7350565 56.2821996,43.7350565 L54.642444,43.7350565 C54.65852,43.9294346 54.65852,44.1562089 54.65852,44.3667851 C54.9097414,49.5854384 52.7201826,54.6213145 48.742539,57.9732472 C47.3725403,59.1881619 46.5974548,60.9453533 46.6205024,62.7841034 L46.6205024,66.0237372 C46.6164482,68.7162398 48.2686556,71.1294963 50.7681195,72.0818525 L66.4422539,78.1075714 C70.9628543,79.8455134 73.9497624,84.2146901 73.9497624,89.08993 Z" id="Shape" fill="#CAD9FC" fill-rule="nonzero"></path>
                            <path d="M69.1269518,89.08993 L69.1269518,93.9493807 L0,93.9493807 L0,89.08993 C0,84.2146901 2.98690799,79.8455134 7.50750849,78.1075714 L23.1816429,72.0818525 C25.6811068,71.1294963 27.3333142,68.7162398 27.32926,66.0237372 L27.32926,62.7841034 C27.3523076,60.9453533 26.5772221,59.1881619 25.2072234,57.9732472 C21.2295798,54.6213145 19.040021,49.5854384 19.2912424,44.3667851 C19.2912424,44.1562089 19.2912424,43.9294346 19.3073184,43.7350565 L17.6675628,43.7350565 C15.0039981,43.7350565 12.8447522,41.5594063 12.8447522,38.8756058 L12.8447522,34.0161551 C12.8398807,32.0641983 14.0003165,30.3007363 15.7866667,29.5454604 C14.8757136,26.6329073 14.4307336,23.5928034 14.4684318,20.5392784 C14.4684318,9.3787399 20.96315,1.19866451 30.3354786,0.129585353 C38.9200815,0.874701131 45.077203,5.21581045 46.8777189,10.9661605 C47.3953673,12.3365256 46.7635791,11.7938869 47.9065852,12.2296177 C54.2437583,14.7403339 55.7082851,22.5251739 54.0637067,29.1567044 L53.7100339,29.7236403 C55.2948048,30.5591865 56.2863771,32.2139552 56.2821996,34.0161551 L56.2821996,38.8756058 C56.2821996,41.5594063 54.1229537,43.7350565 51.459389,43.7350565 L49.8196334,43.7350565 C49.8357094,43.9294346 49.8357094,44.1562089 49.8357094,44.3667851 C50.0869308,49.5854384 47.897372,54.6213145 43.9197284,57.9732472 C42.5497297,59.1881619 41.7746442,60.9453533 41.7976918,62.7841034 L41.7976918,66.0237372 C41.7936376,68.7162398 43.445845,71.1294963 45.9453089,72.0818525 L61.6194433,78.1075714 C66.1400437,79.8455134 69.1269518,84.2146901 69.1269518,89.08993 Z" id="Shape" fill="#E8EDFC" fill-rule="nonzero"></path>
                        </g>
                        <path d="M8.71956101,93.1379583 C8.71971601,88.2601191 11.7767193,83.8886128 16.4036416,82.1497441 L32.4464224,76.1208124 C35.0046722,75.1679485 36.6957386,72.7534053 36.691589,70.0594672 L36.691589,66.818106 C36.7151786,64.9783756 35.9218636,63.2202472 34.5196433,62.0046848 C30.4484479,58.6509649 28.207392,53.6124038 28.4645219,48.3909681 C28.4645219,48.1802796 28.4645219,47.9533843 28.4809761,47.7589026 L26.8026544,47.7589026 C24.0764443,47.7589026 21.8664142,45.5820924 21.8664142,42.896861 L21.8664142,38.0348193 C21.8614281,36.0818217 23.0491566,34.3174196 24.8775207,33.5617409 C22.8707242,27.4310928 23.0876607,20.8042846 25.4912599,14.8137082 C27.9263023,8.95655112 33.400673,4.86561976 39.7833208,4.13342334 C38.8635347,4.05076864 37.9404578,4 37.0206717,4 C29.8023622,3.94530888 23.278927,8.22932289 20.5550197,14.8137082 C18.1514204,20.8042846 17.934484,27.4310928 19.9412805,33.5617409 C18.1129164,34.3174196 16.9251879,36.0818217 16.9301739,38.0348193 L16.9301739,42.896861 C16.9301739,45.5820924 19.140204,47.7589026 21.8664142,47.7589026 L23.5447358,47.7589026 C23.5282817,47.9533843 23.5282817,48.1802796 23.5282817,48.3909681 C23.2711518,53.6124038 25.5122077,58.6509649 29.5834031,62.0046848 C30.9856234,63.2202472 31.7789384,64.9783756 31.7553488,66.818106 L31.7553488,70.0594672 C31.7594983,72.7534053 30.0684319,75.1679485 27.5101822,76.1208124 L11.4674014,82.1497441 C6.84047907,83.8886128 3.78332078,88.2601191 3.78332078,93.1379583 L3.78332078,98 L8.71956101,98 L8.71956101,93.1379583 Z" id="Shape" fill="#FFFFFF" fill-rule="nonzero"></path>
                        <g id="Layer_10" stroke-width="1" fill="none" fill-rule="evenodd" transform="translate(0.783321, 0.000000)">
                            <path d="M18.2,9.164826 L20.9625,10.9003321 C18.8756058,14.3898919 17.805906,18.3971464 17.875,22.4665668 L14.625,22.4665668 C14.5525731,17.7841475 15.7912371,13.1753681 18.2,9.164826 Z" id="Shape" fill="#FFFFFF" fill-rule="nonzero"></path>
                            <g id="Group" fill="#428DFF" fill-rule="nonzero">
                                <path d="M17.07875,17.6254182 C16.1812873,17.6254182 15.45375,16.8951432 15.45375,15.9943035 C15.45375,15.0934637 16.1812873,14.3631887 17.07875,14.3631887 C17.9762126,14.3631887 18.70375,15.0934637 18.70375,15.9943035 C18.70375,16.8951432 17.9762126,17.6254182 17.07875,17.6254182 Z" id="Shape"></path>
                                <path d="M78,96.3886872 L78,91.495343 C77.9806381,85.9155964 74.5528002,80.9193075 69.366375,78.9112927 L53.5145,72.8468081 C51.6292332,72.1179756 50.3826838,70.3026413 50.375,68.2747934 L50.375,65.0125639 C50.3460024,63.6370957 50.9227217,62.3187792 51.95125,61.4094314 C56.0832782,57.9612685 58.4759536,52.8489617 58.482125,47.4552447 C60.2119372,47.4643606 61.8740179,46.7809905 63.100395,45.5564277 C64.3267719,44.3318649 65.0162739,42.667131 65.01625,40.9307857 L65.01625,36.0374415 C65.0203599,34.1644646 64.2189582,32.3808342 62.817625,31.1440972 C64.523875,23.6735917 62.560875,15.376111 55.521375,12.5787492 C52.8125,3.92242319 43.50775,0.152917008 34.45,0.152917008 C27.8315261,0.0800386213 21.6613239,3.5019033 18.2,9.164826 C17.9458398,9.53636371 17.8631092,9.9996609 17.9728864,10.4366767 C18.0826638,10.8736925 18.3743488,11.2422282 18.773625,11.4483866 C19.5364669,11.8465279 20.4753195,11.6114563 20.9625,10.9003321 C23.8264458,6.1900457 28.952904,3.34500464 34.45,3.41514651 C42.2955,3.41514651 50.8625,6.67737601 52.59475,14.2294373 C52.849875,15.3076041 53.82325,15.4217822 54.33025,15.6158848 C59.6505,17.7183917 60.83025,23.9345701 59.77075,29.6695695 C59.3615165,29.5602256 58.9397326,29.5053848 58.51625,29.506458 C57.6187874,29.506458 56.89125,30.2367331 56.89125,31.1375728 C56.89125,32.0384125 57.6187874,32.7686875 58.51625,32.7686875 C60.3111754,32.7686875 61.76625,34.2292374 61.76625,36.030917 L61.76625,40.9242613 C61.76625,42.7259409 60.3111754,44.1864908 58.51625,44.1864908 L56.85875,44.1864908 C56.4039676,44.1849907 55.9693699,44.3748545 55.6605393,44.7099566 C55.3517089,45.0450585 55.1969099,45.4947298 55.23375,45.9497258 C55.24675,46.1046817 55.245125,46.2857355 55.245125,46.4537403 C55.5078452,51.2286167 53.506934,55.8472434 49.8485,58.9105636 C48.0879418,60.4414002 47.0911202,62.6747788 47.125,65.0125639 L47.125,68.2747934 C47.1390915,71.6541609 49.2152489,74.6794454 52.355875,75.8969926 L68.20775,81.9598462 C72.1378848,83.4812487 74.7354303,87.2672376 74.75,91.495343 L74.75,94.7575725 L3.25,94.7575725 L3.25,91.495343 C3.26456967,87.2672376 5.86211512,83.4812487 9.79225,81.9598462 L25.644125,75.8969926 C28.7847511,74.6794454 30.8609085,71.6541609 30.875,68.2747934 L30.875,65.0125639 C30.9057331,62.6762584 29.9072433,60.4455273 28.146625,58.9170881 C24.488191,55.8537678 22.4872798,51.2351411 22.75,46.4602647 C22.874951,45.8466572 22.7232701,45.2089918 22.335625,44.7182342 C21.75225,44.0837306 21.25825,44.1930152 19.48375,44.1930152 C17.6888246,44.1930152 16.23375,42.7324653 16.23375,40.9307857 L16.23375,36.0374415 C16.2298394,35.171047 16.5709932,34.3390036 17.1813363,33.7263639 C17.7916793,33.1137243 18.6206035,32.7712867 19.48375,32.775212 C20.3812126,32.775212 21.10875,32.044937 21.10875,31.1440972 C21.10875,30.2432575 20.3812126,29.5129825 19.48375,29.5129825 C19.2272673,29.5233075 18.9716599,29.5494547 18.718375,29.591276 C18.1462107,27.2602618 17.8629432,24.8672586 17.875,22.4665668 C17.875,21.5657271 17.1474626,20.835452 16.25,20.835452 C15.3525373,20.835452 14.625,21.5657271 14.625,22.4665668 C14.6058815,25.2667891 14.9494683,28.0576279 15.647125,30.7689409 C13.9681126,31.9940224 12.9773366,33.9539056 12.98375,36.0374415 L12.98375,40.9307857 C12.9837262,42.667131 13.673228,44.3318649 14.8996051,45.5564277 C16.1259821,46.7809905 17.7880628,47.4643606 19.517875,47.4552447 C19.5240464,52.8489617 21.9167218,57.9612685 26.04875,61.4094314 C27.0772783,62.3187792 27.6539976,63.6370957 27.625,65.0125639 L27.625,68.2747934 C27.6153117,70.3008511 26.3691139,72.1137313 24.4855,72.8419147 L8.633625,78.9063993 C3.44554506,80.9150625 0.0173555687,85.9138068 -1.44328993e-15,91.495343 L-1.44328993e-15,96.3886872 C-1.44328993e-15,97.289527 0.727537281,98.019802 1.625,98.019802 L76.375,98.019802 C77.2724626,98.019802 78,97.289527 78,96.3886872 L78,96.3886872 Z" id="Shape"></path>
                            </g>
                        </g>
                    </g>
                </g>
            </g>
        </g>
    </g>
</svg>