<?xml version="1.0" encoding="UTF-8"?>
<svg width="15px" height="15px" viewBox="0 0 15 15" version="1.1" xmlns="http://www.w3.org/2000/svg" xmlns:xlink="http://www.w3.org/1999/xlink">
    <!-- Generator: Sketch 61.2 (89653) - https://sketch.com -->
    <title>calculator</title>
    <desc>Created with Sketch.</desc>
    <g id="Page-1" stroke="none" stroke-width="1" fill="none" fill-rule="evenodd">
        <g id="Desktop-HD-Copy-14" transform="translate(-1049.000000, -528.000000)" fill-rule="nonzero">
            <g id="calculator" transform="translate(1049.000000, 528.000000)">
                <path d="M4,3.75 L4,1 C4,0.585786437 4.33578645,0.25 4.75,0.25 L14,0.25 C14.4142135,0.25 14.75,0.585786437 14.75,1 L14.75,14 C14.75,14.4142135 14.4142135,14.75 14,14.75 L4.75,14.75 C4.33578645,14.75 4,14.4142135 4,14 L4,3.75 Z" id="Shape" fill="#E8EDFC"></path>
                <path d="M14,0.25 L13.25,0.25 C13.6642135,0.25 14,0.585786437 14,1 L14,14 C14,14.4142135 13.6642135,14.75 13.25,14.75 L14,14.75 C14.4142135,14.75 14.75,14.4142135 14.75,14 L14.75,1 C14.75,0.585786437 14.4142135,0.25 14,0.25 Z" id="Shape" fill="#CAD9FC"></path>
                <path d="M8.75,1.25 L13.5,1.25 C13.6380712,1.25 13.75,1.36192881 13.75,1.5 L13.75,3.5 C13.75,3.63807117 13.6380712,3.75 13.5,3.75 L5.25,3.75 C5.11192882,3.75 5,3.63807117 5,3.5 L5,1.5 C5,1.36192881 5.11192882,1.25 5.25,1.25 L8.75,1.25 Z" id="Shape" fill="#A4C2F7"></path>
                <path d="M13.5,1.25 L12.75,1.25 C12.8880712,1.25 13,1.36192881 13,1.5 L13,3.5 C13,3.63807117 12.8880712,3.75 12.75,3.75 L13.5,3.75 C13.6380712,3.75 13.75,3.63807117 13.75,3.5 L13.75,1.5 C13.75,1.36192881 13.6380712,1.25 13.5,1.25 Z" id="Shape" fill="#7FACFA"></path>
                <path d="M9,13.75 L8.75,13.75 C8.47419952,13.7491763 8.2508237,13.5258005 8.25,13.25 L8.25,12 C8.2508237,11.7241995 8.47419952,11.5008237 8.75,11.5 L13.25,11.5 C13.5258005,11.5008237 13.7491763,11.7241995 13.75,12 L13.75,13.25 C13.7491763,13.5258005 13.5258005,13.7491763 13.25,13.75 L9,13.75 Z" id="Shape" fill="#E8EDFC"></path>
                <path d="M13.25,11.5 L12.5,11.5 C12.7758005,11.5008237 12.9991763,11.7241995 13,12 L13,13.25 C12.9991763,13.5258005 12.7758005,13.7491763 12.5,13.75 L13.25,13.75 C13.5258005,13.7491763 13.7491763,13.5258005 13.75,13.25 L13.75,12 C13.7491763,11.7241995 13.5258005,11.5008237 13.25,11.5 Z" id="Shape" fill="#CAD9FC"></path>
                <rect id="Rectangle-path" fill="#E8EDFC" x="11.5" y="8.25" width="2.25" height="2.25" rx="1.125"></rect>
                <path d="M13.25,8.25 L12.5,8.25 C12.7761424,8.25 13,8.47385763 13,8.75 L13,10 C13,10.2761424 12.7761424,10.5 12.5,10.5 L13.25,10.5 C13.5261424,10.5 13.75,10.2761424 13.75,10 L13.75,8.75 C13.75,8.47385763 13.5261424,8.25 13.25,8.25 Z" id="Shape" fill="#CAD9FC"></path>
                <rect id="Rectangle-path" fill="#E8EDFC" x="8.25" y="8.25" width="2.25" height="2.25" rx="1.125"></rect>
                <path d="M10,8.25 L9.25,8.25 C9.52614237,8.25 9.75,8.47385763 9.75,8.75 L9.75,10 C9.75,10.2761424 9.52614237,10.5 9.25,10.5 L10,10.5 C10.2761424,10.5 10.5,10.2761424 10.5,10 L10.5,8.75 C10.5,8.47385763 10.2761424,8.25 10,8.25 Z" id="Shape" fill="#CAD9FC"></path>
                <rect id="Rectangle-path" fill="#E8EDFC" x="11.5" y="5" width="2.25" height="2.25" rx="1.125"></rect>
                <path d="M13.25,5 L12.5,5 C12.7761424,5 13,5.22385762 13,5.5 L13,6.75 C13,7.02614237 12.7761424,7.25 12.5,7.25 L13.25,7.25 C13.5261424,7.25 13.75,7.02614237 13.75,6.75 L13.75,5.5 C13.75,5.22385762 13.5261424,5 13.25,5 Z" id="Shape" fill="#CAD9FC"></path>
                <rect id="Rectangle-path" fill="#E8EDFC" x="8.25" y="5" width="2.25" height="2.25" rx="1.125"></rect>
                <path d="M10,5 L9.25,5 C9.52614237,5 9.75,5.22385762 9.75,5.5 L9.75,6.75 C9.75,7.02614237 9.52614237,7.25 9.25,7.25 L10,7.25 C10.2761424,7.25 10.5,7.02614237 10.5,6.75 L10.5,5.5 C10.5,5.22385762 10.2761424,5 10,5 Z" id="Shape" fill="#CAD9FC"></path>
                <path d="M7,12.375 L7,13.875 C7,14.3575 5.49,14.75 3.625,14.75 C1.76,14.75 0.255,14.36 0.25,13.8775 L0.25,12.375 C0.25,12.8575 1.76,13.25 3.625,13.25 C5.49,13.25 7,12.8575 7,12.375 Z" id="Shape" fill="#E8EDFC"></path>
                <path d="M7,10.875 L7,12.375 C7,12.8575 5.49,13.25 3.625,13.25 C1.76,13.25 0.25,12.8575 0.25,12.375 L0.25,10.875 C0.25,11.3575 1.76,11.75 3.625,11.75 C5.49,11.75 7,11.3575 7,10.875 Z" id="Shape" fill="#A4C2F7"></path>
                <path d="M7,9.375 L7,10.875 C7,11.3575 5.49,11.75 3.625,11.75 C1.76,11.75 0.25,11.3575 0.25,10.875 L0.25,9.375 C0.25,9.8575 1.76,10.25 3.625,10.25 C5.49,10.25 7,9.8575 7,9.375 Z" id="Shape" fill="#E8EDFC"></path>
                <path d="M7,7.875 L7,9.375 C7,9.8575 5.49,10.25 3.625,10.25 C1.76,10.25 0.25,9.8575 0.25,9.375 L0.25,7.875 C0.25,8.3575 1.76,8.75 3.625,8.75 C5.49,8.75 7,8.3575 7,7.875 Z" id="Shape" fill="#A4C2F7"></path>
                <path d="M7,6.375 L7,7.875 C7,8.3575 5.49,8.75 3.625,8.75 C1.76,8.75 0.25,8.3575 0.25,7.875 L0.25,6.375 C0.25,6.8575 1.76,7.25 3.625,7.25 C5.49,7.25 7,6.8575 7,6.375 Z" id="Shape" fill="#E8EDFC"></path>
                <ellipse id="Oval" fill="#E8EDFC" cx="3.625" cy="6.375" rx="3.375" ry="1"></ellipse>
                <path d="M3.625,5.5 C3.498,5.5 3.37325,5.50225 3.25,5.50575 C4.938,5.55425 6.25,5.92525 6.25,6.375 C6.25,6.82475 4.938,7.19575 3.25,7.24425 C3.37325,7.24775 3.498,7.25 3.625,7.25 C5.49,7.25 7,6.8575 7,6.375 C7,5.8925 5.49,5.5 3.625,5.5 Z" id="Shape" fill="#CAD9FC"></path>
                <path d="M3.625,14.75 C3.74475,14.75 3.861,14.74675 3.97725,14.7435 C2.30275,14.6925 1.00475,14.325 1,13.8775 L1,6.375 C1,5.925 2.312,5.55425 4,5.50575 C4.03825,5.50575 4.30475,5.493 4.75,5.50575 L4.75,1 C4.75,0.585786437 5.08578645,0.25 5.5,0.25 L4.75,0.25 C4.33578645,0.25 4,0.585786437 4,1 L4,5.50575 C3.55475,5.493 3.28825,5.50575 3.25,5.50575 C1.562,5.55425 0.25,5.925 0.25,6.375 L0.25,13.8775 C0.255,14.36 1.7625,14.75 3.625,14.75 Z" id="Shape" fill="#FFFFFF"></path>
                <path d="M2.033,14.394 L1.96225,14.88875 C1.61831298,14.8424512 1.27852597,14.7693113 0.946,14.67 C0.769612972,14.6160455 0.599024667,14.5446949 0.43675,14.457 C0.391682647,14.4333363 0.34869628,14.4059053 0.30825,14.375 C0.261122917,14.3445481 0.218104015,14.3081668 0.18025,14.26675 C0.072008675,14.1642164 0.0074510325,14.0239087 -2.08166817e-16,13.875 L0.48125,13.875 C0.52975,13.86575 0.48475,13.88225 0.539,13.91825 C0.556775242,13.9389601 0.577902407,13.9565379 0.6015,13.97025 C0.627123375,13.9902695 0.65467587,14.0076887 0.68375,14.02225 C0.81526872,14.092292 0.953242002,14.1494739 1.09575,14.193 C1.40254616,14.2839506 1.7158885,14.3511491 2.033,14.394 Z" id="Shape" fill="#FFFFFF"></path>
                <g id="Group" fill="#428DFF">
                    <path d="M14,0 L4.75,0 C4.19771525,0 3.75,0.44771525 3.75,1 L3.75,4.5 C3.75,4.63807118 3.86192883,4.75 4,4.75 C4.13807118,4.75 4.25,4.63807118 4.25,4.5 L4.25,1 C4.25,0.723857625 4.47385762,0.5 4.75,0.5 L14,0.5 C14.2761424,0.5 14.5,0.723857625 14.5,1 L14.5,14 C14.5,14.2761424 14.2761424,14.5 14,14.5 L7.5,14.5 C7.36192882,14.5 7.25,14.6119288 7.25,14.75 C7.25,14.8880712 7.36192882,15 7.5,15 L14,15 C14.5522848,15 15,14.5522848 15,14 L15,1 C15,0.44771525 14.5522848,0 14,0 Z" id="Shape"></path>
                    <path d="M14,1.5 C14,1.22385762 13.7761424,1 13.5,1 L5.25,1 C4.97385762,1 4.75,1.22385762 4.75,1.5 L4.75,3.5 C4.75,3.77614238 4.97385762,4 5.25,4 L13.5,4 C13.7761424,4 14,3.77614238 14,3.5 L14,1.5 Z M9.98025,3.5 L11.38025,1.5 L12.26975,1.5 L10.86975,3.5 L9.98025,3.5 Z M5.25,1.5 L10.76975,1.5 L9.36975,3.5 L5.25,3.5 L5.25,1.5 Z M13.5,3.5 L11.48025,3.5 L12.88025,1.5 L13.5,1.5 L13.5,3.5 Z" id="Shape"></path>
                    <path d="M8,13.25 C8,13.6642135 8.33578645,14 8.75,14 L13.25,14 C13.6642135,14 14,13.6642135 14,13.25 L14,12 C14,11.5857865 13.6642135,11.25 13.25,11.25 L8.75,11.25 C8.33578645,11.25 8,11.5857865 8,12 L8,13.25 Z M8.5,12 C8.5,11.8619288 8.61192882,11.75 8.75,11.75 L13.25,11.75 C13.3880712,11.75 13.5,11.8619288 13.5,12 L13.5,13.25 C13.5,13.3880712 13.3880712,13.5 13.25,13.5 L8.75,13.5 C8.61192882,13.5 8.5,13.3880712 8.5,13.25 L8.5,12 Z" id="Shape"></path>
                    <path d="M14,8.75 C14,8.33578645 13.6642135,8 13.25,8 L12,8 C11.5857865,8 11.25,8.33578645 11.25,8.75 L11.25,10 C11.25,10.4142135 11.5857865,10.75 12,10.75 L13.25,10.75 C13.6642135,10.75 14,10.4142135 14,10 L14,8.75 Z M13.5,10 C13.5,10.1380712 13.3880712,10.25 13.25,10.25 L12,10.25 C11.8619288,10.25 11.75,10.1380712 11.75,10 L11.75,8.75 C11.75,8.61192882 11.8619288,8.5 12,8.5 L13.25,8.5 C13.3880712,8.5 13.5,8.61192882 13.5,8.75 L13.5,10 Z" id="Shape"></path>
                    <path d="M14,5.5 C14,5.08578645 13.6642135,4.75 13.25,4.75 L12,4.75 C11.5857865,4.75 11.25,5.08578645 11.25,5.5 L11.25,6.75 C11.25,7.16421355 11.5857865,7.5 12,7.5 L13.25,7.5 C13.6642135,7.5 14,7.16421355 14,6.75 L14,5.5 Z M13.5,6.75 C13.5,6.88807118 13.3880712,7 13.25,7 L12,7 C11.8619288,7 11.75,6.88807118 11.75,6.75 L11.75,5.5 C11.75,5.36192882 11.8619288,5.25 12,5.25 L13.25,5.25 C13.3880712,5.25 13.5,5.36192882 13.5,5.5 L13.5,6.75 Z" id="Shape"></path>
                    <path d="M8.75,7.5 L10,7.5 C10.4142135,7.5 10.75,7.16421355 10.75,6.75 L10.75,5.5 C10.75,5.08578645 10.4142135,4.75 10,4.75 L8.75,4.75 C8.33578645,4.75 8,5.08578645 8,5.5 L8,6.75 C8,7.16421355 8.33578645,7.5 8.75,7.5 Z M8.5,5.5 C8.5,5.36192882 8.61192882,5.25 8.75,5.25 L10,5.25 C10.1380712,5.25 10.25,5.36192882 10.25,5.5 L10.25,6.75 C10.25,6.88807118 10.1380712,7 10,7 L8.75,7 C8.61192882,7 8.5,6.88807118 8.5,6.75 L8.5,5.5 Z" id="Shape"></path>
                    <path d="M8,10 C8,10.4142135 8.33578645,10.75 8.75,10.75 L10,10.75 C10.4142135,10.75 10.75,10.4142135 10.75,10 L10.75,8.75 C10.75,8.33578645 10.4142135,8 10,8 L8.75,8 C8.33578645,8 8,8.33578645 8,8.75 L8,10 Z M8.5,8.75 C8.5,8.61192882 8.61192882,8.5 8.75,8.5 L10,8.5 C10.1380712,8.5 10.25,8.61192882 10.25,8.75 L10.25,10 C10.25,10.1380712 10.1380712,10.25 10,10.25 L8.75,10.25 C8.61192882,10.25 8.5,10.1380712 8.5,10 L8.5,8.75 Z" id="Shape"></path>
                    <path d="M1.0235,14.681 C0.956979563,14.6813326 0.893069488,14.6551403 0.845914693,14.6082201 C0.798759898,14.5612999 0.77225,14.4975213 0.77225,14.431 C0.77225,14.2935125 0.88326496,14.1818249 1.02075,14.181 L1.0235,14.181 C1.16157119,14.181 1.2735,14.2929288 1.2735,14.431 C1.2735,14.5690712 1.16157119,14.681 1.0235,14.681 Z" id="Shape"></path>
                    <path d="M0.25,14.125 C0.388071188,14.125 0.5,14.0130712 0.5,13.875 L0.5,12.99075 C0.882609065,13.1690885 1.28938569,13.2901359 1.70725,13.35 C1.7214151,13.3519254 1.73570703,13.3527612 1.75,13.3525 C1.87955835,13.3521715 1.98739895,13.2529195 1.99845419,13.1238333 C2.00950944,12.9947471 1.92011581,12.8786036 1.7925,12.85625 C0.7845,12.68125 0.5175,12.43125 0.49975,12.37275 L0.49975,11.49175 C1.2465,11.879 2.669,12 3.625,12 C3.93275,12 4.23325,11.98975 4.51775,11.96925 C4.60883063,11.9655805 4.69069483,11.9126286 4.73138967,11.8310622 C4.77208452,11.7494958 4.76515895,11.6522451 4.71331612,11.5772687 C4.66147327,11.5022923 4.57293147,11.4614756 4.48225,11.47075 C4.20925,11.49 3.921,11.5 3.625,11.5 C1.7115,11.5 0.559,11.0865 0.5,10.87275 L0.5,9.99075 C0.882609065,10.1690885 1.28938569,10.2901359 1.70725,10.35 C1.7214151,10.3519254 1.73570703,10.3527612 1.75,10.3525 C1.87955835,10.3521715 1.98739895,10.2529195 1.99845419,10.1238333 C2.00950943,9.99474705 1.9201158,9.87860355 1.7925,9.85625 C0.7845,9.68125 0.5175,9.43125 0.49975,9.37275 L0.49975,8.49175 C1.2465,8.879 2.669,9 3.625,9 C3.93275,9 4.23325,8.98975 4.51775,8.96925 C4.60883062,8.9655805 4.69069482,8.91262855 4.73138967,8.83106218 C4.77208452,8.7494958 4.76515895,8.65224513 4.71331612,8.5772687 C4.66147327,8.50229228 4.57293147,8.46147555 4.48225,8.47075 C4.20925,8.49 3.921,8.5 3.625,8.5 C1.7115,8.5 0.559,8.0865 0.5,7.87275 L0.5,6.99075 C0.882609065,7.16908845 1.28938569,7.29013588 1.70725,7.35 C1.84331915,7.37361018 1.97276482,7.28244415 1.99637499,7.146375 C2.01998516,7.01030585 1.92881915,6.88086018 1.79275,6.85725 C0.78225,6.68225 0.51775,6.43225 0.5,6.38025 L0.5,6.37875 C0.5575,6.16425 1.71,5.75 3.625,5.75 C5.54,5.75 6.695,6.165 6.75,6.3715 C6.695,6.585 5.542,7 3.625,7 C3.41675,7 3.21075,6.995 3.01225,6.98525 C2.87417882,6.97834645 2.75665357,7.08467883 2.74975,7.22275 C2.74284645,7.36082118 2.84917882,7.47834645 2.98725,7.48525 C3.19375,7.4955 3.40775,7.5005 3.6245,7.5005 C4.5805,7.5005 6.003,7.3795 6.7495,6.99225 L6.7495,7.8725 C6.7365,7.9225 6.5215,8.1375 5.6995,8.31025 C5.57412465,8.3363562 5.48875105,8.45298395 5.50175525,8.58038648 C5.51475945,8.70778898 5.62193575,8.80476283 5.75,8.805 C5.76731387,8.80501233 5.7845792,8.80316845 5.8015,8.7995 C6.12993045,8.738607 6.44886322,8.63453773 6.75,8.49 L6.75,9.372 C6.6935,9.5855 5.54075,10 3.625,10 C3.41675,10 3.21075,9.995 3.01225,9.98525 C2.87417882,9.97834645 2.75665355,10.0846788 2.74975,10.22275 C2.74284645,10.3608212 2.84917882,10.4783465 2.98725,10.48525 C3.19375,10.4955 3.40775,10.5005 3.6245,10.5005 C4.58075,10.5005 6.00325,10.3795 6.7495,9.99225 L6.7495,10.87275 C6.737,10.921 6.52275,11.13775 5.698,11.31075 C5.57347977,11.3379195 5.48933135,11.4544112 5.50266672,11.5811615 C5.51600212,11.7079118 5.62255185,11.8043401 5.75,11.805 C5.76731387,11.8050123 5.7845792,11.8031685 5.8015,11.7995 C6.12990442,11.7385048 6.44882397,11.6344399 6.75,11.49 L6.75,12.37175 C6.6945,12.585 5.5415,13 3.625,13 C3.41675,13 3.21075,12.995 3.01225,12.98525 C2.87417882,12.9783465 2.75665355,13.0846788 2.74975,13.22275 C2.74284645,13.3608212 2.84917882,13.4783465 2.98725,13.48525 C3.19375,13.4955 3.40775,13.5005 3.6245,13.5005 C4.58075,13.5005 6.0035,13.3795 6.7495,12.992 L6.7495,13.872 C6.695,14.085 5.542,14.5 3.625,14.5 C3.09254992,14.5006143 2.56066845,14.4652001 2.033,14.394 C1.8976941,14.3750983 1.77204458,14.4676705 1.75,14.6025 C1.7389829,14.6686654 1.75526511,14.7364703 1.79512541,14.7904184 C1.8349857,14.8443664 1.8950172,14.8798466 1.9615,14.88875 C2.51283012,14.9635676 3.068617,15.000737 3.625,15.0000107 C4.9715,15.0000107 7.25,14.763 7.25,13.875 L7.25,6.375 C7.25,5.487 4.9715,5.25 3.625,5.25 C2.2785,5.25 -3.55271368e-15,5.487 -3.55271368e-15,6.375 L-3.55271368e-15,13.875 C-3.55271368e-15,14.0130712 0.111928812,14.125 0.25,14.125 L0.25,14.125 Z" id="Shape"></path>
                </g>
            </g>
        </g>
    </g>
</svg>