<?xml version="1.0" encoding="UTF-8"?>
<svg width="16px" height="16px" viewBox="0 0 16 16" version="1.1" xmlns="http://www.w3.org/2000/svg" xmlns:xlink="http://www.w3.org/1999/xlink">
    <!-- Generator: Sketch 61.2 (89653) - https://sketch.com -->
    <title>temple</title>
    <desc>Created with Sketch.</desc>
    <g id="Page-1" stroke="none" stroke-width="1" fill="none" fill-rule="evenodd">
        <g id="Desktop-HD-Copy-14" transform="translate(-658.000000, -591.000000)" fill-rule="nonzero">
            <g id="temple" transform="translate(658.000000, 591.000000)">
                <path d="M14.9042398,13.8397904 L14.9042398,14.6382797 L1.06457113,14.6382797 L1.06457113,13.8397904 C1.06457113,13.6927388 1.1837232,13.5735867 1.33077486,13.5735867 L14.6380361,13.5735867 C14.7850877,13.5735867 14.9042398,13.6927388 14.9042398,13.8397904 L14.9042398,13.8397904 Z" id="Path" fill="#A4C2F7"></path>
                <path d="M14.1057505,13.8397904 L14.1057505,14.6382797 L1.06457113,14.6382797 L1.06457113,13.8397904 C1.06457113,13.6927388 1.1837232,13.5735867 1.33077486,13.5735867 L13.8396686,13.5735867 C13.9865984,13.5735867 14.1057505,13.6927388 14.1057505,13.8397904 L14.1057505,13.8397904 Z" id="Path" fill="#E3E7F2"></path>
                <path d="M14.9042398,3.72624268 L14.9042398,5.05689572 C14.9042398,5.20394735 14.7850877,5.32309942 14.6380361,5.32309942 L1.33077486,5.32309942 C1.1837232,5.32309942 1.06457113,5.20394735 1.06457113,5.05689572 L1.06457113,3.72624268 L14.9042398,3.72624268 Z" id="Path" fill="#A4C2F7"></path>
                <path d="M14.1057505,3.72624268 L14.1057505,5.05689572 C14.1057505,5.20394735 13.9865984,5.32309942 13.8396686,5.32309942 L1.33077486,5.32309942 C1.1837232,5.32309942 1.06457113,5.20394735 1.06457113,5.05689572 L1.06457113,3.72624268 L14.1057505,3.72624268 Z" id="Path" fill="#E3E7F2"></path>
                <path d="M1.33077486,5.32309942 L2.92763159,5.32309942 C3.0745614,5.32309942 3.19371347,5.44225148 3.19371347,5.58918129 L3.19371347,6.12146685 C3.19371347,6.26851852 3.0745614,6.38767058 2.92763159,6.38767058 L1.33077486,6.38767058 C1.1837232,6.38767058 1.06457113,6.26851852 1.06457113,6.12146685 L1.06457113,5.58918129 C1.06457113,5.44225148 1.1837232,5.32309942 1.33077486,5.32309942 Z" id="Path" fill="#7FABFA"></path>
                <path d="M13.0411793,5.32309942 L14.6380361,5.32309942 C14.7850877,5.32309942 14.9042398,5.44225148 14.9042398,5.58918129 L14.9042398,6.12146685 C14.9042398,6.26851852 14.7850877,6.38767058 14.6380361,6.38767058 L13.0411793,6.38767058 C12.8942495,6.38767058 12.7750975,6.26851852 12.7750975,6.12146685 L12.7750975,5.58918129 C12.7750975,5.44225148 12.8942495,5.32309942 13.0411793,5.32309942 L13.0411793,5.32309942 Z" id="Path" fill="#7FABFA"></path>
                <path d="M9.04897659,5.32309942 L10.6458333,5.32309942 C10.792885,5.32309942 10.9120371,5.44225148 10.9120371,5.58918129 L10.9120371,6.12146685 C10.9120371,6.26851852 10.792885,6.38767058 10.6458333,6.38767058 L9.04897659,6.38767058 C8.90204678,6.38767058 8.78289472,6.26851852 8.78289472,6.12146685 L8.78289472,5.58918129 C8.78289472,5.44225148 8.90204678,5.32309942 9.04897659,5.32309942 L9.04897659,5.32309942 Z" id="Path" fill="#7FABFA"></path>
                <path d="M5.32297759,5.32309942 L6.91983432,5.32309942 C7.06676413,5.32309942 7.18591619,5.44225148 7.18591619,5.58918129 L7.18591619,6.12146685 C7.18591619,6.26851852 7.06676413,6.38767058 6.91983432,6.38767058 L5.32297759,6.38767058 C5.17592593,6.38767058 5.05677386,6.26851852 5.05677386,6.12146685 L5.05677386,5.58918129 C5.05677386,5.44225148 5.17592593,5.32309942 5.32297759,5.32309942 Z" id="Path" fill="#7FABFA"></path>
                <path d="M0.532285567,14.6382797 L15.4365253,14.6382797 C15.5834552,14.6382797 15.7026072,14.7574318 15.7026072,14.9043616 L15.7026072,15.4366472 C15.7026072,15.5836988 15.5834552,15.7028509 15.4365253,15.7028509 L0.532285567,15.7028509 C0.385355758,15.7028509 0.266203696,15.5836988 0.266203696,15.4366472 L0.266203696,14.9043616 C0.266203696,14.7574318 0.385355758,14.6382797 0.532285567,14.6382797 L0.532285567,14.6382797 Z" id="Path" fill="#A4C2F7"></path>
                <path d="M0.532285567,14.6382797 L14.6380361,14.6382797 C14.7850877,14.6382797 14.9042398,14.7574318 14.9042398,14.9043616 L14.9042398,15.4366472 C14.9042398,15.5836988 14.7850877,15.7028509 14.6380361,15.7028509 L0.532285567,15.7028509 C0.385355758,15.7028509 0.266203696,15.5836988 0.266203696,15.4366472 L0.266203696,14.9043616 C0.266203696,14.7574318 0.385355758,14.6382797 0.532285567,14.6382797 L0.532285567,14.6382797 Z" id="Path" fill="#E3E7F2"></path>
                <path d="M15.5030458,3.72624268 L0.465765115,3.72624268 C0.371223205,3.72392789 0.290570168,3.6570419 0.270955166,3.56457113 C0.251340164,3.47197854 0.297758285,3.37804582 0.383284585,3.33759747 L7.09015595,0.545687142 L7.55860136,0.351486347 C7.83089669,0.23696393 8.13791423,0.23696393 8.41020956,0.351486347 L15.5855263,3.33759747 C15.6710526,3.37804582 15.7174708,3.47197854 15.6978558,3.56457113 C15.6782407,3.6570419 15.5975877,3.72392789 15.5030458,3.72624268 Z" id="Path" fill="#A4C2F7"></path>
                <path d="M14.6274367,3.72624268 L0.465765115,3.72624268 C0.371223205,3.72392789 0.290570168,3.6570419 0.270955166,3.56457113 C0.251340164,3.47197854 0.297758285,3.37804582 0.383284585,3.33759747 L7.09015595,0.545687142 C7.17787524,0.559454191 7.26364522,0.583577014 7.34563839,0.617568218 L14.5209552,3.60380117 C14.5733431,3.62621832 14.6124513,3.67129631 14.6274367,3.72624268 Z" id="Path" fill="#E3E7F2"></path>
                <polygon id="Path" fill="#7FABFA" points="11.1915205 2.66167155 4.77729045 2.66167155 7.27643761 1.62097952 7.96844541 1.33357698 8.0003655 1.33357698"></polygon>
                <polygon id="Path" fill="#E3E7F2" points="9.77290448 2.66167155 4.77729045 2.66167155 7.27643761 1.62097952"></polygon>
                <path d="M2.92763159,13.5735867 L1.33077486,13.5735867 C1.33077486,7.45224172 1.59685673,6.38767058 1.59685673,6.38767058 L2.66142787,6.38767058 C2.66142787,6.38767058 2.92763159,7.45224172 2.92763159,13.5735867 Z" id="Path" fill="#7FABFA"></path>
                <path d="M6.91983432,13.5735867 L5.32297759,13.5735867 C5.32297759,7.45224172 5.58905946,6.38767058 5.58905946,6.38767058 L6.6536306,6.38767058 C6.6536306,6.38767058 6.91983432,7.45224172 6.91983432,13.5735867 Z" id="Path" fill="#7FABFA"></path>
                <path d="M10.6458333,13.5735867 L9.04897659,13.5735867 C9.04897659,7.45224172 9.31518032,6.38767058 9.31518032,6.38767058 L10.3797515,6.38767058 C10.3797515,6.38767058 10.6458333,7.45224172 10.6458333,13.5735867 Z" id="Path" fill="#7FABFA"></path>
                <path d="M14.6380361,13.5735867 L13.0411793,13.5735867 C13.0411793,7.45224172 13.307383,6.38767058 13.307383,6.38767058 L14.3719542,6.38767058 C14.3719542,6.38767058 14.6380361,7.45224172 14.6380361,13.5735867 Z" id="Path" fill="#7FABFA"></path>
                <path d="M1.33077486,5.32309942 L2.1291423,5.32309942 C2.27619396,5.32309942 2.395346,5.44225148 2.395346,5.58918129 L2.395346,6.12146685 C2.395346,6.26851852 2.27619396,6.38767058 2.1291423,6.38767058 L1.33077486,6.38767058 C1.1837232,6.38767058 1.06457113,6.26851852 1.06457113,6.12146685 L1.06457113,5.58918129 C1.06457113,5.44225148 1.1837232,5.32309942 1.33077486,5.32309942 Z" id="Path" fill="#D4E1F4"></path>
                <path d="M13.0411793,5.32309942 L13.8396686,5.32309942 C13.9865984,5.32309942 14.1057505,5.44225148 14.1057505,5.58918129 L14.1057505,6.12146685 C14.1057505,6.26851852 13.9865984,6.38767058 13.8396686,6.38767058 L13.0411793,6.38767058 C12.8942495,6.38767058 12.7750975,6.26851852 12.7750975,6.12146685 L12.7750975,5.58918129 C12.7750975,5.44225148 12.8942495,5.32309942 13.0411793,5.32309942 Z" id="Path" fill="#D4E1F4"></path>
                <path d="M9.04897659,5.32309942 L9.84746589,5.32309942 C9.9943957,5.32309942 10.1135478,5.44225148 10.1135478,5.58918129 L10.1135478,6.12146685 C10.1135478,6.26851852 9.9943957,6.38767058 9.84746589,6.38767058 L9.04897659,6.38767058 C8.90204678,6.38767058 8.78289472,6.26851852 8.78289472,6.12146685 L8.78289472,5.58918129 C8.78289472,5.44225148 8.90204678,5.32309942 9.04897659,5.32309942 Z" id="Path" fill="#D4E1F4"></path>
                <path d="M5.32297759,5.32309942 L6.12134503,5.32309942 C6.26839669,5.32309942 6.38754873,5.44225148 6.38754873,5.58918129 L6.38754873,6.12146685 C6.38754873,6.26851852 6.26839669,6.38767058 6.12134503,6.38767058 L5.32297759,6.38767058 C5.17592593,6.38767058 5.05677386,6.26851852 5.05677386,6.12146685 L5.05677386,5.58918129 C5.05677386,5.44225148 5.17592593,5.32309942 5.32297759,5.32309942 Z" id="Path" fill="#D4E1F4"></path>
                <path d="M2.1291423,13.5735867 L1.33077486,13.5735867 C1.33077486,7.45224172 1.59685673,6.38767058 1.59685673,6.38767058 L1.86306043,6.38767058 C1.86306043,6.38767058 2.1291423,7.45224172 2.1291423,13.5735867 Z" id="Path" fill="#D4E1F4"></path>
                <path d="M6.12134503,13.5735867 L5.32297759,13.5735867 C5.32297759,7.45224172 5.58905946,6.38767058 5.58905946,6.38767058 L5.85526316,6.38767058 C5.85526316,6.38767058 6.12134503,7.45224172 6.12134503,13.5735867 Z" id="Path" fill="#D4E1F4"></path>
                <path d="M9.84746589,13.5735867 L9.04897659,13.5735867 C9.04897659,7.45224172 9.31518032,6.38767058 9.31518032,6.38767058 L9.58126219,6.38767058 C9.58126219,6.38767058 9.84746589,7.45224172 9.84746589,13.5735867 Z" id="Path" fill="#D4E1F4"></path>
                <path d="M13.8396686,13.5735867 L13.0411793,13.5735867 C13.0411793,7.45224172 13.307383,6.38767058 13.307383,6.38767058 L13.5734649,6.38767058 C13.5734649,6.38767058 13.8396686,7.45224172 13.8396686,13.5735867 Z" id="Path" fill="#D4E1F4"></path>
                <path d="M0.465765115,3.72624268 L1.06457113,3.72624268 L1.06457113,5.05689572 C1.06457113,5.20394735 1.1837232,5.32309942 1.33077486,5.32309942 C1.1837232,5.32309942 1.06457113,5.44225148 1.06457113,5.58918129 L1.06457113,6.12146685 C1.06457113,6.26851852 1.1837232,6.38767058 1.33077486,6.38767058 L1.59685673,6.38767058 C1.59685673,6.38767058 1.33077486,7.45224172 1.33077486,13.5735867 C1.1837232,13.5735867 1.06457113,13.6927388 1.06457113,13.8397904 L1.06457113,14.6382797 L0.532285567,14.6382797 C0.385355758,14.6382797 0.266203696,14.7574318 0.266203696,14.9043616 L0.266203696,15.4366472 C0.266203696,15.5836988 0.385355758,15.7028509 0.532285567,15.7028509 L1.33077486,15.7028509 C1.1837232,15.7028509 1.06457113,15.5836988 1.06457113,15.4366472 L1.06457113,14.9043616 C1.06457113,14.7574318 1.1837232,14.6382797 1.33077486,14.6382797 L1.86306043,14.6382797 L1.86306043,13.8397904 C1.86306043,13.6927388 1.98221249,13.5735867 2.1291423,13.5735867 C2.1291423,7.45224172 2.395346,6.38767058 2.395346,6.38767058 L2.1291423,6.38767058 C1.98221249,6.38767058 1.86306043,6.26851852 1.86306043,6.12146685 L1.86306043,5.58918129 C1.86306043,5.44225148 1.98221249,5.32309942 2.1291423,5.32309942 C1.98221249,5.32309942 1.86306043,5.20394735 1.86306043,5.05689572 L1.86306043,3.72624268 L1.26425438,3.72624268" id="Path" fill="#FFFFFF"></path>
                <g id="Group" fill="#428DFF">
                    <path d="M14.9042398,14.9043616 L1.06457113,14.9043616 C0.917641326,14.9043616 0.798489263,14.7852095 0.798489263,14.6382797 L0.798489263,13.8397904 C0.798489263,13.545809 1.03679339,13.3075049 1.33077486,13.3075049 L14.6380361,13.3075049 C14.9320175,13.3075049 15.1703217,13.545809 15.1703217,13.8397904 L15.1703217,14.6382797 C15.1703217,14.7852095 15.0511696,14.9043616 14.9042398,14.9043616 Z M1.33077486,14.372076 L14.6380361,14.372076 L14.6380361,13.8397904 L1.33077486,13.8397904 L1.33077486,14.372076 Z" id="Shape"></path>
                    <path d="M14.9042398,5.58918129 L1.06457113,5.58918129 C0.917641326,5.58918129 0.798489263,5.47002922 0.798489263,5.32309942 L0.798489263,3.72624268 C0.798489263,3.57919102 0.917641326,3.46003899 1.06457113,3.46003899 L14.9042398,3.46003899 C15.0511696,3.46003899 15.1703217,3.57919102 15.1703217,3.72624268 L15.1703217,5.32309942 C15.1703217,5.47002922 15.0511696,5.58918129 14.9042398,5.58918129 Z M1.33077486,5.05689572 L14.6380361,5.05689572 L14.6380361,3.99232455 L1.33077486,3.99232455 L1.33077486,5.05689572 Z" id="Shape"></path>
                    <path d="M2.92763159,6.65387428 L1.33077486,6.65387428 C1.03679339,6.65387428 0.798489263,6.41544833 0.798489263,6.12146685 L0.798489263,5.58918129 C0.798489263,5.29519981 1.03679339,5.05689572 1.33077486,5.05689572 L2.92763159,5.05689572 C3.22161307,5.05689572 3.45991716,5.29519981 3.45991716,5.58918129 L3.45991716,6.12146685 C3.45991716,6.41544833 3.22161307,6.65387428 2.92763159,6.65387428 Z M1.33077486,5.58918129 L1.33077486,6.12146685 L2.92763159,6.12146685 L2.92763159,5.58918129 L1.33077486,5.58918129 Z" id="Shape"></path>
                    <path d="M14.6380361,6.65387428 L13.0411793,6.65387428 C12.7471978,6.65387428 12.5088938,6.41544833 12.5088938,6.12146685 L12.5088938,5.58918129 C12.5088938,5.29519981 12.7471978,5.05689572 13.0411793,5.05689572 L14.6380361,5.05689572 C14.9320175,5.05689572 15.1703217,5.29519981 15.1703217,5.58918129 L15.1703217,6.12146685 C15.1703217,6.41544833 14.9320175,6.65387428 14.6380361,6.65387428 L14.6380361,6.65387428 Z M13.0411793,5.58918129 L13.0411793,6.12146685 L14.6380361,6.12146685 L14.6380361,5.58918129 L13.0411793,5.58918129 Z" id="Shape"></path>
                    <path d="M10.6458333,6.65387428 L9.04897659,6.65387428 C8.75499512,6.65387428 8.51669103,6.41544833 8.51669103,6.12146685 L8.51669103,5.58918129 C8.51669103,5.29519981 8.75499512,5.05689572 9.04897659,5.05689572 L10.6458333,5.05689572 C10.9398148,5.05689572 11.1781189,5.29519981 11.1781189,5.58918129 L11.1781189,6.12146685 C11.1781189,6.41544833 10.9398148,6.65387428 10.6458333,6.65387428 L10.6458333,6.65387428 Z M9.04897659,5.58918129 L9.04897659,6.12146685 L10.6458333,6.12146685 L10.6458333,5.58918129 L9.04897659,5.58918129 Z" id="Shape"></path>
                    <path d="M6.91983432,6.65387428 L5.32297759,6.65387428 C5.02899612,6.65387428 4.79069199,6.41544833 4.79069199,6.12146685 L4.79069199,5.58918129 C4.79069199,5.29519981 5.02899612,5.05689572 5.32297759,5.05689572 L6.91983432,5.05689572 C7.2138158,5.05689572 7.45211989,5.29519981 7.45211989,5.58918129 L7.45211989,6.12146685 C7.45211989,6.41544833 7.2138158,6.65387428 6.91983432,6.65387428 Z M5.32297759,5.58918129 L5.32297759,6.12146685 L6.91983432,6.12146685 L6.91983432,5.58918129 L5.32297759,5.58918129 Z" id="Shape"></path>
                    <path d="M15.4365253,15.9689327 L0.532285567,15.9689327 C0.238304094,15.9689327 8.86447078e-16,15.7306286 8.86447078e-16,15.4366472 L8.86447078e-16,14.9043616 C8.86447078e-16,14.6103801 0.238304094,14.372076 0.532285567,14.372076 L15.4365253,14.372076 C15.7305068,14.372076 15.9688109,14.6103801 15.9688109,14.9043616 L15.9688109,15.4366472 C15.9688109,15.7306286 15.7305068,15.9689327 15.4365253,15.9689327 Z M0.532285567,14.9043616 L0.532285567,15.4366472 L15.4365253,15.4366472 L15.4365253,14.9043616 L0.532285567,14.9043616 Z" id="Shape"></path>
                    <path d="M15.5038986,3.99232571 L0.464912281,3.99232571 C0.246101365,3.99220273 0.0572612242,3.83857213 0.0125487407,3.62426901 C-0.0369152125,3.40826024 0.0718811072,3.1871345 0.273391813,3.09466373 L7.45687136,0.106603322 C7.79422515,-0.0352095439 8.17458576,-0.0352095439 8.51193956,0.106603322 L15.6872563,3.09149611 C15.690424,3.09259259 15.6934698,3.09393276 15.6965156,3.09539474 C15.8979045,3.18786551 16.0068226,3.40899122 15.9573587,3.62512184 C15.9122807,3.83942494 15.7229532,3.99281188 15.5038986,3.99232571 Z M0.779239766,3.46003899 L15.1895712,3.46003899 L8.30774855,0.597100382 C8.10087719,0.510843072 7.86793372,0.510843072 7.66106236,0.597100382 L0.779239766,3.46003899 Z" id="Shape"></path>
                    <path d="M11.1915205,2.92775342 L4.77729045,2.92775342 C4.65046297,2.92763159 4.541423,2.8380848 4.5165692,2.71369394 C4.4917154,2.58942497 4.55811403,2.46479046 4.67519495,2.41593569 L7.86574073,1.08893761 C7.89802632,1.07541424 7.93287036,1.06846977 7.96795808,1.06846977 L8.00085283,1.06846977 C8.03594055,1.06846977 8.07078459,1.07541424 8.10307019,1.08893761 L11.293616,2.41593569 C11.4106969,2.46479046 11.4770955,2.58942497 11.4522417,2.71369394 C11.4273879,2.8380848 11.3183479,2.92763159 11.1915205,2.92775342 L11.1915205,2.92775342 Z M6.11025828,2.39546785 L9.85855264,2.39546785 L7.98440546,1.6156189 L6.11025828,2.39546785 Z" id="Shape"></path>
                </g>
                <path d="M1.06457113,13.5735867 C1.06457113,12.4188597 1.0741959,11.263767 1.10075537,10.107578 C1.11537525,9.4834308 1.13462475,8.85916179 1.16654484,8.23391813 C1.18177388,7.92129628 1.20126706,7.60818713 1.22478069,7.2944688 L1.26766568,6.82175925 C1.28703704,6.65728558 1.29885477,6.51803119 1.33869396,6.32297759 L1.85501948,6.45236354 C1.83296783,6.56249999 1.81274367,6.7334308 1.79702731,6.87816764 L1.75657893,7.33564816 C1.73367448,7.64278752 1.71454678,7.95114523 1.69907406,8.26059942 C1.66764133,8.87902048 1.64851365,9.49951267 1.63413742,10.1203704 C1.60648147,11.2701023 1.59685673,12.4217836 1.59685673,13.5735867 L1.06457113,13.5735867 Z" id="Path" fill="#FFFFFF"></path>
                <path d="M1.33576998,12.2429239 C1.26486356,12.2423246 1.19663744,12.2701023 1.14619883,12.3200536 C1.09588207,12.3701267 1.06749511,12.4381092 1.06749511,12.5090156 L1.06457113,13.5735867 L1.59685673,13.5735867 L1.5997853,12.5105994 C1.60063351,12.3639133 1.48257796,12.2440302 1.33576998,12.2429239 L1.33576998,12.2429239 Z" id="Path" fill="#428DFF"></path>
                <path d="M1.85501948,6.45236354 L1.33869396,6.32297759 C1.29885477,6.51803119 1.28703704,6.65728558 1.26766568,6.82175925 L1.22429336,7.2944688 C1.20090155,7.60818713 1.18140837,7.92129628 1.16593566,8.23391813 C1.13401559,8.85916179 1.11488792,9.4834308 1.10026804,10.107578 L1.09442009,10.3737817 C1.09234894,10.4688109 1.14132554,10.5577485 1.22258773,10.6070907 C1.30397174,10.6563109 1.40545809,10.6583821 1.48879142,10.6125731 C1.57212476,10.5667641 1.62463451,10.4800195 1.62670565,10.3849903 L1.63279726,10.1187866 C1.64717349,9.49780703 1.66630116,8.87743663 1.69773393,8.25889375 C1.71296296,7.94968324 1.73221246,7.64144736 1.7552388,7.33406434 L1.79678363,6.87658383 C1.81274367,6.73367448 1.83296783,6.56249999 1.85501948,6.45236354 Z" id="Path" fill="#428DFF"></path>
                <path d="M1.07711946,11.4412768 C1.07699805,11.5118177 1.10380117,11.5798002 1.15216861,11.6313353 L1.19176415,11.6637427 C1.20650586,11.6740984 1.22258773,11.682383 1.23940058,11.6884747 C1.25450779,11.6962719 1.27071152,11.7017544 1.28740254,11.7048002 C1.3049464,11.7079678 1.32273391,11.7099172 1.34052145,11.7106481 C1.41106239,11.7104045 1.47880115,11.6836014 1.53033625,11.6355994 C1.59563839,11.5741959 1.62499998,11.4839181 1.60843078,11.3959552 C1.59186158,11.3079922 1.53143273,11.2345273 1.44834308,11.2011452 C1.41654484,11.1870127 1.38206628,11.1792154 1.34722221,11.1783626 C1.27631579,11.1766569 1.20772416,11.2035819 1.15692008,11.2530458 C1.10611599,11.3025098 1.07736356,11.3703704 1.07711946,11.4412768 Z" id="Path" fill="#428DFF"></path>
                <path d="M2.92763159,13.8397904 L1.33077486,13.8397904 C1.1837232,13.8397904 1.06457113,13.7206384 1.06457113,13.5735867 C1.06457113,13.4266569 1.1837232,13.3075049 1.33077486,13.3075049 L2.66142787,13.3075049 C2.65582359,8.80214425 2.50499512,7.16642302 2.43603802,6.65387428 L1.59685673,6.65387428 C1.44992689,6.65387428 1.33077486,6.53460039 1.33077486,6.38767058 C1.33077486,6.24074074 1.44992689,6.12146685 1.59685673,6.12146685 L2.66142787,6.12146685 C2.78362573,6.12158871 2.8901072,6.20480019 2.91959064,6.32322124 C2.93079922,6.36793372 3.19371347,7.4895224 3.19371347,13.5735867 C3.19371347,13.7206384 3.0745614,13.8397904 2.92763159,13.8397904 L2.92763159,13.8397904 Z" id="Path" fill="#428DFF"></path>
                <path d="M6.91983432,13.8397904 L5.32297759,13.8397904 C5.17592593,13.8397904 5.05677386,13.7206384 5.05677386,13.5735867 C5.05677386,7.4895224 5.31968811,6.36793372 5.33089669,6.32322124 C5.36050196,6.20480019 5.46698342,6.12158871 5.58905946,6.12146685 L6.6536306,6.12146685 C6.77582846,6.12158871 6.88230993,6.20480019 6.91179337,6.32322124 C6.92300195,6.36793372 7.18591619,7.4895224 7.18591619,13.5735867 C7.18591619,13.7206384 7.06676413,13.8397904 6.91983432,13.8397904 L6.91983432,13.8397904 Z M5.58905946,13.3075049 L6.6536306,13.3075049 C6.64802632,8.80214425 6.49719785,7.16642302 6.42824075,6.65387428 L5.81615498,6.65387428 C5.74610136,7.16423002 5.59490742,8.79946392 5.58905946,13.3075049 Z" id="Shape" fill="#428DFF"></path>
                <path d="M10.6458333,13.8397904 L9.04897659,13.8397904 C8.90204678,13.8397904 8.78289472,13.7206384 8.78289472,13.5735867 C8.78289472,7.4895224 9.04580897,6.36793372 9.05701754,6.32322124 C9.08650099,6.20480019 9.19298246,6.12158871 9.31518032,6.12146685 L10.3797515,6.12146685 C10.5018275,6.12158871 10.608309,6.20480019 10.6379142,6.32322124 C10.6491228,6.36793372 10.9120371,7.4895224 10.9120371,13.5735867 C10.9120371,13.7206384 10.792885,13.8397904 10.6458333,13.8397904 L10.6458333,13.8397904 Z M9.31518032,13.3075049 L10.3797515,13.3075049 C10.3741472,8.80214425 10.2231969,7.16642302 10.1543616,6.65387428 L9.54215398,6.65387428 C9.47222222,7.16423002 9.32102827,8.79946392 9.31518032,13.3075049 Z" id="Shape" fill="#428DFF"></path>
                <path d="M14.6380361,13.8397904 L13.0411793,13.8397904 C12.8942495,13.8397904 12.7750975,13.7206384 12.7750975,13.5735867 C12.7750975,7.4895224 13.0380117,6.36793372 13.0492203,6.32322124 C13.0787037,6.20480019 13.1851852,6.12158871 13.307383,6.12146685 L14.3719542,6.12146685 C14.4940302,6.12158871 14.6005117,6.20480019 14.630117,6.32322124 C14.6413255,6.36793372 14.9042398,7.4895224 14.9042398,13.5735867 C14.9042398,13.7206384 14.7850877,13.8397904 14.6380361,13.8397904 L14.6380361,13.8397904 Z M13.307383,13.3075049 L14.3719542,13.3075049 C14.3663499,8.80214425 14.2153996,7.16642302 14.1465643,6.65387428 L13.5343567,6.65387428 C13.464425,7.16423002 13.313231,8.79946392 13.307383,13.3075049 Z" id="Shape" fill="#428DFF"></path>
            </g>
        </g>
    </g>
</svg>