<?xml version="1.0" encoding="UTF-8"?>
<svg width="15px" height="13px" viewBox="0 0 15 13" version="1.1" xmlns="http://www.w3.org/2000/svg" xmlns:xlink="http://www.w3.org/1999/xlink">
    <!-- Generator: Sketch 61.2 (89653) - https://sketch.com -->
    <title>blindne</title>
    <desc>Created with Sketch.</desc>
    <defs>
        <linearGradient x1="24.4386434%" y1="17.299404%" x2="75.5632544%" y2="82.7194334%" id="linearGradient-1">
            <stop stop-color="#D4E1F4" offset="0%"></stop>
            <stop stop-color="#D4E1F4" offset="17.17%"></stop>
            <stop stop-color="#D4E1F4" offset="20%"></stop>
            <stop stop-color="#DAE4F4" offset="20.01%"></stop>
            <stop stop-color="#EBEBF4" offset="20.07%"></stop>
            <stop stop-color="#F6F1F4" offset="20.14%"></stop>
            <stop stop-color="#FDF4F4" offset="20.23%"></stop>
            <stop stop-color="#FFF5F4" offset="20.5%"></stop>
            <stop stop-color="#FFF5F4" offset="25.22%"></stop>
            <stop stop-color="#FFF5F4" offset="26%"></stop>
            <stop stop-color="#D4E1F4" offset="26%"></stop>
            <stop stop-color="#D4E1F4" offset="39.74%"></stop>
            <stop stop-color="#D4E1F4" offset="42%"></stop>
            <stop stop-color="#DAE4F4" offset="42.01%"></stop>
            <stop stop-color="#EBEBF4" offset="42.07%"></stop>
            <stop stop-color="#F6F1F4" offset="42.14%"></stop>
            <stop stop-color="#FDF4F4" offset="42.23%"></stop>
            <stop stop-color="#FFF5F4" offset="42.5%"></stop>
            <stop stop-color="#FFF5F4" offset="48.94%"></stop>
            <stop stop-color="#FFF5F4" offset="50%"></stop>
            <stop stop-color="#F9F2F4" offset="50%"></stop>
            <stop stop-color="#E8EBF4" offset="50.01%"></stop>
            <stop stop-color="#DDE5F4" offset="50.03%"></stop>
            <stop stop-color="#D6E2F4" offset="50.05%"></stop>
            <stop stop-color="#D4E1F4" offset="50.1%"></stop>
            <stop stop-color="#D4E1F4" offset="70.62%"></stop>
            <stop stop-color="#D4E1F4" offset="74%"></stop>
            <stop stop-color="#FFF5F4" offset="74.1%"></stop>
            <stop stop-color="#FFF5F4" offset="83.46%"></stop>
            <stop stop-color="#FFF5F4" offset="85%"></stop>
            <stop stop-color="#D4E1F4" offset="85.1%"></stop>
        </linearGradient>
    </defs>
    <g id="Page-1" stroke="none" stroke-width="1" fill="none" fill-rule="evenodd">
        <g id="Contact-Details" transform="translate(-1049.000000, -702.000000)" fill-rule="nonzero">
            <g id="blind" transform="translate(1049.000000, 702.000000)">
                <path d="M7.48820158,11.0999052 C5.45940711,11.097718 3.51918972,10.2358365 2.1158004,8.71329621 L0.314021739,6.77811374 L2.17494071,4.77940995 C3.57106719,3.26481754 5.4987747,2.40361374 7.51704545,2.39286256 L7.48820158,11.0999052 Z" id="Path" fill="#FFFFFF"></path>
                <path d="M7.54591897,2.40909716 C9.57471344,2.41128436 11.5149308,3.27319668 12.9182905,4.79570616 L14.7200692,6.73091943 L12.8591502,8.72962322 C11.4630237,10.2442156 9.53531621,11.1053886 7.51704545,11.1161398 L7.54591897,2.40909716 Z" id="Path" fill="#A4C2F7"></path>
                <path d="M13.6911166,6.73088863 L11.8301976,8.72959242 C8.86740119,11.9117275 6.04746047,11.9117275 3.08466403,8.72959242 L1.28288538,6.79440995 L3.14380435,4.79570616 C6.10660079,1.61357109 8.9265415,1.61357109 11.8893379,4.79570616 L13.6911166,6.73088863 Z" id="Path" fill="#E3E7F2"></path>
                <ellipse id="Oval" fill="#A4C2F7" cx="7.82321146" cy="6.77207583" rx="3.29513834" ry="3.42423697"></ellipse>
                <ellipse id="Oval" fill="url(#linearGradient-1)" cx="7.30870553" cy="6.77207583" rx="2.78063241" ry="3.42423697"></ellipse>
                <g id="Group" fill="#428DFF">
                    <path d="M5.20179842,2.9450237 C5.07578063,2.94499289 4.96832016,2.85011137 4.9479249,2.72085071 C4.92752964,2.59162085 5.00021739,2.46602607 5.11965415,2.42419194 C6.67351779,1.88327488 8.35452569,1.88231991 9.90895257,2.42145024 C9.99628458,2.45167062 10.0614427,2.52809953 10.0797628,2.62184123 C10.098083,2.71558294 10.0668083,2.81237441 9.99773715,2.87561848 C9.92866601,2.93886256 9.83232213,2.95891706 9.74513834,2.92820379 C8.29710474,2.42647156 6.7313834,2.42742654 5.28394269,2.9309455 C5.2575,2.94021801 5.22975296,2.94499289 5.20179842,2.9450237 L5.20179842,2.9450237 Z" id="Path"></path>
                    <path d="M2.95677866,9.71925606 C2.89858696,9.71925606 2.84208498,9.69877014 2.79661067,9.66103318 C2.57407115,9.47663033 2.36166996,9.27938152 2.16038538,9.07024171 L0.0753557312,6.9035237 C0.0271245059,6.85340284 0,6.78541469 0,6.7145 C0,6.64358531 0.0271245059,6.57559716 0.0753557312,6.5254763 L2.21979249,4.29690047 C2.53935771,3.96472275 2.88693676,3.66298104 3.2583498,3.39531043 C3.37517787,3.31124171 3.53546443,3.3415237 3.61633399,3.46292891 C3.6972332,3.58433412 3.66809289,3.75090047 3.55126482,3.83493839 C3.20516798,4.08427962 2.88130435,4.36538152 2.58355731,4.67491706 L0.620988142,6.7145 L2.5241502,8.69222512 C2.71176877,8.8871327 2.9097332,9.07095024 3.11715415,9.24281517 C3.20270751,9.31363744 3.23582016,9.43291706 3.19968379,9.54021327 C3.16354743,9.64750948 3.06613636,9.71925606 2.95677866,9.71925606 L2.95677866,9.71925606 Z" id="Path"></path>
                    <path d="M7.46166996,11.3542986 C6.59748024,11.3538057 5.73987154,11.1982986 4.92658103,10.8946777 C4.84004941,10.862455 4.77664032,10.7847014 4.76024704,10.6907441 C4.74385375,10.5967559 4.77693676,10.500827 4.84704545,10.4390924 C4.91715415,10.377327 5.01364625,10.3591517 5.10017787,10.3913744 C6.77350791,11.0175616 8.61397233,10.9548104 10.2441996,10.215936 C10.3744862,10.1570355 10.5260573,10.2190474 10.5827372,10.3544384 C10.639417,10.4898294 10.5797431,10.6473389 10.4494565,10.7062393 C9.50694664,11.1332062 8.48988142,11.3538365 7.46166996,11.3542986 L7.46166996,11.3542986 Z" id="Path"></path>
                    <path d="M11.8904941,9.7769553 C11.7805138,9.7769553 11.6826581,9.70443839 11.6469664,9.59634123 C11.6113043,9.48824408 11.6456917,9.36850237 11.7325791,9.29845024 C11.9649308,9.1108436 12.185751,8.90835782 12.3937945,8.6921019 L14.356334,6.65279621 L12.4531719,4.67497867 C12.1309091,4.34012085 11.7782016,4.03853318 11.3999111,3.77443602 C11.2818972,3.69218483 11.250415,3.52608057 11.3295652,3.40344313 C11.4087154,3.28080569 11.5685573,3.24809005 11.6865711,3.33034123 C12.0925791,3.61375355 12.4711364,3.93745972 12.8169368,4.29693128 L14.9019664,6.46377251 C14.9502273,6.51389336 14.9773221,6.58188152 14.9773221,6.65279621 C14.9773221,6.7237109 14.9501976,6.79169905 14.9019664,6.84181991 L12.7575296,9.07027251 C12.5342194,9.30217773 12.2972727,9.51945024 12.048083,9.72085782 C12.0030534,9.75727014 11.9475889,9.77704739 11.8904941,9.7769553 Z" id="Path"></path>
                    <path d="M7.74972332,10.2984352 C7.10175889,10.2990498 6.46660079,10.1108578 5.91643281,9.75514455 C5.79578063,9.67714455 5.75884387,9.51227251 5.83390316,9.38692417 C5.90896245,9.26154502 6.06761858,9.22316114 6.18824111,9.30116114 C7.37161067,10.0648341 8.90727273,9.86733886 9.87581028,8.82696919 C10.8443478,7.78659953 10.9834387,6.18510427 10.2098123,4.98131043 C10.1579051,4.90195498 10.1508794,4.79974171 10.1914921,4.71354739 C10.2320751,4.62735308 10.3140119,4.57036256 10.4061759,4.56423223 C10.4983399,4.5581327 10.5865909,4.60381754 10.6374012,4.68397393 C11.3492787,5.79128436 11.4166008,7.21595498 10.8125395,8.3904218 C10.2084783,9.56485782 9.03118577,10.2982796 7.74972332,10.2984352 L7.74972332,10.2984352 Z" id="Path"></path>
                    <path d="M4.8615415,8.42723465 C4.7633004,8.42729621 4.67359684,8.3692891 4.63028656,8.27764218 C4.39633399,7.78358057 4.27538538,7.24007583 4.27679589,6.68945498 C4.27710474,5.39333649 4.94608696,4.1968436 6.02949605,3.55469905 C7.11290514,2.9125545 8.4444664,2.92324408 9.51818182,3.58279384 C9.64040514,3.65805213 9.68081028,3.82203081 9.60835968,3.94907346 C9.53593874,4.07608531 9.37814229,4.11807346 9.25588933,4.04278436 C8.13032609,3.35196682 6.701917,3.51033886 5.74194664,4.4324455 C4.78197628,5.35455213 4.51787549,6.82188863 5.0922332,8.04219431 C5.13136364,8.12503081 5.12659091,8.22296209 5.07966403,8.30127014 C5.0327668,8.3795782 4.95029644,8.42723465 4.8615415,8.42723465 L4.8615415,8.42723465 Z" id="Path"></path>
                    <path d="M1.80077075,12.9717513 C1.69674901,12.9717513 1.60295455,12.9065972 1.56314229,12.8067251 C1.52333004,12.7068531 1.54532609,12.5918863 1.61887352,12.5154265 L13.5811067,0.0845308057 C13.6459091,0.0161113744 13.7410375,-0.0109052133 13.8303261,0.0136777251 C13.9196146,0.0382914692 13.9893676,0.110746445 14.0130237,0.203533175 C14.0367095,0.296319905 14.0106818,0.395175355 13.9448419,0.462516588 L1.98263834,12.8934123 C1.9344664,12.9436256 1.86901186,12.9717513 1.80077075,12.9717513 Z" id="Path"></path>
                    <ellipse id="Oval" cx="4.17278656" cy="3.08050711" rx="1" ry="1"></ellipse>
                    <ellipse id="Oval" cx="11.1186166" cy="10.0311019" rx="1" ry="1"></ellipse>
                </g>
            </g>
        </g>
    </g>
</svg>