<?xml version="1.0" encoding="UTF-8"?>
<svg width="15px" height="15px" viewBox="0 0 15 15" version="1.1" xmlns="http://www.w3.org/2000/svg" xmlns:xlink="http://www.w3.org/1999/xlink">
    <!-- Generator: Sketch 61.2 (89653) - https://sketch.com -->
    <title>email (1)ne</title>
    <desc>Created with Sketch.</desc>
    <g id="Page-1" stroke="none" stroke-width="1" fill="none" fill-rule="evenodd">
        <g id="Contact-Details" transform="translate(-659.000000, -501.000000)" fill-rule="nonzero">
            <g id="email-(1)" transform="translate(659.000000, 501.000000)">
                <g id="Icons_copy" transform="translate(0.250000, 0.249513)">
                    <path d="M14.5,4.76998051 L8.6325,9.63547758 L8.365,9.85754386 C7.71779022,10.3911113 6.78220978,10.3911113 6.135,9.85754386 L5.8675,9.63547758 L0,4.76998051 L2.25,3.17808967 L4.94,1.27680312 L5.77,0.687953216 C5.7725,0.687953216 5.775,0.68545809 5.7775,0.68545809 L6.135,0.430955166 C6.781168,-0.105495873 7.718832,-0.105495873 8.365,0.430955166 L9.56,1.27680312 L12.25,3.17808967 L14.5,4.76998051 Z" id="Shape" fill="#7FACFA"></path>
                    <path d="M14,5.26900585 L8.1325,10.1345029 L8.12,10.1444834 C7.53228738,10.3695855 6.8685501,10.2598146 6.385,9.85754386 L6.1175,9.63547758 L0.25,4.76998051 L2.5,3.17808967 L5.19,1.27680312 L6.02,0.687953216 C6.0225,0.687953216 6.025,0.68545809 6.0275,0.68545809 C6.63613888,0.407437641 7.35060968,0.502514716 7.865,0.929980507 L9.06,1.77582846 L11.75,3.67711501 L14,5.26900585 Z" id="Shape" fill="#A4C2F7"></path>
                    <path d="M12.25,1.52631579 L12.25,11.7563353 L2.25,11.7563353 L2.25,1.52631579 C2.25844304,1.38134013 2.38215069,1.27010905 2.5275,1.27680312 L11.9725,1.27680312 C12.1178493,1.27010905 12.2415569,1.38134013 12.25,1.52631579 Z" id="Shape" fill="#E8EDFC"></path>
                    <path d="M11.5,1.52631579 L11.5,11.7563353 L2.25,11.7563353 L2.25,1.52631579 C2.25844304,1.38134013 2.38215069,1.27010905 2.5275,1.27680312 L11.2225,1.27680312 C11.3678493,1.27010905 11.4915569,1.38134013 11.5,1.52631579 Z" id="Shape" fill="#FFFFFF"></path>
                    <path d="M14.4999991,4.76998051 L14.4999991,14.0019493 C14.5002661,14.1409304 14.4411592,14.2734346 14.3375,14.3662378 C14.2468888,14.4533261 14.1257932,14.5016699 13.9999991,14.5009821 L0.499999105,14.5009821 C0.37420683,14.5016699 0.253111197,14.4533261 0.1625,14.3662378 C0.0588407625,14.2734346 -0.00026607,14.1409304 -8.95e-07,14.0019493 L-8.95e-07,4.76998051 L5.8675,9.63547758 L6.135,9.85754386 C6.78238042,10.3906375 7.71761957,10.3906375 8.365,9.85754386 L8.6325,9.63547758 L13.75,5.39126706 L14.4999991,4.76998051 Z" id="Shape" fill="#CAD9FC"></path>
                    <path d="M13.7500009,5.39126706 L13.7500009,14.0019493 C13.7502661,14.1409304 13.6911592,14.2734346 13.5875,14.3662378 C13.4968888,14.4533261 13.3757932,14.5016699 13.25,14.5009821 L0.499999105,14.5009821 C0.37420683,14.5016699 0.253111197,14.4533261 0.1625,14.3662378 C0.0588407625,14.2734346 -0.00026607,14.1409304 -8.95e-07,14.0019493 L-8.95e-07,4.52046784 L5.1175,9.0391423 L5.385,9.26120858 C5.8125,9.61551657 6.365,10.0824047 6.875,9.96762885 C7.385,10.0824047 7.9375,10.2118519 8.365,9.85754386 L8.6325,9.63547758 L13.7500009,5.39126706 Z" id="Shape" fill="#E8EDFC"></path>
                    <path d="M14.3375,14.3662378 C14.2468888,14.4533261 14.1257932,14.5016699 14,14.5009821 L0.5,14.5009821 C0.37420683,14.5016699 0.253111197,14.4533261 0.1625,14.3662378 L5.4975,9.94237817 L5.8675,9.63547758 L6.135,9.85754386 C6.7416558,10.3572061 7.60766788,10.3919015 8.2525,9.94237817 C8.29,9.91493177 8.3275,9.88748538 8.365,9.85754386 L8.6325,9.63547758 L14.3375,14.3662378 Z" id="Shape" fill="#CAD9FC"></path>
                    <path d="M13.5875,14.3662378 C13.4968888,14.4533261 13.3757932,14.5016699 13.25,14.5009821 L0.5,14.5009821 C0.37420683,14.5016699 0.253111197,14.4533261 0.1625,14.3662378 L5.4975,9.94237817 C5.89724352,10.2238749 6.39760105,10.3235701 6.875,10.2168421 C7.35239895,10.3235701 7.85275648,10.2238749 8.2525,9.94237817 L13.5875,14.3662378 Z" id="Shape" fill="#E8EDFC"></path>
                    <g id="Group" transform="translate(0.000000, 0.029240)" fill="#FFFFFF">
                        <path d="M0.499999106,14.4717423 L1.25,14.4717423 C1.12420683,14.4724301 1.0031112,14.4240863 0.9125,14.3369981 C0.808840763,14.2441949 0.74973393,14.1116907 0.75,13.9727096 L0.75,4.49122807 L0.906875,4.6297575 L2.99999911,3.1488499 L2.99999911,1.49707602 C3.00844305,1.35210036 3.13215068,1.24086928 3.2775,1.24756335 L2.5275,1.24756335 C2.38215069,1.24086928 2.25844304,1.35210036 2.25,1.49707602 L2.25,3.1488499 L0.156875,4.6297575 L-8.94428846e-07,4.49122807 L-8.94428846e-07,13.9727096 C-0.00026607,14.1116907 0.0588407625,14.2441949 0.1625,14.3369981 C0.253111197,14.4240863 0.37420683,14.4724301 0.499999106,14.4717423 Z" id="Shape"></path>
                        <path d="M6.52,0.65871345 C6.5225,0.65871345 6.525,0.656218324 6.5275,0.656218324 L6.885,0.4017154 C7.09954095,0.225521161 7.3533123,0.103280942 7.625,0.0452615984 C7.099825,-0.0725574562 6.54958847,0.0590760396 6.135,0.4017154 L5.7775,0.656218324 C5.775,0.656218324 5.7725,0.65871345 5.77,0.65871345 L4.94,1.24756335 L5.69,1.24756335 L6.52,0.65871345 Z" id="Shape"></path>
                    </g>
                </g>
                <g id="Layer_2">
                    <path d="M7.809575,8.51017544 C7.2491839,8.50758098 6.69244587,8.41995705 6.15845,8.25030799 C5.30523942,7.96542054 4.67151512,7.24451773 4.4995,6.36314386 C4.311275,5.45828616 4.6543,4.50152982 5.440425,3.73827057 C5.524775,3.6562807 5.612425,3.57774242 5.703375,3.50265575 C6.5082822,2.83010413 7.5934499,2.5963776 8.604625,2.87777622 C9.5835634,3.1896205 10.2599888,4.08251239 10.293825,5.1075462 C10.3304786,5.69758006 10.1377912,6.2790019 9.75585,6.73085068 C9.46127442,7.101195 8.9839878,7.27612444 8.519275,7.1840655 C8.3292206,7.14470592 8.16340595,7.02983211 8.06,6.86588694 C7.96721782,6.70664102 7.94342337,6.51654834 7.9941,6.3394152 C8.212725,5.51462612 8.435,4.26119922 8.4372,4.24849903 C8.45272765,4.16069387 8.51401077,4.08782631 8.59796462,4.05734487 C8.68191847,4.02686343 8.77578845,4.04339894 8.84421462,4.10072265 C8.91264083,4.15804637 8.94522765,4.24744943 8.9297,4.33525458 C8.920425,4.38740273 8.70155,5.62204133 8.47755,6.46696608 C8.461562,6.51378728 8.46557607,6.56511087 8.48865,6.60888889 C8.52321997,6.65663139 8.57537922,6.68870961 8.63365,6.69806472 C8.91813218,6.74545301 9.2054903,6.63154666 9.379875,6.40226745 C9.6764754,6.04812196 9.82508625,5.59360696 9.794875,5.13302144 C9.7704289,4.31711062 9.23434125,3.6047728 8.456025,3.3539961 C7.6064486,3.12077573 6.69628742,3.3200141 6.0225,3.88670565 C5.942175,3.95325068 5.86405,4.02291462 5.7891,4.09577232 C5.40045,4.47308538 4.779825,5.25600624 4.98895,6.2615423 C5.12945843,6.96404108 5.6321691,7.53976265 6.310225,7.77471189 C7.482725,8.1480078 9.167525,8.19294503 10.055225,7.09134659 C10.1424394,6.98651571 10.2977896,6.97090106 10.4041962,7.05627062 C10.5106028,7.14164018 10.5287117,7.29642023 10.444875,7.40396101 C9.78845,8.21869474 8.78955,8.51017544 7.809575,8.51017544 Z" id="Shape" fill="#428DFF"></path>
                    <path d="M6.953725,7.21650214 C6.68946795,7.22103444 6.43171722,7.13454779 6.223875,6.97160546 C5.744025,6.58832904 5.730825,5.92250448 5.86535,5.46906511 C5.91065412,5.31805722 5.9714861,5.17213096 6.046875,5.03361559 C6.2344556,4.65588163 6.53439262,4.34521785 6.90565,4.14412788 C7.36798655,3.90469412 7.93286105,3.99549128 8.2965,4.36769123 C8.47690602,4.56501216 8.61279707,4.79866523 8.695,5.05287797 C8.73853507,5.18188089 8.67043732,5.32190298 8.54195285,5.36757248 C8.41346835,5.41324199 8.27201872,5.34770302 8.22405,5.22027602 C8.16477923,5.03246686 8.06626035,4.85934462 7.935,4.71234308 C7.72299207,4.49595591 7.39264852,4.44672222 7.12655,4.59185341 C6.84812622,4.74856496 6.62437272,4.98650019 6.4853,5.27374659 C6.42685655,5.38137039 6.37965022,5.49470391 6.344425,5.61196101 C6.247275,5.93994542 6.268625,6.36798441 6.5367,6.58224094 C6.829775,6.81713216 7.3242,6.71782612 7.602375,6.47831891 C7.809683,6.29204947 7.98780835,6.07578371 8.1308,5.83674698 C8.17710532,5.75930912 8.26167405,5.71283494 8.35199953,5.7151883 C8.442325,5.71754163 8.52434907,5.7683562 8.56654317,5.84809981 C8.60873727,5.92784343 8.60453438,6.0241049 8.55555,6.09988304 C8.38617957,6.38154559 8.17532045,6.63617769 7.93005,6.85523275 C7.65668087,7.08543741 7.3113857,7.21320693 6.953725,7.21650214 L6.953725,7.21650214 Z" id="Shape" fill="#428DFF"></path>
                    <polygon id="Shape" fill="#FFFFFF" points="0.5 5.01949318 0.5 8.26315789 0.5 14.251462 0 14.251462 0 8.26315789 0 5.01949318"></polygon>
                    <g id="Group" fill="#428DFF">
                        <path d="M0.25,6.26705653 C0.387905913,6.26665911 0.499601802,6.15518094 0.5,6.01754386 L0.5,5.01949318 L0,5.01949318 L0,6.01754386 C0.0003981975,6.15518094 0.112094087,6.26665911 0.25,6.26705653 Z" id="Shape"></path>
                        <path d="M0,14.251462 L0.5,14.251462 L0.5,8.01364522 C0.5,7.87584319 0.388071188,7.76413255 0.25,7.76413255 C0.111928812,7.76413255 0,7.87584319 0,8.01364522 L0,14.251462 Z" id="Shape"></path>
                        <path d="M0.5,7.01559454 C0.499010275,6.94954584 0.47312444,6.88629371 0.4275,6.83844055 L0.39,6.80849903 C0.376061005,6.79906046 0.360929003,6.79150921 0.345,6.78604288 C0.33083498,6.77883364 0.315666008,6.77378717 0.3,6.77107212 C0.283467815,6.76826556 0.266761655,6.76659821 0.25,6.76608187 C0.183808255,6.76700095 0.120408448,6.79284617 0.0725,6.83844055 C-0.0218630675,6.9377678 -0.0218630675,7.09342129 0.0725,7.19274854 C0.09641502,7.21528672 0.124414463,7.23306981 0.155,7.2451462 C0.185055578,7.25793148 0.217330685,7.26471298 0.25,7.26510721 C0.316172708,7.26409496 0.379539798,7.23826309 0.4275,7.19274854 C0.473103453,7.14488183 0.498985785,7.08163825 0.5,7.01559454 L0.5,7.01559454 Z" id="Shape"></path>
                        <path d="M14.25,15 L0.75,15 C0.335974918,14.9995462 0.0004546775,14.66468 0,14.251462 C0,14.11366 0.111928813,14.0019493 0.25,14.0019493 C0.388071188,14.0019493 0.5,14.11366 0.5,14.251462 C0.500179047,14.3891899 0.612003045,14.500796 0.75,14.5009747 L14.25,14.5009747 C14.3880198,14.5008509 14.4998759,14.3892127 14.5,14.251462 L14.5,5.55127953 L8.775525,10.2995057 C8.03536683,10.9099943 6.965188,10.9101513 6.22485,10.2998799 L0.0902,5.21136842 C-0.01469127,5.12294462 -0.02850321,4.966641 0.05926222,4.8612592 C0.147027648,4.7558774 0.30352259,4.74085851 0.4098,4.82761793 L6.544075,9.91580507 C7.09911835,10.3733014 7.90142448,10.3731549 8.4563,9.91545575 L14.59,4.82761793 C14.6645491,4.76564497 14.7682926,4.75231688 14.8561368,4.79342694 C14.943981,4.83453697 15,4.92266048 15,5.01949318 L15,14.251462 C14.9995453,14.66468 14.6640251,14.9995462 14.25,15 L14.25,15 Z" id="Shape"></path>
                        <path d="M0.25025,5.26900595 C0.141357475,5.26910448 0.0449262725,5.19884518 0.011841505,5.09530259 C-0.021243265,4.99175997 0.0166295075,4.87875393 0.105475,4.81591579 L2.355475,3.22402495 C2.46812381,3.14610292 2.6226318,3.17323253 2.70187022,3.28484748 C2.78110865,3.39646243 2.75553007,3.55094234 2.644525,3.63117973 L0.394525,5.22307057 C0.35239393,5.25299232 0.301959155,5.26905009 0.25025,5.26900595 L0.25025,5.26900595 Z" id="Shape"></path>
                        <path d="M14.74975,5.26900595 C14.6980408,5.26905009 14.6476061,5.25299232 14.605475,5.22307057 L12.355475,3.63117973 C12.2444699,3.55094234 12.2188913,3.39646243 12.2981298,3.28484748 C12.3773682,3.17323253 12.5318762,3.14610292 12.644525,3.22402495 L14.894525,4.81591579 C14.9833705,4.87875393 15.0212433,4.99175997 14.9881585,5.09530259 C14.9550737,5.19884518 14.8586425,5.26910448 14.74975,5.26900595 L14.74975,5.26900595 Z" id="Shape"></path>
                        <path d="M9.809825,1.77582846 C9.75807213,1.77585574 9.7075946,1.75980105 9.6654,1.72989318 L8.4704,0.884045224 C7.91567845,0.416205294 7.10507858,0.411331808 6.54475,0.872467836 L5.33475,1.72991813 C5.26187675,1.78149586 5.16696895,1.79035402 5.08577747,1.75315582 C5.00458597,1.71595762 4.9494457,1.63835436 4.94112747,1.54957843 C4.93280922,1.4608025 4.97257675,1.37434108 5.04545,1.32276335 L6.24045,0.4769154 C6.9788536,-0.12566635 8.04173223,-0.120873424 8.77465,0.48834308 L9.95465,1.32266355 C10.0435714,1.38548598 10.0814919,1.49854669 10.0483857,1.60213777 C10.0152795,1.70572886 9.91877025,1.77599506 9.809825,1.77582846 L9.809825,1.77582846 Z" id="Shape"></path>
                        <path d="M0.4125,14.8652633 C0.307142035,14.8653549 0.213034383,14.7995131 0.177192738,14.7006321 C0.141351095,14.6017511 0.171469118,14.4910563 0.2525,14.4238503 L5.9575,9.69309006 C6.02605277,9.63491156 6.12064397,9.61799191 6.20517402,9.64878829 C6.2897041,9.67958466 6.3511292,9.75334487 6.36600727,9.84191925 C6.38088532,9.93049365 6.34692047,10.0202143 6.277075,10.0768405 L0.572075,14.8076008 C0.527283507,14.8448672 0.470813782,14.8652633 0.4125,14.8652633 Z" id="Shape"></path>
                        <path d="M14.58715,14.8652882 C14.5288815,14.8652882 14.4724535,14.8448969 14.427725,14.8076257 L8.722725,10.0768655 C8.65287952,10.0202393 8.61891467,9.93051861 8.63379272,9.8419442 C8.6486708,9.75336982 8.7100959,9.67960961 8.79462597,9.64881324 C8.87915602,9.61801686 8.97374722,9.63493651 9.0423,9.69311501 L14.74715,14.4238752 C14.8281809,14.4910812 14.8582989,14.601776 14.8224572,14.700657 C14.7866156,14.799538 14.692508,14.8653798 14.58715,14.8652882 L14.58715,14.8652882 Z" id="Shape"></path>
                        <path d="M12.5,7.13536062 C12.3619288,7.13536062 12.25,7.02364998 12.25,6.88584795 L12.25,1.77777466 C12.249275,1.78301442 12.23925,1.77595322 12.2225,1.77582846 L2.7775,1.77582846 C2.76644945,1.77515109 2.75560458,1.77902959 2.7475,1.7865575 L2.75,6.88584795 C2.75,7.02364998 2.63807117,7.13536062 2.5,7.13536062 C2.36192881,7.13536062 2.25,7.02364998 2.25,6.88584795 L2.25,1.77582846 C2.25806521,1.49285525 2.4939486,1.26970495 2.7775,1.27680312 L12.2225,1.27680312 C12.5060408,1.26973262 12.7419077,1.49286735 12.75,1.77582846 L12.75,6.88584795 C12.75,7.02364998 12.6380712,7.13536062 12.5,7.13536062 Z" id="Shape"></path>
                    </g>
                </g>
            </g>
        </g>
    </g>
</svg>