<?xml version="1.0" encoding="UTF-8"?>
<svg width="31px" height="31px" viewBox="0 0 31 31" version="1.1" xmlns="http://www.w3.org/2000/svg" xmlns:xlink="http://www.w3.org/1999/xlink">
    <!-- Generator: Sketch 61.2 (89653) - https://sketch.com -->
    <title>Group 30</title>
    <desc>Created with Sketch.</desc>
    <g id="Page-1" stroke="none" stroke-width="1" fill="none" fill-rule="evenodd">
        <g id="Home" transform="translate(-346.000000, -3359.000000)">
            <g id="Group-30" transform="translate(346.000000, 3359.000000)">
                <rect id="Rectangle-Copy-2" fill="#0091FF" x="0" y="0" width="31" height="31" rx="8"></rect>
                <path d="M16.8645317,21 L16.8645317,15.9907649 L18.6387078,15.9907649 L18.8918614,14.0360897 L16.8645317,14.0360897 L16.8645317,12.8146709 C16.8645317,12.2647286 17.0546595,11.8373333 17.8781965,11.8373333 L18.9548872,11.8373333 L18.9548872,10.0659721 C18.7017336,10.0659721 18.0683244,10.005205 17.3708389,10.005205 C16.6571507,9.95943605 15.9584565,10.2172278 15.4587854,10.7106804 C14.9591144,11.204133 14.7085636,11.8837729 14.7731257,12.5705897 L14.7731257,14.0360897 L13,14.0360897 L13,15.9907649 L14.7741761,15.9907649 L14.7741761,20.9989872 L16.8645317,21 Z" id="Path_1" fill="#E8E8E8" fill-rule="nonzero"></path>
            </g>
        </g>
    </g>
</svg>