<?xml version="1.0" encoding="UTF-8"?>
<svg width="20px" height="20px" viewBox="0 0 20 20" version="1.1" xmlns="http://www.w3.org/2000/svg" xmlns:xlink="http://www.w3.org/1999/xlink">
    <!-- Generator: Sketch 61.2 (89653) - https://sketch.com -->
    <title>family</title>
    <desc>Created with Sketch.</desc>
    <g id="Page-1" stroke="none" stroke-width="1" fill="none" fill-rule="evenodd">
        <g id="Personal-Details" transform="translate(-1046.000000, -627.000000)" fill-rule="nonzero">
            <g id="family" transform="translate(1046.000000, 627.000000)">
                <g id="Icons" transform="translate(0.333333, 0.371670)">
                    <path d="M16.8533333,13.9194802 C16.8363924,13.9262966 16.8182644,13.9296889 16.8,13.9294607 L16.8,13.9327875 C16.7562136,13.9423097 16.7114753,13.9467748 16.6666667,13.9460949 C16.4739159,13.9484062 16.2903329,13.8641227 16.1666667,13.7165432 C16.1087174,13.654864 16.0654249,13.5809553 16.04,13.5002989 L16.1,13.7830799 L16.2433333,14.4717349 L16.3066667,14.7844574 C16.3921546,15.0785744 16.2656041,15.392961 16,15.5463028 L16,18.6302794 C16.0003391,18.8681163 15.873278,19.0879945 15.6668416,19.2068074 C15.4604052,19.3256203 15.2060829,19.3252445 15,19.205822 C14.9365194,19.1695683 14.8800698,19.1222431 14.8333333,19.0660949 C14.7262121,18.9460744 14.6669126,18.7910124 14.6666667,18.6302794 C14.6666894,18.8678199 14.5395846,19.0872826 14.3333333,19.205822 C14.2811604,19.2364482 14.2251042,19.2599459 14.1666667,19.2756855 C14.1121291,19.2890678 14.0561615,19.2957708 14,19.2956537 C13.6333915,19.2918639 13.3371233,18.9961733 13.3333333,18.6302794 L13.3333333,15.5463028 C13.0677292,15.392961 12.9411787,15.0785744 13.0266667,14.7844574 L13.09,14.4717349 L13.2933333,13.5002989 C13.2022141,13.7679209 12.9498671,13.9474346 12.6666667,13.9460949 C12.6216341,13.9473333 12.5766749,13.9417243 12.5333333,13.9294607 C12.515069,13.9296889 12.4969409,13.9262966 12.48,13.9194802 C12.3880462,13.8943195 12.3034658,13.8475487 12.2333333,13.7830799 C12.2086785,13.7634696 12.1863153,13.74115 12.1666667,13.7165432 C12.0148211,13.5475569 11.9618092,13.3119877 12.0266667,13.094425 L12.7266667,10.6159324 C12.8888724,10.0427566 13.4132375,9.6471909 14.01,9.6478225 L15.3233333,9.6478225 C15.9200958,9.6471909 16.4444609,10.0427566 16.6066667,10.6159324 L17.3066667,13.094425 C17.4097222,13.4471941 17.2067719,13.8165585 16.8533333,13.9194802 L16.8533333,13.9194802 Z" id="Shape" fill="#CAD9FC"></path>
                    <path d="M16.1666667,13.7165432 C16.1470181,13.74115 16.1246549,13.7634696 16.1,13.7830799 C16.0298675,13.8475487 15.9452871,13.8943195 15.8533333,13.9194802 C15.8363924,13.9262966 15.8182644,13.9296889 15.8,13.9294607 L15.8,13.9327875 C15.7562136,13.9423097 15.7114753,13.9467748 15.6666667,13.9460949 C15.3834662,13.9474346 15.1311193,13.7679209 15.04,13.5002989 L15.2433333,14.4717349 L15.3066667,14.7844574 C15.3921546,15.0785744 15.2656041,15.392961 15,15.5463028 L15,18.6302794 C14.99621,18.9961733 14.6999418,19.2918639 14.3333333,19.2956482 C14.2771718,19.2957708 14.2212042,19.2890678 14.1666667,19.2756855 C14.1082291,19.2599459 14.052173,19.2364482 14,19.205822 C13.7937487,19.0872826 13.6666439,18.8678199 13.6666667,18.6302794 C13.6664207,18.7910124 13.6071212,18.9460744 13.5,19.0660949 C13.3928788,18.9460744 13.3335793,18.7910124 13.3333333,18.6302794 L13.3333333,15.5463028 C13.0677292,15.392961 12.9411787,15.0785744 13.0266667,14.7844574 L13.09,14.4717349 L13.2933333,13.5002989 C13.2022141,13.7679209 12.9498671,13.9474346 12.6666667,13.9460949 C12.6216341,13.9473333 12.5766749,13.9417243 12.5333333,13.9294607 C12.515069,13.9296889 12.4969409,13.9262966 12.48,13.9194802 C12.3880462,13.8943195 12.3034658,13.8475487 12.2333333,13.7830799 L12.2933333,13.5002989 C12.2679085,13.5809553 12.2246159,13.654864 12.1666667,13.7165432 C12.0148211,13.5475569 11.9618092,13.3119877 12.0266667,13.094425 L12.7266667,10.6159324 C12.8888724,10.0427566 13.4132375,9.6471909 14.01,9.6478225 L14.3233333,9.6478225 C14.9200958,9.6471909 15.4444609,10.0427566 15.6066667,10.6159324 L16.3066667,13.094425 C16.3715241,13.3119877 16.3185122,13.5475569 16.1666667,13.7165432 L16.1666667,13.7165432 Z" id="Shape" fill="#E8EDFC"></path>
                    <path d="M19.2833333,5.02352177 L18.8633333,5.86521118 L18.7666667,6.06149448 C18.6534194,6.29009023 18.3768714,6.38506104 18.1466667,6.27441196 L9.86666667,2.34209227 C9.74008357,2.28220812 9.59324977,2.28220812 9.46666667,2.34209227 L1.18666667,6.27441196 C0.956461947,6.38506104 0.679913983,6.29009023 0.566666667,6.06149448 L0.47,5.86521118 L0.05,5.02352177 C-0.00639354,4.91069686 -0.0152243267,4.78004567 0.0254755667,4.66068374 C0.0661754633,4.54132176 0.153023863,4.4431681 0.266666667,4.38809617 L9.26333333,0.0898245614 C9.5188355,-0.029933912 9.81449783,-0.029933912 10.07,0.0898245614 L19.0666667,4.38809617 C19.1803095,4.4431681 19.2671579,4.54132176 19.3078578,4.66068374 C19.3485577,4.78004567 19.3397269,4.91069686 19.2833333,5.02352177 Z" id="Shape" fill="#7FACFA"></path>
                    <path d="M19.2833333,4.84399906 L18.8633333,5.65562053 L9.88666667,1.54302295 C9.7463641,1.48207216 9.58698923,1.48207216 9.44668667,1.54302295 L0.47,5.65562053 L0.05,4.84399906 C-0.00596130667,4.73459042 -0.01445422,4.60704716 0.02650828,4.49120964 C0.06747078,4.37537208 0.15429475,4.28140355 0.266666667,4.2312891 L9.26333333,0.0866008577 C9.5197755,-0.0288763775 9.81355783,-0.0288763775 10.07,0.0866008577 L19.0666667,4.2312891 C19.1790386,4.28140355 19.2658626,4.37537208 19.3068251,4.49120964 C19.3477876,4.60704716 19.3392946,4.73459042 19.2833333,4.84399906 Z" id="Shape" fill="#A4C2F7"></path>
                    <path d="M5.66667406,7.31903834 C5.66729437,7.5839294 5.5621391,7.83815164 5.3744665,8.02545844 C5.18679387,8.21276521 4.9320751,8.3177155 4.66667406,8.31710691 C4.5538914,8.31779707 4.4419746,8.29748823 4.33666667,8.25720598 C3.9362833,8.11903391 3.66742677,7.74303708 3.66667406,7.32022099 C3.6659245,6.89740494 3.9334434,6.5204589 4.33333333,6.3808707 C4.43979903,6.34058405 4.55280797,6.3202821 4.66667406,6.32096988 C4.93199167,6.32063388 5.1865516,6.42567173 5.37416487,6.61291928 C5.56177813,6.80016682 5.66702113,7.05423054 5.66667406,7.31903834 L5.66667406,7.31903834 Z" id="Shape" fill="#CAD9FC"></path>
                    <path d="M15.6566741,7.31903834 C15.6572944,7.5839294 15.5521391,7.83815164 15.3644665,8.02545844 C15.1767939,8.21276521 14.9220751,8.3177155 14.6566741,8.3171069 C14.5438914,8.31779684 14.4319747,8.297488 14.3266667,8.25720598 C13.9262833,8.11903391 13.6574268,7.74303708 13.6566741,7.32022099 C13.6559245,6.89740494 13.9234434,6.5204589 14.3233333,6.3808707 C14.4297996,6.34058604 14.5428081,6.32028416 14.6566741,6.32096998 C14.9219933,6.32062856 15.1765563,6.42566471 15.3641707,6.61291342 C15.5517852,6.8001621 15.6570265,7.05422891 15.6566741,7.31903834 L15.6566741,7.31903834 Z" id="Shape" fill="#CAD9FC"></path>
                    <path d="M10.6666741,12.9746589 C10.6672944,13.2395499 10.5621391,13.4937722 10.3744665,13.681079 C10.1867939,13.8683857 9.9320751,13.973336 9.66667406,13.9727274 C9.5538914,13.9734176 9.4419746,13.9531088 9.33666667,13.9128265 C8.9362833,13.7746544 8.66742677,13.3986576 8.66667406,12.9758415 C8.6659245,12.5530255 8.9334434,12.1760794 9.33333333,12.0364912 C9.43979903,11.9962046 9.55280797,11.9759026 9.66667406,11.9765904 C9.93199167,11.9762544 10.1865516,12.0812923 10.3741649,12.2685398 C10.5617781,12.4557874 10.6670211,12.7098511 10.6666741,12.9746589 Z" id="Shape" fill="#CAD9FC"></path>
                    <path d="M5.00001182,7.31903834 C4.99982273,7.60338481 4.87865283,7.87427625 4.66667406,8.06424951 C4.56977117,8.14866324 4.45782253,8.21412146 4.33666667,8.25720598 C3.9362833,8.11903391 3.66742677,7.74303708 3.66667406,7.32022099 C3.6659245,6.89740494 3.9334434,6.5204589 4.33333333,6.3808707 C4.73396013,6.51879155 5.00206247,6.89607896 5.00001182,7.31903834 Z" id="Shape" fill="#E8EDFC"></path>
                    <path d="M14.9900119,7.31903834 C14.9898295,7.60338624 14.8686584,7.87428031 14.6566741,8.06424951 C14.5597717,8.14866397 14.4478229,8.21412226 14.3266667,8.25720598 C13.9262833,8.11903391 13.6574268,7.74303708 13.6566741,7.32022099 C13.6559245,6.89740494 13.9234434,6.5204589 14.3233333,6.3808707 C14.7239647,6.51878553 14.9920697,6.8960767 14.9900119,7.31903834 L14.9900119,7.31903834 Z" id="Shape" fill="#E8EDFC"></path>
                    <path d="M10.0000118,12.9746589 C9.99982273,13.2590053 9.87865283,13.5298968 9.66667406,13.71987 C9.56977117,13.8042838 9.45782253,13.869742 9.33666667,13.9128265 C8.9362833,13.7746544 8.66742677,13.3986576 8.66667406,12.9758415 C8.6659245,12.5530255 8.9334434,12.1760794 9.33333333,12.0364912 C9.73396013,12.1744121 10.0020625,12.5516995 10.0000118,12.9746589 Z" id="Shape" fill="#E8EDFC"></path>
                    <path d="M7,11.3112411 L7,13.640026 C6.99733667,14.0063914 6.7004143,14.302735 6.33333333,14.3053931 C6.21968543,14.3063978 6.10790877,14.2764954 6.01,14.2188954 C6.0063347,14.2193467 6.00266093,14.2181245 6,14.2155686 L6,18.6302794 C6.00033907,18.8681163 5.873278,19.0879945 5.66684163,19.2068074 C5.46040523,19.3256203 5.20608293,19.3252445 5,19.205822 C4.9365194,19.1695683 4.88006983,19.1222431 4.83333333,19.0660949 C4.72621213,18.9460744 4.6669126,18.7910124 4.66666667,18.6302794 C4.6666894,18.8678199 4.5395846,19.0872826 4.33333333,19.205822 C4.28116037,19.2364482 4.22510423,19.2599459 4.16666667,19.2756855 C4.11212913,19.2890678 4.0561615,19.2957708 4,19.2956537 C3.6333915,19.2918639 3.33712333,18.9961733 3.33333333,18.6302794 L3.33333333,14.2155686 C3.33067242,14.2181245 3.32699862,14.2193467 3.32333333,14.2188954 C3.22542457,14.2764954 3.1136479,14.3063978 3,14.3053931 C2.63291902,14.302735 2.33599667,14.0063914 2.33333333,13.640026 L2.33333333,11.3112411 C2.33366631,10.3926985 3.07966338,9.64815558 4,9.64782326 L5.33333333,9.64782326 C6.25366997,9.64815558 6.99966703,10.3926985 7,11.3112411 Z" id="Shape" fill="#CAD9FC"></path>
                    <path d="M6,11.3112411 L6,13.640026 C5.99733667,14.0063914 5.7004143,14.302735 5.33333333,14.3053931 C5.21968543,14.3063978 5.10790877,14.2764954 5.01,14.2188954 C5.0063347,14.2193467 5.00266093,14.2181245 5,14.2155686 L5,18.6302794 C4.99621,18.9961733 4.69994183,19.2918639 4.33333333,19.2956482 C4.27717183,19.2957708 4.2212042,19.2890678 4.16666667,19.2756855 C4.1082291,19.2599459 4.05217297,19.2364482 4,19.205822 C3.79374873,19.0872826 3.66664393,18.8678199 3.66666667,18.6302794 C3.66642073,18.7910124 3.6071212,18.9460744 3.5,19.0660949 C3.3928788,18.9460744 3.33357927,18.7910124 3.33333333,18.6302794 L3.33333333,14.2155686 C3.33067242,14.2181245 3.32699862,14.2193467 3.32333333,14.2188954 C3.22542457,14.2764954 3.1136479,14.3063978 3,14.3053931 C2.63291902,14.302735 2.33599667,14.0063914 2.33333333,13.640026 L2.33333333,11.3112411 C2.33366631,10.3926985 3.07966338,9.64815558 4,9.64782326 L4.33333333,9.64782326 C5.25366997,9.64815558 5.99966703,10.3926985 6,11.3112411 Z" id="Shape" fill="#E8EDFC"></path>
                    <path d="M11.3333334,15.3034438 L11.3333334,16.3014945 C11.3327842,16.485003 11.183867,16.63363 11,16.634178 C10.816133,16.6347261 10.6672158,16.783353 10.6666667,16.9668616 L10.6666667,18.7966212 C10.6666667,19.0722253 10.442809,19.2956465 10.1666667,19.2956465 C9.8905243,19.2956465 9.66666667,19.0722253 9.66666667,18.7966212 C9.66666667,19.0722253 9.44280903,19.2956465 9.16666667,19.2956465 C8.8905243,19.2956465 8.66666667,19.0722253 8.66666667,18.7966212 L8.66666667,16.9668616 C8.66611753,16.783353 8.5172003,16.6347261 8.33333333,16.634178 C8.14946637,16.63363 8.00054913,16.485003 8,16.3014945 L8,15.3034438 C8.00082903,14.6330427 8.50035737,14.0675393 9.16666667,13.9826901 C9.22196483,13.975958 9.27762537,13.9726249 9.33333333,13.972708 L10,13.972708 C10.3536526,13.9726098 10.6928492,14.1127797 10.9429194,14.3623624 C11.1929896,14.6119451 11.3334333,14.9504805 11.3333334,15.3034438 Z" id="Shape" fill="#CAD9FC"></path>
                    <path d="M10.3333333,15.3034438 L10.3333333,16.3014945 C10.3327842,16.485003 10.183867,16.63363 10,16.634178 C9.81613303,16.6347261 9.6672158,16.783353 9.66666667,16.9668616 L9.66666667,18.7966212 C9.66666667,19.0722253 9.44280903,19.2956465 9.16666667,19.2956465 C8.8905243,19.2956465 8.66666667,19.0722253 8.66666667,18.7966212 L8.66666667,16.9668616 C8.66611753,16.783353 8.5172003,16.6347261 8.33333333,16.634178 C8.14946637,16.63363 8.00054913,16.485003 8,16.3014945 L8,15.3034438 C8.00082903,14.6330427 8.50035737,14.0675393 9.16666667,13.9826901 C9.83297597,14.0675393 10.3325043,14.6330427 10.3333333,15.3034438 Z" id="Shape" fill="#E8EDFC"></path>
                    <g id="Group" transform="translate(2.333333, 6.320988)" fill="#FFFFFF">
                        <path d="M2.16666667,12.7451072 C2.05954547,12.6250867 2.00024593,12.4700248 2,12.3092917 L2,7.8945809 C1.99733907,7.89713684 1.9936653,7.89835905 1.99,7.89790773 C1.89209123,7.95550773 1.78031457,7.9854101 1.66666667,7.98440546 C1.2995857,7.98174732 1.00266333,7.68540375 1,7.31903834 L1,4.99025341 C1.00033297,4.07171081 1.74633003,3.32716793 2.66666667,3.32683561 L1.66666667,3.32683561 C0.746330043,3.32716793 0.00033298,4.07171081 0,4.99025341 L0,7.31903834 C0.00266334,7.68540375 0.299585687,7.98174732 0.666666667,7.98440546 C0.78031457,7.9854101 0.89209124,7.95550773 0.99,7.89790773 C0.99366529,7.89835905 0.997339083,7.89713684 1,7.8945809 L1,12.3092917 C1.00379,12.6751856 1.30005817,12.9708763 1.66666667,12.9746606 C1.72282817,12.9747832 1.7787958,12.9680801 1.83333333,12.9546979 C1.88787087,12.9680801 1.9438385,12.9747832 2,12.9746606 C2.1176416,12.9737141 2.23283057,12.9409872 2.33333333,12.8799538 C2.27076577,12.8443999 2.2144632,12.7988466 2.16666667,12.7451072 Z" id="Shape"></path>
                        <path d="M3.41466667,12.8254969 C3.4437477,12.8023555 3.47084183,12.776831 3.49566667,12.7491892 C3.47087597,12.7768641 3.4437789,12.8023914 3.41466667,12.8254969 Z" id="Shape"></path>
                        <path d="M3.30593,12.8965647 C3.3355807,12.8814897 3.36406113,12.8642241 3.39113333,12.8449123 C3.36406363,12.8642279 3.33558293,12.8814937 3.30593,12.8965647 Z" id="Shape"></path>
                        <path d="M3,12.9746589 C3.0472874,12.9744755 3.0944185,12.9692268 3.14058333,12.9590028 C3.09442403,12.96926 3.04728933,12.9745092 3,12.9746589 Z" id="Shape"></path>
                        <path d="M3.17733333,12.9475518 C3.2096169,12.9391245 3.24121497,12.9282702 3.27185667,12.9150819 C3.2412199,12.9282829 3.20962087,12.9391376 3.17733333,12.9475518 Z" id="Shape"></path>
                        <path d="M2.33334072,-1.77773637e-05 C2.21947463,-0.000705555296 2.1064657,0.0195963925 2,0.0598830409 C1.60011007,0.199471241 1.33259117,0.576417285 1.33334072,0.999233339 C1.33409343,1.42204943 1.60294997,1.79804626 2.00333333,1.93621832 C2.10864127,1.97650058 2.22055807,1.99680941 2.33334072,1.99611926 C2.51023053,1.9957916 2.68386023,1.94851491 2.83640667,1.85912224 C2.52617983,1.68354167 2.33414583,1.35538263 2.33334072,0.999441998 C2.3325222,0.643501361 2.5230573,0.314473161 2.83248,0.137484808 C2.68123633,0.0483397864 2.50898,0.000893554776 2.33334072,-1.77773637e-05 L2.33334072,-1.77773637e-05 Z" id="Shape"></path>
                    </g>
                </g>
                <g id="Outline">
                    <polygon id="Rectangle-path" fill="#FFFFFF" transform="translate(1.804266, 4.185136) rotate(-25.591424) translate(-1.804266, -4.185136) " points="0.471012509 3.85128035 3.13701316 3.85330566 3.13751949 4.51899113 0.471518837 4.51696582"></polygon>
                    <g id="Group" fill="#428DFF">
                        <path d="M1.65912,3.88565999 C1.53750221,3.94374022 1.46291593,4.06922067 1.47014185,4.20358803 C1.47736777,4.33795536 1.56498281,4.45474706 1.69213078,4.49950141 C1.81927874,4.54425577 1.96091893,4.5081588 2.05100243,4.40804304 C2.14108592,4.30792731 2.16187155,4.16350975 2.10366667,4.04213437 C2.02419595,3.87641311 1.82517227,3.80635947 1.65912,3.88565999 L1.65912,3.88565999 Z" id="Shape"></path>
                        <path d="M19.54362,4.46003815 L10.5467133,0.163093957 C10.2014158,-0.00316746355 9.7990018,-0.0032127817 9.45366667,0.162970864 L9.45359333,0.162807849 L2.86181667,3.31122194 C2.75371147,3.36212289 2.68118985,3.46689868 2.67174787,3.58582437 C2.66230589,3.70475006 2.71738917,3.81961748 2.81611326,3.88687545 C2.91483736,3.95413342 3.04208711,3.96348442 3.14961667,3.91138308 L9.74137333,0.762975647 L9.74135333,0.762905783 L9.74168667,0.762822612 C9.9050425,0.684304538 10.0953591,0.684427022 10.2586133,0.763155296 L19.2556833,5.06042885 C19.2886709,5.07616189 19.3139074,5.10450723 19.3256833,5.13905196 C19.3379562,5.17415629 19.3354301,5.21272859 19.3186833,5.24593986 L18.8009433,6.28491062 C18.7857935,6.316781 18.758496,6.34127603 18.7251377,6.35293376 C18.6917794,6.36459152 18.6551342,6.36244255 18.6233733,6.34696608 L10.3434233,2.41292975 C10.1261202,2.30962143 9.87372647,2.30962143 9.65642333,2.41292975 L1.37679,6.34697939 C1.31056481,6.37839985 1.23134039,6.35071326 1.19922,6.28492392 L0.681333333,5.24593986 C0.664586517,5.21272859 0.662060447,5.17415629 0.674333333,5.13905196 C0.686109233,5.10450723 0.711345763,5.07616189 0.744333333,5.06042885 C0.910450457,4.98103099 0.980624597,4.78226427 0.90107166,4.61647096 C0.821518727,4.45067764 0.622363793,4.3806403 0.456246667,4.46003815 C0.26214299,4.55325822 0.11354399,4.72019723 0.04365331,4.92355355 C-0.02623737,5.12690987 -0.01159452,5.34973427 0.08431,5.54223782 L0.602376667,6.58120858 C0.798267593,6.96977346 1.26831815,7.13231846 1.66308667,6.94800551 L9.94270667,3.01396917 C9.9788228,2.99642681 10.0210139,2.99642681 10.05713,3.01396917 L18.3370767,6.94801882 C18.4431724,6.99829489 18.5591494,7.02436706 18.6765967,7.02436706 C18.9816446,7.02476539 19.2607802,6.85325078 19.3977867,6.58123186 L19.91569,5.54223782 C20.011617,5.34972349 20.026257,5.12687467 19.9563374,4.92350751 C19.8864177,4.72014034 19.7377688,4.55321327 19.54362,4.46004148 L19.54362,4.46003815 Z" id="Shape"></path>
                        <path d="M5.889,8.68258765 C6.36837057,8.25469119 6.47341607,7.54626653 6.13877097,6.9981376 C5.80412587,6.45000866 5.12515593,6.21837883 4.5243565,6.44738199 C3.92355707,6.67638512 3.57214143,7.30076087 3.68878127,7.93198561 C3.80542107,8.56321031 4.3568768,9.02140028 5,9.0214425 C5.32796013,9.02121823 5.64438123,8.9006099 5.889,8.68258765 L5.889,8.68258765 Z M4.33333331,7.69070825 C4.33326323,7.42149093 4.49570787,7.17874681 4.74490463,7.07568949 C4.9941014,6.97263214 5.2809632,7.02956195 5.4717004,7.21992735 C5.6624376,7.41029274 5.7194786,7.69659535 5.61621997,7.94530636 C5.51296137,8.19401736 5.26974313,8.35614534 5,8.3560754 C4.63198453,8.35565553 4.333754,8.05800634 4.33333331,7.69070825 L4.33333331,7.69070825 Z" id="Shape"></path>
                        <path d="M15.8787433,8.68258765 C16.3581141,8.25469096 16.4631595,7.5462659 16.1285139,6.9981369 C15.7938683,6.45000786 15.1148977,6.21837856 14.5140983,6.44738256 C13.9132988,6.67638658 13.561884,7.30076323 13.678525,7.93198804 C13.7951661,8.56321287 14.3466232,9.02140187 14.9897467,9.0214425 C15.3177056,9.02121743 15.6341254,8.90060913 15.8787433,8.68258765 L15.8787433,8.68258765 Z M14.32308,7.69070825 C14.3230099,7.42149093 14.4854545,7.17874681 14.7346513,7.07568949 C14.9838481,6.97263214 15.2707099,7.02956195 15.4614471,7.21992735 C15.6521843,7.41029274 15.7092253,7.69659535 15.6059666,7.94530636 C15.502708,8.19401736 15.2594898,8.35614534 14.9897467,8.3560754 C14.6217312,8.35565553 14.3235007,8.05800634 14.32308,7.69070825 L14.32308,7.69070825 Z" id="Shape"></path>
                        <path d="M5.66666667,9.68680962 L4.33333333,9.68680962 C3.22926417,9.68801423 2.33454031,10.580994 2.33333333,11.682911 L2.33333333,14.0116959 C2.33606861,14.5617693 2.78218555,15.0070167 3.33333333,15.0097466 L3.33333333,19.0019493 C3.33315504,19.3956186 3.564957,19.7525795 3.92507343,19.9131932 C4.28518987,20.0738069 4.70627013,20.0080346 5,19.7452908 C5.29372987,20.0080346 5.71481013,20.0738069 6.07492657,19.9131932 C6.435043,19.7525795 6.66684497,19.3956186 6.66666667,19.0019493 L6.66666667,15.0097466 C7.21794187,15.0073216 7.66423697,14.5618965 7.66666667,14.0116959 L7.66666667,11.682911 C7.6654597,10.580994 6.77073583,9.68801423 5.66666667,9.68680962 Z M7.0000012,14.0116959 C7.0002436,14.1014215 6.96331017,14.1872557 6.89795,14.2488627 C6.79153293,14.3509716 6.63080403,14.3717983 6.50179,14.3001958 L6.50107667,14.2998897 C6.39740217,14.2408223 6.33338737,14.1308408 6.33333333,14.0116959 L6.33333333,12.3482781 C6.33333333,12.1645421 6.1840949,12.0155945 6,12.0155945 C5.8159051,12.0155945 5.66666667,12.1645421 5.66666667,12.3482781 L5.66666667,14.0116959 C5.6670103,14.2933145 5.7883855,14.5612549 6,14.747542 L6,19.0019493 C6,19.1856854 5.85076157,19.3346329 5.66666667,19.3346329 C5.48257177,19.3346329 5.33333333,19.1856854 5.33333333,19.0019493 L5.33333333,15.6751137 C5.33333333,15.4913777 5.1840949,15.3424301 5,15.3424301 C4.8159051,15.3424301 4.66666667,15.4913777 4.66666667,15.6751137 L4.66666667,19.0019493 C4.66666667,19.1856854 4.51742823,19.3346329 4.33333333,19.3346329 C4.14923843,19.3346329 4,19.1856854 4,19.0019493 L4,14.747542 C4.2116145,14.5612549 4.3329897,14.2933145 4.33333333,14.0116959 L4.33333333,12.3482781 C4.33333333,12.1645421 4.1840949,12.0155945 4,12.0155945 C3.8159051,12.0155945 3.66666667,12.1645421 3.66666667,12.3482781 L3.66666667,14.0116959 C3.66661263,14.1308408 3.60259783,14.2408223 3.49892333,14.2998897 L3.49821,14.3001958 C3.36659033,14.3742413 3.20152608,14.3506402 3.09603,14.2426914 C3.03388481,14.1819255 2.9992123,14.0985225 2.99998687,14.0116959 L2.99998687,11.682911 C3.00078448,10.9482913 3.59727887,10.3529597 4.33333333,10.3521767 L5.66666667,10.3521767 C6.40272113,10.3529597 6.99921553,10.9482913 7.0000012,11.682911 L7.0000012,14.0116959 Z" id="Shape"></path>
                        <path d="M17.2610667,10.8983101 C17.0576812,10.1820045 16.4027026,9.68740126 15.6567367,9.68680962 L14.3434233,9.68680962 C13.597752,9.68723242 12.9428846,10.1814041 12.7392567,10.8973353 L12.04004,13.3726441 C11.8852773,13.8995157 12.186551,14.4520911 12.7138667,14.6085302 C12.8475641,14.6494011 12.9885371,14.6609271 13.1271167,14.6423176 L13.0402033,15.0627198 C12.9312969,15.4317168 13.0454663,15.8303045 13.3333333,16.0860943 L13.3333333,19.0019493 C13.333155,19.3956186 13.564957,19.7525795 13.9250734,19.9131932 C14.2851899,20.0738069 14.7062701,20.0080346 15,19.7452908 C15.2937299,20.0080346 15.7148101,20.0738069 16.0749266,19.9131932 C16.435043,19.7525795 16.666845,19.3956186 16.6666667,19.0019493 L16.6666667,16.0860943 C16.9505055,15.8388655 17.0670257,15.4510191 16.96631,15.088709 L16.8736967,14.6426403 C17.2075177,14.6847137 17.5401765,14.5565267 17.7590555,14.3014753 C17.9779345,14.0464239 18.0537266,13.6986586 17.9607733,13.375911 L17.2610667,10.8983101 Z M17.0874,13.9736835 L17.0872367,13.9736835 C17.0588754,13.9817307 17.0294807,13.9855622 17,13.9850546 C16.8612523,13.9866778 16.7369362,13.8997652 16.69106,13.7690665 L16.3233933,12.269329 C16.2951336,12.1538968 16.207318,12.0622801 16.0930257,12.0289899 C15.9787335,11.9956998 15.8553283,12.0257938 15.7692957,12.1079358 C15.6832632,12.1900778 15.6476736,12.3117884 15.6759333,12.4272206 L16.0479033,13.9445903 L16.32014,15.249841 C16.3627744,15.3969136 16.2991902,15.5540219 16.16617,15.6302813 C16.063317,15.6897954 16.0000024,15.7994721 16,15.9181291 L16,19.0019493 C16,19.1856854 15.8507616,19.3346329 15.6666667,19.3346329 C15.4825718,19.3346329 15.3333333,19.1856854 15.3333333,19.0019493 L15.3333333,16.0077973 C15.3333333,15.8240612 15.1840949,15.6751137 15,15.6751137 C14.8159051,15.6751137 14.6666667,15.8240612 14.6666667,16.0077973 L14.6666667,19.0019493 C14.6666667,19.1856854 14.5174282,19.3346329 14.3333333,19.3346329 C14.1492384,19.3346329 14,19.1856854 14,19.0019493 L14,15.9181291 C13.9999968,15.7994688 13.9366779,15.6897902 13.83382,15.6302779 C13.6946697,15.5465525 13.633182,15.3770784 13.68636,15.2238451 L13.9521067,13.9444639 L14.3240567,12.4272239 C14.3523164,12.3117918 14.3167268,12.1900811 14.2306943,12.1079391 C14.1446617,12.0257971 14.0212565,11.9957031 13.9069643,12.0289933 C13.792672,12.0622835 13.7048564,12.1539001 13.6765967,12.2693323 L13.30893,13.7690698 C13.2630538,13.8997637 13.1387432,13.986674 13,13.9850546 C12.9704652,13.9855501 12.9410173,13.981719 12.9125967,13.9736835 C12.7332432,13.9222837 12.6295158,13.7355896 12.6808267,13.5565316 L13.3811833,11.0769977 C13.5036337,10.6479501 13.8964381,10.3520645 14.3434233,10.3521767 L15.6567367,10.3521767 C16.1040167,10.3521767 16.4969329,10.6485499 16.61914,11.0779725 L17.3199867,13.5597919 C17.3696557,13.7381116 17.2657583,13.9230011 17.0874033,13.9736835 L17.0874,13.9736835 Z" id="Shape"></path>
                        <path d="M11.0381467,14.1733801 C11.4788717,13.6298547 11.4233713,12.8387066 10.9110597,12.3617779 C10.3987481,11.8848492 9.60411433,11.8845779 9.0914758,12.3611565 C8.57883727,12.8377352 8.5227944,13.6288452 8.96314667,14.1726715 C8.3771891,14.4445302 8.0017428,15.0302005 8,15.6751137 L8,16.6731644 C8.00042067,17.0404625 8.2986512,17.3381117 8.66666667,17.3385315 L8.66666667,19.1682911 C8.6665402,19.483373 8.84489017,19.7714515 9.1272867,19.912304 C9.40968327,20.0531566 9.74759383,20.0225765 10,19.8333255 C10.2524062,20.0225765 10.5903167,20.0531566 10.8727133,19.912304 C11.1551098,19.7714515 11.3334598,19.483373 11.3333333,19.1682911 L11.3333333,17.3385315 C11.7013488,17.3381117 11.9995793,17.0404625 12,16.6731644 L12,15.6751137 C11.9982356,15.0307487 11.6233808,14.445491 11.0381467,14.1733801 Z M10,12.6809617 C10.3681898,12.6809617 10.6666667,12.9788567 10.6666667,13.3463288 C10.6666667,13.7138009 10.3681898,14.0116959 10,14.0116959 C9.63181017,14.0116959 9.33333333,13.7138009 9.33333333,13.3463288 C9.333754,12.9790307 9.63198453,12.6813815 10,12.6809617 Z M11.3333333,16.6731644 C10.9653179,16.6735842 10.6670873,16.9712334 10.6666667,17.3385315 L10.6666667,19.1682911 C10.6666667,19.2601591 10.5920475,19.3346329 10.5,19.3346329 C10.4079525,19.3346329 10.3333333,19.2601591 10.3333333,19.1682911 C10.3333333,18.9845551 10.1840949,18.8356075 10,18.8356075 C9.8159051,18.8356075 9.66666667,18.9845551 9.66666667,19.1682911 C9.66666667,19.2601591 9.59204747,19.3346329 9.5,19.3346329 C9.40795253,19.3346329 9.33333333,19.2601591 9.33333333,19.1682911 L9.33333333,17.3385315 C9.33291267,16.9712334 9.03468213,16.6735842 8.66666667,16.6731644 L8.66666667,15.6751137 C8.66726923,15.1241548 9.1146317,14.6776644 9.66666667,14.677063 L10.3333333,14.677063 C10.8853683,14.6776644 11.3327308,15.1241548 11.3333333,15.6751137 L11.3333333,16.6731644 Z" id="Shape"></path>
                    </g>
                </g>
            </g>
        </g>
    </g>
</svg>