<?xml version="1.0" encoding="UTF-8"?>
<svg width="50px" height="43px" viewBox="0 0 50 43" version="1.1" xmlns="http://www.w3.org/2000/svg" xmlns:xlink="http://www.w3.org/1999/xlink">
    <!-- Generator: Sketch 61.2 (89653) - https://sketch.com -->
    <title>loan</title>
    <desc>Created with Sketch.</desc>
    <g id="Page-1" stroke="none" stroke-width="1" fill="none" fill-rule="evenodd">
        <g id="Home" transform="translate(-212.000000, -1017.000000)" fill-rule="nonzero">
            <g id="loan" transform="translate(208.000000, 1012.114224)">
                <polygon id="Path" fill="#32C5FF" points="4 4.88577586 7 4.88577586 7 7.88577586 4 7.88577586"></polygon>
                <polygon id="Path" fill="#32C5FF" points="9 4.88577586 12 4.88577586 12 7.88577586 9 7.88577586"></polygon>
                <polygon id="Path" fill="#32C5FF" points="14 4.88577586 17 4.88577586 17 7.88577586 14 7.88577586"></polygon>
                <path d="M9,42.8857759 L9,26.8857759 C9.00048825,26.3335297 9.44775388,25.8862641 10,25.8857759 L31,25.8857759 L31,23.8857759 L10,23.8857759 C8.34375,23.887729 7.00195312,25.2295259 7,26.8857759 L7,42.8857759 C7.00195312,44.5420259 8.34375,45.8838227 10,45.8857759 L29,45.8857759 L29,43.8857759 L10,43.8857759 C9.44775388,43.8852876 9.00048825,43.438022 9,42.8857759 Z" id="Path" fill="#32C5FF"></path>
                <path d="M21,34.8857759 L21,30.8857759 C20.9980469,29.2295259 19.65625,27.887729 18,27.8857759 L14,27.8857759 C12.34375,27.887729 11.0019531,29.2295259 11,30.8857759 L11,34.8857759 C11.0019531,36.5420259 12.34375,37.8838227 14,37.8857759 L18,37.8857759 C19.65625,37.8838227 20.9980469,36.5420259 21,34.8857759 Z M13,34.8857759 L13,30.8857759 C13.0004883,30.3335297 13.4477539,29.8862641 14,29.8857759 L18,29.8857759 C18.5522461,29.8862641 18.9995117,30.3335297 19,30.8857759 L19,34.8857759 C18.9995117,35.438022 18.5522461,35.8852876 18,35.8857759 L14,35.8857759 C13.4477539,35.8852876 13.0004883,35.438022 13,34.8857759 Z" id="Shape" fill="#32C5FF"></path>
                <polygon id="Path" fill="#32C5FF" points="23 27.8857759 28 27.8857759 28 29.8857759 23 29.8857759"></polygon>
                <polygon id="Path" fill="#32C5FF" points="23 31.8857759 27 31.8857759 27 33.8857759 23 33.8857759"></polygon>
                <polygon id="Path" fill="#32C5FF" points="23 35.8857759 27 35.8857759 27 37.8857759 23 37.8857759"></polygon>
                <polygon id="Path" fill="#32C5FF" points="14 39.8857759 16 39.8857759 16 41.8857759 14 41.8857759"></polygon>
                <polygon id="Path" fill="#32C5FF" points="18 39.8857759 28 39.8857759 28 41.8857759 18 41.8857759"></polygon>
                <path d="M50.6368542,23.1421311 C49.8666094,22.3645599 48.6205544,22.3645599 47.8503095,23.1421311 L45.9682373,25.048057 C44.6808076,24.4220051 43.2913841,24.039066 41.8682833,23.9187276 L41.8682833,21.8724881 L42.8535809,21.8724881 C43.9413532,21.8710265 44.8227327,20.9784763 44.824176,19.8769174 L44.824176,17.8813466 C44.8227327,16.7797877 43.9413532,15.8872375 42.8535809,15.8857759 L38.9123907,15.8857759 C37.8246184,15.8872375 36.9432389,16.7797877 36.9417956,17.8813466 L36.9417956,19.8769174 C36.9432389,20.9784763 37.8246184,21.8710265 38.9123907,21.8724881 L39.8976882,21.8724881 L39.8976882,23.9187276 C34.7224706,24.3425916 30.422378,28.1286218 29.2874576,33.2593239 C28.1525373,38.390026 30.4473953,43.6712727 34.9495509,46.2904593 C39.4517063,48.9096459 45.1133185,48.2563108 48.9183568,44.6792893 C52.723395,41.1017805 53.78615,35.4327226 51.5413265,30.6917805 L53.4233988,28.7858546 C54.1922004,28.0063348 54.1922004,26.7435126 53.4233988,25.9639928 L50.6368542,23.1421311 Z M38.9123907,19.8769174 L38.9123907,17.8813466 L42.8535809,17.8813466 L42.8535809,19.8769174 L38.9123907,19.8769174 Z M40.8829858,45.819337 C35.4412374,45.819337 31.0300102,41.3522013 31.0300102,35.8414833 C31.0300102,30.3307653 35.4412374,25.8636296 40.8829858,25.8636296 C46.3247342,25.8636296 50.7359613,30.3307653 50.7359613,35.8414833 C50.729707,41.349278 46.3218475,45.8130035 40.8829858,45.819337 Z M50.5093621,28.9144753 C49.742004,27.8241219 48.8000056,26.8701845 47.7232985,26.0931008 L49.2435819,24.5530619 L52.0301265,27.3749237 L50.5093621,28.9144753 Z" id="Shape" fill="#0091FF"></path>
                <polygon id="Path" fill="#0091FF" points="40 35.2400701 45.7680751 29.8857759 47 31.5314816 41.2319249 36.8857759"></polygon>
            </g>
        </g>
    </g>
</svg>