<?xml version="1.0" encoding="UTF-8"?>
<svg width="16px" height="21px" viewBox="0 0 16 21" version="1.1" xmlns="http://www.w3.org/2000/svg" xmlns:xlink="http://www.w3.org/1999/xlink">
    <!-- Generator: Sketch 61.2 (89653) - https://sketch.com -->
    <title>location (1)ne</title>
    <desc>Created with Sketch.</desc>
    <g id="Page-1" stroke="none" stroke-width="1" fill="none" fill-rule="evenodd">
        <g id="Contact-Details" transform="translate(-1047.000000, -626.000000)" fill-rule="nonzero">
            <g id="location-(1)" transform="translate(1047.000000, 626.000000)">
                <path d="M9.72757635,2.09996797 C9.72757635,3.06655884 8.94990457,3.85002138 7.99045802,3.85002138 C7.03117048,3.85002138 6.25349871,3.06655884 6.25349871,2.09996797 C6.25349871,1.1335373 7.03117048,0.350074758 7.99045802,0.350074758 C8.94990457,0.350074758 9.72757635,1.1335373 9.72757635,2.09996797 Z" id="Path" fill="#E3E7F2"></path>
                <path d="M12.1595102,6.64997862 L12.1595102,10.6749573 C12.1595102,11.0064468 11.9736005,11.3094177 11.6793893,11.4576187 C11.3851781,11.6058197 11.0329199,11.5737763 10.7698791,11.3749466 C10.8032761,11.350914 10.8347646,11.3239975 10.8635496,11.2945175 C11.0263995,11.1301346 11.1176845,10.9072724 11.1172074,10.6749573 L11.1172074,6.64997862 C11.1173664,5.69300078 10.3543257,4.91338349 9.40442113,4.89992524 L10.4223919,4.89992524 C11.3816794,4.89992524 12.1595102,5.68354795 12.1595102,6.64997862 L12.1595102,6.64997862 Z" id="Path" fill="#7FABFA"></path>
                <path d="M11.4646955,6.64997862 L11.4646955,10.6749573 C11.4650127,10.9072724 11.3737278,11.1301346 11.2110369,11.2945175 C11.1820929,11.3239975 11.1507634,11.350914 11.1172074,11.3749466 C10.8980598,11.210083 10.769243,10.950531 10.7698791,10.6749573 L5.21119593,11.1999893 C5.21119593,11.4414368 4.76653944,11.1370239 4.61020991,11.2945175 C4.58126591,11.3239975 4.54993637,11.350914 4.51638042,11.3749466 C4.29723281,11.210083 4.16841604,10.950531 4.16888514,10.6749573 L4.16888514,6.64997862 C4.16603053,5.69187929 4.93066158,4.91049956 5.88167939,4.89992524 L6.90314887,4.89992524 C7.14646946,4.90056611 7.37181932,5.02938081 7.49713742,5.23942568 C7.67398221,5.53742979 7.99332063,5.71959687 8.33794528,5.718956 C8.682729,5.72055816 9.00254453,5.5380707 9.17859416,5.23942568 C9.30009543,5.03562929 9.51590331,4.90777588 9.7519084,4.89992524 C10.7016539,4.91338349 11.4646955,5.69300078 11.4646955,6.64997862 L11.4646955,6.64997862 Z" id="Path" fill="#E3E7F2"></path>
                <path d="M10.4223926,10.1499252 L10.4223926,17.3249359 C10.4227099,17.5731125 10.3185433,17.8097534 10.1356552,17.9758987 C9.95276719,18.1422043 9.70849238,18.2223129 9.46358144,18.196518 C9.37484096,18.1861038 9.28832696,18.1623917 9.20642492,18.126503 C9.52210561,17.9864731 9.72614506,17.6724472 9.72757635,17.3249359 L9.72757635,10.1499252 L10.4223926,10.1499252 Z" id="Path" fill="#7FABFA"></path>
                <path d="M9.72757635,10.1499252 L9.72757635,17.3249359 C9.72614506,17.6724472 9.52210561,17.9864731 9.20642492,18.126503 C8.88597329,17.9662857 8.68384224,17.6363983 8.68527353,17.2760696 L8.68527353,12.599968 C8.68241095,12.2146454 8.37309158,11.9028625 7.99045802,11.8999786 C7.60671121,11.8999786 7.2956425,12.2133637 7.2956425,12.599968 L7.2956425,17.2760696 C7.30534351,17.737175 6.97089694,18.1327515 6.51749366,18.196518 C6.36800252,18.2130203 6.2167621,18.1888275 6.07967556,18.126503 C5.76415393,17.9864731 5.55995546,17.6724472 5.5586832,17.3249359 L5.5586832,10.1499252 L9.72757635,10.1499252 Z" id="Path" fill="#A4C2F7"></path>
                <g id="Group" transform="translate(0.692112, 0.328125)" fill="#FFFFFF">
                    <path d="M3.5116094,11.0468216 C3.54516539,11.022789 3.5764949,10.9958725 3.60543894,10.9663925 C3.76176847,10.8088989 4.20642492,11.1133118 4.20642492,10.8718643 L4.37452291,10.856163 C4.26622135,10.7087631 4.20722011,10.5302811 4.20642492,10.3468323 L4.20642492,6.32185362 C4.20229008,5.36727905 4.96135495,4.58702089 5.90871499,4.57180024 C5.90521628,4.57180024 5.90251273,4.57180024 5.89901398,4.57180024 L4.87754455,4.57180024 C3.9265267,4.58237456 3.16189565,5.36375429 3.16490837,6.32185362 L3.16490837,10.3468323 C3.16428116,10.6222458 3.29277989,10.8817978 3.5116094,11.0468216 L3.5116094,11.0468216 Z" id="Path"></path>
                    <path d="M7.29834606,3.52190023 C7.47566795,3.51933291 7.65139949,3.48937226 7.81949745,3.43297578 C7.09669211,3.20771026 6.60368957,2.53415679 6.60368957,1.77184297 C6.60368957,1.0095291 7.09669211,0.336135844 7.81949745,0.110710154 C7.16793893,-0.0977325234 6.45547074,0.0991745098 6.00063613,0.613471975 C5.54580153,1.12760927 5.43336513,1.8631668 5.71374046,2.49153901 C5.99395672,3.11975098 6.61466284,3.52333833 7.29834606,3.52190023 Z" id="Path"></path>
                    <path d="M0.00270355216,16.8218536 C0.0256043155,16.3490524 0.22678115,15.9028473 0.565203542,15.5744019 C0.858301517,15.2812042 1.19433844,15.03479 1.56154581,14.8439712 C2.2604962,14.4844437 3.00302164,14.2183228 3.77035623,14.0523376 C4.1178435,13.9725494 4.46517175,13.909584 4.81536261,13.8541489 L4.91762084,14.5464478 C4.58444658,14.5993194 4.25254453,14.6592407 3.9254135,14.7348633 C3.21882952,14.8869095 2.53482825,15.1307602 1.89058524,15.4603271 C1.58762724,15.6170196 1.30979644,15.8187332 1.06647581,16.0588989 C0.853371522,16.258049 0.721851155,16.530098 0.697519064,16.8218536 L0.00270355216,16.8218536 Z" id="Path"></path>
                </g>
                <path d="M2.57092877,15.3999252 C2.61323155,15.4813156 2.68288806,15.5449219 2.76749362,15.5792084 C2.80947835,15.594429 2.85384859,15.601799 2.89853688,15.6005173 C3.03196564,15.5950699 3.15060434,15.5136795 3.20451656,15.3904724 C3.22089694,15.3480148 3.22932568,15.3028335 3.22948474,15.2571716 C3.23075701,15.2115097 3.22344147,15.1658478 3.20801527,15.1227493 C3.17414123,15.0360718 3.10798347,14.966217 3.0235369,14.9282456 C2.93463739,14.8925171 2.83540075,14.8941192 2.74761449,14.9327316 C2.6611005,14.9724655 2.59239821,15.0434418 2.5548664,15.1315613 L2.53816794,15.1966095 C2.5351463,15.219841 2.5351463,15.243393 2.53816794,15.2666245 C2.53800892,15.2890549 2.54118958,15.3114853 2.54723281,15.3331146 C2.55359414,15.3560257 2.56138675,15.3782959 2.57092877,15.3999252 L2.57092877,15.3999252 Z" id="Path" fill="#428DFF"></path>
                <path d="M7.99045802,4.19993593 C9.14169848,4.19993593 10.0749046,3.25978086 10.0749046,2.09996797 C10.0749046,0.940155029 9.14169848,0 7.99045802,0 C6.83921755,0 5.90601144,0.940155029 5.90601144,2.09996797 C5.90712468,3.25930024 6.83969466,4.1988144 7.99045802,4.19993593 Z M7.99045802,0.699989309 C8.75795167,0.699989309 9.38008908,1.32675933 9.38008908,2.09996797 C9.38008908,2.87317656 8.75795167,3.49994658 7.99045802,3.49994658 C7.22296436,3.49994658 6.60082695,2.87317656 6.60082695,2.09996797 C6.60082695,1.32675933 7.22296436,0.699989309 7.99045802,0.699989309 Z" id="Shape" fill="#428DFF"></path>
                <path d="M0.347487267,17.5000534 L0.742366412,17.5000534 C1.05756995,18.7922058 3.09716922,19.8502808 6.03005724,20.1901016 L6.14472012,20.200676 L6.15473918,20.200676 C6.64535621,20.2538681 7.14456106,20.2796631 7.64312977,20.289917 L7.64312977,20.6499252 C7.64312977,20.8433075 7.79866414,21 7.99045802,21 C8.18241095,21 8.33794528,20.8433075 8.33794528,20.6499252 L8.33794528,20.2926407 C11.9888677,20.2226257 14.8613232,19.0466309 15.2409351,17.5000534 L15.6335878,17.5000534 C15.8253817,17.5000534 15.9810751,17.3433609 15.9810751,17.1499786 C15.9810751,16.9567566 15.8253817,16.8000641 15.6335878,16.8000641 L15.2388677,16.8000641 C14.956425,15.6348038 13.2746501,14.6608429 10.7698791,14.2324219 L10.7698791,11.777092 C10.9320929,11.8570404 11.1102099,11.8990173 11.2908715,11.8999786 C11.9624682,11.8999786 12.5068384,11.3515549 12.5068384,10.6749573 L12.5068384,6.64997862 C12.5055662,5.60792539 11.7460242,4.7244873 10.7224873,4.57452393 C10.6844784,4.55898286 10.6440839,4.55065156 10.6030534,4.55001069 L9.42604963,4.55001069 C9.06011448,4.55097197 8.72137405,4.74435425 8.53244275,5.05998232 C8.41809795,5.25160215 8.21246819,5.36888125 7.99045802,5.36888125 C7.76860686,5.36888125 7.56281808,5.25160215 7.44847328,5.05998232 C7.25954198,4.74435425 6.92080155,4.55097197 6.55502542,4.55001069 L5.37802162,4.55001069 C5.3369911,4.55065156 5.29643766,4.55898286 5.25842874,4.57452393 C4.23489185,4.7244873 3.47534986,5.60792539 3.4740776,6.64997862 L3.4740776,10.6749573 C3.4740776,11.3515549 4.01860686,11.8999786 4.69004454,11.8999786 C4.87070612,11.8990173 5.04882317,11.8570404 5.21119593,11.777092 L5.21119593,14.2330627 C4.96071882,14.2764816 4.71087788,14.3234253 4.46246819,14.3804626 L4.11513995,14.465538 C4.02480916,14.4892502 3.94783715,14.5485306 3.90139949,14.6300812 C3.85496183,14.711792 3.8431934,14.8087234 3.86847963,14.899086 C3.92080155,15.0817337 4.10702925,15.1900406 4.29023536,15.1442185 L4.6178435,15.0639496 C4.81440839,15.0184479 5.0124046,14.9799957 5.21151397,14.9442673 L5.21151397,17.3249359 C5.21151397,17.6718063 5.35734734,18.0023346 5.61291351,18.2346497 C5.86847963,18.4669647 6.20976464,18.579277 6.55216285,18.5437088 C7.18241095,18.4602356 7.65108145,17.9150162 7.64312977,17.2746277 L7.64312977,12.599968 C7.64312977,12.4067459 7.79866414,12.2500534 7.99045802,12.2500534 C8.18241095,12.2500534 8.33794528,12.4067459 8.33794528,12.599968 L8.33794528,17.2746277 C8.32983459,17.9151764 8.79866414,18.4603958 9.42907123,18.5437088 C9.46994276,18.5478745 9.51081425,18.5499573 9.5518448,18.5499573 C9.87468193,18.5505981 10.1844784,18.4217834 10.4128499,18.1918716 C10.6413804,17.9621201 10.7698791,17.650177 10.7698791,17.3249359 L10.7698791,14.9412231 C12.7476145,15.2970657 14.1800254,16.0156402 14.5152672,16.8000641 L14.2439568,16.8000641 C14.0520038,16.8000641 13.8964695,16.9567566 13.8964695,17.1499786 C13.8964695,17.3433609 14.0520038,17.5000534 14.2439568,17.5000534 L14.5044529,17.5000534 C14.0465967,18.5185547 11.6574428,19.5258408 8.33794528,19.5926514 L8.33794528,19.2499466 C8.33794528,19.0567246 8.18241095,18.900032 7.99045802,18.900032 C7.79866414,18.900032 7.64312977,19.0567246 7.64312977,19.2499466 L7.64312977,19.5905686 C7.16507636,19.5804749 6.68590966,19.555481 6.20928753,19.5037308 L6.10194019,19.4936371 C3.68018447,19.2135773 1.85066793,18.4057617 1.46708014,17.4986114 L1.73711833,17.4986114 C1.9289122,17.4986114 2.08444658,17.3419189 2.08444658,17.1485367 C2.08444658,16.9553146 1.9289122,16.7986221 1.73711833,16.7986221 L1.47900763,16.7986221 C1.49554707,16.7537613 1.51463104,16.7098618 1.53625954,16.6674042 C1.64297075,16.5027008 1.77369592,16.3551407 1.92398217,16.2298508 C2.05550253,16.1042404 2.07633588,15.9006042 1.9729644,15.7506409 C1.91698475,15.6714936 1.82999365,15.6203842 1.73393767,15.6104507 C1.63804071,15.6005173 1.54246184,15.6325607 1.47169213,15.6985703 C1.26526718,15.8719253 1.08651399,16.0762024 0.941793873,16.3043518 C0.853053435,16.4592819 0.786736651,16.6262283 0.744433832,16.8000641 L0.347487267,16.8000641 C0.155534331,16.8000641 0,16.9567566 0,17.1499786 C0,17.3433609 0.155534331,17.5000534 0.347487267,17.5000534 L0.347487267,17.5000534 Z M10.0749046,17.3249359 C10.0749046,17.4734573 10.0124046,17.6150894 9.90298984,17.7145844 C9.79341602,17.815361 9.64615141,17.8635864 9.49856871,17.8472442 C9.22232826,17.8017426 9.02274174,17.5564499 9.03276083,17.2746277 L9.03276083,12.599968 C9.03276083,12.0201416 8.56615776,11.5500641 7.99045802,11.5500641 C7.41491729,11.5500641 6.94831426,12.0201416 6.94831426,12.599968 L6.94831426,17.2746277 C6.95817429,17.5564499 6.75858777,17.8017426 6.48234732,17.8472442 C6.33492364,17.8635864 6.18750001,17.815361 6.07792619,17.7145844 C5.96851143,17.6150894 5.90601144,17.4734573 5.90601144,17.3249359 L5.90601144,10.5 L7.2956425,10.5 C7.4875954,10.5 7.64312977,10.3433075 7.64312977,10.1499252 C7.64312977,9.95670318 7.4875954,9.80001069 7.2956425,9.80001069 L5.90601144,9.80001069 L5.90601144,7.70004272 C5.90601144,7.50666045 5.75047711,7.34996797 5.5586832,7.34996797 C5.36673026,7.34996797 5.21119593,7.50666045 5.21119593,7.70004272 L5.21119593,10.6749573 C5.21119593,10.9649506 4.97789439,11.1999893 4.69004454,11.1999893 C4.40219465,11.1999893 4.16889315,10.9649506 4.16889315,10.6749573 L4.16889315,6.64997862 C4.16889315,5.87677002 4.79118958,5.25 5.5586832,5.25 L6.55502542,5.25 C6.67700381,5.25016021 6.79007634,5.31472778 6.85273535,5.42015078 C7.09255727,5.8227768 7.52433205,6.06919097 7.99045802,6.06919097 C8.45658398,6.06919097 8.88851782,5.8227768 9.1283397,5.42015078 C9.19099872,5.31472778 9.30407125,5.25016021 9.42604963,5.25 L10.4223919,5.25 C11.1898855,5.25 11.8120229,5.87677002 11.8120229,6.64997862 L11.8120229,10.6749573 C11.8120229,10.9649506 11.5787214,11.1999893 11.2908715,11.1999893 C11.0031807,11.1999893 10.7698791,10.9649506 10.7698791,10.6749573 L10.7698791,7.70004272 C10.7698791,7.50666045 10.6141858,7.34996797 10.4223919,7.34996797 C10.2305979,7.34996797 10.0749046,7.50666045 10.0749046,7.70004272 L10.0749046,9.80001069 L8.68527353,9.80001069 C8.49347965,9.80001069 8.33794528,9.95670318 8.33794528,10.1499252 C8.33794528,10.3433075 8.49347965,10.5 8.68527353,10.5 L10.0749046,10.5 L10.0749046,17.3249359 Z" id="Shape" fill="#428DFF"></path>
            </g>
        </g>
    </g>
</svg>