<?xml version="1.0" encoding="UTF-8"?>
<svg width="26px" height="25px" viewBox="0 0 26 25" version="1.1" xmlns="http://www.w3.org/2000/svg" xmlns:xlink="http://www.w3.org/1999/xlink">
    <!-- Generator: Sketch 61.2 (89653) - https://sketch.com -->
    <title>tick</title>
    <desc>Created with Sketch.</desc>
    <g id="Page-1" stroke="none" stroke-width="1" fill="none" fill-rule="evenodd">
        <g id="Risk-assessment" transform="translate(-794.000000, -704.000000)" fill-rule="nonzero">
            <g id="tick" transform="translate(794.000000, 704.000000)">
                <path d="M24.6403773,20.8744725 L8.03250827,23.9909111 C7.96707382,24.0042856 7.89922329,24.0029287 7.83459419,23.9866468 C7.77962926,23.9705587 7.72768434,23.9461358 7.68057156,23.914735 L1.17115184,19.1214515 C1.05940991,19.0384912 0.995787488,18.9088173 1,18.7729407 C1.00444498,18.637258 1.0763222,18.5116545 1.19309754,18.4354783 C1.24604913,18.4009762 1.30604747,18.3779101 1.36906592,18.367637 L8.45914088,17.262598 L15.1356702,16.216678 L16.4902641,16.0050129 C16.5836843,15.9912508 16.6789166,16.0059821 16.7630754,16.0472684 L24.7633941,20.0826668 C24.9298995,20.1662086 25.0229172,20.3420147 24.9951327,20.5207282 C24.9673482,20.6994417 24.8248018,20.841521 24.6403773,20.8744725 Z" id="Path" fill="#A4C2F7"></path>
                <path d="M21.6503886,22.1716672 L7.72176251,25 C7.66770499,24.982916 7.61661762,24.9569812 7.57028262,24.9236365 L1.16832631,19.8336255 C1.05842912,19.7455295 0.995857032,19.6078281 1.00021334,19.4635402 C1.0043716,19.319458 1.07506221,19.1860791 1.18990971,19.1051872 L5.73628677,18.3407285 L12.3025938,17.2300609 L13.6348248,17.0052927 C13.7267028,16.9906786 13.820363,17.0065277 13.9031324,17.0503698 L21.7672162,21.3353732 C21.9301809,21.4228517 22.0218609,21.6081001 21.9955251,21.7968478 C21.9691894,21.9855954 21.8305804,22.1360584 21.6503886,22.1716672 Z" id="Path" fill="#E3E7F2"></path>
                <path d="M18.6512036,20.1454677 L8.06746364,21.9920065 C8.03387624,21.9983069 7.99950774,22.000932 7.96513924,21.999707 C7.87902273,21.9951567 7.79603058,21.968555 7.72631722,21.9232273 L5.16684045,20.1683941 C5.05943892,20.0950646 4.99753653,19.9804325 5,19.8596751 C5.00261372,19.7387426 5.06939794,19.6262107 5.1795334,19.5567314 C5.23206252,19.5208542 5.29357433,19.4972277 5.35879634,19.4877771 L8.86946037,18.9755206 L14.1549839,18.2108984 L15.5541333,18.0043858 C15.6464986,17.991785 15.7408167,18.0064858 15.8228325,18.0465634 L18.770517,19.4305486 C18.9320099,19.5059783 19.0222272,19.664713 18.9952792,19.826073 C18.9683311,19.9874329 18.8300761,20.1157159 18.6512036,20.1454677 L18.6512036,20.1454677 Z" id="Path" fill="#7FABFA"></path>
                <path d="M16.6651601,21.3189425 L7.92076968,23 C7.8359418,22.9950724 7.75419152,22.9662651 7.68552133,22.917179 L5.1643439,21.0168449 C5.05854949,20.9374353 4.99757339,20.8132986 5,20.6825286 C5.00257461,20.5515691 5.06835948,20.4297067 5.17684691,20.3544666 L7.02574878,20.0563489 L12.2319888,19.2283286 L13.610394,19.004693 C13.7008002,18.991616 13.7931299,19.0060196 13.8750725,19.0460087 L16.7786487,20.5489158 C16.9342627,20.6313578 17.0210141,20.8007902 16.9956234,20.9730654 C16.9702328,21.1453406 16.8382783,21.2836915 16.6651601,21.3189425 L16.6651601,21.3189425 Z" id="Path" fill="#A4C2F7"></path>
                <path d="M24.5512724,1 C24.107005,1.01461927 23.6643553,1.05695743 23.2259522,1.12726215 C19.9967732,1.6364856 14.5412018,3.95712308 11.2766351,13.3629973 C10.7684676,13.0388578 10.2370453,12.7496763 9.68641257,12.4975893 C8.55865686,11.9495235 7.3431396,11.5867357 6.09061696,11.4241804 C4.6271835,11.2039442 3.13604658,11.6014958 2,12.5144858 C2.06187796,12.4636023 2.7024966,12.7817213 2.76862107,12.807163 C3.42076598,13.0839149 4.05248713,13.4028108 4.65933577,13.7619085 C6.22448358,14.6844148 7.53767092,15.9528124 8.48929694,17.4614501 C9.07248638,18.3991049 9.5495127,19.9390107 10.556748,20.6305991 C10.8910102,20.873364 11.2994855,21.0030975 11.718476,20.9997959 C12.6153016,20.9997959 13.6312321,21.0295103 14.311485,20.371909 C15.1464327,19.5700082 15.1595767,18.3948322 15.4157837,17.3554104 C16.6939878,12.4663212 19.1292688,7.92623073 22.5323531,4.08860449 C22.7400284,3.84681075 22.9521524,3.60928964 23.168523,3.37584696 C23.6051062,2.90371798 24.0679774,2.45470018 24.5555189,2.03092989 C24.6218456,1.97577372 24.736704,1.85711027 24.8736039,1.72135622 C24.9991797,1.59842008 25.0347696,1.41488989 24.9641964,1.25680146 C24.893421,1.09871299 24.7302331,0.997334427 24.5512724,1 Z" id="Path" fill="#A4C2F7"></path>
                <path d="M23,0 C22.9889965,0.0895875816 22.9473835,0.172406347 22.8819629,0.234918614 C22.7465204,0.374077992 22.6328847,0.495917189 22.567264,0.556637666 C22.0839121,0.988449919 21.6257681,1.44733754 21.1950328,1.93111064 C20.9807654,2.17458986 20.7710995,2.41806903 20.5656349,2.66174732 C17.1977765,6.5966341 14.7884192,11.2520043 13.5248221,16.2655259 C13.2713424,17.3310212 13.2583384,18.5312961 12.4322787,19.3533121 C11.8867073,19.8155842 11.1800852,20.0453266 10.4656606,19.9925694 C9.46914747,19.2836329 8.99719913,17.7050992 8.42021779,16.7439238 C7.47872192,15.1974426 6.17951357,13.8972278 4.63102691,12.9515808 C4.03063822,12.5834753 3.4056418,12.2565801 2.76043903,11.972886 C2.69501846,11.946806 2.06121927,11.6207072 2,11.672867 C3.12395327,10.7369752 4.5992169,10.3294511 6.04707197,10.5552119 C7.28626141,10.7218448 8.48883937,11.0937329 9.60459002,11.6555467 C10.1493612,11.9139572 10.6751265,12.2103927 11.1778845,12.5426631 C14.4076996,2.90084673 19.8051959,0.521997099 23,0 Z" id="Path" fill="#E3E7F2"></path>
                <path d="M1.19819442,19.1841034 C1.07825514,19.2637208 1.00455756,19.3949983 1.00022242,19.5368105 C0.995680801,19.6788252 1.06091458,19.8143571 1.17548645,19.9010651 L7.84976412,24.9108832 C7.89827656,24.9437025 7.95133056,24.9692287 8.00768754,24.9860436 C8.07415991,25.003061 8.14352236,25.0044792 8.210614,24.9905005 L9.08590203,24.8231622 L2.52846707,19.9010651 C2.41389516,19.8143571 2.34866143,19.6788252 2.35299657,19.5368105 C2.35753818,19.3949983 2.43123577,19.2637208 2.55096857,19.1841034 C2.60526121,19.1480426 2.66677907,19.1239345 2.73139348,19.1131973 L10,17.9582387 C9.89327268,17.7438997 9.78675177,17.5372591 9.67630858,17.3563474 C8.70482141,15.7826377 7.36422699,14.4595303 5.76641346,13.4972336 C5.14669305,13.1226469 4.50199386,12.7899962 3.83623818,12.5013072 C3.76852722,12.474768 3.1147449,12.1429276 3.05157551,12.1960058 C3.81992979,11.540226 4.78026939,11.1399105 5.79490158,11.0527973 C4.32590409,10.8441309 2.83585005,11.2598431 1.69859493,12.1960058 C1.76176428,12.1429276 2.41575307,12.474768 2.48346403,12.5013072 C3.14901323,12.7899962 3.79391884,13.1226469 4.41343289,13.4972336 C6.01145284,14.4595303 7.35184084,15.7826377 8.32332795,17.3563474 C8.43377115,17.5372591 8.54029205,17.7438997 8.64722585,17.9582387 L1.37841291,19.1131973 C1.31400492,19.1239345 1.25248706,19.1480426 1.19819442,19.1841034 Z" id="Path" fill="#FFFFFF"></path>
                <polygon id="Path" fill="#FFFFFF" points="0.533212698 19 5.06893867 22.2479603 8 24.3468683 7.4667873 25 4.53532383 22.901092 0 19.6531317"></polygon>
                <g id="Group" fill="#428DFF">
                    <path d="M3.04885862,20.6276723 C3.02108767,20.6367109 2.99450684,20.6496793 2.97010802,20.6659881 C2.9453125,20.6775811 2.9225006,20.6931039 2.90246582,20.7119671 C2.88104248,20.7314198 2.8610077,20.7522479 2.84275819,20.7744514 C2.77432248,20.8658199 2.74337771,20.9791955 2.75607302,21.0921781 C2.79336545,21.3248239 3.00839236,21.4877153 3.24484255,21.4625644 C3.3009796,21.4533294 3.35493468,21.4338767 3.40393066,21.4051889 C3.453125,21.3772872 3.49636838,21.3401503 3.53128049,21.2961362 C3.63819884,21.1581992 3.65049745,20.9699604 3.56242372,20.8194479 C3.47454834,20.6689355 3.30355838,20.5860161 3.12959288,20.6092021 L3.04885862,20.6276723 Z" id="Path"></path>
                    <path d="M15.3170929,17.0800192 C15.3244324,17.049563 15.3331604,17.0187138 15.3404999,16.9882576 L16.3934174,16.8198645 L24.2722473,20.9080656 L7.90838623,24.0705955 L4.82739258,21.7390279 C4.70440674,21.6458909 4.54055784,21.6248664 4.39753722,21.6838138 C4.2545166,21.7427613 4.15434266,21.8726421 4.13430784,22.0247265 C4.11427306,22.1768109 4.17774962,22.3279128 4.30093381,22.4210497 L7.53704834,24.8720841 C7.61282346,24.9286736 7.70506288,24.9589333 7.80007932,24.9583523 C7.82785037,24.9583523 7.85581971,24.955593 7.88319396,24.9502877 L25.6498871,21.5162066 C25.8303985,21.4814276 25.9690552,21.3373994 25.995636,21.1570202 C26.0222168,20.9768376 25.9309692,20.7996023 25.7681122,20.7149145 L16.6681519,15.9932249 C16.5852356,15.9503898 16.4904175,15.9354565 16.3981781,15.9501934 L15.5791321,16.0790918 C16.8877411,11.5778656 19.1463165,7.4032083 22.2052918,3.83099376 C22.4076233,3.5912742 22.613327,3.35371605 22.8227997,3.11851579 C23.2405548,2.65283104 23.6838989,2.21052877 24.1510468,1.79337746 C24.2008362,1.7505423 24.2758179,1.67233873 24.3676605,1.5788088 L24.4837036,1.45993149 C24.7332459,1.20842243 24.8018799,0.831355332 24.657074,0.509109356 C24.5194092,0.188042304 24.1946869,-0.0145403421 23.8427887,0.000982454728 C21.11409,0.0901895875 14.4300079,1.47545428 10.6019745,12.2840559 C9.11682129,11.396504 4.55603027,9.06473999 1.44825743,11.7578518 C1.31217958,11.8755502 1.2641754,12.0643785 1.32765196,12.2319857 C1.39112853,12.3993964 1.55279541,12.510414 1.73330686,12.510414 L1.73628234,12.510414 C1.90270996,12.5752562 2.06576541,12.6485475 2.22465516,12.7296985 L2.31451416,12.7725337 C2.93499756,13.0438883 3.53564453,13.3578817 4.11189269,13.7121557 C5.59188845,14.6061919 6.83226014,15.8407476 7.72767638,17.3108966 C7.73362733,17.3209177 7.73937988,17.3332967 7.74533084,17.3435142 L0.363998426,18.5252138 C0.127746582,18.5633331 -0.0325317383,18.7836001 0.00555419922,19.0176213 C0.0240020625,19.1254952 0.0835113398,19.222169 0.171981824,19.2876006 L1.54882812,20.3307737 C1.73886111,20.4748019 2.01081847,20.438844 2.15621951,20.2504087 C2.3016205,20.0621699 2.26531982,19.7925836 2.07528689,19.6485554 L1.49586486,19.2133269 L8.16090392,18.1446099 C8.17875673,18.1815503 8.19601443,18.2153468 8.21386719,18.2526801 C8.32177734,18.4776629 8.43444824,18.7120772 8.55564882,18.945902 L4.61236572,19.5811589 C4.44157411,19.6086676 4.30371094,19.7340292 4.26145936,19.900261 C4.21940614,20.0664927 4.28089904,20.2415666 4.41836545,20.345707 L7.97166444,23.0370504 C8.04664611,23.0942294 8.13868712,23.1252751 8.23330686,23.1254716 C8.26107791,23.1256681 8.28884885,23.1231137 8.31602479,23.1178084 L20.4711914,20.7693426 C20.6517029,20.7345636 20.7901611,20.5905354 20.8169403,20.4101562 C20.8435211,20.2299736 20.7522735,20.0527383 20.5894165,19.9680505 L16.3729858,17.7789392 C16.2898712,17.7359076 16.1948547,17.7207778 16.1022186,17.7359076 L15.1558228,17.889171 C15.1609802,17.8608762 15.1667328,17.831599 15.1718902,17.8033042 C15.2161255,17.5590653 15.2603607,17.3177738 15.3170929,17.0800192 L15.3170929,17.0800192 Z M4.5703125,12.9800286 C3.96034239,12.6055159 3.32458496,12.2738383 2.66760254,11.9875503 L2.62733458,11.9677047 C5.82695009,10.0847271 10.5386963,13.258064 10.5892792,13.29245 C10.7015533,13.3690817 10.8433838,13.3889273 10.9725189,13.3462887 C11.1016541,13.3034535 11.2030182,13.2030464 11.2462616,13.0751305 C14.8689881,2.30248682 21.2805176,0.94394492 23.8614349,0.861222032 L23.7414246,0.983832696 C23.6682281,1.05948189 23.6079254,1.12216268 23.5680542,1.15851358 C23.077301,1.59727897 22.6113434,2.06237425 22.1723633,2.55183446 C21.9583282,2.79233999 21.747467,3.03559638 21.5401764,3.28160367 C18.2516937,7.11672379 15.8711242,11.6320973 14.5730285,16.4966361 C14.5708466,16.5041027 14.5690613,16.5107835 14.567276,16.5182501 C14.5365295,16.6392888 14.5032043,16.7603276 14.4738465,16.8817593 C14.4135437,17.1328754 14.366333,17.3908687 14.3191223,17.6504339 C14.2782593,17.8742376 14.2371979,18.0935221 14.1889953,18.3059293 L14.1864166,18.3171293 C14.1003266,18.841958 13.8640747,19.3312217 13.5056305,19.727152 C12.9908752,20.2366543 12.17659,20.2388157 11.3698426,20.2366543 L11.2666931,20.2366543 C10.5299683,20.2366543 10.02771,19.7361906 9.61650087,19.0708705 C9.60836795,19.0545618 9.59884646,19.0388425 9.58793641,19.0241056 C9.37469482,18.6712069 9.18446349,18.2762591 8.99681093,17.8848481 C8.82046506,17.5170161 8.65403749,17.1694228 8.47074891,16.8666295 C7.50431825,15.2791751 6.16575624,13.9457841 4.56813048,12.9800286 L4.5703125,12.9800286 Z M16.0992432,18.6055788 L19.0939484,20.1602191 L8.34161377,22.2383127 L5.74165343,20.2688789 L9.02339171,19.7405134 C9.53854373,20.4942546 10.2266693,21.0951255 11.2666931,21.0951255 L11.4708099,21.0951255 C12.3348847,21.0951255 13.3774872,21.0685991 14.1193695,20.3333281 C14.5317688,19.9012434 14.8219757,19.3691446 14.960434,18.7906737 L16.0992432,18.6055788 Z" id="Shape"></path>
                    <path d="M15.3898926,8.16382671 C15.4539642,8.19958813 15.5263672,8.21805835 15.5999603,8.21786342 C15.7576599,8.21805835 15.9026642,8.13337052 15.9792328,7.99680895 C18.0422211,4.31907852 20.5291138,3.03834728 20.5616455,3.02144899 C20.7756806,2.91475412 20.861969,2.65636791 20.7542572,2.44435362 C20.6465454,2.23233934 20.3856964,2.14686559 20.1716614,2.25356041 C20.0607758,2.30857802 17.4264984,3.64648833 15.2198944,7.58044361 C15.1643524,7.68006479 15.151062,7.79756665 15.1829986,7.90701237 C15.2147369,8.01645815 15.2891235,8.1088091 15.3898926,8.16382671 Z" id="Path"></path>
                    <path d="M14.1062775,10.3213028 C14.2092285,10.3721941 14.3282471,10.3804467 14.4373474,10.3444888 C14.5464478,10.3083344 14.6365051,10.2309168 14.6878815,10.1289377 L15.121109,9.27046655 C15.2282257,9.05825578 15.1411438,8.80026253 14.9271088,8.69435362 C14.7128754,8.58844472 14.4524231,8.674508 14.3455048,8.88671876 L13.9120789,9.74518989 C13.8607025,9.84697243 13.8523712,9.96506383 13.8886719,10.0731341 C13.9251709,10.1810079 14.0033264,10.2704115 14.1062775,10.3213028 L14.1062775,10.3213028 Z" id="Path"></path>
                </g>
            </g>
        </g>
    </g>
</svg>