<?xml version="1.0" encoding="UTF-8"?>
<svg width="15px" height="18px" viewBox="0 0 15 18" version="1.1" xmlns="http://www.w3.org/2000/svg" xmlns:xlink="http://www.w3.org/1999/xlink">
    <!-- Generator: Sketch 61.2 (89653) - https://sketch.com -->
    <title>man (3) copyer</title>
    <desc>Created with Sketch.</desc>
    <g id="Page-1" stroke="none" stroke-width="1" fill="none" fill-rule="evenodd">
        <g id="Your-Income" transform="translate(-661.000000, -628.000000)" fill-rule="nonzero">
            <g id="man-(3)-copy" transform="translate(661.000000, 628.000000)">
                <g id="Icons" transform="translate(0.270703, 0.300000)">
                    <rect id="Rectangle-path" fill="#CAD9FC" x="0.029296875" y="4.2" width="14.4" height="13.2" rx="6.6"></rect>
                    <path d="M12.4042969,4.2 C13.0461075,4.22119758 13.5495075,4.75815759 13.5292969,5.4 L13.5292969,16.2 C13.5495075,16.8418424 13.0461075,17.3788024 12.4042969,17.4 L1.15429688,17.4 C0.512486292,17.3788024 0.00908628,16.8418424 0.029296875,16.2 L0.029296875,5.4 C0.00908628,4.75815759 0.512486292,4.22119758 1.15429688,4.2 L12.4042969,4.2 Z" id="Shape" fill="#E8EDFC"></path>
                    <path d="M11.7292969,4.5 C11.7286369,5.76978891 11.1915406,6.98019891 10.2504747,7.83270066 C9.30940877,8.68520241 8.05197371,9.10043949 6.78829688,8.976 C6.78229688,8.976 6.77629688,8.979 6.77029688,8.976 C4.47700928,8.73819801 2.7344348,6.80558406 2.7344348,4.5 C2.7344348,2.19441594 4.47700928,0.261801993 6.77029688,0.024 C6.77629688,0.021 6.78229688,0.024 6.78829688,0.024 C8.05197371,-0.100439502 9.30940877,0.314797596 10.2504747,1.16729934 C11.1915406,2.01980109 11.7286369,3.23021109 11.7292969,4.5 Z" id="Shape" fill="#E8EDFC"></path>
                    <g id="Group" transform="translate(1.829297, 0.000000)" fill="#FFFFFF">
                        <path d="M9,4.5 C8.99806467,6.80671713 7.25351673,8.73905976 4.959,8.976 C4.953,8.976 4.947,8.979 4.941,8.976 C2.6477124,8.73819801 0.90513792,6.80558406 0.90513792,4.5 C0.90513792,2.19441594 2.6477124,0.261801993 4.941,0.024 C4.947,0.021 4.953,0.024 4.959,0.024 C7.25351673,0.26094024 8.99806467,2.19328286 9,4.5 Z" id="Shape"></path>
                        <path d="M3.6,15.9 L0.9,15.9 C0.402943725,15.9 0,15.4970563 0,15 C0,14.5029437 0.402943725,14.1 0.9,14.1 L3.6,14.1 C4.09705626,14.1 4.5,14.5029437 4.5,15 C4.5,15.4970563 4.09705626,15.9 3.6,15.9 Z" id="Shape"></path>
                        <path d="M9.9,15.9 L7.2,15.9 C6.70294374,15.9 6.3,15.4970563 6.3,15 C6.3,14.5029437 6.70294374,14.1 7.2,14.1 L9.9,14.1 C10.3970563,14.1 10.8,14.5029437 10.8,15 C10.8,15.4970563 10.3970563,15.9 9.9,15.9 Z" id="Shape"></path>
                    </g>
                    <path d="M9.87529688,8.139 C8.3037631,9.28418196 6.17372773,9.28781478 4.59829687,8.148 L6.00229687,7.638 C6.22397059,7.56278766 6.37420484,7.35606531 6.37729687,7.122 L6.37729687,6.846 C6.37789168,6.68805066 6.30738202,6.53821758 6.18529687,6.438 C5.82983828,6.1602708 5.63084518,5.7276285 5.65129687,5.277 C5.6507093,5.25994371 5.65171363,5.24286978 5.65429688,5.226 L5.50429687,5.226 C5.2704644,5.23021842 5.07664421,5.04575511 5.06929688,4.812 L5.06929688,4.395 C5.0763238,4.16110167 5.27033717,3.97645449 5.50429687,3.981 C5.2385212,3.6208656 5.08698083,3.18923682 5.06929688,2.742 C5.06929688,2.0334 5.06929688,1.9368 5.36029687,1.5 C5.52777865,1.81422241 5.88082375,1.98222318 6.23029687,1.914 C6.81229687,1.776 6.95929687,1.638 7.82929688,1.638 C8.55229687,1.638 8.98729687,1.914 8.98729687,2.466 C9.19089583,2.66526937 9.30589652,2.93798415 9.30646064,3.22287096 C9.30702478,3.50775777 9.19310507,3.78092586 8.99029687,3.981 C9.00547339,3.98131953 9.02056681,3.98333199 9.03529688,3.987 C9.08942545,3.99135558 9.14229817,4.00559055 9.19129687,4.029 C9.19295371,4.029 9.19429687,4.03034316 9.19429687,4.032 C9.33502048,4.09814199 9.42498061,4.2395079 9.42529688,4.395 L9.42529688,4.812 C9.41794955,5.04575511 9.22412935,5.23021842 8.99029688,5.226 L8.84329688,5.226 C8.87862472,5.69312514 8.67964454,6.14729457 8.31229688,6.438 C8.18801237,6.53648958 8.11696868,6.68745741 8.12029688,6.846 L8.12029688,7.122 C8.1220475,7.35557478 8.27124499,7.56252612 8.49229688,7.638 L9.87529688,8.139 Z" id="Shape" fill="#E8EDFC"></path>
                </g>
                <g id="Icons_copy_2" transform="translate(0.270703, 0.292969)" fill="#FFFFFF">
                    <path d="M1.22929688,17.4070313 L2.12929688,17.4070313 C1.80809829,17.4169525 1.49707517,17.293713 1.26984516,17.066483 C1.04261514,16.839253 0.919375653,16.5282298 0.929296875,16.2070312 L0.929296875,5.40703125 C0.90908628,4.76518884 1.41248629,4.22822883 2.05429688,4.20703125 L1.15429688,4.20703125 C0.512486292,4.22822883 0.00908628,4.76518884 0.029296875,5.40703125 L0.029296875,16.2070312 C0.019375653,16.5282298 0.14261514,16.839253 0.369845157,17.066483 C0.597075174,17.293713 0.90809829,17.4169525 1.22929688,17.4070313 Z" id="Shape"></path>
                    <path d="M6.77029687,0.03103125 C4.59052145,0.257408976 2.89040987,2.02046888 2.74339688,4.20703125 L3.64339688,4.20703125 C3.79040986,2.02046888 5.49052144,0.257408976 7.67029687,0.03103125 C7.67629687,0.02803125 7.68229687,0.03103125 7.68829687,0.03103125 C7.70569687,0.02893125 7.72309687,0.02923125 7.74049687,0.02743125 C7.42404565,-0.008562645 7.10446687,-0.007354407 6.78829687,0.03103125 C6.78229687,0.03103125 6.77629687,0.02803125 6.77029687,0.03103125 Z" id="Shape"></path>
                </g>
                <polygon id="Rectangle-path" fill="#FFFFFF" points="0 5.7 0.6 5.7 0.6 8.1 0 8.1"></polygon>
                <g id="Group" fill="#428DFF">
                    <path d="M-2.13162821e-15,16.5 C0.000991836,17.328016 0.671984055,17.9990082 1.5,18 L13.5,18 C14.328016,17.9990082 14.9990082,17.328016 15,16.5 L15,5.7 C14.9990082,4.87198404 14.328016,4.20099183 13.5,4.2 L12.2583,4.2 C11.9577092,1.80079177 9.91796505,0.000655482 7.5,0.000655482 C5.08203495,0.000655482 3.04229079,1.80079177 2.7417,4.2 L1.5,4.2 C0.671984055,4.20099183 0.000991836,4.87198404 -2.13162821e-15,5.7 C-2.13162821e-15,5.86568541 0.134314575,6 0.3,6 C0.465685425,6 0.6,5.86568541 0.6,5.7 C0.6,5.20294374 1.00294372,4.8 1.5,4.8 L2.7,4.8 C2.70098517,6.33073845 3.43331571,7.76886663 4.6707,8.67 C4.68559134,8.68362975 4.70176671,8.69578641 4.719,8.7063 C6.37790829,9.89781747 8.6115495,9.90010986 10.2729,8.712 C10.3091279,8.6949069 10.3415658,8.67073152 10.3683,8.6409 C11.5827152,7.73757075 12.298901,6.31354113 12.3,4.8 L13.5,4.8 C13.9970563,4.8 14.4,5.20294374 14.4,5.7 L14.4,16.5 C14.4,16.9970563 13.9970563,17.4 13.5,17.4 L1.5,17.4 C1.00294372,17.4 0.6,16.9970563 0.6,16.5 L0.6,8.1 C0.6,7.93431459 0.465685425,7.8 0.3,7.8 C0.134314575,7.8 -2.13162821e-15,7.93431459 -2.13162821e-15,8.1 L-2.13162821e-15,16.5 Z M5.5539,8.52 L6.3747,8.2218 C6.71516409,8.10253722 6.94440291,7.78273047 6.948,7.422 C6.948,7.116 6.9834,6.7761 6.6438,6.504 C6.35998764,6.28532829 6.20137959,5.94143463 6.2193,5.5836 C6.2365827,5.49559032 6.2135811,5.40446436 6.1566,5.3352 C6.0492,5.2047 5.9166,5.226 5.775,5.226 C5.70690237,5.22977298 5.64768555,5.17976766 5.64,5.112 L5.64,4.695 C5.64810729,4.62745887 5.70705504,4.57768074 5.775,4.581 C5.89001832,4.58104581 5.9949375,4.51532727 6.04509345,4.41182073 C6.09524937,4.30831422 6.08181138,4.1852436 6.0105,4.095 C5.78724534,3.78748893 5.65849164,3.42155733 5.64,3.042 C5.62248756,2.79839199 5.63904717,2.55353189 5.6892,2.3145 C6.1311,2.6532 6.4992,2.5365 6.9825,2.3934 C7.34285946,2.2758372 7.72123686,2.22321989 8.1,2.238 C8.958,2.238 8.958,2.6352 8.958,2.766 C8.95831074,2.84696948 8.99066919,2.92452193 9.048,2.9817 C9.19971456,3.12561531 9.28445622,3.32633586 9.28177914,3.53543334 C9.27910206,3.74453082 9.18924933,3.94301604 9.0339,4.083 C8.9519508,4.16541249 8.92696356,4.28871537 8.97036342,4.39652976 C9.01376328,4.50434418 9.11720853,4.57594752 9.2334,4.5786 C9.26229672,4.58179584 9.29088915,4.58731368 9.3189,4.5951 C9.4197,4.6485 9.3945,4.6446 9.3945,5.112 C9.38681445,5.17976766 9.32759763,5.22977298 9.2595,5.226 L9.1125,5.226 C8.94681459,5.226 8.8125,5.36031459 8.8125,5.526 C8.84832972,5.90097468 8.69154735,6.26853219 8.3961,6.5022 C8.052,6.7722 8.0895,7.1247 8.0895,7.422 C8.08968294,7.78240044 8.31864,8.10294033 8.6595,8.22 L9.4614,8.5107 C8.24077851,9.16057449 6.77760111,9.16405692 5.5539,8.52 L5.5539,8.52 Z M10.0902,8.1 L8.8644,7.656 C8.7626949,7.62302415 8.6930775,7.52919723 8.691,7.4223 C8.691,7.1256 8.6745,7.0482 8.7684,6.9741 C9.13527084,6.69492534 9.36582159,6.27266721 9.4023,5.8131 C9.74295828,5.75242233 9.99227871,5.45799999 9.996,5.112 C9.996,4.7064 10.0491,4.392 9.7233,4.1406 C9.98599359,3.6540708 9.9176226,3.0553755 9.552,2.6406 C9.4911,2.01 8.958,1.638 8.1,1.638 C7.53160464,1.63608456 6.96713511,1.73219255 6.4314,1.9221 C6.21484509,1.96180721 5.9977617,1.85539617 5.8965,1.6599 C5.8472283,1.56625867 5.75227005,1.50549907 5.6466,1.5 C5.50819692,1.50195514 5.38372356,1.58466365 5.3283,1.7115 C5.04,2.1564 5.04,2.3976 5.04,3.042 C5.04797976,3.42217386 5.14672377,3.79493247 5.328,4.1292 C5.14763073,4.26139245 5.04074583,4.47137673 5.04,4.695 L5.04,5.112 C5.04389127,5.457981 5.2933326,5.75227137 5.634,5.8128 C5.67435363,6.27120255 5.90505393,6.69168648 6.27,6.972 C6.3654,7.0482 6.3495,7.1262 6.3495,7.422 C6.34630203,7.52987946 6.27515049,7.62390546 6.1722,7.6563 L4.9245,8.1093 C3.5084376,7.00905759 2.94712963,5.13110928 3.52715382,3.43424805 C4.10717799,1.73738682 5.70057321,0.595963059 7.49382603,0.592727735 C9.28707885,0.589506141 10.8845736,1.72518522 11.4707039,3.41994699 C12.0568341,5.11470876 11.5022916,6.99466596 10.0902,8.1 Z" id="Shape"></path>
                    <path d="M0.306,7.2 C0.140314575,7.2 0.006,7.06568541 0.006,6.9 C0.006,6.73431459 0.140314575,6.6 0.306,6.6 C0.471685425,6.6 0.606,6.73431459 0.606,6.9 C0.606,7.06568541 0.471685425,7.2 0.306,7.2 Z" id="Shape"></path>
                    <path d="M2.1,11.4 L3.9,11.4 C4.06568541,11.4 4.2,11.2656854 4.2,11.1 C4.2,10.9343146 4.06568541,10.8 3.9,10.8 L2.1,10.8 C1.93431457,10.8 1.8,10.9343146 1.8,11.1 C1.8,11.2656854 1.93431457,11.4 2.1,11.4 Z" id="Shape"></path>
                    <path d="M12.9,11.4 C13.0656854,11.4 13.2,11.2656854 13.2,11.1 C13.2,10.9343146 13.0656854,10.8 12.9,10.8 L5.1,10.8 C4.93431459,10.8 4.8,10.9343146 4.8,11.1 C4.8,11.2656854 4.93431459,11.4 5.1,11.4 L12.9,11.4 Z" id="Shape"></path>
                    <path d="M2.1,12.6 L12.9,12.6 C13.0656854,12.6 13.2,12.4656854 13.2,12.3 C13.2,12.1343146 13.0656854,12 12.9,12 L2.1,12 C1.93431457,12 1.8,12.1343146 1.8,12.3 C1.8,12.4656854 1.93431457,12.6 2.1,12.6 Z" id="Shape"></path>
                    <path d="M3,16.5 L5.7,16.5 C6.3627417,16.5 6.9,15.9627417 6.9,15.3 C6.9,14.6372583 6.3627417,14.1 5.7,14.1 L3,14.1 C2.3372583,14.1 1.8,14.6372583 1.8,15.3 C1.8,15.9627417 2.3372583,16.5 3,16.5 Z M3,14.7 L5.7,14.7 C6.03137085,14.7 6.3,14.9686291 6.3,15.3 C6.3,15.6313708 6.03137085,15.9 5.7,15.9 L3,15.9 C2.66862915,15.9 2.4,15.6313708 2.4,15.3 C2.4,14.9686291 2.66862915,14.7 3,14.7 Z" id="Shape"></path>
                    <path d="M12,14.1 L9.3,14.1 C8.6372583,14.1 8.1,14.6372583 8.1,15.3 C8.1,15.9627417 8.6372583,16.5 9.3,16.5 L12,16.5 C12.6627417,16.5 13.2,15.9627417 13.2,15.3 C13.2,14.6372583 12.6627417,14.1 12,14.1 Z M12,15.9 L9.3,15.9 C8.96862915,15.9 8.7,15.6313708 8.7,15.3 C8.7,14.9686291 8.96862915,14.7 9.3,14.7 L12,14.7 C12.3313708,14.7 12.6,14.9686291 12.6,15.3 C12.6,15.6313708 12.3313708,15.9 12,15.9 Z" id="Shape"></path>
                </g>
            </g>
        </g>
    </g>
</svg>