<?xml version="1.0" encoding="UTF-8"?>
<svg width="15px" height="13px" viewBox="0 0 15 13" version="1.1" xmlns="http://www.w3.org/2000/svg" xmlns:xlink="http://www.w3.org/1999/xlink">
    <!-- Generator: Sketch 61.2 (89653) - https://sketch.com -->
    <title>viewne</title>
    <desc>Created with Sketch.</desc>
    <g id="Page-1" stroke="none" stroke-width="1" fill="none" fill-rule="evenodd">
        <g id="Contact-Details" transform="translate(-657.000000, -696.000000)" fill-rule="nonzero">
            <g id="view" transform="translate(657.000000, 696.000000)">
                <path d="M14.3010682,7.56055184 C14.8611909,6.95454537 14.8611909,6.03981471 14.3010682,5.43380824 C13.0130838,4.01646045 10.4441014,1.68445409 7.48538012,1.68445409 C4.52665887,1.68445409 1.95767641,4.01646045 0.669692008,5.43380824 C0.109569365,6.03981471 0.109569365,6.95454537 0.669692008,7.56055184 C1.95767641,8.97789964 4.52665887,11.309906 7.48538012,11.309906 C10.4441014,11.309906 13.0130838,8.97789964 14.3010682,7.56055184 Z" id="Shape" fill="#E8EDFC"></path>
                <path d="M14.3010682,5.43380824 C13.0130838,4.01646045 10.4441014,1.68445409 7.48538012,1.68445409 C7.36062378,1.68445409 7.23586745,1.69022936 7.11111111,1.69817035 C9.9111423,1.88225712 12.3191891,4.07661952 13.5525302,5.43380824 C14.1126528,6.03981471 14.1126528,6.95454537 13.5525302,7.56055184 C12.3191891,8.91774056 9.9111423,11.112103 7.11111111,11.2961897 C7.23586745,11.3041307 7.36062378,11.309906 7.48538012,11.309906 C10.4441014,11.309906 13.0130838,8.97789964 14.3010682,7.56055184 C14.8611909,6.95454537 14.8611909,6.03981471 14.3010682,5.43380824 Z" id="Shape" fill="#CAD9FC"></path>
                <ellipse id="Oval" fill="#A4C2F7" cx="7.48538012" cy="6.49718004" rx="3.74269006" ry="3.60954447"></ellipse>
                <path d="M7.48538012,2.88763557 C7.35912671,2.88763557 7.23412086,2.89413275 7.11111111,2.90592393 C9.02270124,3.09221613 10.4775228,4.64420602 10.4775228,6.49718004 C10.4775228,8.35015406 9.02270124,9.90214395 7.11111111,10.0884362 C7.23412086,10.1002273 7.35912671,10.1067245 7.48538012,10.1067245 C9.55241075,10.1067245 11.2280702,8.4906764 11.2280702,6.49718004 C11.2280702,4.50368369 9.55241075,2.88763557 7.48538012,2.88763557 Z" id="Shape" fill="#7FACFA"></path>
                <ellipse id="Oval" fill="#7FACFA" cx="7.48538012" cy="6.49718004" rx="1" ry="1"></ellipse>
                <path d="M0.669692008,7.56055184 C2.45695127,9.52703167 5.03042495,11.4347962 7.76159064,11.3031682 C7.79801949,11.3014837 7.83394932,11.2959491 7.87037817,11.2935427 C5.3799922,11.1313539 3.06501365,9.3727838 1.41823002,7.56055184 C0.858107374,6.95454537 0.858107374,6.03981471 1.41823002,5.43380824 C3.11042495,3.57176457 5.39870565,1.86132176 7.87861209,1.70057672 C5.11351267,1.52106204 2.53080702,3.3850308 0.669692008,5.43380824 C0.109569365,6.03981471 0.109569365,6.95454537 0.669692008,7.56055184 Z" id="Shape" fill="#FFFFFF"></path>
                <path d="M1.90777388,3.88747939 L2.23962573,4.24699002 C1.75126961,4.66828465 1.28966714,5.11756392 0.857325536,5.59238756 L0.48305653,5.27522892 C0.928583802,4.78542649 1.40435439,4.32200095 1.90777388,3.88747939 Z" id="Shape" fill="#FFFFFF"></path>
                <g id="Group" fill="#428DFF">
                    <path d="M1.35385575,4.96938321 C1.26471346,4.96981004 1.1821048,4.92434222 1.13714766,4.85010402 C1.09219052,4.77586582 1.09171495,4.68413579 1.1359001,4.60946772 C1.18008524,4.53479967 1.26221833,4.48853744 1.35136062,4.48810759 L1.35385575,4.48810759 C1.49165779,4.48810759 1.60336842,4.59584414 1.60336842,4.72874389 C1.60336842,4.86164364 1.49165779,4.96938321 1.35385575,4.96938321 Z" id="Shape"></path>
                    <path d="M7.48538012,11.5505423 C10.5486472,11.5505423 13.1879922,9.14995459 14.4887018,7.71913116 C15.13217,7.02268383 15.13217,5.97167626 14.4887018,5.27522892 C13.1879922,3.8444055 10.5486472,1.44381779 7.48538012,1.44381779 C6.42963509,1.46601745 5.39312281,1.72068041 4.45504873,2.18834649 C4.21726316,2.29278265 3.99719298,2.42633579 3.76938791,2.54713521 C3.55181287,2.68309472 3.32775049,2.81039132 3.12065497,2.95862328 C2.69743615,3.24412408 2.29271954,3.5543219 1.90877193,3.88747939 C1.85858798,3.92960521 1.82816759,3.98948911 1.82440948,4.05355066 C1.82065137,4.11761218 1.84387399,4.18042309 1.88881092,4.22773912 C1.98122868,4.3251787 2.13737108,4.33372268 2.24062378,4.24699002 C2.61015437,3.92623483 2.99970752,3.62760764 3.40709552,3.35278554 C3.60670565,3.21008821 3.8202885,3.08952943 4.02763353,2.95934519 C4.24396101,2.84528359 4.45355166,2.71750571 4.67636647,2.61956674 C5.54565696,2.18480958 6.50642556,1.94727742 7.48538012,1.92509038 C10.3520312,1.92509038 12.868616,4.22292639 14.1134347,5.59238756 C14.5899858,6.10803614 14.5899858,6.88632395 14.1134347,7.40197252 C12.868616,8.77143369 10.3520312,11.0692697 7.48538012,11.0692697 C4.61872904,11.0692697 2.10214425,8.77143369 0.857325536,7.40197252 C0.380774425,6.88632395 0.380774425,6.10803614 0.857325536,5.59238756 C0.938874109,5.49191219 0.924928097,5.34751737 0.825541048,5.26329596 C0.726153998,5.17907456 0.575882796,5.18431034 0.48305653,5.27522892 C-0.160411736,5.97167626 -0.160411736,7.02268383 0.48305653,7.71913116 C1.78276803,9.14995459 4.42211306,11.5505423 7.48538012,11.5505423 L7.48538012,11.5505423 Z" id="Shape"></path>
                    <path d="M10.6042885,8.50745568 C10.6616265,8.53934461 10.729753,8.54795515 10.793675,8.53139235 C10.857597,8.51482952 10.9120761,8.47445068 10.9451228,8.41914215 C11.9681572,6.70731372 11.4815827,4.52650388 9.81902272,3.37200109 C8.15646273,2.21749832 5.85762612,2.4640833 4.49872727,3.94268319 C3.13982842,5.4212831 3.16200017,7.65190715 4.55004025,9.10511142 C5.93808034,10.5583157 8.241396,10.7623534 9.88070175,9.57732466 C9.95201559,9.525742 9.98937817,9.44138567 9.9787154,9.35603186 C9.96805262,9.27067802 9.91098441,9.19729398 9.82900779,9.16352282 C9.74703118,9.12975163 9.65260039,9.14072393 9.58128655,9.19230658 C8.97773519,9.63169417 8.24157839,9.86835022 7.48538012,9.86608821 C5.90544465,9.86553966 4.52272999,8.84196126 4.11373686,7.37017104 C3.70474372,5.89838082 4.37138232,4.34510969 5.73928371,3.58263897 C7.1071851,2.82016823 8.83550478,3.03848527 9.95365819,4.11498828 C11.0718116,5.19149127 11.3011847,6.85794436 10.5129669,8.17850586 C10.4798017,8.23379659 10.4707912,8.29953576 10.4879208,8.36123832 C10.5050504,8.42294089 10.5469145,8.4755435 10.6042885,8.50745568 L10.6042885,8.50745568 Z" id="Shape"></path>
                    <path d="M4.91190643,5.54377903 C4.84821303,5.52644776 4.77998941,5.53423029 4.72224616,5.56541435 C4.66450292,5.59659841 4.62197084,5.64862913 4.6040078,5.71005871 C4.52902215,5.96617433 4.4910704,6.23105021 4.49122758,6.49718004 C4.49122758,6.63007979 4.60293871,6.73781634 4.74074074,6.73781634 C4.87854277,6.73781634 4.99025341,6.63007979 4.99025341,6.49718004 C4.99020144,6.27517104 5.02176871,6.05420719 5.08407018,5.84048359 C5.12134986,5.7127157 5.04431979,5.57996313 4.91190643,5.54377903 L4.91190643,5.54377903 Z" id="Shape"></path>
                    <path d="M7.73489279,3.85018077 C7.73489279,3.71728102 7.62318215,3.60954447 7.48538012,3.60954447 C6.66054971,3.6063974 5.87159604,3.9345718 5.30788304,4.51529949 C5.21556283,4.61222171 5.2211061,4.76269259 5.32032566,4.85305172 C5.41954523,4.94341084 5.57562798,4.94013253 5.67067446,4.84569313 C6.14053327,4.36180677 6.79799439,4.08831796 7.48538012,4.09081706 C7.62318215,4.09081706 7.73489279,3.98308051 7.73489279,3.85018077 Z" id="Shape"></path>
                    <path d="M7.48538012,7.70036153 C8.17439032,7.70036153 8.73294347,7.16167882 8.73294347,6.49718004 C8.73294347,5.83268127 8.17439032,5.29399855 7.48538012,5.29399855 C6.79636992,5.29399855 6.23781676,5.83268127 6.23781676,6.49718004 C6.23864168,7.16134903 6.79671187,7.69956597 7.48538012,7.70036153 Z M7.48538012,5.77527115 C7.89878623,5.77527115 8.23391813,6.09848078 8.23391813,6.49718004 C8.23391813,6.8958793 7.89878623,7.21908894 7.48538012,7.21908894 C7.071974,7.21908894 6.73684211,6.8958793 6.73684211,6.49718004 C6.73684211,6.09848078 7.071974,5.77527115 7.48538012,5.77527115 Z" id="Shape"></path>
                    <path d="M1.92299415,3.29840174 C2.02039939,3.20443329 2.02039939,3.05211046 1.92299415,2.95814201 L1.42396881,2.47686941 C1.32606531,2.38567494 1.17044278,2.38697915 1.07419731,2.4798007 C0.977951845,2.57262225 0.976599527,2.72270853 1.07115789,2.81712914 L1.57018324,3.29840174 C1.6676179,3.39234179 1.82555949,3.39234179 1.92299415,3.29840174 Z" id="Shape"></path>
                    <path d="M3.88067057,0.747175705 C3.82142416,0.775683389 3.77635576,0.825732734 3.75538995,0.886302334 C3.73442413,0.946871934 3.73928024,1.01299468 3.76888889,1.07010962 L4.01840156,1.55138221 C4.05824816,1.62832632 4.13763131,1.67892394 4.22664818,1.68411545 C4.31566502,1.68930695 4.40079178,1.64830362 4.44996202,1.57655102 C4.49913226,1.50479842 4.50487584,1.41319747 4.46502924,1.33625336 L4.21551657,0.854980766 C4.18595733,0.797842029 4.13406181,0.754376944 4.07125797,0.734156988 C4.00845414,0.713937032 3.93989232,0.718620377 3.88067057,0.747175705 Z" id="Shape"></path>
                    <path d="M13.2241715,3.36890817 C13.290341,3.36889455 13.3537952,3.34353293 13.400577,3.29840174 L13.8996023,2.81712914 C13.9941607,2.72270853 13.9928084,2.57262225 13.8965629,2.4798007 C13.8003175,2.38697915 13.6446949,2.38567494 13.5467914,2.47686941 L13.0477661,2.95814201 C12.9764284,3.02696262 12.9550916,3.13044641 12.9937022,3.22035246 C13.0323127,3.31025849 13.1232696,3.3688874 13.2241715,3.36890817 Z" id="Shape"></path>
                    <path d="M11.0900897,0.747175705 C11.0308679,0.718620377 10.9623061,0.713937032 10.8995023,0.734156988 C10.8366984,0.754376944 10.7848029,0.797842029 10.7552437,0.854980766 L10.505731,1.33625336 C10.4658844,1.41319747 10.471628,1.50479842 10.5207982,1.57655102 C10.5699685,1.64830362 10.6550952,1.68930695 10.7441121,1.68411545 C10.8331289,1.67892394 10.9125121,1.62832632 10.9523587,1.55138221 L11.2018713,1.07010962 C11.23148,1.01299468 11.2363361,0.946871934 11.2153703,0.886302334 C11.1944045,0.825732734 11.1493361,0.775683389 11.0900897,0.747175705 L11.0900897,0.747175705 Z" id="Shape"></path>
                    <path d="M7.23586745,0.240636298 L7.23586745,0.721908894 C7.23586745,0.854808651 7.34757809,0.962545192 7.48538012,0.962545192 C7.62318215,0.962545192 7.73489279,0.854808651 7.73489279,0.721908894 L7.73489279,0.240636298 C7.73489279,0.10773654 7.62318215,0 7.48538012,0 C7.34757809,0 7.23586745,0.10773654 7.23586745,0.240636298 Z" id="Shape"></path>
                    <path d="M1.24756335,10.5879971 C1.31373282,10.5879835 1.377187,10.5626219 1.42396881,10.5174907 L1.92299415,10.0362181 C2.01755252,9.94179747 2.0162002,9.79171119 1.91995473,9.69888964 C1.82370926,9.60606808 1.66808674,9.60476388 1.57018324,9.69595835 L1.07115789,10.1772309 C0.999820246,10.2460516 0.978483422,10.3495353 1.01709399,10.4394414 C1.05570456,10.5293474 1.14666145,10.5879763 1.24756335,10.5879971 L1.24756335,10.5879971 Z" id="Shape"></path>
                    <path d="M3.99220273,12.2724548 C4.08722354,12.2729514 4.17429061,12.2213567 4.21676413,12.1393793 L4.4662768,11.6581067 C4.52787432,11.5391614 4.47782797,11.394579 4.35449513,11.3351728 C4.23116229,11.2757666 4.08124664,11.3240326 4.01964912,11.4429779 L3.77013645,11.9242505 C3.73157539,11.9986713 3.73560899,12.0870225 3.78080294,12.1578868 C3.82599687,12.2287511 3.90593924,12.2720744 3.99220273,12.2724548 L3.99220273,12.2724548 Z" id="Shape"></path>
                    <path d="M13.7231969,10.5879971 C13.8240988,10.5879763 13.9150557,10.5293474 13.9536662,10.4394414 C13.9922768,10.3495353 13.97094,10.2460516 13.8996023,10.1772309 L13.400577,9.69595835 C13.3026735,9.60476388 13.147051,9.60606808 13.0508055,9.69888964 C12.95456,9.79171119 12.9532077,9.94179747 13.0477661,10.0362181 L13.5467914,10.5174907 C13.5935732,10.5626219 13.6570274,10.5879835 13.7231969,10.5879971 Z" id="Shape"></path>
                    <path d="M10.9785575,12.2724515 C11.0649987,12.2724067 11.1452578,12.2292166 11.1906918,12.1582947 C11.2361258,12.0873728 11.2402611,11.9988243 11.2016218,11.9242505 L10.9521092,11.4429779 C10.8905116,11.3240326 10.740596,11.2757666 10.6172632,11.3351728 C10.4939303,11.394579 10.443884,11.5391614 10.5054815,11.6581067 L10.7549942,12.1393793 C10.7973079,12.2210451 10.8838959,12.272585 10.9785575,12.2724515 L10.9785575,12.2724515 Z" id="Shape"></path>
                    <path d="M7.73489279,12.7537238 L7.73489279,12.2724512 C7.73489279,12.1395514 7.62318215,12.0318149 7.48538012,12.0318149 C7.34757809,12.0318149 7.23586745,12.1395514 7.23586745,12.2724512 L7.23586745,12.7537238 C7.23586745,12.8866235 7.34757809,12.9943601 7.48538012,12.9943601 C7.62318215,12.9943601 7.73489279,12.8866235 7.73489279,12.7537238 Z" id="Shape"></path>
                </g>
            </g>
        </g>
    </g>
</svg>